<svg width="95" height="129" viewBox="0 0 95 129" fill="none" xmlns="http://www.w3.org/2000/svg">
<path d="M1.10741 50.3607C1.10741 52.8831 1.29531 55.3615 1.65784 57.7826C16.261 59.938 36.1585 57.4291 53.8934 51.4227C62.7954 48.4079 71.1428 44.515 77.9953 39.8967C84.8018 35.3093 90.1188 30.0161 93.0496 24.1705C84.2817 10.0582 68.6404 0.663086 50.805 0.663086C23.3578 0.663086 1.10741 22.9135 1.10741 50.3607Z" fill="url(#paint0_radial_22316_2784)" fill-opacity="0.27" stroke="white" stroke-width="0.5"/>
<path fill-rule="evenodd" clip-rule="evenodd" d="M85.3003 83.7527L91.4356 106.589L74.6727 123.241L68.5456 100.435L45.5958 94.4196L62.3391 77.333L85.3003 83.7527Z" fill="url(#paint1_radial_22316_2784)" fill-opacity="0.27"/>
<path d="M51.7311 117.256L45.5958 94.4196L68.5456 100.435L74.6727 123.241L51.7311 117.256Z" fill="url(#paint2_radial_22316_2784)" fill-opacity="0.12"/>
<path d="M62.4142 77.6136L46.0758 94.287L68.609 100.193L68.7494 100.23L68.787 100.37L74.8023 122.76L91.1565 106.514L85.0958 83.9551L62.4142 77.6136ZM51.9348 117.051L74.3197 122.89L68.3418 100.64L45.949 94.7706L51.9348 117.051Z" stroke="#B4F9BA" stroke-width="0.5"/>
<path d="M93.064 24.8057L65.7716 89.2734L1.7321 58.1586" stroke="white" stroke-width="0.5"/>
<defs>
<radialGradient id="paint0_radial_22316_2784" cx="0" cy="0" r="1" gradientUnits="userSpaceOnUse" gradientTransform="translate(32.6453 25.9273) rotate(-0.707319) scale(56.7651 56.7651)">
<stop stop-color="#D1D1D1"/>
<stop offset="1" stop-color="#969696"/>
</radialGradient>
<radialGradient id="paint1_radial_22316_2784" cx="0" cy="0" r="1" gradientUnits="userSpaceOnUse" gradientTransform="translate(73.6507 84.8435) rotate(80.8791) scale(71.5299 40.0324)">
<stop stop-color="#A3F5AA"/>
<stop offset="0.4" stop-color="#82D289"/>
<stop offset="0.835" stop-color="#66AB6C"/>
<stop offset="1" stop-color="#386A3C"/>
</radialGradient>
<radialGradient id="paint2_radial_22316_2784" cx="0" cy="0" r="1" gradientUnits="userSpaceOnUse" gradientTransform="translate(73.6507 84.8435) rotate(80.8791) scale(71.5299 40.0324)">
<stop stop-color="#F2F2F2"/>
<stop offset="0.4" stop-color="#82D289"/>
<stop offset="0.835" stop-color="#66AB6C"/>
<stop offset="1" stop-color="#386A3C"/>
</radialGradient>
</defs>
</svg>
