<svg width="523" height="736" viewBox="0 0 523 736" fill="none" xmlns="http://www.w3.org/2000/svg">
<path d="M115.756 167.744C163.391 64.3317 241.548 6.06666 311.743 8.09541C215.335 -17.8579 95.9453 24.3734 30.2546 151.061C35.4824 145.291 69.1462 151.922 115.756 167.744Z" fill="url(#paint0_linear_23812_6)"/>
<path d="M279.982 223.529C311.378 145.553 330.233 101.924 368.09 24.3731C350.501 13.979 331.435 8.66456 311.743 8.09541C241.548 6.06666 163.391 64.3317 115.756 167.744C122.837 167.198 130.458 167.427 138.512 168.344C179.214 172.975 230.987 195.156 279.982 223.529Z" fill="url(#paint1_linear_23812_6)"/>
<path d="M368.09 24.3731C330.233 101.924 311.378 145.553 279.982 223.529C347.106 247.347 385.791 262.831 418.059 294.034C422.535 298.362 426.887 302.992 431.174 307.988C491.207 183.008 465.89 70.7128 368.09 24.3731Z" fill="url(#paint2_linear_23812_6)"/>
<path d="M368.09 24.3731C465.89 70.7128 491.207 183.008 431.174 307.988C455.865 320.98 472.629 331.145 483.717 339.028C498.391 349.461 503.121 355.898 503.121 359.602C569.201 157.69 451.189 62.1376 368.09 24.3731Z" fill="url(#paint3_linear_23812_6)"/>
<path d="M474.814 364.816C492.27 366.347 498.614 365.698 503.121 359.602C503.121 355.898 498.391 349.461 483.717 339.028L474.814 364.816Z" fill="url(#paint4_linear_23812_6)"/>
<path d="M474.814 364.816C491.949 385.479 484.414 392.149 449.539 382.922L474.814 364.816Z" fill="url(#paint5_linear_23812_6)"/>
<path d="M483.717 339.028C472.629 331.145 455.865 320.98 431.174 307.988L406.269 332.288L396.243 364.816C418.254 373.333 435.967 379.331 449.539 382.922L474.814 364.816L483.717 339.028Z" fill="url(#paint6_linear_23812_6)"/>
<path d="M245.573 311.116C300.845 344.458 332.868 357.407 375.03 362.768L406.269 332.288L418.059 294.034C385.791 262.831 347.106 247.347 279.982 223.529L240.951 309.64C242.473 310.129 244.014 310.621 245.573 311.116Z" fill="url(#paint7_linear_23812_6)"/>
<path d="M431.174 307.988C426.887 302.992 422.535 298.362 418.059 294.034L406.269 332.288L431.174 307.988Z" fill="url(#paint8_linear_23812_6)"/>
<path d="M396.243 364.816L406.269 332.288L375.03 362.768C381.794 363.628 388.819 364.293 396.243 364.816Z" fill="url(#paint9_linear_23812_6)"/>
<path d="M279.982 223.529C230.987 195.156 179.214 172.975 138.512 168.344L113.444 212.645L111.858 243.438C142.004 271.675 173.093 287.83 240.951 309.64L279.982 223.529Z" fill="url(#paint10_linear_23812_6)"/>
<path d="M138.512 168.344C130.458 167.427 122.837 167.198 115.756 167.744L114.6 190.195L113.444 212.645L138.512 168.344Z" fill="url(#paint11_linear_23812_6)"/>
<path d="M50.1747 205.403C62.6042 213.396 80.0431 222.819 101.68 233.435L113.444 212.645L114.6 190.195L115.756 167.744C69.1462 151.922 35.4824 145.291 30.2546 151.061C28.8298 156.781 34.92 162.869 47.3837 176.065L50.1747 205.403Z" fill="url(#paint12_linear_23812_6)"/>
<path d="M111.858 243.438L113.444 212.645L101.68 233.435C105.094 236.939 108.47 240.265 111.858 243.438Z" fill="url(#paint13_linear_23812_6)"/>
<path d="M47.3837 176.065L50.1747 205.403C23.501 188.252 19.8967 177.688 47.3837 176.065Z" fill="url(#paint14_linear_23812_6)"/>
<path d="M115.756 167.744C163.391 64.3317 241.548 6.06666 311.743 8.09541M115.756 167.744C69.1462 151.922 35.4824 145.291 30.2546 151.061M115.756 167.744C122.837 167.198 130.458 167.427 138.512 168.344M115.756 167.744L114.6 190.195L113.444 212.645M368.09 24.3731C330.233 101.924 311.378 145.553 279.982 223.529M368.09 24.3731C465.89 70.7128 491.207 183.008 431.174 307.988M368.09 24.3731C451.189 62.1376 569.201 157.69 503.121 359.602M368.09 24.3731C350.501 13.979 331.435 8.66456 311.743 8.09541M279.982 223.529C347.106 247.347 385.791 262.83 418.059 294.034M279.982 223.529C230.987 195.156 179.214 172.975 138.512 168.344M279.982 223.529L240.951 309.64M431.174 307.988C455.865 320.98 472.629 331.145 483.717 339.028M431.174 307.988C426.887 302.992 422.535 298.362 418.059 294.034M431.174 307.988L406.269 332.288M503.121 359.602C498.614 365.698 492.27 366.347 474.814 364.816M503.121 359.602C503.121 355.898 498.391 349.461 483.717 339.028M474.814 364.816L483.717 339.028M474.814 364.816C491.949 385.479 484.414 392.149 449.539 382.922M474.814 364.816L449.539 382.922M396.243 364.816L138.512 516.774M396.243 364.816C418.254 373.333 435.967 379.331 449.539 382.922M396.243 364.816L406.269 332.288M396.243 364.816C388.819 364.293 381.794 363.628 375.03 362.768M245.573 311.116L138.512 516.774M245.573 311.116C300.845 344.458 332.868 357.407 375.03 362.768M245.573 311.116C244.014 310.621 242.473 310.129 240.951 309.64M101.68 233.435L138.512 516.774M101.68 233.435C105.094 236.939 108.47 240.265 111.858 243.438M101.68 233.435L113.444 212.645M101.68 233.435C80.0431 222.819 62.6042 213.396 50.1747 205.403M47.3837 176.065C34.92 162.869 28.8298 156.781 30.2546 151.061M47.3837 176.065L50.1747 205.403M47.3837 176.065C19.8967 177.688 23.501 188.252 50.1747 205.403M30.2546 151.061C95.9453 24.3734 215.335 -17.8579 311.743 8.09541M418.059 294.034L406.269 332.288M138.512 168.344L113.444 212.645M138.512 516.774L449.539 382.922M138.512 516.774L240.951 309.64M138.512 516.774L375.03 362.768M138.512 516.774L111.858 243.438M138.512 516.774L50.1747 205.403M406.269 332.288L375.03 362.768M240.951 309.64C173.093 287.83 142.004 271.675 111.858 243.438M113.444 212.645L111.858 243.438" stroke="white" stroke-width="0.5"/>
<path d="M166.239 657.099C137.817 708.746 83.5346 733.422 44.9961 712.214C6.4575 691.005 -1.74344 631.944 26.6787 580.297C55.1009 528.65 109.383 503.974 147.922 525.182C186.46 546.39 194.661 605.451 166.239 657.099Z" fill="url(#paint15_linear_23812_6)"/>
<path fill-rule="evenodd" clip-rule="evenodd" d="M169.557 658.929C140.778 711.225 87.4248 737.891 46.6007 722.059C43.9253 721.021 41.3036 719.801 38.7462 718.394C-2.83363 695.512 -11.6818 631.79 18.9834 576.067C49.6485 520.344 108.215 493.721 149.794 516.602C191.374 539.484 200.222 603.206 169.557 658.929ZM41.0151 714.027C80.8189 735.932 136.883 710.446 166.239 657.103C195.594 603.76 187.124 542.759 147.32 520.855C107.516 498.95 51.4517 524.436 22.0964 577.779C-7.25895 631.122 1.21124 692.123 41.0151 714.027Z" fill="url(#paint16_linear_23812_6)"/>
<path fill-rule="evenodd" clip-rule="evenodd" d="M166.239 657.103C136.883 710.446 80.8189 735.932 41.0151 714.027C1.21124 692.123 -7.25895 631.122 22.0964 577.779C51.4517 524.436 107.516 498.95 147.32 520.855C187.124 542.759 195.594 603.76 166.239 657.103ZM44.9961 712.214C83.5346 733.422 137.817 708.746 166.239 657.099C194.661 605.451 186.46 546.39 147.922 525.182C109.383 503.974 55.1009 528.65 26.6787 580.297C-1.74344 631.944 6.4575 691.005 44.9961 712.214Z" fill="url(#paint17_linear_23812_6)"/>
<path d="M149.794 516.602C191.374 539.484 200.222 603.206 169.557 658.929C140.778 711.225 87.4248 737.891 46.6007 722.059L57.9468 727.84C60.7781 729.398 64.0625 730.336 67.0372 731.441C107.748 746.57 158.777 720.319 187.354 668.391C215.145 617.89 210.483 560.82 178.414 533.534C175.098 530.712 171.488 528.208 167.591 526.064L149.794 516.602Z" fill="url(#paint18_linear_23812_6)"/>
<path d="M187.015 575.416C183.795 552.226 173.266 532.331 156.025 520.198L167.471 526.283C167.471 526.283 167.472 526.283 167.473 526.284C171.354 528.42 174.949 530.913 178.252 533.724C210.197 560.905 214.893 617.829 187.135 668.27C158.59 720.142 107.671 746.275 67.1243 731.207C66.336 730.914 65.5306 730.634 64.7206 730.353C62.4479 729.563 60.1389 728.761 58.0673 727.621L58.0674 727.62L58.0603 727.617L50.1227 723.573C90.5917 736.605 141.804 709.88 169.776 659.05C185.132 631.146 190.6 601.231 187.015 575.416ZM169.338 658.809C140.592 711.046 87.3516 737.594 46.6911 721.826C44.0259 720.792 41.4144 719.577 38.8667 718.175C18.1617 706.781 5.5888 685.209 2.02055 659.511C-1.54771 633.814 3.89325 604.006 19.2024 576.187C34.5115 548.368 56.7809 527.822 80.3993 517.085C104.018 506.349 128.969 505.427 149.674 516.821C170.379 528.216 182.952 549.787 186.52 575.485C190.088 601.183 184.647 630.99 169.338 658.809ZM166.02 656.978C151.832 682.759 131.195 701.8 109.308 711.749C87.4208 721.699 64.301 722.552 45.1166 711.995C25.9322 701.437 14.2814 681.449 10.9747 657.636C7.66807 633.822 12.7101 606.199 26.8978 580.417C41.0854 554.636 61.7231 535.596 83.6101 525.646C105.497 515.697 128.617 514.844 147.801 525.401C166.986 535.958 178.637 555.946 181.943 579.76C185.25 603.574 180.208 631.197 166.02 656.978ZM44.8755 712.433C64.2297 723.084 87.5203 722.203 109.515 712.205C114.5 709.939 119.419 707.204 124.212 704.028C118.761 707.775 113.142 710.964 107.442 713.555C84.8344 723.832 60.9527 724.714 41.1356 713.808C21.3186 702.903 9.28416 682.256 5.86867 657.658C2.45317 633.061 7.66116 604.529 22.3154 577.9C36.9697 551.271 58.2862 531.604 80.8935 521.327C103.501 511.05 127.383 510.168 147.2 521.074C167.017 531.979 179.051 552.626 182.467 577.224C183.319 583.365 183.634 589.751 183.399 596.292C183.506 590.61 183.183 585.055 182.438 579.691C179.116 555.761 167.397 535.614 148.042 524.963C128.688 514.312 105.398 515.193 83.4032 525.191C61.4088 535.189 40.6942 554.31 26.4597 580.176C12.2252 606.043 7.1566 633.774 10.4795 657.704C13.8024 681.635 25.5214 701.782 44.8755 712.433ZM40.8945 714.246C60.8813 725.245 84.9338 724.336 107.649 714.01C130.363 703.685 151.757 683.937 166.458 657.223C181.159 630.509 186.394 601.869 182.962 577.155C179.53 552.44 167.427 531.635 147.441 520.636C127.454 509.637 103.401 510.546 80.6866 520.872C57.9719 531.197 36.5784 550.945 21.8774 577.659C7.17628 604.373 1.9417 633.013 5.37342 657.727C8.80515 682.441 20.9077 703.247 40.8945 714.246Z" stroke="white" stroke-width="0.5"/>
<path d="M100.643 572.039L120.606 566.768C121.174 566.618 121.732 566.76 122.063 567.139L152.717 602.237C153.048 602.616 153.106 603.175 152.873 603.705L145.379 620.564C145.14 621.097 144.641 621.52 144.069 621.669L124.134 626.932C122.908 627.258 122.012 626.235 122.52 625.092L129.244 609.962C129.481 609.433 129.419 608.872 129.088 608.493L99.4892 574.612C98.7728 573.791 99.4129 572.364 100.643 572.039Z" fill="url(#paint19_linear_23812_6)"/>
<path d="M56.228 645.744L44.6005 632.431C44.2649 632.051 44.2073 631.491 44.4464 630.958L66.4028 581.975C66.6399 581.447 67.136 581.028 67.7064 580.874L85.7964 576.039C86.3711 575.886 86.9291 576.028 87.2584 576.412L98.8725 589.712C99.5846 590.532 98.9508 591.957 97.7231 592.287L81.4948 596.623C80.9265 596.773 80.4304 597.192 80.1913 597.725L58.9915 645.019C58.4779 646.165 56.9424 646.57 56.226 645.749L56.228 645.744Z" fill="url(#paint20_linear_23812_6)"/>
<path d="M139.179 634.373L130.85 652.954C130.611 653.488 130.115 653.906 129.542 654.055L76.9322 667.94C76.3638 668.09 75.8101 667.949 75.4788 667.57L64.8851 655.541C64.5495 655.161 64.4896 654.595 64.7287 654.062L73.0478 635.503C73.5595 634.362 75.0906 633.956 75.8109 634.768L85.3149 645.562C85.6462 645.941 86.2019 646.078 86.7682 645.932L137.565 632.523C138.795 632.198 139.69 633.222 139.177 634.368L139.179 634.373Z" fill="url(#paint21_linear_23812_6)"/>
<defs>
<linearGradient id="paint0_linear_23812_6" x1="275.418" y1="0.794929" x2="113.248" y2="158.192" gradientUnits="userSpaceOnUse">
<stop stop-color="#D0FCD4"/>
<stop offset="1" stop-color="#72C979"/>
</linearGradient>
<linearGradient id="paint1_linear_23812_6" x1="333.26" y1="9.35524" x2="225.704" y2="175.054" gradientUnits="userSpaceOnUse">
<stop stop-color="#D0FCD4"/>
<stop offset="1" stop-color="#72CA7A"/>
</linearGradient>
<linearGradient id="paint2_linear_23812_6" x1="377.17" y1="25.2583" x2="354.271" y2="218.73" gradientUnits="userSpaceOnUse">
<stop stop-color="#CEFBD2"/>
<stop offset="1" stop-color="#75CC7D"/>
</linearGradient>
<linearGradient id="paint3_linear_23812_6" x1="422.594" y1="35.0448" x2="458.591" y2="275.143" gradientUnits="userSpaceOnUse">
<stop stop-color="#D0FCD4"/>
<stop offset="1" stop-color="#75CD7E"/>
</linearGradient>
<linearGradient id="paint4_linear_23812_6" x1="275.418" y1="216.737" x2="221.958" y2="320.119" gradientUnits="userSpaceOnUse">
<stop stop-color="#416C44"/>
<stop offset="1" stop-color="#659369"/>
</linearGradient>
<linearGradient id="paint5_linear_23812_6" x1="275.418" y1="216.737" x2="221.958" y2="320.119" gradientUnits="userSpaceOnUse">
<stop stop-color="#416C44"/>
<stop offset="1" stop-color="#659369"/>
</linearGradient>
<linearGradient id="paint6_linear_23812_6" x1="275.418" y1="216.737" x2="221.958" y2="320.119" gradientUnits="userSpaceOnUse">
<stop stop-color="#416C44"/>
<stop offset="1" stop-color="#659369"/>
</linearGradient>
<linearGradient id="paint7_linear_23812_6" x1="275.418" y1="216.737" x2="221.958" y2="320.119" gradientUnits="userSpaceOnUse">
<stop stop-color="#416C44"/>
<stop offset="1" stop-color="#659369"/>
</linearGradient>
<linearGradient id="paint8_linear_23812_6" x1="275.418" y1="216.737" x2="221.958" y2="320.119" gradientUnits="userSpaceOnUse">
<stop stop-color="#416C44"/>
<stop offset="1" stop-color="#659369"/>
</linearGradient>
<linearGradient id="paint9_linear_23812_6" x1="275.418" y1="216.737" x2="221.958" y2="320.119" gradientUnits="userSpaceOnUse">
<stop stop-color="#416C44"/>
<stop offset="1" stop-color="#659369"/>
</linearGradient>
<linearGradient id="paint10_linear_23812_6" x1="275.418" y1="216.737" x2="221.958" y2="320.119" gradientUnits="userSpaceOnUse">
<stop stop-color="#416C44"/>
<stop offset="1" stop-color="#659369"/>
</linearGradient>
<linearGradient id="paint11_linear_23812_6" x1="275.418" y1="216.737" x2="221.958" y2="320.119" gradientUnits="userSpaceOnUse">
<stop stop-color="#416C44"/>
<stop offset="1" stop-color="#659369"/>
</linearGradient>
<linearGradient id="paint12_linear_23812_6" x1="275.418" y1="216.737" x2="221.958" y2="320.119" gradientUnits="userSpaceOnUse">
<stop stop-color="#416C44"/>
<stop offset="1" stop-color="#659369"/>
</linearGradient>
<linearGradient id="paint13_linear_23812_6" x1="275.418" y1="216.737" x2="221.958" y2="320.119" gradientUnits="userSpaceOnUse">
<stop stop-color="#416C44"/>
<stop offset="1" stop-color="#659369"/>
</linearGradient>
<linearGradient id="paint14_linear_23812_6" x1="275.418" y1="216.737" x2="221.958" y2="320.119" gradientUnits="userSpaceOnUse">
<stop stop-color="#416C44"/>
<stop offset="1" stop-color="#659369"/>
</linearGradient>
<linearGradient id="paint15_linear_23812_6" x1="147.922" y1="525.182" x2="44.996" y2="712.214" gradientUnits="userSpaceOnUse">
<stop stop-color="#A3F5AA"/>
<stop offset="1" stop-color="#75D87D"/>
</linearGradient>
<linearGradient id="paint16_linear_23812_6" x1="147.922" y1="525.182" x2="44.996" y2="712.214" gradientUnits="userSpaceOnUse">
<stop stop-color="#A3F5AA"/>
<stop offset="1" stop-color="#52A959"/>
</linearGradient>
<linearGradient id="paint17_linear_23812_6" x1="147.922" y1="525.155" x2="45.2513" y2="712.025" gradientUnits="userSpaceOnUse">
<stop stop-color="#4C8251"/>
<stop offset="1" stop-color="#6EBF75"/>
</linearGradient>
<linearGradient id="paint18_linear_23812_6" x1="147.922" y1="525.182" x2="44.996" y2="712.214" gradientUnits="userSpaceOnUse">
<stop stop-color="#599C5E"/>
<stop offset="1" stop-color="#324A34"/>
</linearGradient>
<linearGradient id="paint19_linear_23812_6" x1="134.37" y1="570.054" x2="120.085" y2="626.126" gradientUnits="userSpaceOnUse">
<stop stop-color="#507854"/>
<stop offset="1" stop-color="#3C6A41"/>
</linearGradient>
<linearGradient id="paint20_linear_23812_6" x1="87.3607" y1="576.213" x2="68.774" y2="649.171" gradientUnits="userSpaceOnUse">
<stop stop-color="#507854"/>
<stop offset="1" stop-color="#3C6A41"/>
</linearGradient>
<linearGradient id="paint21_linear_23812_6" x1="110.399" y1="625.378" x2="98.1241" y2="673.56" gradientUnits="userSpaceOnUse">
<stop stop-color="#507854"/>
<stop offset="1" stop-color="#3C6A41"/>
</linearGradient>
</defs>
</svg>
