<svg width="170" height="45" viewBox="0 0 170 45" fill="none" xmlns="http://www.w3.org/2000/svg">
<g clip-path="url(#clip0_22316_2850)">
<path d="M59.7284 16.5711C58.7867 16.5685 57.8518 16.7286 56.9656 17.0442V21.1859C57.5932 20.8692 58.2878 20.7047 58.9921 20.7061C60.269 20.7692 61.4727 21.3164 62.3539 22.2345C63.2352 23.1525 63.7267 24.3712 63.7267 25.6383C63.7267 26.9054 63.2352 28.1241 62.3539 29.0421C61.4727 29.9602 60.269 30.5074 58.9921 30.5705C58.2877 30.5721 57.5932 30.4076 56.9656 30.0907C56.1426 29.6705 55.4539 29.0314 54.9767 28.2451C54.4994 27.4588 54.2525 26.5564 54.2636 25.6389V11.2378C54.2636 10.9981 54.1675 10.7682 53.9965 10.5987C53.8255 10.4292 53.5935 10.334 53.3517 10.334H50.4324C50.1935 10.334 49.9644 10.428 49.7955 10.5954C49.6266 10.7628 49.5317 10.9899 49.5317 11.2266V33.457C49.5317 33.6937 49.6266 33.9208 49.7955 34.0882C49.9644 34.2556 50.1935 34.3496 50.4324 34.3496H53.346C53.5875 34.349 53.819 34.2538 53.9898 34.0846C54.1607 33.9155 54.2571 33.6863 54.258 33.447V32.6804C55.0539 33.3556 55.9704 33.877 56.96 34.2179C57.8462 34.5335 58.7811 34.6936 59.7227 34.691C62.0728 34.5813 64.29 33.5789 65.914 31.8919C67.538 30.2048 68.4441 27.9627 68.4441 25.6311C68.4441 23.2994 67.538 21.0573 65.914 19.3703C64.29 17.6832 62.0728 16.6808 59.7227 16.5711H59.7284Z" fill="white"/>
<path d="M74.4903 9.94211C74.139 9.93401 73.7896 9.99601 73.4629 10.1244C73.1363 10.2529 72.839 10.4451 72.5888 10.6897C72.3376 10.9151 72.1375 11.1908 72.0016 11.4985C71.8658 11.8063 71.7973 12.139 71.8007 12.4749C71.7942 12.8184 71.8611 13.1594 71.9969 13.4755C72.1327 13.7916 72.3345 14.0757 72.5888 14.3092C72.8397 14.5519 73.1374 14.7421 73.4641 14.8682C73.7908 14.9944 74.1399 15.0539 74.4903 15.0434C74.8342 15.0537 75.1766 14.9942 75.4965 14.8685C75.8163 14.7428 76.1068 14.5536 76.3502 14.3125C76.5995 14.0762 76.7965 13.7911 76.9289 13.4754C77.0613 13.1596 77.126 12.8201 77.1191 12.4782C77.1231 12.1441 77.0567 11.8127 76.9243 11.5054C76.7919 11.198 76.5964 10.9214 76.3502 10.693C76.1081 10.4489 75.8183 10.2564 75.4985 10.1273C75.1787 9.99815 74.8356 9.93514 74.4903 9.94211Z" fill="white"/>
<path d="M75.9356 16.9207H73.0569C72.9278 16.9107 72.798 16.9285 72.6764 16.9727C72.5549 17.017 72.4444 17.0868 72.3525 17.1772C72.2606 17.2676 72.1894 17.3767 72.1439 17.4968C72.0984 17.617 72.0795 17.7455 72.0887 17.8735V33.4038C72.083 33.5302 72.1028 33.6565 72.1469 33.7752C72.1909 33.894 72.2584 34.0029 72.3454 34.0955C72.4389 34.186 72.5506 34.2559 72.6732 34.3009C72.7958 34.3459 72.9265 34.3649 73.0569 34.3566H75.9334C76.0619 34.3654 76.1907 34.3468 76.3113 34.302C76.4319 34.2572 76.5415 34.1872 76.6325 34.0969C76.7235 34.0066 76.7939 33.898 76.839 33.7784C76.884 33.6589 76.9027 33.5311 76.8937 33.4038V17.8757C76.9015 17.7485 76.882 17.6212 76.8366 17.5019C76.7912 17.3827 76.7209 17.2744 76.6303 17.184C76.5387 17.0955 76.4299 17.0264 76.3104 16.9812C76.191 16.9359 76.0634 16.9153 75.9356 16.9207Z" fill="white"/>
<path d="M89.5842 16.6108H87.014V12.892C87.0277 12.7645 87.0123 12.6355 86.9692 12.5146C86.926 12.3937 86.8561 12.2839 86.7645 12.1933C86.673 12.1027 86.5621 12.0335 86.4401 11.9909C86.3181 11.9482 86.1879 11.9332 86.0593 11.9469H83.2447C83.1155 11.9324 82.9847 11.9467 82.8619 11.9889C82.7391 12.0311 82.6275 12.1002 82.5352 12.1909C82.4429 12.2816 82.3724 12.3917 82.3287 12.513C82.2851 12.6344 82.2696 12.7639 82.2833 12.892V16.6108H81.1011C80.9713 16.5964 80.84 16.6112 80.7167 16.654C80.5935 16.6968 80.4815 16.7666 80.3892 16.8581C80.2968 16.9496 80.2264 17.0606 80.1833 17.1827C80.1401 17.3048 80.1252 17.435 80.1397 17.5637V19.8142C80.1275 20.0704 80.2172 20.3212 80.3896 20.5126C80.4855 20.5989 80.5979 20.6652 80.7201 20.7075C80.8423 20.7499 80.9719 20.7675 81.1011 20.7592H82.2833V30.1573C82.2204 31.1174 82.4647 32.0728 82.9813 32.8875C83.4651 33.5081 84.1417 33.9535 84.9064 34.155C86.0088 34.4159 87.1409 34.5322 88.2738 34.5009C88.8007 34.5009 89.1992 34.4942 89.484 34.473C89.6139 34.4711 89.7421 34.4432 89.8609 34.3911C89.9797 34.3389 90.0866 34.2636 90.1753 34.1695C90.3411 33.9718 90.4273 33.7202 90.4173 33.4633V31.3656C90.4173 30.7586 90.0796 30.4418 89.4199 30.4418H89.1947C88.8734 30.486 88.5462 30.4497 88.2427 30.3363C87.9392 30.2229 87.6693 30.0359 87.4575 29.7924C87.1272 29.1952 86.9742 28.5174 87.0162 27.8376V20.7592H89.5865C89.7151 20.7727 89.845 20.7576 89.9669 20.7149C90.0888 20.6722 90.1996 20.603 90.291 20.5124C90.3824 20.4218 90.4522 20.312 90.4953 20.1912C90.5384 20.0704 90.5537 19.9416 90.5401 19.8142V17.5637C90.5485 17.4354 90.5308 17.3068 90.488 17.1855C90.4453 17.0641 90.3784 16.9526 90.2912 16.8574C90.0972 16.6866 89.8434 16.5981 89.5842 16.6108Z" fill="white"/>
<path d="M130.693 16.955H116.126C115.995 16.9468 115.865 16.9658 115.742 17.0107C115.619 17.0557 115.508 17.1257 115.414 17.2161C115.325 17.307 115.255 17.4156 115.211 17.5348C115.167 17.654 115.149 17.7811 115.158 17.9078V20.0947C115.148 20.2225 115.166 20.3508 115.21 20.4712C115.255 20.5916 115.324 20.7014 115.414 20.7932C115.509 20.8822 115.621 20.9513 115.743 20.9962C115.865 21.041 115.995 21.0608 116.126 21.0543H123.417L114.681 33.2049C114.542 33.378 114.463 33.5908 114.456 33.8119C114.452 33.8875 114.468 33.9628 114.502 34.0307C114.535 34.0986 114.586 34.1569 114.649 34.2002C114.797 34.3067 114.978 34.3612 115.161 34.3553H129.953C130.084 34.3628 130.214 34.3435 130.336 34.2985C130.459 34.2536 130.571 34.184 130.665 34.0942C130.793 33.96 130.875 33.7895 130.9 33.6066C130.912 33.5392 130.917 33.4708 130.915 33.4024V31.1798C130.929 30.9214 130.84 30.6677 130.666 30.4747C130.471 30.3007 130.216 30.2093 129.954 30.2203H122.308L131.079 18.1053C131.178 17.9649 131.248 17.8069 131.286 17.6401C131.298 17.5938 131.303 17.546 131.301 17.4984C131.304 17.4243 131.292 17.3504 131.265 17.2813C131.238 17.2122 131.197 17.1493 131.144 17.0967C131.014 17.0002 130.855 16.9503 130.693 16.955Z" fill="white"/>
<path d="M148.948 16.9562H134.366C134.238 16.95 134.11 16.97 133.99 17.0149C133.871 17.0598 133.761 17.1287 133.669 17.2173C133.536 17.3488 133.451 17.5203 133.427 17.7048C133.421 17.7727 133.419 17.8409 133.421 17.909V20.0959C133.41 20.2232 133.427 20.3512 133.469 20.4716C133.512 20.592 133.58 20.702 133.669 20.7944C133.762 20.8816 133.872 20.9496 133.991 20.9944C134.111 21.0392 134.238 21.06 134.366 21.0555H141.684L132.941 33.2061C132.836 33.3384 132.76 33.4902 132.716 33.6524C132.71 33.7039 132.708 33.7557 132.709 33.8075C132.705 33.8831 132.721 33.9584 132.755 34.0263C132.788 34.0942 132.839 34.1525 132.902 34.1958C133.052 34.3055 133.235 34.3603 133.422 34.3509H148.209C148.339 34.3622 148.469 34.3452 148.59 34.3013C148.712 34.2574 148.823 34.1876 148.914 34.0967C149.006 34.0059 149.076 33.8962 149.12 33.7755C149.164 33.6548 149.181 33.5259 149.17 33.398V31.181C149.177 31.053 149.159 30.9249 149.116 30.8039C149.074 30.6829 149.007 30.5714 148.921 30.4758C148.725 30.3041 148.471 30.2131 148.209 30.2214H140.554L149.335 18.1065C149.467 17.9295 149.545 17.7189 149.56 17.4995C149.564 17.4255 149.552 17.3516 149.525 17.2825C149.498 17.2133 149.457 17.1505 149.404 17.0979C149.273 16.9994 149.112 16.9492 148.948 16.9562Z" fill="white"/>
<path d="M110.894 16.9026H107.974C107.733 16.9031 107.501 16.9986 107.33 17.1679C107.159 17.3373 107.063 17.5668 107.063 17.8063V18.5751C106.267 17.9001 105.35 17.3786 104.361 17.0376C103.474 16.722 102.539 16.5619 101.598 16.5645C99.2477 16.6742 97.0305 17.6766 95.4065 19.3637C93.7825 21.0507 92.8765 23.2928 92.8765 25.6245C92.8765 27.9561 93.7825 30.1982 95.4065 31.8852C97.0305 33.5723 99.2477 34.5747 101.598 34.6844C102.539 34.6872 103.474 34.5271 104.361 34.2113V30.0696C103.733 30.3866 103.038 30.5511 102.334 30.5494C101.057 30.4863 99.8535 29.9391 98.9722 29.021C98.091 28.103 97.5995 26.8843 97.5995 25.6172C97.5995 24.3501 98.091 23.1314 98.9722 22.2134C99.8535 21.2953 101.057 20.7481 102.334 20.685C103.038 20.6834 103.733 20.8478 104.361 21.1648C105.184 21.5851 105.873 22.2244 106.35 23.0109C106.827 23.7974 107.074 24.7001 107.063 25.6178V33.4638C107.062 33.5825 107.086 33.7001 107.132 33.8098C107.177 33.9195 107.245 34.0192 107.329 34.1032C107.414 34.1871 107.515 34.2537 107.625 34.2991C107.736 34.3444 107.855 34.3677 107.974 34.3675H110.894C111.133 34.3675 111.362 34.2735 111.531 34.1061C111.7 33.9387 111.794 33.7117 111.794 33.4749V17.7996C111.795 17.682 111.772 17.5655 111.727 17.4567C111.682 17.3479 111.616 17.2489 111.532 17.1656C111.449 17.0822 111.349 17.0161 111.239 16.9709C111.13 16.9258 111.012 16.9026 110.894 16.9026Z" fill="white"/>
<path d="M169.092 16.9026H166.177C165.935 16.9031 165.703 16.9986 165.532 17.1679C165.362 17.3373 165.265 17.5668 165.265 17.8063V18.5751C164.469 17.9 163.552 17.3786 162.563 17.0376C161.676 16.722 160.742 16.5619 159.8 16.5645C157.45 16.6742 155.233 17.6766 153.609 19.3637C151.985 21.0507 151.079 23.2928 151.079 25.6245C151.079 27.9561 151.985 30.1982 153.609 31.8852C155.233 33.5723 157.45 34.5747 159.8 34.6844C160.742 34.6872 161.677 34.5271 162.563 34.2113V30.0696C161.935 30.3867 161.241 30.5512 160.536 30.5494C159.259 30.4863 158.056 29.9391 157.174 29.021C156.293 28.103 155.802 26.8843 155.802 25.6172C155.802 24.3501 156.293 23.1314 157.174 22.2134C158.056 21.2953 159.259 20.7481 160.536 20.685C161.241 20.6833 161.935 20.8478 162.563 21.1648C163.386 21.5851 164.075 22.2244 164.552 23.0109C165.029 23.7974 165.276 24.7001 165.265 25.6178V33.4638C165.265 33.7035 165.361 33.9334 165.532 34.1028C165.703 34.2723 165.935 34.3675 166.177 34.3675H169.092C169.331 34.3675 169.56 34.2735 169.729 34.1061C169.898 33.9387 169.993 33.7117 169.993 33.4749V17.7996C169.994 17.682 169.971 17.5655 169.926 17.4567C169.881 17.3479 169.815 17.2489 169.731 17.1656C169.647 17.0822 169.548 17.0161 169.438 16.9709C169.329 16.9258 169.211 16.9026 169.092 16.9026Z" fill="white"/>
<path d="M37.33 23.0509L36.184 22.2475L37.33 21.4442C38.396 20.6955 39.2546 19.6929 39.8266 18.5288C40.3987 17.3647 40.6657 16.0766 40.6031 14.7833C40.5405 13.49 40.1503 12.2331 39.4685 11.1286C38.7867 10.0241 37.8352 9.10751 36.7018 8.46342L36.6016 8.40205C35.5391 7.79517 34.3471 7.44533 33.1225 7.38096C31.8979 7.3166 30.6753 7.53952 29.554 8.03162L28.3077 8.58169L28.1636 7.23608C28.0313 6.0261 27.6131 4.86405 26.943 3.84418C26.2728 2.8243 25.3696 1.97532 24.3065 1.36606L24.2716 1.35044C23.0915 0.672645 21.7514 0.316555 20.3875 0.318366C18.9651 0.319526 17.57 0.7053 16.3525 1.43413L16.1555 1.5457C15.1456 2.15853 14.2888 2.99005 13.6495 3.97788C13.0101 4.96572 12.6048 6.08422 12.4639 7.24947L12.3018 8.57945L11.0712 8.04054C9.94928 7.54445 8.72474 7.31868 7.49783 7.38171C6.27091 7.44474 5.07649 7.79477 4.0123 8.40316L3.88846 8.47234C2.70719 9.15124 1.72637 10.1255 1.04399 11.2977C0.361614 12.4699 0.0015749 13.7991 -0.000153148 15.1524V15.2896C0.00205434 16.5222 0.301452 17.7364 0.873093 18.831C1.44473 19.9256 2.27206 20.869 3.28614 21.5825L4.42773 22.3859L3.28614 23.1892C2.2203 23.9365 1.36136 24.9376 0.788473 26.1003C0.215583 27.2629 -0.0528354 28.5498 0.00794866 29.8423C0.0687327 31.1348 0.456764 32.3914 1.13629 33.4962C1.81582 34.601 2.76498 35.5186 3.89634 36.1644L4.00892 36.2336C5.07351 36.8389 6.26685 37.1875 7.49251 37.2513C8.71818 37.3151 9.9418 37.0922 11.0645 36.6007L12.3108 36.0539L12.4538 37.3995C12.5855 38.6062 13.0015 39.7652 13.6681 40.7833C14.3348 41.8013 15.2334 42.6499 16.2917 43.2606L16.3424 43.2874C17.5503 43.9783 18.9234 44.3346 20.318 44.3191C21.7126 44.3036 23.0773 43.9168 24.2693 43.1993L24.4618 43.0877C25.4726 42.4759 26.3301 41.6446 26.9695 40.6566C27.609 39.6685 28.0138 38.5495 28.1534 37.3839L28.311 36.0539L29.5494 36.6007C30.674 37.0953 31.9007 37.3196 33.1293 37.2552C34.358 37.1908 35.5539 36.8396 36.6196 36.2302L36.7322 36.1655C37.9131 35.4876 38.8938 34.5144 39.5762 33.3431C40.2586 32.1718 40.6188 30.8435 40.6208 29.491V29.3493C40.6185 28.1156 40.3186 26.9002 39.7461 25.8046C39.1737 24.709 38.3453 23.7648 37.33 23.0509ZM36.2267 29.4855C36.2254 30.0758 36.068 30.6554 35.7701 31.1666C35.4722 31.6777 35.0442 32.1026 34.529 32.3987L34.4164 32.4679C33.8988 32.7609 33.3131 32.9151 32.717 32.9151C32.1209 32.9151 31.5351 32.7609 31.0175 32.4679L27.8585 30.6559L23.8235 32.9689V36.4935C23.8217 37.0715 23.6705 37.6393 23.3843 38.1429C23.0982 38.6464 22.6866 39.0689 22.1888 39.37L21.9918 39.4882C21.4716 39.8 20.8767 39.9679 20.2688 39.9746C19.661 39.9813 19.0625 39.8264 18.5355 39.5262L18.4927 39.4994C17.9761 39.203 17.5471 38.7775 17.2486 38.2653C16.9501 37.753 16.7925 37.1721 16.7916 36.5806V32.9677L12.7566 30.6548L9.59753 32.4668C9.08137 32.7598 8.49687 32.9139 7.90203 32.9139C7.30719 32.9139 6.7227 32.7598 6.20654 32.4668L6.0872 32.3942C5.57436 32.1011 5.1479 31.6799 4.85025 31.1727C4.5526 30.6655 4.39413 30.0899 4.3906 29.5032C4.38707 28.9164 4.5386 28.339 4.83013 27.8283C5.12166 27.3176 5.54302 26.8915 6.0523 26.5923L9.34422 24.6564L9.3172 20.0495L6.0872 18.1984C5.57196 17.9035 5.14401 17.4795 4.84623 16.969C4.54846 16.4584 4.39132 15.8793 4.39058 15.2896V15.1524C4.39224 14.5618 4.55021 13.9819 4.84871 13.4707C5.14722 12.9595 5.57581 12.5349 6.0917 12.2391L6.20428 12.1666C6.72103 11.8735 7.30608 11.7194 7.90147 11.7194C8.49685 11.7194 9.08191 11.8735 9.59865 12.1666L12.7577 13.9786L16.7927 11.669V8.14431C16.7964 7.56677 16.9485 6.9997 17.2347 6.49661C17.5209 5.99353 17.9318 5.57103 18.4285 5.26899L18.6255 5.15072C19.1448 4.83895 19.739 4.67125 20.3461 4.66516C20.9532 4.65908 21.5507 4.81484 22.0762 5.11614L22.119 5.13957C22.636 5.43513 23.0654 5.86037 23.364 6.37254C23.6626 6.88471 23.8199 7.46576 23.8201 8.05728V11.6735L27.8551 13.9831L31.0142 12.1711C31.5317 11.8779 32.1175 11.7237 32.7136 11.7237C33.3097 11.7237 33.8955 11.8779 34.413 12.1711L34.5256 12.2436C35.0373 12.5377 35.4627 12.9591 35.7595 13.4662C36.0563 13.9733 36.2143 14.5485 36.2178 15.1347C36.2213 15.7209 36.0703 16.2979 35.7796 16.8085C35.4889 17.319 35.0687 17.7455 34.5605 18.0456L31.2618 19.9758L31.2889 24.5828L34.5256 26.4327C35.041 26.7276 35.4691 27.1516 35.7671 27.6621C36.065 28.1726 36.2224 28.7517 36.2234 29.3415L36.2267 29.4855Z" fill="white"/>
<path d="M26.8709 16.9942L20.3051 20.7465L13.7393 16.9942L20.3051 13.2363L26.8709 16.9942Z" fill="white"/>
<path d="M18.9374 23.0941V30.6099L12.3716 26.852V19.3418L18.9374 23.0941Z" fill="white"/>
<path d="M28.2401 19.3418V26.852L21.6743 30.6099V23.0941L28.2401 19.3418Z" fill="white"/>
</g>
<defs>
<clipPath id="clip0_22316_2850">
<rect width="170" height="44" fill="white" transform="translate(0 0.318359)"/>
</clipPath>
</defs>
</svg>
