<svg width="162" height="135" viewBox="0 0 162 135" fill="none" xmlns="http://www.w3.org/2000/svg">
<rect x="0.25" y="0.429688" width="134.5" height="133.5" rx="66.75" fill="url(#paint0_radial_30093_5270)" fill-opacity="0.27" stroke="#B4F9BA" stroke-width="0.5"/>
<mask id="path-2-inside-1_30093_5270" fill="white">
<path fill-rule="evenodd" clip-rule="evenodd" d="M34.9469 32C29.4534 32 25 36.4534 25 41.9469V64.0531C25 69.5327 29.4309 73.9775 34.9053 73.9999L37.0265 90.5514C37.2225 92.0809 39.2178 92.5377 40.0598 91.2458L51.2992 74H83.0531C88.5466 74 93 69.5466 93 64.0531V41.9469C93 36.4534 88.5466 32 83.0531 32H34.9469Z"/>
</mask>
<path fill-rule="evenodd" clip-rule="evenodd" d="M34.9469 32C29.4534 32 25 36.4534 25 41.9469V64.0531C25 69.5327 29.4309 73.9775 34.9053 73.9999L37.0265 90.5514C37.2225 92.0809 39.2178 92.5377 40.0598 91.2458L51.2992 74H83.0531C88.5466 74 93 69.5466 93 64.0531V41.9469C93 36.4534 88.5466 32 83.0531 32H34.9469Z" fill="#506351"/>
<path d="M34.9053 73.9999L35.4012 73.9364L35.3455 73.5017L34.9073 73.4999L34.9053 73.9999ZM37.0265 90.5514L37.5224 90.4878L37.0265 90.5514ZM40.0598 91.2458L39.6409 90.9728L40.0598 91.2458ZM51.2992 74V73.5H51.0282L50.8803 73.727L51.2992 74ZM25.5 41.9469C25.5 36.7295 29.7295 32.5 34.9469 32.5V31.5C29.1772 31.5 24.5 36.1772 24.5 41.9469H25.5ZM25.5 64.0531V41.9469H24.5V64.0531H25.5ZM34.9073 73.4999C29.7082 73.4786 25.5 69.2573 25.5 64.0531H24.5C24.5 69.8082 29.1536 74.4764 34.9032 74.4999L34.9073 73.4999ZM37.5224 90.4878L35.4012 73.9364L34.4094 74.0635L36.5305 90.6149L37.5224 90.4878ZM39.6409 90.9728C39.0528 91.8751 37.6593 91.5561 37.5224 90.4878L36.5305 90.6149C36.7857 92.6058 39.3827 93.2004 40.4786 91.5188L39.6409 90.9728ZM50.8803 73.727L39.6409 90.9728L40.4786 91.5188L51.7181 74.273L50.8803 73.727ZM83.0531 73.5H51.2992V74.5H83.0531V73.5ZM92.5 64.0531C92.5 69.2705 88.2705 73.5 83.0531 73.5V74.5C88.8228 74.5 93.5 69.8228 93.5 64.0531H92.5ZM92.5 41.9469V64.0531H93.5V41.9469H92.5ZM83.0531 32.5C88.2705 32.5 92.5 36.7295 92.5 41.9469H93.5C93.5 36.1772 88.8228 31.5 83.0531 31.5V32.5ZM34.9469 32.5H83.0531V31.5H34.9469V32.5Z" fill="#B4F9BA" mask="url(#path-2-inside-1_30093_5270)"/>
<mask id="path-4-inside-2_30093_5270" fill="white">
<path fill-rule="evenodd" clip-rule="evenodd" d="M42 51.9469C42 46.4534 46.4534 42 51.9469 42H100.053C105.547 42 110 46.4534 110 51.9469V74.0531C110 79.5466 105.547 84 100.053 84H68.3925L57.1531 101.246C56.3111 102.538 54.3159 102.081 54.1198 100.551L51.9986 84H51.9469C46.4534 84 42 79.5466 42 74.0531V51.9469ZM63.9765 68.8725C65.9908 68.8725 67.6237 67.2396 67.6237 65.2253C67.6237 63.211 65.9908 61.5781 63.9765 61.5781C61.9623 61.5781 60.3293 63.211 60.3293 65.2253C60.3293 67.2396 61.9623 68.8725 63.9765 68.8725ZM79.56 65.2253C79.56 67.2396 77.9271 68.8725 75.9128 68.8725C73.8985 68.8725 72.2656 67.2396 72.2656 65.2253C72.2656 63.211 73.8985 61.5781 75.9128 61.5781C77.9271 61.5781 79.56 63.211 79.56 65.2253ZM87.8491 68.8725C89.8634 68.8725 91.4963 67.2396 91.4963 65.2253C91.4963 63.211 89.8634 61.5781 87.8491 61.5781C85.8348 61.5781 84.2019 63.211 84.2019 65.2253C84.2019 67.2396 85.8348 68.8725 87.8491 68.8725Z"/>
</mask>
<path fill-rule="evenodd" clip-rule="evenodd" d="M42 51.9469C42 46.4534 46.4534 42 51.9469 42H100.053C105.547 42 110 46.4534 110 51.9469V74.0531C110 79.5466 105.547 84 100.053 84H68.3925L57.1531 101.246C56.3111 102.538 54.3159 102.081 54.1198 100.551L51.9986 84H51.9469C46.4534 84 42 79.5466 42 74.0531V51.9469ZM63.9765 68.8725C65.9908 68.8725 67.6237 67.2396 67.6237 65.2253C67.6237 63.211 65.9908 61.5781 63.9765 61.5781C61.9623 61.5781 60.3293 63.211 60.3293 65.2253C60.3293 67.2396 61.9623 68.8725 63.9765 68.8725ZM79.56 65.2253C79.56 67.2396 77.9271 68.8725 75.9128 68.8725C73.8985 68.8725 72.2656 67.2396 72.2656 65.2253C72.2656 63.211 73.8985 61.5781 75.9128 61.5781C77.9271 61.5781 79.56 63.211 79.56 65.2253ZM87.8491 68.8725C89.8634 68.8725 91.4963 67.2396 91.4963 65.2253C91.4963 63.211 89.8634 61.5781 87.8491 61.5781C85.8348 61.5781 84.2019 63.211 84.2019 65.2253C84.2019 67.2396 85.8348 68.8725 87.8491 68.8725Z" fill="white"/>
<path d="M68.3925 84V83.8H68.2841L68.225 83.8908L68.3925 84ZM57.1531 101.246L56.9855 101.137L57.1531 101.246ZM54.1198 100.551L53.9215 100.577L54.1198 100.551ZM51.9986 84L52.197 83.9746L52.1747 83.8H51.9986V84ZM51.9469 41.8C46.3429 41.8 41.8 46.3429 41.8 51.9469H42.2C42.2 46.5638 46.5638 42.2 51.9469 42.2V41.8ZM100.053 41.8H51.9469V42.2H100.053V41.8ZM110.2 51.9469C110.2 46.3429 105.657 41.8 100.053 41.8V42.2C105.436 42.2 109.8 46.5638 109.8 51.9469H110.2ZM110.2 74.0531V51.9469H109.8V74.0531H110.2ZM100.053 84.2C105.657 84.2 110.2 79.6571 110.2 74.0531H109.8C109.8 79.4362 105.436 83.8 100.053 83.8V84.2ZM68.3925 84.2H100.053V83.8H68.3925V84.2ZM57.3207 101.355L68.5601 84.1092L68.225 83.8908L56.9855 101.137L57.3207 101.355ZM53.9215 100.577C54.1411 102.291 56.3771 102.803 57.3207 101.355L56.9855 101.137C56.2451 102.273 54.4906 101.871 54.3182 100.526L53.9215 100.577ZM51.8003 84.0254L53.9215 100.577L54.3182 100.526L52.197 83.9746L51.8003 84.0254ZM51.9469 84.2H51.9986V83.8H51.9469V84.2ZM41.8 74.0531C41.8 79.6571 46.3429 84.2 51.9469 84.2V83.8C46.5638 83.8 42.2 79.4362 42.2 74.0531H41.8ZM41.8 51.9469V74.0531H42.2V51.9469H41.8ZM67.4237 65.2253C67.4237 67.1292 65.8804 68.6725 63.9765 68.6725V69.0725C66.1013 69.0725 67.8237 67.3501 67.8237 65.2253H67.4237ZM63.9765 61.7781C65.8804 61.7781 67.4237 63.3215 67.4237 65.2253H67.8237C67.8237 63.1006 66.1013 61.3781 63.9765 61.3781V61.7781ZM60.5293 65.2253C60.5293 63.3215 62.0727 61.7781 63.9765 61.7781V61.3781C61.8518 61.3781 60.1293 63.1006 60.1293 65.2253H60.5293ZM63.9765 68.6725C62.0727 68.6725 60.5293 67.1292 60.5293 65.2253H60.1293C60.1293 67.3501 61.8518 69.0725 63.9765 69.0725V68.6725ZM75.9128 69.0725C78.0375 69.0725 79.76 67.3501 79.76 65.2253H79.36C79.36 67.1292 77.8166 68.6725 75.9128 68.6725V69.0725ZM72.0656 65.2253C72.0656 67.3501 73.788 69.0725 75.9128 69.0725V68.6725C74.009 68.6725 72.4656 67.1292 72.4656 65.2253H72.0656ZM75.9128 61.3781C73.788 61.3781 72.0656 63.1006 72.0656 65.2253H72.4656C72.4656 63.3215 74.009 61.7781 75.9128 61.7781V61.3781ZM79.76 65.2253C79.76 63.1006 78.0375 61.3781 75.9128 61.3781V61.7781C77.8166 61.7781 79.36 63.3215 79.36 65.2253H79.76ZM91.2963 65.2253C91.2963 67.1292 89.753 68.6725 87.8491 68.6725V69.0725C89.9739 69.0725 91.6963 67.3501 91.6963 65.2253H91.2963ZM87.8491 61.7781C89.753 61.7781 91.2963 63.3215 91.2963 65.2253H91.6963C91.6963 63.1006 89.9739 61.3781 87.8491 61.3781V61.7781ZM84.4019 65.2253C84.4019 63.3215 85.9453 61.7781 87.8491 61.7781V61.3781C85.7244 61.3781 84.0019 63.1006 84.0019 65.2253H84.4019ZM87.8491 68.6725C85.9453 68.6725 84.4019 67.1292 84.4019 65.2253H84.0019C84.0019 67.3501 85.7244 69.0725 87.8491 69.0725V68.6725Z" fill="#A3F5AA" mask="url(#path-4-inside-2_30093_5270)"/>
<circle cx="126.477" cy="99.7969" r="34.5" fill="url(#paint1_radial_30093_5270)" stroke="white" stroke-dasharray="3 3"/>
<g style="mix-blend-mode:luminosity">
<path d="M119.707 83.2197L126.199 79.4706C126.384 79.364 126.613 79.364 126.798 79.4706L143.909 89.3492C144.093 89.4558 144.207 89.6532 144.209 89.8665L144.232 96.6608C144.232 96.8759 144.118 97.075 143.932 97.1816L137.448 100.925C137.05 101.157 136.551 100.869 136.549 100.408L136.528 94.3107C136.528 94.0973 136.412 93.9 136.227 93.7934L119.707 84.2579C119.307 84.0268 119.307 83.4508 119.707 83.2197Z" fill="white"/>
<path d="M115.511 113.999L109.021 110.252C108.834 110.145 108.721 109.948 108.721 109.733V89.9759C108.721 89.7626 108.834 89.5653 109.019 89.4568L114.893 86.0384C115.079 85.9299 115.309 85.9299 115.494 86.0384L121.977 89.7821C122.375 90.0132 122.377 90.5874 121.979 90.8203L116.71 93.8868C116.525 93.9935 116.411 94.1908 116.411 94.4059V113.482C116.411 113.944 115.911 114.232 115.511 114.001V113.999Z" fill="white"/>
<path d="M144.228 102.231V109.726C144.228 109.941 144.114 110.138 143.928 110.245L126.818 120.124C126.633 120.23 126.405 120.23 126.22 120.124L120.324 116.746C120.137 116.639 120.021 116.44 120.021 116.225V108.739C120.021 108.279 120.519 107.991 120.919 108.218L126.21 111.249C126.394 111.356 126.622 111.354 126.807 111.249L143.327 101.71C143.727 101.479 144.226 101.767 144.226 102.229L144.228 102.231Z" fill="white"/>
</g>
<defs>
<radialGradient id="paint0_radial_30093_5270" cx="0" cy="0" r="1" gradientUnits="userSpaceOnUse" gradientTransform="translate(-4.32575 -73.805) rotate(64.0886) scale(293.31 189.997)">
<stop stop-color="#A3F5AA"/>
<stop offset="0.32258" stop-color="#82D289"/>
<stop offset="0.568893" stop-color="#66AB6C"/>
<stop offset="1" stop-color="#386A3C"/>
</radialGradient>
<radialGradient id="paint1_radial_30093_5270" cx="0" cy="0" r="1" gradientUnits="userSpaceOnUse" gradientTransform="translate(111.114 79.7998) rotate(83.1667) scale(105.522 68.0393)">
<stop stop-color="#656565"/>
<stop offset="0.4" stop-color="#525252"/>
<stop offset="0.835" stop-color="#373737"/>
<stop offset="1" stop-color="#2F2F2F"/>
</radialGradient>
</defs>
</svg>
