<svg width="219" height="161" viewBox="0 0 219 161" fill="none" xmlns="http://www.w3.org/2000/svg">
<path d="M58.34 50.7722C58.34 50.7722 20.6179 61.71 12.4112 86.6613C1.15099 120.896 35.4962 122.495 35.4962 122.495M35.4962 122.495L28.2885 110.833M35.4962 122.495L23.8849 126.978" stroke="#A3F5AA" stroke-dasharray="3 3"/>
<path d="M58.9443 103.107C43.9946 94.4069 36.7255 82.9654 37.1369 71.5986L37.137 71.5986L37.137 71.595L37.137 59.6153L59.1783 41.7814C84.0865 27.4101 122.101 25.2217 151 35.2169L151.13 35.2618L151.271 35.2294L165.489 31.9543L165.489 41.5935L58.9443 103.107Z" fill="url(#paint0_linear_23541_2039)" stroke="#A3F5AA" stroke-width="0.5"/>
<path d="M59.1604 31.7683C88.4748 14.8436 135.958 14.802 165.362 31.6436L58.9443 93.0837C29.7739 76.1075 29.8459 48.693 59.1604 31.7683Z" fill="url(#paint1_linear_23541_2039)" stroke="#A3F5AA" stroke-width="0.5"/>
<mask id="mask0_23541_2039" style="mask-type:alpha" maskUnits="userSpaceOnUse" x="36" y="18" width="130" height="76">
<path d="M59.1604 31.7683C88.4748 14.8436 135.958 14.802 165.362 31.6436L58.9443 93.0837C29.7739 76.1075 29.8459 48.693 59.1604 31.7683Z" fill="white" stroke="#A3F5AA" stroke-width="0.5"/>
</mask>
<g mask="url(#mask0_23541_2039)">
<path d="M121.68 40.1372L135.007 43.3193C135.386 43.41 135.676 43.629 135.764 43.8914L143.916 68.1783C144.004 68.4406 143.879 68.708 143.59 68.8814L134.345 74.3708C134.051 74.5439 133.636 74.5955 133.254 74.503L119.946 71.3251C119.127 71.1309 118.888 70.4222 119.514 70.05L127.811 65.1231C128.102 64.9514 128.225 64.6823 128.137 64.4199L120.263 40.9726C120.073 40.4048 120.859 39.9413 121.68 40.1372Z" fill="#A3F5AA"/>
<path d="M74.3599 60.8974L71.2679 51.6846C71.1774 51.4205 71.3029 51.1531 71.5965 50.98L98.565 35.0816C98.8562 34.91 99.2694 34.8598 99.6512 34.9491L111.745 37.8066C112.129 37.8975 112.419 38.1165 112.504 38.3803L115.592 47.5834C115.78 48.1496 114.999 48.6133 114.177 48.4205L103.329 45.8569C102.949 45.7662 102.536 45.8164 102.243 45.9894L76.2034 61.34C75.5725 61.7119 74.5478 61.4667 74.3574 60.8988L74.3599 60.8974Z" fill="#A3F5AA"/>
<path d="M126.737 78.8485L116.507 84.8794C116.213 85.0525 115.8 85.1027 115.419 85.0103L80.2982 76.6218C79.9189 76.5311 79.6311 76.3138 79.5429 76.0514L76.697 67.7032C76.6066 67.4391 76.7323 67.1686 77.0259 66.9955L87.244 60.9717C87.8725 60.6012 88.895 60.8447 89.0902 61.4098L91.6427 68.9003C91.7309 69.1626 92.0211 69.3785 92.398 69.4706L126.309 77.5688C127.13 77.7647 127.368 78.4735 126.737 78.8454L126.737 78.8485Z" fill="#A3F5AA"/>
</g>
<path d="M131.45 128.692C131.45 128.692 178.166 127.738 195.279 101.593C218.76 65.7197 179.785 53.3075 179.785 53.3075M179.785 53.3075L184.477 68.9274M179.785 53.3075L194.508 51.7305" stroke="white" stroke-dasharray="3 3"/>
<path d="M49.9411 120.389L156.416 68.7275L178.294 88.4879L178.294 98.402L178.294 98.402L178.294 98.4057C178.702 109.823 171.361 121.316 156.27 130.028C126.913 146.977 79.3349 146.995 49.9411 130.08L49.9411 120.389Z" fill="url(#paint2_linear_23541_2039)" stroke="white" stroke-width="0.5"/>
<path d="M156.27 120.005C126.955 136.93 79.4721 136.971 50.0684 120.13L156.486 58.6897C185.656 75.6659 185.584 103.08 156.27 120.005Z" fill="url(#paint3_linear_23541_2039)" stroke="white" stroke-width="0.5"/>
<mask id="mask1_23541_2039" style="mask-type:alpha" maskUnits="userSpaceOnUse" x="49" y="58" width="130" height="75">
<path d="M156.27 120.005C126.955 136.93 79.4721 136.971 50.0684 120.13L156.486 58.6897C185.656 75.6659 185.584 103.08 156.27 120.005Z" fill="white" stroke="black" stroke-width="0.5"/>
</mask>
<g mask="url(#mask1_23541_2039)">
<path d="M121.446 98.0322L120.641 97.8761L121.089 98.293C122.931 100.008 123.884 101.682 123.551 103.321C123.22 104.957 121.601 106.593 118.179 108.226L118.374 108.362L118.179 108.226C113.947 110.245 109.87 110.692 105.739 110.076C101.581 109.454 97.3375 107.75 92.8204 105.419L92.6046 105.307L92.3999 105.425L84.3605 110.064L79.6959 107.371L87.6227 102.796L87.8396 102.671L87.6224 102.546C86.3015 101.785 84.9629 100.998 83.5914 100.174L83.3749 100.044L83.1541 100.172L75.1918 104.77L70.5342 102.08L78.5804 97.4291L78.795 97.3051L78.5819 97.1801C78.1767 96.9425 77.7692 96.7022 77.3588 96.4603C76.5744 95.9978 75.7792 95.5291 74.9683 95.0598L74.9681 95.0596L68.5917 91.3782L75.0346 88.7404C75.1347 88.7998 75.2713 88.8809 75.4328 88.9765C75.7813 89.1829 76.246 89.4574 76.7106 89.7298C77.1748 90.002 77.6399 90.2726 77.9888 90.471C78.1628 90.57 78.3101 90.6523 78.4147 90.708C78.4658 90.7353 78.512 90.7591 78.5478 90.7756C78.5594 90.781 78.5806 90.7906 78.606 90.7996C79.372 91.2293 80.151 91.3629 80.8541 91.3332C81.5549 91.3037 82.1405 91.1137 82.5279 90.9461L82.5453 90.9386L82.5608 90.9296L95.6415 83.3775L95.6415 83.3775L104.952 78.0001L104.973 77.9882L104.989 77.9743C105.42 77.6073 105.781 77.1307 105.746 76.5791C105.712 76.0317 105.289 75.4365 104.248 74.8249C104.233 74.8097 104.217 74.7974 104.208 74.7907C104.179 74.7687 104.137 74.741 104.09 74.7112C103.993 74.6499 103.851 74.5644 103.679 74.4639C103.336 74.2622 102.867 73.9943 102.396 73.7273C101.924 73.4601 101.449 73.193 101.091 72.9928C100.944 72.9104 100.816 72.8393 100.718 72.7841L105.593 69.9682L112.189 73.7793L112.165 73.7933L112.381 73.9183C113.442 74.5308 114.549 75.1457 115.675 75.7702L115.891 75.8902L116.103 75.7677L124.06 71.175L128.72 73.8658L120.927 78.3664L120.706 78.4939L120.931 78.6188C122.319 79.3893 123.71 80.1627 125.049 80.9357L125.265 81.0607L125.482 80.9357L133.226 76.4662L137.891 79.1594L129.934 83.7546L129.736 83.8693L129.917 83.9935C132.915 86.0485 135.193 88.0923 136.073 90.0738C136.947 92.0434 136.445 93.9566 133.855 95.7793L133.855 95.7795C131.947 97.1263 129.918 97.8935 127.843 98.2239C125.767 98.5545 123.615 98.4525 121.446 98.0322ZM115.632 81.8137L115.416 81.6887L115.199 81.8137L105.265 87.5493L105.049 87.6743L105.265 87.7993C105.5 87.9351 105.775 88.0987 106.083 88.2827C107.638 89.2102 110.062 90.6557 112.726 91.6691C114.323 92.277 116.037 92.7415 117.729 92.8401C119.437 92.9397 121.108 92.6645 122.581 91.814L122.581 91.814C124.112 90.9301 124.622 89.9493 124.461 88.9541C124.302 87.9688 123.489 86.9824 122.421 86.0677C120.716 84.6082 118.302 83.285 116.68 82.396C116.273 82.173 115.916 81.9773 115.632 81.8137ZM89.2944 96.7675L89.0777 96.8925L89.2945 97.0176C89.5756 97.1796 89.9027 97.3738 90.27 97.5917C92.1415 98.7025 95.0536 100.431 98.2045 101.669C100.09 102.41 102.09 102.987 104.03 103.147C105.987 103.308 107.879 103.042 109.499 102.106C111.182 101.134 111.679 100.024 111.413 98.8845C111.149 97.7558 110.138 96.6054 108.838 95.5264C106.756 93.7993 103.87 92.2094 101.928 91.1393C101.446 90.8738 101.022 90.6404 100.683 90.4447L100.467 90.3198L100.25 90.4447L89.2944 96.7675Z" fill="white" stroke="white" stroke-width="0.5"/>
</g>
<defs>
<linearGradient id="paint0_linear_23541_2039" x1="32.231" y1="87.9348" x2="89.9753" y2="-12.0812" gradientUnits="userSpaceOnUse">
<stop stop-color="#576D59"/>
<stop offset="1" stop-color="#474747"/>
</linearGradient>
<linearGradient id="paint1_linear_23541_2039" x1="32.231" y1="77.9113" x2="85.6567" y2="-14.6247" gradientUnits="userSpaceOnUse">
<stop stop-color="#617E64"/>
<stop offset="1" stop-color="#425343"/>
</linearGradient>
<linearGradient id="paint2_linear_23541_2039" x1="178.935" y1="81.4235" x2="125.51" y2="173.96" gradientUnits="userSpaceOnUse">
<stop stop-color="#474747"/>
<stop offset="1" stop-color="#575757"/>
</linearGradient>
<linearGradient id="paint3_linear_23541_2039" x1="183.199" y1="73.8621" x2="129.773" y2="166.398" gradientUnits="userSpaceOnUse">
<stop stop-color="#585858"/>
<stop offset="1" stop-color="#696969"/>
</linearGradient>
</defs>
</svg>
