<svg width="26" height="26" viewBox="0 0 26 26" fill="none" xmlns="http://www.w3.org/2000/svg">
<path fill-rule="evenodd" clip-rule="evenodd" d="M1.02841 1.02746C1.28625 0.76976 1.63587 0.625 2.00041 0.625C2.36495 0.625 2.71457 0.76976 2.97241 1.02746L13.0004 11.0545L23.0284 1.02846C23.2882 0.780649 23.6347 0.644297 23.9937 0.648542C24.3527 0.652787 24.6958 0.797292 24.9497 1.05117C25.2036 1.30506 25.3481 1.64817 25.3523 2.00719C25.3566 2.36621 25.2202 2.71264 24.9724 2.97246L14.9444 12.9995L24.9724 23.0275C25.2202 23.2873 25.3566 23.6337 25.3523 23.9927C25.3481 24.3517 25.2036 24.6949 24.9497 24.9487C24.6958 25.2026 24.3527 25.3471 23.9937 25.3514C23.6347 25.3556 23.2882 25.2193 23.0284 24.9715L13.0004 14.9435L2.97241 24.9725C2.7126 25.2203 2.36616 25.3566 2.00714 25.3524C1.64812 25.3481 1.30501 25.2036 1.05113 24.9497C0.797246 24.6959 0.65274 24.3527 0.648495 23.9937C0.64425 23.6347 0.780602 23.2883 1.02841 23.0285L11.0554 12.9995L1.02941 2.97146C0.771713 2.71362 0.626953 2.364 0.626953 1.99946C0.626953 1.63492 0.771713 1.2853 1.02941 1.02746H1.02841Z" fill="white"/>
</svg>
