<svg width="207" height="81" viewBox="0 0 207 81" fill="none" xmlns="http://www.w3.org/2000/svg">
<path d="M28.8474 0.671875H8.29946L1.25533 34.7913L0.117188 40.3349H11.0064L4.73125 66.9505L1.59369 80.3349L8.23794 66.9505H28.8474C49.3646 66.9505 58.2236 52.096 58.2236 33.8112C58.2236 15.5264 49.3646 0.671875 28.8474 0.671875ZM24.3872 57.4865H12.975L27.3402 28.5738H15.3128L22.7569 10.1359H24.3872C42.6589 10.1359 46.5654 20.5187 46.5654 33.8112C46.5654 47.1037 42.6589 57.4865 24.3872 57.4865Z" fill="#BDF447"/>
<path d="M85.1104 20.7633C86.8692 20.7633 88.4122 21.1071 89.7393 21.7946C91.0823 22.4821 92.1136 23.4655 92.8332 24.7446C93.5687 26.0077 93.9364 27.4787 93.9364 29.1576C93.9364 30.8364 93.5687 32.3074 92.8332 33.5706C92.1136 34.8177 91.0823 35.7851 89.7393 36.4726C88.4122 37.1601 86.8692 37.5039 85.1104 37.5039H79.2584V20.7633H85.1104ZM84.9905 34.6498C86.7493 34.6498 88.1084 34.1702 89.0677 33.2108C90.0271 32.2515 90.5067 30.9004 90.5067 29.1576C90.5067 27.4148 90.0271 26.0557 89.0677 25.0804C88.1084 24.089 86.7493 23.5934 84.9905 23.5934H82.6161V34.6498H84.9905ZM108.801 30.5726C108.801 31.0523 108.769 31.484 108.705 31.8677H98.9921C99.072 32.8271 99.4078 33.5786 99.9994 34.1222C100.591 34.6658 101.319 34.9377 102.182 34.9377C103.429 34.9377 104.316 34.402 104.844 33.3307H108.466C108.082 34.6099 107.346 35.6652 106.259 36.4966C105.172 37.312 103.837 37.7198 102.254 37.7198C100.975 37.7198 99.8235 37.4399 98.8002 36.8803C97.7929 36.3047 97.0014 35.4973 96.4258 34.458C95.8662 33.4187 95.5864 32.2195 95.5864 30.8604C95.5864 29.4854 95.8662 28.2782 96.4258 27.2389C96.9855 26.1996 97.7689 25.4001 98.7762 24.8405C99.7835 24.2809 100.943 24.0011 102.254 24.0011C103.517 24.0011 104.644 24.2729 105.636 24.8165C106.643 25.3602 107.418 26.1356 107.962 27.143C108.522 28.1343 108.801 29.2775 108.801 30.5726ZM105.324 29.6133C105.308 28.7499 104.996 28.0623 104.388 27.5507C103.781 27.023 103.037 26.7592 102.158 26.7592C101.326 26.7592 100.623 27.015 100.047 27.5267C99.4877 28.0224 99.144 28.7179 99.0161 29.6133H105.324ZM127.753 24.0251C129.384 24.0251 130.695 24.5287 131.686 25.5361C132.694 26.5274 133.197 27.9184 133.197 29.7092V37.5039H129.84V30.1649C129.84 29.1256 129.576 28.3341 129.048 27.7905C128.52 27.2309 127.801 26.9511 126.89 26.9511C125.978 26.9511 125.251 27.2309 124.707 27.7905C124.179 28.3341 123.916 29.1256 123.916 30.1649V37.5039H120.558V30.1649C120.558 29.1256 120.294 28.3341 119.766 27.7905C119.239 27.2309 118.519 26.9511 117.608 26.9511C116.681 26.9511 115.945 27.2309 115.401 27.7905C114.874 28.3341 114.61 29.1256 114.61 30.1649V37.5039H111.252V24.2169H114.61V25.8239C115.042 25.2642 115.593 24.8245 116.265 24.5048C116.952 24.185 117.704 24.0251 118.519 24.0251C119.559 24.0251 120.486 24.2489 121.301 24.6966C122.117 25.1283 122.748 25.7519 123.196 26.5673C123.628 25.7999 124.251 25.1843 125.067 24.7206C125.898 24.2569 126.794 24.0251 127.753 24.0251ZM148.735 30.5726C148.735 31.0523 148.703 31.484 148.639 31.8677H138.926C139.006 32.8271 139.342 33.5786 139.933 34.1222C140.525 34.6658 141.252 34.9377 142.116 34.9377C143.363 34.9377 144.25 34.402 144.778 33.3307H148.399C148.016 34.6099 147.28 35.6652 146.193 36.4966C145.106 37.312 143.771 37.7198 142.188 37.7198C140.908 37.7198 139.757 37.4399 138.734 36.8803C137.727 36.3047 136.935 35.4973 136.36 34.458C135.8 33.4187 135.52 32.2195 135.52 30.8604C135.52 29.4854 135.8 28.2782 136.36 27.2389C136.919 26.1996 137.703 25.4001 138.71 24.8405C139.717 24.2809 140.877 24.0011 142.188 24.0011C143.451 24.0011 144.578 24.2729 145.569 24.8165C146.577 25.3602 147.352 26.1356 147.896 27.143C148.455 28.1343 148.735 29.2775 148.735 30.5726ZM145.258 29.6133C145.242 28.7499 144.93 28.0623 144.322 27.5507C143.715 27.023 142.971 26.7592 142.092 26.7592C141.26 26.7592 140.557 27.015 139.981 27.5267C139.422 28.0224 139.078 28.7179 138.95 29.6133H145.258ZM158.549 24.0251C160.132 24.0251 161.411 24.5287 162.386 25.5361C163.362 26.5274 163.849 27.9184 163.849 29.7092V37.5039H160.492V30.1649C160.492 29.1096 160.228 28.3022 159.7 27.7425C159.173 27.1669 158.453 26.8791 157.542 26.8791C156.614 26.8791 155.879 27.1669 155.335 27.7425C154.808 28.3022 154.544 29.1096 154.544 30.1649V37.5039H151.186V24.2169H154.544V25.8718C154.991 25.2962 155.559 24.8485 156.247 24.5287C156.95 24.193 157.718 24.0251 158.549 24.0251ZM170.952 26.9751V33.4027C170.952 33.8504 171.056 34.1782 171.264 34.386C171.487 34.5779 171.855 34.6738 172.367 34.6738H173.926V37.5039H171.815C168.985 37.5039 167.57 36.1288 167.57 33.3787V26.9751H165.987V24.2169H167.57V20.9312H170.952V24.2169H173.926V26.9751H170.952ZM188.692 30.5726C188.692 31.0523 188.66 31.484 188.596 31.8677H178.883C178.963 32.8271 179.299 33.5786 179.89 34.1222C180.482 34.6658 181.209 34.9377 182.073 34.9377C183.32 34.9377 184.207 34.402 184.735 33.3307H188.357C187.973 34.6099 187.237 35.6652 186.15 36.4966C185.063 37.312 183.728 37.7198 182.145 37.7198C180.866 37.7198 179.714 37.4399 178.691 36.8803C177.684 36.3047 176.892 35.4973 176.317 34.458C175.757 33.4187 175.477 32.2195 175.477 30.8604C175.477 29.4854 175.757 28.2782 176.317 27.2389C176.876 26.1996 177.66 25.4001 178.667 24.8405C179.674 24.2809 180.834 24.0011 182.145 24.0011C183.408 24.0011 184.535 24.2729 185.527 24.8165C186.534 25.3602 187.309 26.1356 187.853 27.143C188.413 28.1343 188.692 29.2775 188.692 30.5726ZM185.215 29.6133C185.199 28.7499 184.887 28.0623 184.279 27.5507C183.672 27.023 182.928 26.7592 182.049 26.7592C181.217 26.7592 180.514 27.015 179.938 27.5267C179.379 28.0224 179.035 28.7179 178.907 29.6133H185.215ZM190.28 30.8125C190.28 29.4694 190.544 28.2782 191.071 27.2389C191.615 26.1996 192.35 25.4001 193.278 24.8405C194.205 24.2809 195.236 24.0011 196.372 24.0011C197.235 24.0011 198.058 24.193 198.842 24.5767C199.625 24.9445 200.249 25.4401 200.713 26.0637V19.756H204.118V37.5039H200.713V35.5372C200.297 36.1928 199.713 36.7204 198.962 37.1202C198.21 37.5199 197.339 37.7198 196.348 37.7198C195.228 37.7198 194.205 37.432 193.278 36.8563C192.35 36.2807 191.615 35.4733 191.071 34.434C190.544 33.3787 190.28 32.1715 190.28 30.8125ZM200.737 30.8604C200.737 30.045 200.577 29.3495 200.257 28.7738C199.937 28.1822 199.505 27.7346 198.962 27.4308C198.418 27.111 197.835 26.9511 197.211 26.9511C196.587 26.9511 196.012 27.103 195.484 27.4068C194.957 27.7106 194.525 28.1583 194.189 28.7499C193.869 29.3255 193.709 30.013 193.709 30.8125C193.709 31.6119 193.869 32.3154 194.189 32.923C194.525 33.5146 194.957 33.9703 195.484 34.2901C196.028 34.6099 196.603 34.7698 197.211 34.7698C197.835 34.7698 198.418 34.6179 198.962 34.3141C199.505 33.9943 199.937 33.5466 200.257 32.971C200.577 32.3794 200.737 31.6759 200.737 30.8604ZM90.9145 47.7999C90.5307 47.0964 90.0031 46.5607 89.3315 46.193C88.66 45.8252 87.8765 45.6413 86.9811 45.6413C85.9898 45.6413 85.1104 45.8652 84.3429 46.3129C83.5755 46.7606 82.9759 47.4001 82.5442 48.2316C82.1124 49.063 81.8966 50.0224 81.8966 51.1096C81.8966 52.2289 82.1124 53.2042 82.5442 54.0356C82.9918 54.8671 83.6074 55.5066 84.3909 55.9543C85.1744 56.402 86.0857 56.6259 87.125 56.6259C88.4042 56.6259 89.4515 56.2901 90.2669 55.6186C91.0823 54.931 91.618 53.9797 91.8738 52.7645H86.1177V50.1982H95.1836V53.1242C94.9597 54.2915 94.48 55.3707 93.7445 56.362C93.009 57.3534 92.0577 58.1528 90.8905 58.7604C89.7393 59.352 88.4441 59.6478 87.0051 59.6478C85.3902 59.6478 83.9272 59.2881 82.6161 58.5685C81.321 57.833 80.2977 56.8177 79.5462 55.5226C78.8107 54.2275 78.4429 52.7565 78.4429 51.1096C78.4429 49.4627 78.8107 47.9917 79.5462 46.6966C80.2977 45.3855 81.321 44.3702 82.6161 43.6507C83.9272 42.9152 85.3822 42.5474 86.9811 42.5474C88.8678 42.5474 90.5067 43.0111 91.8978 43.9385C93.2888 44.8499 94.2482 46.137 94.7758 47.7999H90.9145ZM96.8043 52.8125C96.8043 51.4694 97.0681 50.2782 97.5958 49.2389C98.1394 48.1996 98.8669 47.4001 99.7783 46.8405C100.706 46.2809 101.737 46.0011 102.872 46.0011C103.864 46.0011 104.727 46.201 105.462 46.6007C106.214 47.0004 106.814 47.5041 107.261 48.1117V46.2169H110.643V59.5039H107.261V57.5612C106.83 58.1848 106.23 58.7045 105.462 59.1202C104.711 59.5199 103.84 59.7198 102.848 59.7198C101.729 59.7198 100.706 59.432 99.7783 58.8563C98.8669 58.2807 98.1394 57.4733 97.5958 56.434C97.0681 55.3787 96.8043 54.1715 96.8043 52.8125ZM107.261 52.8604C107.261 52.045 107.101 51.3495 106.782 50.7738C106.462 50.1822 106.03 49.7346 105.486 49.4308C104.943 49.111 104.359 48.9511 103.736 48.9511C103.112 48.9511 102.536 49.103 102.009 49.4068C101.481 49.7106 101.049 50.1583 100.714 50.7499C100.394 51.3255 100.234 52.013 100.234 52.8125C100.234 53.6119 100.394 54.3154 100.714 54.923C101.049 55.5146 101.481 55.9703 102.009 56.2901C102.552 56.6099 103.128 56.7698 103.736 56.7698C104.359 56.7698 104.943 56.6179 105.486 56.3141C106.03 55.9943 106.462 55.5466 106.782 54.971C107.101 54.3794 107.261 53.6759 107.261 52.8604ZM130.423 46.0251C132.054 46.0251 133.365 46.5287 134.356 47.5361C135.364 48.5274 135.867 49.9184 135.867 51.7092V59.5039H132.51V52.1649C132.51 51.1256 132.246 50.3341 131.718 49.7905C131.191 49.2309 130.471 48.9511 129.56 48.9511C128.648 48.9511 127.921 49.2309 127.377 49.7905C126.85 50.3341 126.586 51.1256 126.586 52.1649V59.5039H123.228V52.1649C123.228 51.1256 122.964 50.3341 122.437 49.7905C121.909 49.2309 121.189 48.9511 120.278 48.9511C119.351 48.9511 118.615 49.2309 118.071 49.7905C117.544 50.3341 117.28 51.1256 117.28 52.1649V59.5039H113.922V46.2169H117.28V47.8239C117.712 47.2642 118.263 46.8245 118.935 46.5048C119.622 46.185 120.374 46.0251 121.189 46.0251C122.229 46.0251 123.156 46.2489 123.971 46.6966C124.787 47.1283 125.418 47.7519 125.866 48.5673C126.298 47.7999 126.921 47.1843 127.737 46.7206C128.568 46.2569 129.464 46.0251 130.423 46.0251ZM151.405 52.5726C151.405 53.0523 151.373 53.484 151.309 53.8677H141.596C141.676 54.8271 142.012 55.5786 142.603 56.1222C143.195 56.6658 143.922 56.9377 144.786 56.9377C146.033 56.9377 146.92 56.402 147.448 55.3307H151.069C150.686 56.6099 149.95 57.6652 148.863 58.4966C147.776 59.312 146.441 59.7198 144.858 59.7198C143.579 59.7198 142.427 59.4399 141.404 58.8803C140.397 58.3047 139.605 57.4973 139.03 56.458C138.47 55.4187 138.19 54.2195 138.19 52.8604C138.19 51.4854 138.47 50.2782 139.03 49.2389C139.589 48.1996 140.373 47.4001 141.38 46.8405C142.387 46.2809 143.547 46.0011 144.858 46.0011C146.121 46.0011 147.248 46.2729 148.239 46.8165C149.247 47.3602 150.022 48.1356 150.566 49.143C151.125 50.1343 151.405 51.2775 151.405 52.5726ZM147.928 51.6133C147.912 50.7499 147.6 50.0623 146.992 49.5507C146.385 49.023 145.641 48.7592 144.762 48.7592C143.93 48.7592 143.227 49.015 142.651 49.5267C142.092 50.0224 141.748 50.7179 141.62 51.6133H147.928ZM158.941 59.7198C157.853 59.7198 156.878 59.5279 156.015 59.1442C155.151 58.7444 154.464 58.2088 153.952 57.5372C153.456 56.8657 153.185 56.1222 153.137 55.3068H156.518C156.582 55.8184 156.83 56.2421 157.262 56.5779C157.709 56.9137 158.261 57.0816 158.917 57.0816C159.556 57.0816 160.052 56.9536 160.404 56.6978C160.771 56.442 160.955 56.1142 160.955 55.7145C160.955 55.2828 160.731 54.963 160.284 54.7551C159.852 54.5313 159.156 54.2915 158.197 54.0356C157.206 53.7958 156.39 53.548 155.751 53.2921C155.127 53.0363 154.584 52.6446 154.12 52.1169C153.672 51.5893 153.448 50.8778 153.448 49.9824C153.448 49.2469 153.656 48.5753 154.072 47.9678C154.504 47.3602 155.111 46.8805 155.895 46.5287C156.694 46.177 157.629 46.0011 158.701 46.0011C160.284 46.0011 161.547 46.4008 162.49 47.2003C163.434 47.9837 163.953 49.047 164.049 50.3901H160.835C160.787 49.8625 160.563 49.4468 160.164 49.143C159.78 48.8232 159.26 48.6633 158.605 48.6633C157.997 48.6633 157.526 48.7752 157.19 48.9991C156.87 49.2229 156.71 49.5347 156.71 49.9344C156.71 50.3821 156.934 50.7259 157.382 50.9657C157.829 51.1896 158.525 51.4214 159.468 51.6612C160.428 51.9011 161.219 52.1489 161.843 52.4047C162.466 52.6606 163.002 53.0603 163.45 53.6039C163.913 54.1316 164.153 54.8351 164.169 55.7145C164.169 56.482 163.953 57.1695 163.521 57.7771C163.106 58.3847 162.498 58.8643 161.699 59.2161C160.915 59.5519 159.996 59.7198 158.941 59.7198Z" fill="#BDF447"/>
</svg>
