<svg width="25" height="18" viewBox="0 0 25 18" fill="none" xmlns="http://www.w3.org/2000/svg">
<path d="M18.2178 17.6656C18.2178 17.6656 17.4623 16.7627 16.8328 15.9858C19.5819 15.2088 20.6312 13.508 20.6312 13.508C19.7708 14.0749 18.9523 14.4739 18.2178 14.7469C17.1685 15.1878 16.1612 15.4608 15.1749 15.6498C13.1602 16.0278 11.3135 15.9228 9.7395 15.6288C8.5433 15.3978 7.51499 15.0829 6.65457 14.7259C6.17189 14.5369 5.64724 14.3059 5.12259 14.0119C5.05963 13.97 4.99668 13.949 4.93372 13.907C4.89175 13.886 4.87076 13.865 4.84977 13.865C4.47203 13.655 4.26217 13.508 4.26217 13.508C4.26217 13.508 5.26949 15.1668 7.93471 15.9648C7.30513 16.7627 6.52865 17.6866 6.52865 17.6866C1.89075 17.5396 0.12793 14.5159 0.12793 14.5159C0.12793 7.81747 3.14991 2.37894 3.14991 2.37894C6.17189 0.132129 9.02598 0.195124 9.02598 0.195124L9.23584 0.447102C5.45837 1.51801 3.73752 3.17687 3.73752 3.17687C3.73752 3.17687 4.19921 2.92489 4.97569 2.58892C7.22119 1.602 9.005 1.35003 9.7395 1.26603C9.86542 1.24503 9.97035 1.22404 10.0963 1.22404C11.3764 1.05605 12.8244 1.01405 14.3354 1.18204C16.3291 1.41302 18.4697 2.00097 20.6522 3.17687C20.6522 3.17687 18.9943 1.602 15.4267 0.531095L15.7205 0.195124C15.7205 0.195124 18.5956 0.132129 21.5966 2.37894C21.5966 2.37894 24.6186 7.81747 24.6186 14.5159C24.6186 14.4949 22.8557 17.5186 18.2178 17.6656Z" fill="white"/>
</svg>
