<svg width="15" height="21" viewBox="0 0 15 21" fill="none" xmlns="http://www.w3.org/2000/svg">
<path d="M7.10656 17.2908C5.4749 17.2908 4.16406 15.9983 4.16406 14.4124C4.16406 12.9274 5.10823 11.8824 6.73073 11.5524C8.35323 11.2224 10.0307 10.4433 10.9657 9.18745C11.3232 10.3699 11.4974 11.6166 11.4974 12.8908C11.4974 15.3108 9.53573 17.2908 7.10656 17.2908ZM8.7474 0.488281C8.7474 0.488281 9.42573 2.91745 9.42573 4.88828C9.42573 6.77661 8.18823 8.30745 6.2999 8.30745C4.4024 8.30745 2.9724 6.77661 2.9724 4.88828L2.9999 4.54912C1.14823 6.74911 0.0390625 9.59995 0.0390625 12.7074C0.0390625 13.6705 0.228745 14.6241 0.597279 15.5138C0.965814 16.4035 1.50598 17.2119 2.18695 17.8929C2.86791 18.5739 3.67633 19.114 4.56605 19.4826C5.45577 19.8511 6.40937 20.0408 7.3724 20.0408C8.33542 20.0408 9.28902 19.8511 10.1787 19.4826C11.0685 19.114 11.8769 18.5739 12.5578 17.8929C13.2388 17.2119 13.779 16.4035 14.1475 15.5138C14.516 14.6241 14.7057 13.6705 14.7057 12.7074C14.7057 7.75745 12.3316 3.35745 8.7474 0.488281Z" fill="#FA3C00"/>
<path d="M7.10656 17.2908C5.4749 17.2908 4.16406 15.9983 4.16406 14.4124C4.16406 12.9274 5.10823 11.8824 6.73073 11.5524C8.35323 11.2224 10.0307 10.4433 10.9657 9.18745C11.3232 10.3699 11.4974 11.6166 11.4974 12.8908C11.4974 15.3108 9.53573 17.2908 7.10656 17.2908Z" fill="#FAB400"/>
</svg>
