<svg width="29" height="38" viewBox="0 0 29 38" fill="none" xmlns="http://www.w3.org/2000/svg">
<path d="M14.1826 32.3828C11.0418 32.3828 8.51849 29.8949 8.51849 26.8422C8.51849 23.9837 10.336 21.9721 13.4592 21.3369C16.5824 20.7017 19.8115 19.2018 21.6113 16.7844C22.2994 19.0607 22.6347 21.4604 22.6347 23.9131C22.6347 28.5715 18.8586 32.3828 14.1826 32.3828ZM17.3411 0.0390625C17.3411 0.0390625 18.6469 4.71506 18.6469 8.50879C18.6469 12.1437 16.2648 15.0905 12.6298 15.0905C8.97727 15.0905 6.22461 12.1437 6.22461 8.50879L6.27754 7.85592C2.7132 12.0908 0.578125 17.5785 0.578125 23.5602C0.578125 25.414 0.943251 27.2496 1.65266 28.9622C2.36206 30.6749 3.40186 32.2311 4.71267 33.5419C6.02348 34.8527 7.57964 35.8925 9.2923 36.6019C11.005 37.3113 12.8406 37.6764 14.6943 37.6764C16.5481 37.6764 18.3837 37.3113 20.0964 36.6019C21.809 35.8925 23.3652 34.8527 24.676 33.5419C25.9868 32.2311 27.0266 30.6749 27.736 28.9622C28.4454 27.2496 28.8105 25.414 28.8105 23.5602C28.8105 14.0318 24.2404 5.56203 17.3411 0.0390625Z" fill="#8A8A8A" fill-opacity="0.09"/>
<path d="M14.1826 32.3828C11.0418 32.3828 8.51849 29.8949 8.51849 26.8422C8.51849 23.9837 10.336 21.9721 13.4592 21.3369C16.5824 20.7017 19.8115 19.2018 21.6113 16.7844C22.2994 19.0607 22.6347 21.4604 22.6347 23.9131C22.6347 28.5715 18.8586 32.3828 14.1826 32.3828Z" fill="#A9A9A9" fill-opacity="0.24"/>
<path d="M21.8506 16.7121L21.707 16.2372L21.4108 16.6351C19.6624 18.9834 16.5019 20.4629 13.4093 21.0919C11.8071 21.4178 10.5197 22.101 9.63172 23.0887C8.74191 24.0784 8.26849 25.3571 8.26849 26.8422C8.26849 30.0375 10.9083 32.6328 14.1826 32.6328C18.9977 32.6328 22.8847 28.7085 22.8847 23.9131C22.8847 21.4377 22.5463 19.0134 21.8506 16.7121ZM0.828125 23.5602C0.828125 17.9203 2.74529 12.7253 5.97549 8.62284C6.0325 12.3341 8.8684 15.3405 12.6298 15.3405C16.4315 15.3405 18.8969 12.2512 18.8969 8.50879C18.8969 6.58771 18.5668 4.45163 18.2392 2.80256C18.0751 1.97657 17.911 1.26978 17.7879 0.769248C17.7837 0.752313 17.7796 0.735613 17.7756 0.719152C24.2893 6.20269 28.5605 14.3882 28.5605 23.5602C28.5605 25.3811 28.2019 27.1842 27.505 28.8666C26.8082 30.5489 25.7868 32.0775 24.4992 33.3651C23.2116 34.6527 21.683 35.6741 20.0007 36.3709C18.3184 37.0678 16.5153 37.4264 14.6943 37.4264C12.8734 37.4264 11.0703 37.0678 9.38797 36.3709C7.70564 35.6741 6.17704 34.6527 4.88944 33.3651C3.60185 32.0775 2.58047 30.5489 1.88363 28.8666C1.18678 27.1842 0.828125 25.3811 0.828125 23.5602ZM14.1826 32.1328C11.1752 32.1328 8.76849 29.7522 8.76849 26.8422C8.76849 25.4688 9.20381 24.3125 10.0035 23.423C10.8051 22.5314 11.9881 21.8912 13.509 21.5819C16.4963 20.9743 19.6125 19.5784 21.5065 17.3197C22.0964 19.4326 22.3847 21.6491 22.3847 23.9131C22.3847 28.4344 18.7195 32.1328 14.1826 32.1328Z" stroke="white" stroke-width="0.5"/>
</svg>
