<svg width="155" height="135" viewBox="0 0 155 135" fill="none" xmlns="http://www.w3.org/2000/svg">
<path d="M135.176 67.5009C135.176 104.586 105.067 134.65 67.9239 134.65C30.7813 134.65 0.671875 104.586 0.671875 67.5009C0.671875 30.4157 30.7813 0.351562 67.9239 0.351562C105.067 0.351562 135.176 30.4157 135.176 67.5009Z" fill="url(#paint0_radial_28208_1229)" fill-opacity="0.27" stroke="#B4F9BA" stroke-width="0.5"/>
<path d="M105.276 28.7012L75.4435 60.881L75.3017 61.0339L75.4267 61.2008L109.208 106.299H84.9657L62.0735 75.7356L61.8938 75.4957L61.6901 75.7155L33.3375 106.299H26.7114L58.7905 71.6963L58.9323 71.5434L58.8073 71.3765L26.8416 28.7012H51.0844L72.1619 56.8404L72.3416 57.0802L72.5453 56.8605L98.6499 28.7012H105.276ZM37.0887 33.5754H36.589L36.8886 33.9753L87.3359 101.324L87.4109 101.424H87.536H98.96H99.4597L99.1601 101.024L48.7128 33.6755L48.6378 33.5754H48.5127H37.0887Z" fill="url(#paint1_radial_28208_1229)" fill-opacity="0.27"/>
<path d="M105.276 28.7012L75.4435 60.881L75.3017 61.0339L75.4267 61.2008L109.208 106.299H84.9657L62.0735 75.7356L61.8938 75.4957L61.6901 75.7155L33.3375 106.299H26.7114L58.7905 71.6963L58.9323 71.5434L58.8073 71.3765L26.8416 28.7012H51.0844L72.1619 56.8404L72.3416 57.0802L72.5453 56.8605L98.6499 28.7012H105.276ZM37.0887 33.5754H36.589L36.8886 33.9753L87.3359 101.324L87.4109 101.424H87.536H98.96H99.4597L99.1601 101.024L48.7128 33.6755L48.6378 33.5754H48.5127H37.0887Z" fill="white"/>
<path d="M105.276 28.7012L75.4435 60.881L75.3017 61.0339L75.4267 61.2008L109.208 106.299H84.9657L62.0735 75.7356L61.8938 75.4957L61.6901 75.7155L33.3375 106.299H26.7114L58.7905 71.6963L58.9323 71.5434L58.8073 71.3765L26.8416 28.7012H51.0844L72.1619 56.8404L72.3416 57.0802L72.5453 56.8605L98.6499 28.7012H105.276ZM37.0887 33.5754H36.589L36.8886 33.9753L87.3359 101.324L87.4109 101.424H87.536H98.96H99.4597L99.1601 101.024L48.7128 33.6755L48.6378 33.5754H48.5127H37.0887Z" stroke="#B4F9BA" stroke-width="0.5"/>
<circle cx="120" cy="99.9004" r="34.5" fill="url(#paint2_radial_28208_1229)" stroke="white" stroke-dasharray="3 3"/>
<g style="mix-blend-mode:luminosity">
<path d="M113.23 83.3233L119.722 79.5741C119.907 79.4675 120.136 79.4675 120.321 79.5741L137.431 89.4527C137.616 89.5593 137.73 89.7567 137.731 89.97L137.755 96.7643C137.755 96.9794 137.641 97.1785 137.454 97.2851L130.971 101.029C130.573 101.26 130.073 100.972 130.071 100.512L130.05 94.4142C130.05 94.2009 129.935 94.0035 129.75 93.8969L113.23 84.3614C112.83 84.1303 112.83 83.5544 113.23 83.3233Z" fill="white"/>
<path d="M109.035 114.103L102.545 110.356C102.358 110.249 102.244 110.052 102.244 109.837V90.0794C102.244 89.8661 102.358 89.6688 102.543 89.5603L108.416 86.1419C108.603 86.0334 108.832 86.0334 109.017 86.1419L115.5 89.8857C115.898 90.1168 115.9 90.691 115.502 90.9238L110.233 93.9903C110.048 94.097 109.934 94.2943 109.934 94.5094V113.586C109.934 114.048 109.435 114.336 109.035 114.105V114.103Z" fill="white"/>
<path d="M137.752 102.335V109.829C137.752 110.045 137.638 110.242 137.451 110.349L120.341 120.227C120.156 120.334 119.929 120.334 119.744 120.227L113.847 116.849C113.66 116.743 113.545 116.544 113.545 116.329V108.843C113.545 108.382 114.043 108.094 114.443 108.322L119.733 111.353C119.918 111.46 120.145 111.458 120.33 111.353L136.85 101.814C137.25 101.583 137.75 101.871 137.75 102.333L137.752 102.335Z" fill="white"/>
</g>
<defs>
<radialGradient id="paint0_radial_28208_1229" cx="0" cy="0" r="1" gradientUnits="userSpaceOnUse" gradientTransform="translate(38.2959 28.9927) rotate(83.1564) scale(203.207 131.22)">
<stop stop-color="#A3F5AA"/>
<stop offset="0.4" stop-color="#82D289"/>
<stop offset="0.835" stop-color="#66AB6C"/>
<stop offset="1" stop-color="#386A3C"/>
</radialGradient>
<radialGradient id="paint1_radial_28208_1229" cx="0" cy="0" r="1" gradientUnits="userSpaceOnUse" gradientTransform="translate(49.5832 45.1896) rotate(82.6929) scale(117.849 81.1454)">
<stop stop-color="#A3F5AA"/>
<stop offset="0.4" stop-color="#82D289"/>
<stop offset="0.835" stop-color="#66AB6C"/>
<stop offset="1" stop-color="#386A3C"/>
</radialGradient>
<radialGradient id="paint2_radial_28208_1229" cx="0" cy="0" r="1" gradientUnits="userSpaceOnUse" gradientTransform="translate(104.638 79.9033) rotate(83.1667) scale(105.522 68.0393)">
<stop stop-color="#656565"/>
<stop offset="0.4" stop-color="#525252"/>
<stop offset="0.835" stop-color="#373737"/>
<stop offset="1" stop-color="#2F2F2F"/>
</radialGradient>
</defs>
</svg>
