<svg width="155" height="135" viewBox="0 0 155 135" fill="none" xmlns="http://www.w3.org/2000/svg">
<path d="M135.176 67.5009C135.176 104.586 105.067 134.65 67.9244 134.65C30.7818 134.65 0.672363 104.586 0.672363 67.5009C0.672363 30.4157 30.7818 0.351562 67.9244 0.351562C105.067 0.351562 135.176 30.4157 135.176 67.5009Z" fill="url(#paint0_radial_23812_7)" fill-opacity="0.27" stroke="#B4F9BA" stroke-width="0.5"/>
<path d="M105.277 28.7012L75.4444 60.881L75.3027 61.0339L75.4277 61.2008L109.209 106.299H84.9667L62.0745 75.7356L61.8948 75.4957L61.691 75.7155L33.3384 106.299H26.7123L58.7915 71.6963L58.9333 71.5434L58.8083 71.3765L26.8426 28.7012H51.0854L72.1629 56.8404L72.3426 57.0802L72.5463 56.8605L98.6508 28.7012H105.277ZM37.0896 33.5754H36.59L36.8896 33.9753L87.3369 101.324L87.4119 101.424H87.537H98.961H99.4606L99.1611 101.024L48.7137 33.6755L48.6387 33.5754H48.5136H37.0896Z" fill="url(#paint1_radial_23812_7)" fill-opacity="0.27" stroke="#B4F9BA" stroke-width="0.5"/>
<circle cx="120" cy="99.9004" r="34.5" fill="url(#paint2_radial_23812_7)" stroke="white" stroke-dasharray="3 3"/>
<g style="mix-blend-mode:luminosity">
<path d="M113.231 83.3233L119.723 79.5741C119.908 79.4675 120.137 79.4675 120.322 79.5741L137.432 89.4527C137.617 89.5593 137.731 89.7567 137.732 89.97L137.755 96.7643C137.755 96.9794 137.642 97.1785 137.455 97.2851L130.972 101.029C130.574 101.26 130.074 100.972 130.072 100.512L130.051 94.4142C130.051 94.2009 129.935 94.0035 129.751 93.8969L113.231 84.3614C112.831 84.1303 112.831 83.5544 113.231 83.3233Z" fill="white"/>
<path d="M109.035 114.103L102.545 110.356C102.358 110.249 102.244 110.052 102.244 109.837V90.0794C102.244 89.8661 102.358 89.6688 102.543 89.5603L108.416 86.1419C108.603 86.0334 108.832 86.0334 109.017 86.1419L115.5 89.8857C115.898 90.1168 115.9 90.691 115.502 90.9238L110.233 93.9903C110.048 94.097 109.934 94.2943 109.934 94.5094V113.586C109.934 114.048 109.435 114.336 109.035 114.105V114.103Z" fill="white"/>
<path d="M137.752 102.335V109.829C137.752 110.045 137.638 110.242 137.451 110.349L120.341 120.227C120.156 120.334 119.929 120.334 119.744 120.227L113.847 116.849C113.66 116.743 113.545 116.544 113.545 116.329V108.843C113.545 108.382 114.043 108.094 114.443 108.322L119.733 111.353C119.918 111.46 120.145 111.458 120.33 111.353L136.85 101.814C137.25 101.583 137.75 101.871 137.75 102.333L137.752 102.335Z" fill="white"/>
</g>
<defs>
<radialGradient id="paint0_radial_23812_7" cx="0" cy="0" r="1" gradientUnits="userSpaceOnUse" gradientTransform="translate(38.2963 28.9927) rotate(83.1564) scale(203.207 131.22)">
<stop stop-color="#A3F5AA"/>
<stop offset="0.4" stop-color="#82D289"/>
<stop offset="0.835" stop-color="#66AB6C"/>
<stop offset="1" stop-color="#386A3C"/>
</radialGradient>
<radialGradient id="paint1_radial_23812_7" cx="0" cy="0" r="1" gradientUnits="userSpaceOnUse" gradientTransform="translate(49.5842 45.1896) rotate(82.6929) scale(117.849 81.1454)">
<stop stop-color="#A3F5AA"/>
<stop offset="0.4" stop-color="#82D289"/>
<stop offset="0.835" stop-color="#66AB6C"/>
<stop offset="1" stop-color="#386A3C"/>
</radialGradient>
<radialGradient id="paint2_radial_23812_7" cx="0" cy="0" r="1" gradientUnits="userSpaceOnUse" gradientTransform="translate(104.638 79.9033) rotate(83.1667) scale(105.522 68.0393)">
<stop stop-color="#656565"/>
<stop offset="0.4" stop-color="#525252"/>
<stop offset="0.835" stop-color="#373737"/>
<stop offset="1" stop-color="#2F2F2F"/>
</radialGradient>
</defs>
</svg>
