<svg width="86" height="25" viewBox="0 0 86 25" fill="none" xmlns="http://www.w3.org/2000/svg">
<g clip-path="url(#clip0_22316_1922)">
<path d="M6.4897 2.76091L10.3246 0.546277C10.4338 0.483272 10.5693 0.483272 10.6785 0.546277L20.7856 6.38162C20.8948 6.44463 20.962 6.56119 20.9631 6.6872L20.9767 10.7006C20.9767 10.8277 20.9095 10.9453 20.7993 11.0083L16.9696 13.2198C16.7344 13.3563 16.4393 13.1862 16.4382 12.9142L16.4256 9.31242C16.4256 9.18641 16.3574 9.06985 16.2482 9.00684L6.4897 3.37417C6.25343 3.23766 6.25343 2.89743 6.4897 2.76091Z" fill="white"/>
<path d="M4.01134 20.9428L0.177465 18.7292C0.0672057 18.6662 0 18.5497 0 18.4226V6.75192C0 6.62591 0.0672057 6.50935 0.176415 6.44529L3.64591 4.42597C3.75617 4.36192 3.89163 4.36192 4.00084 4.42597L7.83051 6.63746C8.06573 6.77397 8.06678 7.11315 7.83156 7.25071L4.7191 9.06211C4.60989 9.12512 4.54269 9.24168 4.54269 9.36874V20.6372C4.54269 20.9103 4.24761 21.0804 4.01134 20.9439V20.9428Z" fill="white"/>
<path d="M20.9748 13.9915V18.4187C20.9748 18.5458 20.9076 18.6623 20.7974 18.7253L10.6903 24.5607C10.5811 24.6237 10.4467 24.6237 10.3374 24.5607L6.8543 22.5655C6.74404 22.5025 6.67578 22.3849 6.67578 22.2578V17.8359C6.67578 17.5639 6.96981 17.3938 7.20608 17.5282L10.3311 19.3186C10.4403 19.3816 10.5748 19.3806 10.684 19.3186L20.4424 13.6839C20.6787 13.5474 20.9738 13.7175 20.9738 13.9905L20.9748 13.9915Z" fill="white"/>
<path d="M53.7509 6.5879H49.8362C49.6661 6.5879 49.5295 6.72546 49.5295 6.89558V14.3418C49.5295 15.2942 49.3752 16.0912 49.0654 16.7318C48.7556 17.3534 48.3303 17.8197 47.7885 18.1305C47.2467 18.4214 46.6271 18.5684 45.9309 18.5684C44.9239 18.5684 44.1405 18.267 43.5797 17.6653C43.0379 17.0436 42.767 16.0807 42.767 14.7796V6.89663C42.767 6.72651 42.6294 6.58895 42.4603 6.58895H39.6167C39.5936 6.58475 39.5705 6.58265 39.5474 6.58265H33.8832V6.26763C33.8832 5.50946 34.0575 4.94661 34.4062 4.57698C34.7737 4.18845 35.2872 3.99418 35.9445 3.99418C36.2932 3.99418 36.6219 4.04249 36.9316 4.14015C37.1227 4.20105 37.3107 4.27981 37.4735 4.36591C37.6362 4.45202 37.8379 4.37012 37.8998 4.1958L38.8785 1.48762C38.9289 1.34691 38.8722 1.1894 38.743 1.11484C38.3608 0.893271 37.9124 0.726307 37.3958 0.612897C36.7962 0.477435 36.1672 0.40918 35.5088 0.40918C33.5745 0.40918 32.0844 0.943675 31.0385 2.01267C29.9937 3.0617 29.4707 4.47092 29.4707 6.23927V6.58265H27.4252C27.2246 6.58265 27.0608 6.72021 27.0608 6.89033V9.77177C27.0608 9.94189 27.2236 10.0794 27.4252 10.0794H29.4707V21.9612C29.4707 22.1313 29.6083 22.2689 29.7774 22.2689H33.6911C33.8601 22.2689 33.9977 22.1313 33.9977 21.9612V10.0794H38.2379V15.4486C38.2379 17.0615 38.5183 18.393 39.0801 19.442C39.6419 20.4722 40.4253 21.2398 41.4313 21.7449C42.4572 22.25 43.6186 22.503 44.9144 22.503C46.1147 22.503 47.2172 22.2311 48.2232 21.6861C48.8218 21.3574 49.3342 20.9374 49.7616 20.4291V21.9612C49.7616 22.1313 49.8992 22.2689 50.0682 22.2689H53.7509C53.921 22.2689 54.0575 22.1313 54.0575 21.9612V6.89663C54.0575 6.72651 53.92 6.58895 53.7509 6.58895V6.5879Z" fill="white"/>
<path d="M66.932 14.0464C66.3902 13.7156 65.7801 13.4636 65.1028 13.2882C64.4265 13.1139 63.7482 12.9869 63.0708 12.9091C62.4135 12.8115 61.8034 12.7054 61.2416 12.5889C60.6808 12.4723 60.2251 12.3169 59.8775 12.1226C59.5478 11.9284 59.384 11.6375 59.384 11.2479C59.384 10.8205 59.6161 10.4708 60.0812 10.1989C60.5454 9.92689 61.2815 9.79143 62.2875 9.79143C63.0036 9.79143 63.7387 9.87859 64.4937 10.054C65.171 10.1894 65.8399 10.4372 66.5025 10.7964C66.659 10.8804 66.8522 10.8184 66.9278 10.6578L68.1774 7.98003C68.2457 7.83407 68.19 7.65765 68.0493 7.581C67.3584 7.20401 66.5225 6.91104 65.5396 6.70417C64.437 6.47105 63.3533 6.35449 62.2885 6.35449C60.7796 6.35449 59.4827 6.57816 58.399 7.02445C57.3153 7.45289 56.4836 8.04514 55.9029 8.8033C55.3422 9.56146 55.0608 10.4351 55.0608 11.4264C55.0608 12.32 55.2256 13.0488 55.5543 13.6127C55.9029 14.1756 56.3576 14.6229 56.9184 14.9537C57.4802 15.2844 58.0987 15.5365 58.776 15.7118C59.4533 15.8672 60.1211 15.9933 60.7785 16.0909C61.4558 16.1886 62.0754 16.2852 62.6361 16.3818C63.1969 16.4795 63.6421 16.6254 63.9718 16.8197C64.3205 16.995 64.4948 17.267 64.4948 17.6356C64.4948 18.0829 64.2722 18.4326 63.8269 18.6846C63.4016 18.9367 62.6655 19.0637 61.6207 19.0637C60.6724 19.0637 59.7053 18.9283 58.7182 18.6563C57.8771 18.4032 57.1315 18.0913 56.4805 17.7207C56.324 17.6314 56.1256 17.6944 56.05 17.8582L54.7961 20.5706C54.73 20.7134 54.7835 20.8825 54.9169 20.9644C55.6047 21.3844 56.4941 21.7425 57.5852 22.0376C58.8232 22.3484 60.1106 22.5038 61.4453 22.5038V22.5017C63.012 22.5017 64.3383 22.2885 65.422 21.8612C66.5246 21.4338 67.3668 20.851 67.9475 20.1128C68.5282 19.3556 68.818 18.4904 68.818 17.519C68.818 16.6254 68.6437 15.9061 68.295 15.3622C67.9464 14.7983 67.4917 14.3614 66.931 14.0506L66.932 14.0464Z" fill="white"/>
<path d="M84.4973 10.1443C83.7812 8.91986 82.8046 7.98738 81.5655 7.34578C80.3463 6.68527 79.0306 6.35449 77.4439 6.35449C75.8572 6.35449 74.4343 6.70417 73.1774 7.40353C71.9194 8.08294 70.9228 9.03537 70.1878 10.2598C69.4716 11.4642 69.1135 12.8734 69.1135 14.4276C69.1135 15.9817 69.4811 17.372 70.2161 18.5954C70.9512 19.7998 71.9866 20.7523 73.3212 21.4516C74.6758 22.151 76.2426 22.5007 78.0235 22.5007V22.5028C79.437 22.5028 80.6855 22.2885 81.7681 21.8622C82.7563 21.4548 83.5911 20.893 84.2737 20.1789C84.385 20.0624 84.385 19.8775 84.2758 19.7578L82.2648 17.5684C82.1514 17.4455 81.9624 17.4371 81.8354 17.5474C81.3723 17.9517 80.8661 18.2625 80.3159 18.4799C79.6963 18.7319 78.9707 18.859 78.139 18.859C77.2108 18.859 76.398 18.6941 75.7007 18.3633C75.0234 18.0136 74.491 17.518 74.1046 16.8774C73.904 16.5183 73.7612 16.1287 73.6699 15.7108H85.2051C85.3626 15.7108 85.4949 15.59 85.5096 15.4325C85.5201 15.3244 85.5306 15.212 85.5401 15.0986C85.56 14.8655 85.5695 14.6617 85.5695 14.4864C85.5695 12.7957 85.2114 11.3487 84.4952 10.1432L84.4973 10.1443ZM75.412 10.3196C76.0116 9.96995 76.6994 9.79458 77.4733 9.79458C78.2472 9.79458 78.9245 9.96995 79.5052 10.3196C80.0859 10.6494 80.5406 11.1166 80.8693 11.7183C81.0877 12.1174 81.2316 12.5647 81.3051 13.0583H73.6174C73.693 12.5731 73.8358 12.1352 74.0479 11.7467C74.3776 11.125 74.8313 10.6494 75.412 10.3186V10.3196Z" fill="white"/>
</g>
<defs>
<clipPath id="clip0_22316_1922">
<rect width="85.5707" height="24.2014" fill="white" transform="translate(0 0.40918)"/>
</clipPath>
</defs>
</svg>
