<svg width="86" height="25" viewBox="0 0 86 25" fill="none" xmlns="http://www.w3.org/2000/svg">
<g clip-path="url(#clip0_21553_841)">
<path d="M6.4897 2.76116L10.3246 0.546522C10.4338 0.483516 10.5693 0.483516 10.6785 0.546522L20.7856 6.38187C20.8948 6.44487 20.962 6.56143 20.9631 6.68744L20.9767 10.7009C20.9767 10.8279 20.9095 10.9456 20.7993 11.0086L16.9696 13.22C16.7344 13.3566 16.4393 13.1864 16.4382 12.9145L16.4256 9.31266C16.4256 9.18665 16.3574 9.07009 16.2482 9.00709L6.4897 3.37441C6.25343 3.2379 6.25343 2.89767 6.4897 2.76116Z" fill="#A3F5AA"/>
<path d="M4.01134 20.9431L0.177465 18.7295C0.0672057 18.6665 0 18.5499 0 18.4229V6.75216C0 6.62615 0.0672057 6.50959 0.176415 6.44554L3.64591 4.42622C3.75617 4.36216 3.89163 4.36216 4.00084 4.42622L7.83051 6.6377C8.06573 6.77421 8.06678 7.11339 7.83156 7.25095L4.7191 9.06236C4.60989 9.12536 4.54269 9.24192 4.54269 9.36898V20.6375C4.54269 20.9105 4.24761 21.0806 4.01134 20.9441V20.9431Z" fill="#A3F5AA"/>
<path d="M20.9748 13.9918V18.419C20.9748 18.546 20.9076 18.6626 20.7974 18.7256L10.6903 24.5609C10.5811 24.6239 10.4467 24.6239 10.3374 24.5609L6.8543 22.5658C6.74404 22.5028 6.67578 22.3851 6.67578 22.2581V17.8362C6.67578 17.5642 6.96981 17.3941 7.20608 17.5285L10.3311 19.3189C10.4403 19.3819 10.5748 19.3808 10.684 19.3189L20.4424 13.6841C20.6787 13.5476 20.9738 13.7177 20.9738 13.9907L20.9748 13.9918Z" fill="#A3F5AA"/>
<path d="M53.7508 6.58815H49.8361C49.666 6.58815 49.5295 6.72571 49.5295 6.89582V14.342C49.5295 15.2944 49.3751 16.0915 49.0653 16.732C48.7556 17.3537 48.3303 17.8199 47.7884 18.1307C47.2466 18.4216 46.627 18.5686 45.9308 18.5686C44.9238 18.5686 44.1404 18.2672 43.5797 17.6655C43.0378 17.0439 42.7669 16.081 42.7669 14.7799V6.89687C42.7669 6.72676 42.6293 6.5892 42.4603 6.5892H39.6166C39.5935 6.585 39.5704 6.5829 39.5473 6.5829H33.8832V6.26787C33.8832 5.50971 34.0575 4.94686 34.4061 4.57723C34.7736 4.18869 35.2871 3.99443 35.9445 3.99443C36.2931 3.99443 36.6218 4.04273 36.9316 4.14039C37.1227 4.20129 37.3106 4.28005 37.4734 4.36616C37.6362 4.45227 37.8378 4.37036 37.8997 4.19604L38.8784 1.48787C38.9288 1.34715 38.8721 1.18964 38.743 1.11508C38.3607 0.893515 37.9123 0.726551 37.3957 0.613141C36.7961 0.47768 36.1671 0.409424 35.5087 0.409424C33.5744 0.409424 32.0844 0.943919 31.0385 2.01291C29.9936 3.06195 29.4707 4.47117 29.4707 6.23952V6.5829H27.4251C27.2245 6.5829 27.0607 6.72046 27.0607 6.89057V9.77202C27.0607 9.94213 27.2235 10.0797 27.4251 10.0797H29.4707V21.9614C29.4707 22.1316 29.6082 22.2691 29.7773 22.2691H33.691C33.8601 22.2691 33.9976 22.1316 33.9976 21.9614V10.0797H38.2379V15.4488C38.2379 17.0617 38.5183 18.3932 39.08 19.4423C39.6418 20.4724 40.4252 21.24 41.4312 21.7451C42.4571 22.2502 43.6185 22.5033 44.9143 22.5033C46.1146 22.5033 47.2172 22.2313 48.2232 21.6863C48.8217 21.3576 49.3342 20.9376 49.7616 20.4294V21.9614C49.7616 22.1316 49.8991 22.2691 50.0682 22.2691H53.7508C53.921 22.2691 54.0575 22.1316 54.0575 21.9614V6.89687C54.0575 6.72676 53.9199 6.5892 53.7508 6.5892V6.58815Z" fill="#A3F5AA"/>
<path d="M66.932 14.0466C66.3901 13.7159 65.78 13.4638 65.1027 13.2885C64.4264 13.1142 63.7481 12.9871 63.0708 12.9094C62.4134 12.8117 61.8033 12.7057 61.2415 12.5891C60.6808 12.4726 60.225 12.3171 59.8775 12.1229C59.5477 11.9286 59.3839 11.6377 59.3839 11.2482C59.3839 10.8208 59.616 10.4711 60.0812 10.1991C60.5453 9.92714 61.2814 9.79168 62.2874 9.79168C63.0036 9.79168 63.7386 9.87884 64.4937 10.0542C65.171 10.1897 65.8399 10.4375 66.5025 10.7966C66.6589 10.8806 66.8522 10.8187 66.9278 10.658L68.1774 7.98027C68.2456 7.83431 68.19 7.6579 68.0493 7.58124C67.3583 7.20426 66.5224 6.91128 65.5395 6.70442C64.437 6.4713 63.3533 6.35474 62.2885 6.35474C60.7795 6.35474 59.4826 6.57841 58.3989 7.02469C57.3153 7.45313 56.4836 8.04538 55.9029 8.80354C55.3421 9.56171 55.0607 10.4354 55.0607 11.4267C55.0607 12.3203 55.2256 13.0491 55.5542 13.613C55.9029 14.1758 56.3576 14.6231 56.9183 14.9539C57.4801 15.2847 58.0986 15.5367 58.7759 15.7121C59.4532 15.8675 60.1211 15.9935 60.7784 16.0912C61.4557 16.1888 62.0753 16.2854 62.636 16.382C63.1968 16.4797 63.642 16.6257 63.9718 16.8199C64.3204 16.9953 64.4947 17.2673 64.4947 17.6358C64.4947 18.0832 64.2721 18.4329 63.8269 18.6849C63.4016 18.9369 62.6655 19.064 61.6206 19.064C60.6724 19.064 59.7053 18.9285 58.7182 18.6565C57.877 18.4035 57.1315 18.0916 56.4804 17.7209C56.324 17.6316 56.1255 17.6946 56.0499 17.8585L54.7961 20.5708C54.7299 20.7137 54.7835 20.8827 54.9168 20.9646C55.6047 21.3847 56.4941 21.7427 57.5851 22.0378C58.8232 22.3486 60.1106 22.5041 61.4453 22.5041V22.502C63.012 22.502 64.3382 22.2888 65.4219 21.8614C66.5245 21.434 67.3667 20.8512 67.9474 20.113C68.5281 19.3559 68.8179 18.4906 68.8179 17.5193C68.8179 16.6257 68.6436 15.9063 68.295 15.3624C67.9464 14.7985 67.4917 14.3617 66.9309 14.0508L66.932 14.0466Z" fill="#A3F5AA"/>
<path d="M84.4973 10.1445C83.7811 8.9201 82.8045 7.98762 81.5654 7.34602C80.3463 6.68551 79.0305 6.35474 77.4438 6.35474C75.8571 6.35474 74.4343 6.70442 73.1773 7.40378C71.9193 8.08318 70.9228 9.03561 70.1877 10.26C69.4715 11.4645 69.1135 12.8737 69.1135 14.4278C69.1135 15.982 69.481 17.3723 70.2161 18.5956C70.9511 19.8001 71.9865 20.7525 73.3212 21.4519C74.6758 22.1512 76.2425 22.5009 78.0235 22.5009V22.503C79.4369 22.503 80.6854 22.2888 81.7681 21.8624C82.7562 21.455 83.591 20.8932 84.2736 20.1792C84.3849 20.0626 84.3849 19.8778 84.2757 19.7581L82.2648 17.5686C82.1514 17.4458 81.9624 17.4374 81.8353 17.5476C81.3722 17.9519 80.8661 18.2627 80.3158 18.4801C79.6963 18.7321 78.9707 18.8592 78.139 18.8592C77.2107 18.8592 76.3979 18.6943 75.7007 18.3636C75.0234 18.0139 74.491 17.5182 74.1045 16.8777C73.904 16.5185 73.7612 16.129 73.6698 15.711H85.205C85.3625 15.711 85.4949 15.5903 85.5096 15.4328C85.5201 15.3246 85.5306 15.2122 85.54 15.0988C85.56 14.8657 85.5694 14.662 85.5694 14.4866C85.5694 12.796 85.2113 11.349 84.4952 10.1435L84.4973 10.1445ZM75.4119 10.3199C76.0115 9.97019 76.6993 9.79483 77.4732 9.79483C78.2471 9.79483 78.9244 9.97019 79.5051 10.3199C80.0858 10.6496 80.5405 11.1169 80.8692 11.7186C81.0876 12.1176 81.2315 12.565 81.305 13.0585H73.6173C73.6929 12.5734 73.8357 12.1355 74.0478 11.7469C74.3776 11.1253 74.8312 10.6496 75.4119 10.3188V10.3199Z" fill="#A3F5AA"/>
</g>
<defs>
<clipPath id="clip0_21553_841">
<rect width="85.5707" height="24.2014" fill="white" transform="translate(0 0.409424)"/>
</clipPath>
</defs>
</svg>
