<svg width="186" height="29" viewBox="0 0 186 29" fill="none" xmlns="http://www.w3.org/2000/svg">
<g clip-path="url(#clip0_21731_190)">
<path d="M6.4897 3.76116L10.3246 1.54652C10.4338 1.48352 10.5693 1.48352 10.6785 1.54652L20.7856 7.38187C20.8948 7.44487 20.962 7.56143 20.9631 7.68744L20.9767 11.7009C20.9767 11.8279 20.9095 11.9456 20.7993 12.0086L16.9696 14.22C16.7344 14.3566 16.4393 14.1864 16.4382 13.9145L16.4256 10.3127C16.4256 10.1867 16.3574 10.0701 16.2482 10.0071L6.4897 4.37441C6.25343 4.2379 6.25343 3.89767 6.4897 3.76116Z" fill="#A3F5AA"/>
<path d="M4.01134 21.9431L0.177465 19.7295C0.0672057 19.6665 0 19.5499 0 19.4229V7.75216C0 7.62615 0.0672057 7.50959 0.176415 7.44554L3.64591 5.42622C3.75617 5.36216 3.89163 5.36216 4.00084 5.42622L7.83051 7.6377C8.06573 7.77421 8.06678 8.11339 7.83156 8.25095L4.7191 10.0624C4.60989 10.1254 4.54269 10.2419 4.54269 10.369V21.6375C4.54269 21.9105 4.24761 22.0806 4.01134 21.9441V21.9431Z" fill="#A3F5AA"/>
<path d="M20.9748 14.9918V19.419C20.9748 19.546 20.9076 19.6626 20.7974 19.7256L10.6903 25.5609C10.5811 25.6239 10.4467 25.6239 10.3374 25.5609L6.8543 23.5658C6.74404 23.5028 6.67578 23.3851 6.67578 23.2581V18.8362C6.67578 18.5642 6.96981 18.3941 7.20608 18.5285L10.3311 20.3189C10.4403 20.3819 10.5748 20.3808 10.684 20.3189L20.4424 14.6841C20.6787 14.5476 20.9738 14.7177 20.9738 14.9907L20.9748 14.9918Z" fill="#A3F5AA"/>
<path d="M53.7508 7.58815H49.8361C49.666 7.58815 49.5295 7.72571 49.5295 7.89582V15.342C49.5295 16.2944 49.3751 17.0915 49.0653 17.732C48.7556 18.3537 48.3303 18.8199 47.7884 19.1307C47.2466 19.4216 46.627 19.5686 45.9308 19.5686C44.9238 19.5686 44.1404 19.2672 43.5797 18.6655C43.0378 18.0439 42.7669 17.081 42.7669 15.7799V7.89687C42.7669 7.72676 42.6293 7.5892 42.4603 7.5892H39.6166C39.5935 7.585 39.5704 7.5829 39.5473 7.5829H33.8832V7.26787C33.8832 6.50971 34.0575 5.94686 34.4061 5.57723C34.7736 5.18869 35.2871 4.99443 35.9445 4.99443C36.2931 4.99443 36.6218 5.04273 36.9316 5.14039C37.1227 5.20129 37.3106 5.28005 37.4734 5.36616C37.6362 5.45227 37.8378 5.37036 37.8997 5.19604L38.8784 2.48787C38.9288 2.34715 38.8721 2.18964 38.743 2.11508C38.3607 1.89351 37.9123 1.72655 37.3957 1.61314C36.7961 1.47768 36.1671 1.40942 35.5087 1.40942C33.5744 1.40942 32.0844 1.94392 31.0385 3.01291C29.9936 4.06195 29.4707 5.47117 29.4707 7.23952V7.5829H27.4251C27.2245 7.5829 27.0607 7.72046 27.0607 7.89057V10.772C27.0607 10.9421 27.2235 11.0797 27.4251 11.0797H29.4707V22.9614C29.4707 23.1316 29.6082 23.2691 29.7773 23.2691H33.691C33.8601 23.2691 33.9976 23.1316 33.9976 22.9614V11.0797H38.2379V16.4488C38.2379 18.0617 38.5183 19.3932 39.08 20.4423C39.6418 21.4724 40.4252 22.24 41.4312 22.7451C42.4571 23.2502 43.6185 23.5033 44.9143 23.5033C46.1146 23.5033 47.2172 23.2313 48.2232 22.6863C48.8217 22.3576 49.3342 21.9376 49.7616 21.4294V22.9614C49.7616 23.1316 49.8991 23.2691 50.0682 23.2691H53.7508C53.921 23.2691 54.0575 23.1316 54.0575 22.9614V7.89687C54.0575 7.72676 53.9199 7.5892 53.7508 7.5892V7.58815Z" fill="#A3F5AA"/>
<path d="M66.932 15.0466C66.3901 14.7159 65.78 14.4638 65.1027 14.2885C64.4264 14.1142 63.7481 13.9871 63.0708 13.9094C62.4134 13.8117 61.8033 13.7057 61.2415 13.5891C60.6808 13.4726 60.225 13.3171 59.8775 13.1229C59.5477 12.9286 59.3839 12.6377 59.3839 12.2482C59.3839 11.8208 59.616 11.4711 60.0812 11.1991C60.5453 10.9271 61.2814 10.7917 62.2874 10.7917C63.0036 10.7917 63.7386 10.8788 64.4937 11.0542C65.171 11.1897 65.8399 11.4375 66.5025 11.7966C66.6589 11.8806 66.8522 11.8187 66.9278 11.658L68.1774 8.98027C68.2456 8.83431 68.19 8.6579 68.0493 8.58124C67.3583 8.20426 66.5224 7.91128 65.5395 7.70442C64.437 7.4713 63.3533 7.35474 62.2885 7.35474C60.7795 7.35474 59.4826 7.57841 58.3989 8.02469C57.3153 8.45313 56.4836 9.04538 55.9029 9.80354C55.3421 10.5617 55.0607 11.4354 55.0607 12.4267C55.0607 13.3203 55.2256 14.0491 55.5542 14.613C55.9029 15.1758 56.3576 15.6231 56.9183 15.9539C57.4801 16.2847 58.0986 16.5367 58.7759 16.7121C59.4532 16.8675 60.1211 16.9935 60.7784 17.0912C61.4557 17.1888 62.0753 17.2854 62.636 17.382C63.1968 17.4797 63.642 17.6257 63.9718 17.8199C64.3204 17.9953 64.4947 18.2673 64.4947 18.6358C64.4947 19.0832 64.2721 19.4329 63.8269 19.6849C63.4016 19.9369 62.6655 20.064 61.6206 20.064C60.6724 20.064 59.7053 19.9285 58.7182 19.6565C57.877 19.4035 57.1315 19.0916 56.4804 18.7209C56.324 18.6316 56.1255 18.6946 56.0499 18.8585L54.7961 21.5708C54.7299 21.7137 54.7835 21.8827 54.9168 21.9646C55.6047 22.3847 56.4941 22.7427 57.5851 23.0378C58.8232 23.3486 60.1106 23.5041 61.4453 23.5041V23.502C63.012 23.502 64.3382 23.2888 65.4219 22.8614C66.5245 22.434 67.3667 21.8512 67.9474 21.113C68.5281 20.3559 68.8179 19.4906 68.8179 18.5193C68.8179 17.6257 68.6436 16.9063 68.295 16.3624C67.9464 15.7985 67.4917 15.3617 66.9309 15.0508L66.932 15.0466Z" fill="#A3F5AA"/>
<path d="M84.4973 11.1445C83.7811 9.9201 82.8045 8.98762 81.5654 8.34602C80.3463 7.68551 79.0305 7.35474 77.4438 7.35474C75.8571 7.35474 74.4343 7.70442 73.1773 8.40378C71.9193 9.08318 70.9228 10.0356 70.1877 11.26C69.4715 12.4645 69.1135 13.8737 69.1135 15.4278C69.1135 16.982 69.481 18.3723 70.2161 19.5956C70.9511 20.8001 71.9865 21.7525 73.3212 22.4519C74.6758 23.1512 76.2425 23.5009 78.0235 23.5009V23.503C79.4369 23.503 80.6854 23.2888 81.7681 22.8624C82.7562 22.455 83.591 21.8932 84.2736 21.1792C84.3849 21.0626 84.3849 20.8778 84.2757 20.7581L82.2648 18.5686C82.1514 18.4458 81.9624 18.4374 81.8353 18.5476C81.3722 18.9519 80.8661 19.2627 80.3158 19.4801C79.6963 19.7321 78.9707 19.8592 78.139 19.8592C77.2107 19.8592 76.3979 19.6943 75.7007 19.3636C75.0234 19.0139 74.491 18.5182 74.1045 17.8777C73.904 17.5185 73.7612 17.129 73.6698 16.711H85.205C85.3625 16.711 85.4949 16.5903 85.5096 16.4328C85.5201 16.3246 85.5306 16.2122 85.54 16.0988C85.56 15.8657 85.5694 15.662 85.5694 15.4866C85.5694 13.796 85.2113 12.349 84.4952 11.1435L84.4973 11.1445ZM75.4119 11.3199C76.0115 10.9702 76.6993 10.7948 77.4732 10.7948C78.2471 10.7948 78.9244 10.9702 79.5051 11.3199C80.0858 11.6496 80.5405 12.1169 80.8692 12.7186C81.0876 13.1176 81.2315 13.565 81.305 14.0585H73.6173C73.6929 13.5734 73.8357 13.1355 74.0478 12.7469C74.3776 12.1253 74.8312 11.6496 75.4119 11.3188V11.3199Z" fill="#A3F5AA"/>
</g>
<path d="M105.64 23.263C102.028 23.263 99.592 20.491 99.592 15.647C99.592 10.803 102.028 8.05899 105.64 8.05899C108.216 8.05899 110.12 9.37499 110.848 11.363H110.988L111.072 8.31099H113.256V23.011H110.988V19.931H110.848C110.12 21.919 108.216 23.263 105.64 23.263ZM106.396 21.359C109.336 21.359 110.96 19.007 110.96 16.543V14.751C110.96 12.287 109.336 9.93499 106.396 9.93499C103.708 9.93499 101.916 11.923 101.916 15.647C101.916 19.343 103.708 21.359 106.396 21.359ZM116.499 5.87498V2.59899H118.767V5.87498H116.499ZM116.499 23.011V8.31099H118.767V23.011H116.499ZM122.034 23.011V8.31099H124.05L124.19 11.027H124.302C124.946 9.15099 126.682 8.11499 128.67 8.11499C129.006 8.11499 129.314 8.14299 129.566 8.17099V10.327C129.314 10.299 129.006 10.271 128.67 10.271C126.094 10.271 124.47 11.727 124.274 14.247V23.011H122.034ZM135.726 23.263C132.114 23.263 129.678 20.491 129.678 15.647C129.678 10.803 132.114 8.05899 135.726 8.05899C138.302 8.05899 140.206 9.37499 140.934 11.363H141.074V2.59899H143.342L143.314 23.011H141.158L141.074 19.931H140.934C140.206 21.919 138.302 23.263 135.726 23.263ZM136.482 21.359C139.422 21.359 141.046 19.007 141.046 16.543V14.751C141.046 12.287 139.422 9.93499 136.482 9.93499C133.794 9.93499 132.002 11.923 132.002 15.647C132.002 19.343 133.794 21.359 136.482 21.359ZM146.585 23.011V8.31099H148.601L148.741 11.027H148.853C149.497 9.15099 151.233 8.11499 153.221 8.11499C153.557 8.11499 153.865 8.14299 154.117 8.17099V10.327C153.865 10.299 153.557 10.271 153.221 10.271C150.645 10.271 149.021 11.727 148.825 14.247V23.011H146.585ZM161.341 23.263C157.085 23.263 154.229 20.267 154.229 15.703C154.229 11.195 157.001 8.08698 161.341 8.08698C165.569 8.08698 168.397 11.055 168.397 15.675C168.397 20.155 165.653 23.263 161.341 23.263ZM161.341 21.303C164.197 21.303 166.101 19.231 166.101 15.675C166.101 12.147 164.281 9.99099 161.341 9.99099C158.485 9.99099 156.553 12.091 156.553 15.703C156.553 19.175 158.401 21.303 161.341 21.303ZM170.616 27.687L170.644 8.31099H172.8L172.884 11.363H173.052C173.78 9.40299 175.684 8.05899 178.232 8.05899C181.844 8.05899 184.28 10.831 184.28 15.675C184.28 20.519 181.844 23.263 178.232 23.263C175.684 23.263 173.78 21.947 173.052 19.959H172.884V27.687H170.616ZM177.476 21.359C180.164 21.359 181.984 19.371 181.984 15.675C181.984 11.951 180.164 9.96299 177.476 9.96299C174.536 9.96299 172.912 12.287 172.912 14.779V16.543C172.912 19.035 174.536 21.359 177.476 21.359Z" fill="#A3F5AA"/>
<defs>
<clipPath id="clip0_21731_190">
<rect width="85.5707" height="24.2014" fill="white" transform="translate(0 1.40942)"/>
</clipPath>
</defs>
</svg>
