<svg width="27" height="27" viewBox="0 0 27 27" fill="none" xmlns="http://www.w3.org/2000/svg">
<path fill-rule="evenodd" clip-rule="evenodd" d="M13.3333 0.981934C5.97098 0.981934 0 6.93061 0 14.2693C0 20.1398 3.82088 25.1196 9.11832 26.8769C9.78448 27.0003 10.0292 26.5888 10.0292 26.2379C10.0292 25.921 10.0168 24.8746 10.0111 23.7642C6.30207 24.5678 5.51949 22.1959 5.51949 22.1959C4.9124 20.6605 4.03896 20.2519 4.03896 20.2519C2.82875 19.4273 4.12982 19.4443 4.12982 19.4443C5.46895 19.5382 6.17372 20.8139 6.17372 20.8139C7.36292 22.8451 9.29267 22.2576 10.0537 21.9181C10.1735 21.0601 10.5188 20.4732 10.9004 20.1415C7.93878 19.8059 4.82551 18.6661 4.82551 13.5748C4.82551 12.1243 5.34685 10.9392 6.19928 10.0082C6.06128 9.67377 5.60468 8.32285 6.32876 6.492C6.32876 6.492 7.44811 6.13489 9.99631 7.85481C11.06 7.55995 12.2004 7.41224 13.3333 7.40714C14.4663 7.41224 15.6078 7.55995 16.6732 7.85481C19.2186 6.13489 20.3362 6.492 20.3362 6.492C21.062 8.32285 20.6054 9.67377 20.4674 10.0082C21.3221 10.9392 21.8395 12.1243 21.8395 13.5748C21.8395 18.6786 18.7205 19.802 15.7515 20.1308C16.2297 20.5428 16.6556 21.3515 16.6556 22.5915C16.6556 24.3692 16.6403 25.8005 16.6403 26.2379C16.6403 26.5917 16.8805 27.0054 17.5563 26.8752C22.8509 25.1168 26.6667 20.1376 26.6667 14.2693C26.6667 6.93061 20.6968 0.981934 13.3333 0.981934Z" fill="white"/>
<path fill-rule="evenodd" clip-rule="evenodd" d="M5.0503 20.059C5.02134 20.1252 4.91684 20.1451 4.822 20.0998C4.72489 20.0562 4.67094 19.9662 4.70217 19.9005C4.73114 19.8326 4.83506 19.8134 4.93218 19.8587C5.02872 19.9022 5.08381 19.9934 5.0503 20.059Z" fill="white"/>
<path fill-rule="evenodd" clip-rule="evenodd" d="M5.59133 20.6597C5.52773 20.7186 5.40335 20.6909 5.3193 20.598C5.23185 20.5058 5.21538 20.3818 5.28012 20.3218C5.34543 20.2635 5.46582 20.2907 5.55328 20.3835C5.64074 20.4775 5.65778 20.6003 5.59133 20.6597Z" fill="white"/>
<path fill-rule="evenodd" clip-rule="evenodd" d="M6.1165 21.4246C6.03472 21.4817 5.90126 21.4285 5.81835 21.3102C5.73714 21.1919 5.73714 21.0499 5.82062 20.9933C5.90297 20.9367 6.03472 20.9882 6.11821 21.1053C6.19998 21.2248 6.19998 21.3663 6.1165 21.4246Z" fill="white"/>
<path fill-rule="evenodd" clip-rule="evenodd" d="M6.83668 22.164C6.76342 22.2444 6.60782 22.2229 6.49367 22.1131C6.37725 22.0061 6.34488 21.8539 6.41814 21.7735C6.49253 21.6931 6.64871 21.7157 6.76342 21.8244C6.87928 21.9314 6.91449 22.0842 6.83668 22.164Z" fill="white"/>
<path fill-rule="evenodd" clip-rule="evenodd" d="M7.8294 22.5935C7.79703 22.6976 7.64711 22.7446 7.49661 22.6999C7.34498 22.6546 7.24673 22.5329 7.2774 22.4277C7.30863 22.3229 7.45913 22.2743 7.61133 22.3212C7.76182 22.3665 7.86064 22.4877 7.8294 22.5935Z" fill="white"/>
<path fill-rule="evenodd" clip-rule="evenodd" d="M8.92068 22.6726C8.92408 22.7824 8.7963 22.873 8.63786 22.8753C8.47828 22.8787 8.34936 22.7904 8.34766 22.6828C8.34766 22.5713 8.4726 22.4819 8.63218 22.4791C8.79063 22.4757 8.92068 22.5645 8.92068 22.6726Z" fill="white"/>
<path fill-rule="evenodd" clip-rule="evenodd" d="M9.93601 22.5008C9.95475 22.6072 9.84458 22.7176 9.68727 22.747C9.5328 22.7747 9.38911 22.7085 9.36924 22.6032C9.3505 22.4929 9.46238 22.3836 9.61685 22.3548C9.77473 22.3276 9.91557 22.3921 9.93601 22.5008Z" fill="white"/>
</svg>
