<svg width="172" height="142" viewBox="0 0 172 142" fill="none" xmlns="http://www.w3.org/2000/svg">
<path d="M135.278 67.5009C135.278 104.586 105.168 134.65 68.0255 134.65C30.8829 134.65 0.773438 104.586 0.773438 67.5009C0.773438 30.4157 30.8829 0.351562 68.0255 0.351562C105.168 0.351562 135.278 30.4157 135.278 67.5009Z" fill="url(#paint0_radial_27873_1229)" fill-opacity="0.27" stroke="#B4F9BA" stroke-width="0.5"/>
<g clip-path="url(#clip0_27873_1229)">
<mask id="mask0_27873_1229" style="mask-type:luminance" maskUnits="userSpaceOnUse" x="23" y="37" width="176" height="32">
<path d="M198.558 37.498H23.7051V68.4335H198.558V37.498Z" fill="white"/>
</mask>
<g mask="url(#mask0_27873_1229)">
<path d="M72.5922 52.9143C72.5872 47.8288 68.3605 43.7105 63.1445 43.7031C57.931 43.7081 53.7042 47.8288 53.6992 52.9143C53.7042 57.9997 57.931 62.1179 63.1445 62.1253C68.3605 62.1204 72.5872 57.9997 72.5922 52.9143ZM57.558 52.9143C57.5605 49.9065 60.0619 47.4702 63.1469 47.4677C66.2319 47.4702 68.7309 49.9065 68.7361 52.9143C68.7335 55.922 66.2319 58.3583 63.1469 58.3608C60.0619 58.3583 57.563 55.9195 57.558 52.9143Z" fill="#79BB7F"/>
<path d="M93.1729 52.9143C93.1679 47.8288 88.9412 43.7105 83.7252 43.7031C78.5091 43.7081 74.285 47.8288 74.2773 52.9143C74.2824 57.9997 78.5091 62.1204 83.7252 62.1253C88.9412 62.1204 93.1653 57.9997 93.1729 52.9143ZM78.1387 52.9143C78.1413 49.9065 80.6426 47.4702 83.7276 47.4677C86.8127 47.4702 89.3116 49.909 89.3166 52.9143C89.3116 55.922 86.8127 58.3583 83.7276 58.3608C80.6426 58.3583 78.1437 55.9195 78.1387 52.9143Z" fill="#79BB7F"/>
<path d="M109.82 45.4959C108.201 44.3309 106.243 43.7051 104.231 43.7076C99.0148 43.7125 94.7908 47.8333 94.7832 52.9162C94.7882 58.0017 99.0148 62.1224 104.231 62.1273C109.447 62.1224 113.671 58.0017 113.676 52.9162C113.676 52.706 113.669 52.4957 113.656 52.2904H113.676V38.0137H109.817V45.4959H109.82ZM104.231 58.3652C101.146 58.3628 98.647 55.9239 98.6444 52.9162C98.6496 49.9085 101.148 47.4722 104.231 47.4697C107.316 47.4722 109.815 49.9085 109.82 52.9162C109.817 55.9239 107.316 58.3603 104.231 58.3652Z" fill="#79BB7F"/>
<path d="M52.6649 37.498H47.2079L45.4979 39.1652C43.7372 38.2896 41.7913 37.8344 39.815 37.8394C32.9169 37.8468 27.3254 43.2983 27.3178 50.0236C27.3178 51.948 27.7846 53.8451 28.6827 55.5592L23.7051 60.4072H29.1672L30.9863 58.6338C33.3254 60.9216 36.5042 62.2079 39.8176 62.2054C46.7183 62.198 52.3073 56.7464 52.3149 50.0187C52.3149 49.3879 52.264 48.7597 52.1651 48.1364H41.7457L37.8869 51.8985H48.2379C47.3322 55.7225 43.8437 58.4358 39.8176 58.4407C35.048 58.4358 31.1842 54.6663 31.1791 50.0187C31.1842 45.3686 35.048 41.6015 39.8176 41.5966C42.1085 41.5916 44.3081 42.4796 45.9242 44.0626L47.317 42.7071L52.6649 37.498Z" fill="#79BB7F"/>
</g>
</g>
<path d="M36.8832 68.4336H29.2266V92.5399H36.8832C43.7102 92.5399 49.2459 87.1428 49.2459 80.4867C49.2459 73.8307 43.7102 68.4336 36.8832 68.4336ZM36.8832 88.7752H33.0853V72.1957H36.8832C41.5791 72.1957 45.3872 75.9084 45.3872 80.4867C45.3872 85.065 41.5791 88.7778 36.8832 88.7778" fill="#79BB7F"/>
<path d="M65.8296 75.9094C64.2111 74.7444 62.2526 74.1186 60.2407 74.1211C55.0272 74.126 50.8006 78.2468 50.793 83.3298C50.798 88.4152 55.0246 92.5335 60.2407 92.5409C62.2526 92.5409 64.2111 91.9151 65.8296 90.7525V92.4172H69.6886V74.4501H65.8296V75.9094ZM60.2407 88.7788C57.1557 88.7763 54.6567 86.3374 54.6543 83.3298C54.6567 80.322 57.1582 77.8857 60.2407 77.8832C63.3257 77.8857 65.8246 80.322 65.8296 83.3298C65.8272 86.3374 63.3257 88.7738 60.2407 88.7788Z" fill="#79BB7F"/>
<path d="M75.7005 74.4501H71.8418V99.009H75.7005V90.7525C77.3192 91.9176 79.2777 92.5433 81.2897 92.5409C86.5056 92.5359 90.7298 88.4151 90.7374 83.3297C90.7324 78.2468 86.5056 74.126 81.2897 74.1211C79.2777 74.1211 77.3192 74.7469 75.7005 75.9094V74.4501ZM81.2897 88.7788C78.2046 88.7763 75.7057 86.3374 75.7005 83.3297C75.7031 80.322 78.2046 77.8857 81.2897 77.8832C84.3745 77.8857 86.8736 80.322 86.876 83.3297C86.8736 86.3374 84.3721 88.7737 81.2897 88.7788Z" fill="#79BB7F"/>
<path d="M96.0952 74.4501H92.2363V99.009H96.0952V90.7525C97.7137 91.9176 99.6718 92.5433 101.684 92.5409C106.901 92.5359 111.125 88.4151 111.133 83.3297C111.126 78.2468 106.901 74.126 101.684 74.1211C99.6718 74.1211 97.7137 74.7469 96.0952 75.9094V74.4501ZM101.684 88.7788C98.6 88.7763 96.1002 86.3374 96.0952 83.3297C96.0977 80.322 98.6 77.8857 101.684 77.8832C104.768 77.8857 107.268 80.322 107.271 83.3297C107.268 86.3374 104.767 88.7737 101.684 88.7788Z" fill="#79BB7F"/>
<circle cx="136.527" cy="106.121" r="34.5" fill="url(#paint1_radial_27873_1229)" stroke="white" stroke-dasharray="3 3"/>
<g style="mix-blend-mode:luminosity">
<path d="M129.757 89.544L136.249 85.7948C136.434 85.6882 136.663 85.6882 136.848 85.7948L153.958 95.6734C154.143 95.7801 154.257 95.9774 154.259 96.1907L154.282 102.985C154.282 103.2 154.168 103.399 153.981 103.506L147.498 107.25C147.1 107.481 146.601 107.193 146.599 106.732L146.577 100.635C146.577 100.422 146.462 100.224 146.277 100.118L129.757 90.5821C129.357 90.351 129.357 89.7751 129.757 89.544Z" fill="white"/>
<path d="M125.562 120.324L119.072 116.576C118.885 116.47 118.771 116.272 118.771 116.057V96.3001C118.771 96.0868 118.885 95.8895 119.07 95.7811L124.944 92.3626C125.13 92.2541 125.36 92.2541 125.544 92.3626L132.028 96.1064C132.426 96.3375 132.428 96.9117 132.029 97.1445L126.76 100.211C126.575 100.318 126.462 100.515 126.462 100.73V119.806C126.462 120.269 125.962 120.557 125.562 120.325V120.324Z" fill="white"/>
<path d="M154.279 108.555V116.05C154.279 116.265 154.165 116.463 153.978 116.569L136.868 126.448C136.683 126.554 136.456 126.554 136.271 126.448L130.374 123.07C130.188 122.964 130.072 122.764 130.072 122.549V115.064C130.072 114.603 130.57 114.315 130.97 114.543L136.26 117.574C136.445 117.68 136.673 117.678 136.858 117.574L153.378 108.035C153.778 107.803 154.277 108.091 154.277 108.554L154.279 108.555Z" fill="white"/>
</g>
<defs>
<radialGradient id="paint0_radial_27873_1229" cx="0" cy="0" r="1" gradientUnits="userSpaceOnUse" gradientTransform="translate(38.3974 28.9927) rotate(83.1564) scale(203.207 131.22)">
<stop stop-color="#A3F5AA"/>
<stop offset="0.4" stop-color="#82D289"/>
<stop offset="0.835" stop-color="#66AB6C"/>
<stop offset="1" stop-color="#386A3C"/>
</radialGradient>
<radialGradient id="paint1_radial_27873_1229" cx="0" cy="0" r="1" gradientUnits="userSpaceOnUse" gradientTransform="translate(121.165 86.124) rotate(83.1667) scale(105.522 68.0393)">
<stop stop-color="#656565"/>
<stop offset="0.4" stop-color="#525252"/>
<stop offset="0.835" stop-color="#373737"/>
<stop offset="1" stop-color="#2F2F2F"/>
</radialGradient>
<clipPath id="clip0_27873_1229">
<rect width="92.8064" height="30.9355" fill="white" transform="translate(23.3164 37.9902)"/>
</clipPath>
</defs>
</svg>
