<svg width="177" height="141" viewBox="0 0 177 141" fill="none" xmlns="http://www.w3.org/2000/svg">
<path d="M79.051 26.4389C81.8576 27.257 83.7364 28.6176 84.5203 30.4974C84.8012 31.1767 85.4929 32.8337 86.1733 34.4635C86.8178 36.0071 87.4521 37.5265 87.7176 38.1682L87.7179 38.1689C88.5017 40.0487 88.1466 42.3405 86.7537 44.9094C85.3621 47.4758 82.9531 50.2814 79.7042 53.154C73.2083 58.8975 63.398 64.871 51.8093 69.7025C40.2205 74.534 29.0691 77.3028 20.4138 77.8775C16.0848 78.1649 12.3947 77.9025 9.59089 77.0845C6.78448 76.2658 4.90576 74.9037 4.12192 73.0208C3.84673 72.3554 3.18489 70.7703 2.52332 69.1858L2.52297 69.185C1.86091 67.5993 1.1992 66.0145 0.924483 65.3503L0.924201 65.3496C0.140302 63.4698 0.495235 61.178 1.88811 58.6091C3.27963 56.0426 5.68855 53.237 8.93744 50.3644C15.4333 44.6208 25.2435 38.6472 36.8323 33.8154C48.4213 28.984 59.5727 26.2184 68.228 25.6453C72.557 25.3586 76.2472 25.6215 79.051 26.4389Z" fill="url(#paint0_radial_23588_617)" fill-opacity="0.27" stroke="#B4F9BA" stroke-width="0.5"/>
<g style="mix-blend-mode:multiply" opacity="0.3">
<path d="M79.051 26.4389C81.8576 27.257 83.7364 28.6176 84.5203 30.4974C84.8012 31.1767 85.4929 32.8337 86.1733 34.4635C86.8178 36.0071 87.4521 37.5265 87.7176 38.1682L87.7179 38.1689C88.5017 40.0487 88.1466 42.3405 86.7537 44.9094C85.3621 47.4758 82.9531 50.2814 79.7042 53.154C73.2083 58.8975 63.398 64.871 51.8093 69.7025C40.2205 74.534 29.0691 77.3028 20.4138 77.8775C16.0848 78.1649 12.3947 77.9025 9.59089 77.0845C6.78448 76.2658 4.90576 74.9037 4.12192 73.0208C3.84673 72.3554 3.18489 70.7703 2.52332 69.1858L2.52297 69.185C1.86091 67.5993 1.1992 66.0145 0.924483 65.3503L0.924201 65.3496C0.140302 63.4698 0.495235 61.178 1.88811 58.6091C3.27963 56.0426 5.68855 53.237 8.93744 50.3644C15.4333 44.6208 25.2435 38.6472 36.8323 33.8154C48.4213 28.984 59.5727 26.2184 68.228 25.6453C72.557 25.3586 76.2472 25.6215 79.051 26.4389Z" fill="url(#paint1_radial_23588_617)" fill-opacity="0.27" stroke="#B4F9BA" stroke-width="0.5"/>
<path d="M79.051 26.4389C81.8576 27.257 83.7364 28.6176 84.5203 30.4974C84.8012 31.1767 85.4929 32.8337 86.1733 34.4635C86.8178 36.0071 87.4521 37.5265 87.7176 38.1682L87.7179 38.1689C88.5017 40.0487 88.1466 42.3405 86.7537 44.9094C85.3621 47.4758 82.9531 50.2814 79.7042 53.154C73.2083 58.8975 63.398 64.871 51.8093 69.7025C40.2205 74.534 29.0691 77.3028 20.4138 77.8775C16.0848 78.1649 12.3947 77.9025 9.59089 77.0845C6.78448 76.2658 4.90576 74.9037 4.12192 73.0208C3.84673 72.3554 3.18489 70.7703 2.52332 69.1858L2.52297 69.185C1.86091 67.5993 1.1992 66.0145 0.924483 65.3503L0.924201 65.3496C0.140302 63.4698 0.495235 61.178 1.88811 58.6091C3.27963 56.0426 5.68855 53.237 8.93744 50.3644C15.4333 44.6208 25.2435 38.6472 36.8323 33.8154C48.4213 28.984 59.5727 26.2184 68.228 25.6453C72.557 25.3586 76.2472 25.6215 79.051 26.4389Z" fill="url(#paint2_radial_23588_617)" fill-opacity="0.27" stroke="#B4F9BA" stroke-width="0.5"/>
</g>
<path d="M79.051 26.4389C81.8576 27.257 83.7364 28.6176 84.5203 30.4974C84.8012 31.1767 85.4929 32.8337 86.1733 34.4635C86.8178 36.0071 87.4521 37.5265 87.7176 38.1682L87.7179 38.1689C88.5017 40.0487 88.1466 42.3405 86.7537 44.9094C85.3621 47.4758 82.9531 50.2814 79.7042 53.154C73.2083 58.8975 63.398 64.871 51.8093 69.7025C40.2205 74.534 29.0691 77.3028 20.4138 77.8775C16.0848 78.1649 12.3947 77.9025 9.59089 77.0845C6.78448 76.2658 4.90576 74.9037 4.12192 73.0208C3.84673 72.3554 3.18489 70.7703 2.52332 69.1858L2.52297 69.185C1.86091 67.5993 1.1992 66.0145 0.924483 65.3503L0.924201 65.3496C0.140302 63.4698 0.495235 61.178 1.88811 58.6091C3.27963 56.0426 5.68855 53.237 8.93744 50.3644C15.4333 44.6208 25.2435 38.6472 36.8323 33.8154C48.4213 28.984 59.5727 26.2184 68.228 25.6453C72.557 25.3586 76.2472 25.6215 79.051 26.4389Z" fill="url(#paint3_radial_23588_617)" fill-opacity="0.27" stroke="#B4F9BA" stroke-width="0.5"/>
<path d="M0.924262 65.3497L0.924201 65.3496C0.140302 63.4698 0.495235 61.178 1.88811 58.6091C3.27963 56.0426 5.68855 53.237 8.93744 50.3644C15.4333 44.6208 25.2435 38.6472 36.8323 33.8154C48.4213 28.984 59.5727 26.2184 68.228 25.6453C72.557 25.3586 76.2472 25.6215 79.051 26.4389C81.8577 27.257 83.7364 28.6176 84.5203 30.4973C85.3041 32.3772 84.949 34.669 83.5561 37.238C82.1645 39.8045 79.7555 42.6101 76.5066 45.4828C70.0107 51.2264 60.2004 57.2 48.6117 62.0315C37.0229 66.863 25.8715 69.6318 17.2162 70.2065C12.8872 70.4939 9.19705 70.2315 6.39328 69.4135C3.58681 68.5948 1.70807 67.2327 0.924262 65.3497Z" fill="url(#paint4_radial_23588_617)" fill-opacity="0.27" stroke="#B4F9BA" stroke-width="0.5"/>
<path d="M98.9815 16.8494L98.9829 16.8477C99.4693 16.2761 99.9539 15.7083 100.438 15.1426L100.058 14.8176C101.004 13.7115 101.947 12.6134 102.894 11.5099C102.922 11.4776 102.95 11.4452 102.977 11.4129L103.357 11.7386C103.842 11.1735 104.329 10.6067 104.818 10.0366C105.139 9.6622 105.469 9.29957 105.81 8.94869L105.45 8.60073C106.152 7.87695 106.892 7.20209 107.667 6.57591L107.981 6.96488C108.746 6.34754 109.545 5.77831 110.377 5.257L110.111 4.83339C110.957 4.30293 111.835 3.82129 112.742 3.38825L112.957 3.83944C113.839 3.4184 114.749 3.04391 115.684 2.71586L115.518 2.24407C116.455 1.91518 117.417 1.63236 118.399 1.39537L118.516 1.88142C119.464 1.65273 120.432 1.46729 121.418 1.325L121.346 0.830134C122.327 0.6886 123.323 0.589203 124.334 0.531748L124.362 1.03094C125.338 0.975463 126.327 0.959614 127.327 0.983291L127.339 0.483431C128.328 0.506856 129.327 0.568462 130.334 0.668079L130.285 1.16565C131.259 1.26202 132.24 1.39443 133.227 1.56277L133.311 1.0699C134.288 1.23661 135.269 1.43811 136.253 1.67425L136.137 2.16045C137.09 2.38915 138.045 2.65075 139.002 2.94515L139.149 2.46728C140.097 2.75918 141.045 3.08291 141.992 3.43834L141.817 3.90645C142.736 4.25147 143.654 4.62673 144.568 5.03211L144.771 4.57499C145.678 4.97717 146.583 5.40865 147.482 5.86932L147.254 6.31433C148.129 6.76275 149 7.23915 149.865 7.7434L150.117 7.3115C150.974 7.81162 151.825 8.33885 152.669 8.89307L152.394 9.31094C153.218 9.85202 154.034 10.4191 154.841 11.0121L155.137 10.6092C155.937 11.1967 156.728 11.8094 157.509 12.4472L157.193 12.8345C157.577 13.1478 157.958 13.4672 158.337 13.7928C158.716 14.1187 159.089 14.4481 159.457 14.7808L159.792 14.4101C160.54 15.0874 161.265 15.7784 161.967 16.4818L161.613 16.8349C162.321 17.5447 163.005 18.2673 163.664 19.0011L164.036 18.667C164.711 19.4185 165.36 20.1817 165.984 20.9552L165.595 21.269C166.223 22.0489 166.826 22.8391 167.401 23.6381L167.807 23.3459C168.398 24.1666 168.96 24.9966 169.495 25.8342L169.073 26.1031C169.612 26.9474 170.121 27.7993 170.601 28.657L171.037 28.413C171.531 29.2966 171.994 30.1865 172.426 31.0808L171.976 31.2981C172.411 32.2001 172.814 33.1065 173.184 34.0153L173.647 33.8268C174.028 34.765 174.376 35.7059 174.688 36.6475L174.213 36.8049C174.529 37.7556 174.808 38.7067 175.05 39.6559L175.535 39.5322C175.785 40.5132 175.997 41.4926 176.17 42.468L175.677 42.5551C175.852 43.5409 175.986 44.5221 176.079 45.4959L176.576 45.4485C176.672 46.457 176.725 47.4584 176.734 48.4499L176.234 48.4542C176.242 49.451 176.206 50.4371 176.123 51.4095L176.621 51.4517C176.536 52.4595 176.402 53.4536 176.219 54.4307L175.728 54.3387C175.546 55.3135 175.313 56.2707 175.031 57.207L175.51 57.3513C175.22 58.3144 174.877 59.2565 174.481 60.1742L174.022 59.9762C173.633 60.8783 173.192 61.7561 172.698 62.6063L173.13 62.8575C172.629 63.72 172.074 64.555 171.465 65.3592L171.067 65.0573C170.771 65.4472 170.463 65.8298 170.142 66.2045L170.14 66.2059C169.654 66.7775 169.169 67.3452 168.685 67.9108L169.065 68.2358C168.131 69.3278 167.2 70.412 166.265 71.5011C166.225 71.5475 166.186 71.5939 166.146 71.6403L165.766 71.3146C165.281 71.8797 164.795 72.4464 164.306 73.0165C163.985 73.391 163.654 73.7537 163.314 74.1046L163.673 74.4525C162.971 75.1764 162.231 75.8514 161.456 76.4777L161.141 76.0887C160.377 76.7061 159.577 77.2754 158.746 77.7968L159.011 78.2204C158.165 78.7509 157.287 79.2326 156.38 79.6656L156.164 79.2144C155.283 79.6354 154.373 80.0099 153.438 80.3379L153.603 80.8097C152.666 81.1386 151.704 81.4213 150.722 81.6582L150.605 81.1722C149.657 81.4007 148.688 81.5861 147.702 81.7282L147.774 82.2231C146.793 82.3645 145.796 82.4638 144.786 82.521L144.757 82.0218C143.781 82.0771 142.792 82.0928 141.792 82.0689L141.78 82.5688C140.791 82.5451 139.791 82.4833 138.784 82.3834L138.834 81.8859C137.86 81.7893 136.878 81.6566 135.892 81.488L135.807 81.9809C134.83 81.8139 133.849 81.6121 132.865 81.3757L132.981 80.8895C132.028 80.6606 131.072 80.3987 130.116 80.104L129.969 80.5818C129.02 80.2897 128.072 79.9656 127.125 79.6099L127.301 79.1418C126.381 78.7965 125.464 78.421 124.549 78.0153L124.346 78.4724C123.439 78.0699 122.534 77.6381 121.635 77.1772L121.863 76.7322C120.988 76.2835 120.117 75.8068 119.252 75.3023L119 75.7342C118.143 75.2338 117.292 74.7063 116.448 74.1518L116.723 73.734C115.899 73.1926 115.083 72.6253 114.276 72.032L113.98 72.4349C113.18 71.8472 112.389 71.2342 111.608 70.5962L111.924 70.209C111.54 69.8955 111.159 69.576 110.78 69.2503C110.401 68.9245 110.028 68.5951 109.66 68.2624L109.325 68.6331C108.577 67.9559 107.852 67.265 107.15 66.5617L107.504 66.2086C106.796 65.4989 106.113 64.7764 105.454 64.0427L105.082 64.3769C104.407 63.6255 103.757 62.8623 103.134 62.089L103.523 61.7751C102.894 60.9954 102.292 60.2054 101.717 59.4065L101.311 59.6987C100.72 58.8781 100.157 58.0482 99.623 57.2108L100.044 56.9418C99.5059 56.0977 98.9966 55.246 98.5169 54.3884L98.0805 54.6324C97.5865 53.749 97.1235 52.8592 96.6919 51.965L97.1422 51.7477C96.707 50.8458 96.3043 49.9396 95.9344 49.031L95.4713 49.2195C95.0894 48.2815 94.7421 47.3406 94.4299 46.3992L94.9044 46.2418C94.5891 45.2912 94.3101 44.3403 94.0677 43.3913L93.5833 43.515C93.3328 42.534 93.1209 41.5548 92.9482 40.5796L93.4406 40.4924C93.266 39.5067 93.1322 38.5257 93.0394 37.552L92.5417 37.5994C92.4456 36.591 92.393 35.5898 92.3845 34.5985L92.8845 34.5942C92.876 33.5975 92.9127 32.6116 92.9951 31.6393L92.4969 31.597C92.5824 30.5894 92.7163 29.5955 92.8994 28.6185L93.3908 28.7106C93.5734 27.736 93.8057 26.7791 94.0882 25.843L93.6095 25.6985C93.9001 24.7356 94.2431 23.7938 94.6392 22.8764L95.0982 23.0746C95.4875 22.1728 95.9291 21.2953 96.4235 20.4455L95.9914 20.1941C96.493 19.3319 97.0481 18.4974 97.6575 17.6937L98.0559 17.9958C98.3513 17.6061 98.6598 17.2239 98.9815 16.8494Z" stroke="white" stroke-dasharray="3 3"/>
<g style="mix-blend-mode:multiply" opacity="0.3">
<path d="M98.9815 16.8494L98.9829 16.8477C99.4693 16.2761 99.9539 15.7083 100.438 15.1426L100.058 14.8176C101.004 13.7115 101.947 12.6134 102.894 11.5099C102.922 11.4776 102.95 11.4452 102.977 11.4129L103.357 11.7386C103.842 11.1735 104.329 10.6067 104.818 10.0366C105.139 9.6622 105.469 9.29957 105.81 8.94869L105.45 8.60073C106.152 7.87695 106.892 7.20209 107.667 6.57591L107.981 6.96488C108.746 6.34754 109.545 5.77831 110.377 5.257L110.111 4.83339C110.957 4.30293 111.835 3.82129 112.742 3.38825L112.957 3.83944C113.839 3.4184 114.749 3.04391 115.684 2.71586L115.518 2.24407C116.455 1.91518 117.417 1.63236 118.399 1.39537L118.516 1.88142C119.464 1.65273 120.432 1.46729 121.418 1.325L121.346 0.830134C122.327 0.6886 123.323 0.589203 124.334 0.531748L124.362 1.03094C125.338 0.975463 126.327 0.959614 127.327 0.983291L127.339 0.483431C128.328 0.506856 129.327 0.568462 130.334 0.668079L130.285 1.16565C131.259 1.26202 132.24 1.39443 133.227 1.56277L133.311 1.0699C134.288 1.23661 135.269 1.43811 136.253 1.67425L136.137 2.16045C137.09 2.38915 138.045 2.65075 139.002 2.94515L139.149 2.46728C140.097 2.75918 141.045 3.08291 141.992 3.43834L141.817 3.90645C142.736 4.25147 143.654 4.62673 144.568 5.03211L144.771 4.57499C145.678 4.97717 146.583 5.40865 147.482 5.86932L147.254 6.31433C148.129 6.76275 149 7.23915 149.865 7.7434L150.117 7.3115C150.974 7.81162 151.825 8.33885 152.669 8.89307L152.394 9.31094C153.218 9.85202 154.034 10.4191 154.841 11.0121L155.137 10.6092C155.937 11.1967 156.728 11.8094 157.509 12.4472L157.193 12.8345C157.577 13.1478 157.958 13.4672 158.337 13.7928C158.716 14.1187 159.089 14.4481 159.457 14.7808L159.792 14.4101C160.54 15.0874 161.265 15.7784 161.967 16.4818L161.613 16.8349C162.321 17.5447 163.005 18.2673 163.664 19.0011L164.036 18.667C164.711 19.4185 165.36 20.1817 165.984 20.9552L165.595 21.269C166.223 22.0489 166.826 22.8391 167.401 23.6381L167.807 23.3459C168.398 24.1666 168.96 24.9966 169.495 25.8342L169.073 26.1031C169.612 26.9474 170.121 27.7993 170.601 28.657L171.037 28.413C171.531 29.2966 171.994 30.1865 172.426 31.0808L171.976 31.2981C172.411 32.2001 172.814 33.1065 173.184 34.0153L173.647 33.8268C174.028 34.765 174.376 35.7059 174.688 36.6475L174.213 36.8049C174.529 37.7556 174.808 38.7067 175.05 39.6559L175.535 39.5322C175.785 40.5132 175.997 41.4926 176.17 42.468L175.677 42.5551C175.852 43.5409 175.986 44.5221 176.079 45.4959L176.576 45.4485C176.672 46.457 176.725 47.4584 176.734 48.4499L176.234 48.4542C176.242 49.451 176.206 50.4371 176.123 51.4095L176.621 51.4517C176.536 52.4595 176.402 53.4536 176.219 54.4307L175.728 54.3387C175.546 55.3135 175.313 56.2707 175.031 57.207L175.51 57.3513C175.22 58.3144 174.877 59.2565 174.481 60.1742L174.022 59.9762C173.633 60.8783 173.192 61.7561 172.698 62.6063L173.13 62.8575C172.629 63.72 172.074 64.555 171.465 65.3592L171.067 65.0573C170.771 65.4472 170.463 65.8298 170.142 66.2045L170.14 66.2059C169.654 66.7775 169.169 67.3452 168.685 67.9108L169.065 68.2358C168.131 69.3278 167.2 70.412 166.265 71.5011C166.225 71.5475 166.186 71.5939 166.146 71.6403L165.766 71.3146C165.281 71.8797 164.795 72.4464 164.306 73.0165C163.985 73.391 163.654 73.7537 163.314 74.1046L163.673 74.4525C162.971 75.1764 162.231 75.8514 161.456 76.4777L161.141 76.0887C160.377 76.7061 159.577 77.2754 158.746 77.7968L159.011 78.2204C158.165 78.7509 157.287 79.2326 156.38 79.6656L156.164 79.2144C155.283 79.6354 154.373 80.0099 153.438 80.3379L153.603 80.8097C152.666 81.1386 151.704 81.4213 150.722 81.6582L150.605 81.1722C149.657 81.4007 148.688 81.5861 147.702 81.7282L147.774 82.2231C146.793 82.3645 145.796 82.4638 144.786 82.521L144.757 82.0218C143.781 82.0771 142.792 82.0928 141.792 82.0689L141.78 82.5688C140.791 82.5451 139.791 82.4833 138.784 82.3834L138.834 81.8859C137.86 81.7893 136.878 81.6566 135.892 81.488L135.807 81.9809C134.83 81.8139 133.849 81.6121 132.865 81.3757L132.981 80.8895C132.028 80.6606 131.072 80.3987 130.116 80.104L129.969 80.5818C129.02 80.2897 128.072 79.9656 127.125 79.6099L127.301 79.1418C126.381 78.7965 125.464 78.421 124.549 78.0153L124.346 78.4724C123.439 78.0699 122.534 77.6381 121.635 77.1772L121.863 76.7322C120.988 76.2835 120.117 75.8068 119.252 75.3023L119 75.7342C118.143 75.2338 117.292 74.7063 116.448 74.1518L116.723 73.734C115.899 73.1926 115.083 72.6253 114.276 72.032L113.98 72.4349C113.18 71.8472 112.389 71.2342 111.608 70.5962L111.924 70.209C111.54 69.8955 111.159 69.576 110.78 69.2503C110.401 68.9245 110.028 68.5951 109.66 68.2624L109.325 68.6331C108.577 67.9559 107.852 67.265 107.15 66.5617L107.504 66.2086C106.796 65.4989 106.113 64.7764 105.454 64.0427L105.082 64.3769C104.407 63.6255 103.757 62.8623 103.134 62.089L103.523 61.7751C102.894 60.9954 102.292 60.2054 101.717 59.4065L101.311 59.6987C100.72 58.8781 100.157 58.0482 99.623 57.2108L100.044 56.9418C99.5059 56.0977 98.9966 55.246 98.5169 54.3884L98.0805 54.6324C97.5865 53.749 97.1235 52.8592 96.6919 51.965L97.1422 51.7477C96.707 50.8458 96.3043 49.9396 95.9344 49.031L95.4713 49.2195C95.0894 48.2815 94.7421 47.3406 94.4299 46.3992L94.9044 46.2418C94.5891 45.2912 94.3101 44.3403 94.0677 43.3913L93.5833 43.515C93.3328 42.534 93.1209 41.5548 92.9482 40.5796L93.4406 40.4924C93.266 39.5067 93.1322 38.5257 93.0394 37.552L92.5417 37.5994C92.4456 36.591 92.393 35.5898 92.3845 34.5985L92.8845 34.5942C92.876 33.5975 92.9127 32.6116 92.9951 31.6393L92.4969 31.597C92.5824 30.5894 92.7163 29.5955 92.8994 28.6185L93.3908 28.7106C93.5734 27.736 93.8057 26.7791 94.0882 25.843L93.6095 25.6985C93.9001 24.7356 94.2431 23.7938 94.6392 22.8764L95.0982 23.0746C95.4875 22.1728 95.9291 21.2953 96.4235 20.4455L95.9914 20.1941C96.493 19.3319 97.0481 18.4974 97.6575 17.6937L98.0559 17.9958C98.3513 17.6061 98.6598 17.2239 98.9815 16.8494Z" stroke="white" stroke-dasharray="3 3"/>
</g>
<path d="M98.9815 16.8494L98.9829 16.8477C99.4693 16.2761 99.9539 15.7083 100.438 15.1426L100.058 14.8176C101.004 13.7115 101.947 12.6134 102.894 11.5099C102.922 11.4776 102.95 11.4452 102.977 11.4129L103.357 11.7386C103.842 11.1735 104.329 10.6067 104.818 10.0366C105.139 9.6622 105.469 9.29957 105.81 8.94869L105.45 8.60073C106.152 7.87695 106.892 7.20209 107.667 6.57591L107.981 6.96488C108.746 6.34754 109.545 5.77831 110.377 5.257L110.111 4.83339C110.957 4.30293 111.835 3.82129 112.742 3.38825L112.957 3.83944C113.839 3.4184 114.749 3.04391 115.684 2.71586L115.518 2.24407C116.455 1.91518 117.417 1.63236 118.399 1.39537L118.516 1.88142C119.464 1.65273 120.432 1.46729 121.418 1.325L121.346 0.830134C122.327 0.6886 123.323 0.589203 124.334 0.531748L124.362 1.03094C125.338 0.975463 126.327 0.959614 127.327 0.983291L127.339 0.483431C128.328 0.506856 129.327 0.568462 130.334 0.668079L130.285 1.16565C131.259 1.26202 132.24 1.39443 133.227 1.56277L133.311 1.0699C134.288 1.23661 135.269 1.43811 136.253 1.67425L136.137 2.16045C137.09 2.38915 138.045 2.65075 139.002 2.94515L139.149 2.46728C140.097 2.75918 141.045 3.08291 141.992 3.43834L141.817 3.90645C142.736 4.25147 143.654 4.62673 144.568 5.03211L144.771 4.57499C145.678 4.97717 146.583 5.40865 147.482 5.86932L147.254 6.31433C148.129 6.76275 149 7.23915 149.865 7.7434L150.117 7.3115C150.974 7.81162 151.825 8.33885 152.669 8.89307L152.394 9.31094C153.218 9.85202 154.034 10.4191 154.841 11.0121L155.137 10.6092C155.937 11.1967 156.728 11.8094 157.509 12.4472L157.193 12.8345C157.577 13.1478 157.958 13.4672 158.337 13.7928C158.716 14.1187 159.089 14.4481 159.457 14.7808L159.792 14.4101C160.54 15.0874 161.265 15.7784 161.967 16.4818L161.613 16.8349C162.321 17.5447 163.005 18.2673 163.664 19.0011L164.036 18.667C164.711 19.4185 165.36 20.1817 165.984 20.9552L165.595 21.269C166.223 22.0489 166.826 22.8391 167.401 23.6381L167.807 23.3459C168.398 24.1666 168.96 24.9966 169.495 25.8342L169.073 26.1031C169.612 26.9474 170.121 27.7993 170.601 28.657L171.037 28.413C171.531 29.2966 171.994 30.1865 172.426 31.0808L171.976 31.2981C172.411 32.2001 172.814 33.1065 173.184 34.0153L173.647 33.8268C174.028 34.765 174.376 35.7059 174.688 36.6475L174.213 36.8049C174.529 37.7556 174.808 38.7067 175.05 39.6559L175.535 39.5322C175.785 40.5132 175.997 41.4926 176.17 42.468L175.677 42.5551C175.852 43.5409 175.986 44.5221 176.079 45.4959L176.576 45.4485C176.672 46.457 176.725 47.4584 176.734 48.4499L176.234 48.4542C176.242 49.451 176.206 50.4371 176.123 51.4095L176.621 51.4517C176.536 52.4595 176.402 53.4536 176.219 54.4307L175.728 54.3387C175.546 55.3135 175.313 56.2707 175.031 57.207L175.51 57.3513C175.22 58.3144 174.877 59.2565 174.481 60.1742L174.022 59.9762C173.633 60.8783 173.192 61.7561 172.698 62.6063L173.13 62.8575C172.629 63.72 172.074 64.555 171.465 65.3592L171.067 65.0573C170.771 65.4472 170.463 65.8298 170.142 66.2045L170.14 66.2059C169.654 66.7775 169.169 67.3452 168.685 67.9108L169.065 68.2358C168.131 69.3278 167.2 70.412 166.265 71.5011C166.225 71.5475 166.186 71.5939 166.146 71.6403L165.766 71.3146C165.281 71.8797 164.795 72.4464 164.306 73.0165C163.985 73.391 163.654 73.7537 163.314 74.1046L163.673 74.4525C162.971 75.1764 162.231 75.8514 161.456 76.4777L161.141 76.0887C160.377 76.7061 159.577 77.2754 158.746 77.7968L159.011 78.2204C158.165 78.7509 157.287 79.2326 156.38 79.6656L156.164 79.2144C155.283 79.6354 154.373 80.0099 153.438 80.3379L153.603 80.8097C152.666 81.1386 151.704 81.4213 150.722 81.6582L150.605 81.1722C149.657 81.4007 148.688 81.5861 147.702 81.7282L147.774 82.2231C146.793 82.3645 145.796 82.4638 144.786 82.521L144.757 82.0218C143.781 82.0771 142.792 82.0928 141.792 82.0689L141.78 82.5688C140.791 82.5451 139.791 82.4833 138.784 82.3834L138.834 81.8859C137.86 81.7893 136.878 81.6566 135.892 81.488L135.807 81.9809C134.83 81.8139 133.849 81.6121 132.865 81.3757L132.981 80.8895C132.028 80.6606 131.072 80.3987 130.116 80.104L129.969 80.5818C129.02 80.2897 128.072 79.9656 127.125 79.6099L127.301 79.1418C126.381 78.7965 125.464 78.421 124.549 78.0153L124.346 78.4724C123.439 78.0699 122.534 77.6381 121.635 77.1772L121.863 76.7322C120.988 76.2835 120.117 75.8068 119.252 75.3023L119 75.7342C118.143 75.2338 117.292 74.7063 116.448 74.1518L116.723 73.734C115.899 73.1926 115.083 72.6253 114.276 72.032L113.98 72.4349C113.18 71.8472 112.389 71.2342 111.608 70.5962L111.924 70.209C111.54 69.8955 111.159 69.576 110.78 69.2503C110.401 68.9245 110.028 68.5951 109.66 68.2624L109.325 68.6331C108.577 67.9559 107.852 67.265 107.15 66.5617L107.504 66.2086C106.796 65.4989 106.113 64.7764 105.454 64.0427L105.082 64.3769C104.407 63.6255 103.757 62.8623 103.134 62.089L103.523 61.7751C102.894 60.9954 102.292 60.2054 101.717 59.4065L101.311 59.6987C100.72 58.8781 100.157 58.0482 99.623 57.2108L100.044 56.9418C99.5059 56.0977 98.9966 55.246 98.5169 54.3884L98.0805 54.6324C97.5865 53.749 97.1235 52.8592 96.6919 51.965L97.1422 51.7477C96.707 50.8458 96.3043 49.9396 95.9344 49.031L95.4713 49.2195C95.0894 48.2815 94.7421 47.3406 94.4299 46.3992L94.9044 46.2418C94.5891 45.2912 94.3101 44.3403 94.0677 43.3913L93.5833 43.515C93.3328 42.534 93.1209 41.5548 92.9482 40.5796L93.4406 40.4924C93.266 39.5067 93.1322 38.5257 93.0394 37.552L92.5417 37.5994C92.4456 36.591 92.393 35.5898 92.3845 34.5985L92.8845 34.5942C92.876 33.5975 92.9127 32.6116 92.9951 31.6393L92.4969 31.597C92.5824 30.5894 92.7163 29.5955 92.8994 28.6185L93.3908 28.7106C93.5734 27.736 93.8057 26.7791 94.0882 25.843L93.6095 25.6985C93.9001 24.7356 94.2431 23.7938 94.6392 22.8764L95.0982 23.0746C95.4875 22.1728 95.9291 21.2953 96.4235 20.4455L95.9914 20.1941C96.493 19.3319 97.0481 18.4974 97.6575 17.6937L98.0559 17.9958C98.3513 17.6061 98.6598 17.2239 98.9815 16.8494Z" stroke="white" stroke-dasharray="3 3"/>
<path d="M164.31 73.0244C163.989 73.3989 163.658 73.7616 163.318 74.1125L163.677 74.4605C162.975 75.1843 162.235 75.8593 161.46 76.4855L161.145 76.0965C160.381 76.7139 159.581 77.2831 158.75 77.8044L159.015 78.2281C158.169 78.7585 157.291 79.2401 156.383 79.6731L156.168 79.2219C155.286 79.6428 154.376 80.0172 153.441 80.3451L153.606 80.817C152.669 81.1457 151.708 81.4284 150.725 81.6653L150.608 81.1792C149.66 81.4077 148.691 81.593 147.706 81.7351L147.777 82.23C146.796 82.3713 145.799 82.4705 144.789 82.5278L144.76 82.0286C143.784 82.0838 142.795 82.0995 141.795 82.0756L141.783 82.5754C140.794 82.5518 139.794 82.49 138.787 82.3901L138.837 81.8925C137.863 81.796 136.881 81.6633 135.894 81.4947L135.81 81.9876C134.833 81.8206 133.851 81.6189 132.867 81.3825L132.984 80.8964C132.031 80.6674 131.075 80.4056 130.118 80.111L129.971 80.5888C129.023 80.2967 128.074 79.9727 127.127 79.617L127.303 79.149C126.384 78.8037 125.466 78.4282 124.551 78.0226L124.348 78.4797C123.441 78.0773 122.536 77.6456 121.637 77.1847L121.865 76.7398C120.99 76.2911 120.119 75.8145 119.254 75.3101L119.002 75.7419C118.145 75.2416 117.293 74.7142 116.45 74.1598L116.724 73.7419C115.901 73.2006 115.084 72.6334 114.277 72.0402L113.981 72.4431C113.181 71.8554 112.39 71.2425 111.609 70.6046L111.925 70.2173C111.541 69.9039 111.16 69.5844 110.781 69.2587C110.402 68.9329 110.029 68.6035 109.661 68.2708L109.325 68.6416C108.577 67.9644 107.852 67.2734 107.15 66.5701L107.504 66.217C106.796 65.5072 106.112 64.7847 105.453 64.051L105.081 64.3851C104.406 63.6337 103.757 62.8705 103.133 62.0971L103.522 61.7832C102.893 61.0035 102.291 60.2133 101.716 59.4144L101.31 59.7065C100.719 58.8859 100.156 58.0559 99.6217 57.2184L100.043 56.9494C99.5045 56.1052 98.9951 55.2534 98.5154 54.3956L98.079 54.6397C97.5849 53.7562 97.1218 52.8663 96.6902 51.9719L97.1405 51.7546C96.7052 50.8526 96.3024 49.9463 95.9325 49.0376L95.4694 49.2261C95.0875 48.2879 94.7401 47.347 94.4278 46.4055L94.9024 46.2481C94.5871 45.2973 94.3079 44.3463 94.0655 43.3971L93.5811 43.5208C93.3305 42.5398 93.1186 41.5604 92.9459 40.5851L93.4382 40.4979C93.2636 39.5121 93.1297 38.531 93.0368 37.5571L92.5391 37.6046C92.4429 36.5961 92.3903 35.5947 92.3816 34.6033L92.8816 34.5989C92.8729 33.6021 92.9095 32.616 92.9918 31.6436L92.4936 31.6014C92.5789 30.5936 92.7126 29.5996 92.8954 28.6225L93.3869 28.7144C93.5693 27.7396 93.8013 26.7824 94.0835 25.8461L93.6048 25.7018C93.8951 24.7387 94.2377 23.7966 94.6335 22.8789L95.0926 23.0769C95.4816 22.1748 95.9228 21.297 96.4168 20.4469L95.9845 20.1956C96.4858 19.3331 97.0405 18.4981 97.6494 17.694L98.048 17.9958C98.3433 17.6059 98.6516 17.2234 98.973 16.8487C99.2942 16.4742 99.6251 16.1115 99.9652 15.7606L99.6062 15.4126C100.308 14.6887 101.048 14.0138 101.823 13.3876L102.138 13.7766C102.902 13.1593 103.702 12.59 104.533 12.0688L104.268 11.6451C105.114 11.1147 105.993 10.6331 106.9 10.2002L107.115 10.6514C107.997 10.2305 108.907 9.85609 109.842 9.52817L109.677 9.05634C110.614 8.7276 111.576 8.44493 112.558 8.20811L112.675 8.69419C113.623 8.46568 114.592 8.28044 115.578 8.13835L115.506 7.64346C116.487 7.50213 117.484 7.40295 118.495 7.34572L118.523 7.84492C119.499 7.78966 120.488 7.77404 121.488 7.79795L121.5 7.2981C122.49 7.32176 123.489 7.3836 124.496 7.48347L124.447 7.98103C125.421 8.07763 126.402 8.21028 127.389 8.37887L127.473 7.88602C128.45 8.05298 129.432 8.25472 130.416 8.49111L130.299 8.97729C131.252 9.20623 132.208 9.46807 133.165 9.76271L133.312 9.28487C134.26 9.577 135.209 9.90097 136.156 10.2567L135.98 10.7247C136.899 11.07 137.817 11.4455 138.732 11.8511L138.935 11.394C139.842 11.7964 140.747 12.2281 141.646 12.689L141.418 13.134C142.293 13.5826 143.164 14.0592 144.029 14.5636L144.281 14.1318C145.138 14.6321 145.99 15.1595 146.833 15.7139L146.559 16.1318C147.382 16.673 148.199 17.2403 149.006 17.8335L149.302 17.4306C150.102 18.0182 150.893 18.6311 151.674 19.269L151.358 19.6563C151.742 19.9697 152.123 20.2893 152.502 20.6149C152.881 20.9407 153.254 21.2701 153.622 21.6028L153.958 21.232C154.706 21.9092 155.431 22.6001 156.133 23.3034L155.779 23.6565C156.487 24.3663 157.171 25.0888 157.83 25.8225L158.202 25.4883C158.877 26.2398 159.526 27.003 160.15 27.7764L159.761 28.0902C160.39 28.87 160.992 29.6601 161.567 30.4591L161.973 30.1669C162.564 30.9875 163.127 31.8175 163.661 32.655L163.24 32.924C163.778 33.7682 164.288 34.62 164.767 35.4778L165.204 35.2337C165.698 36.1172 166.161 37.0071 166.593 37.9014L166.142 38.1187C166.578 39.0207 166.98 39.927 167.35 40.8358L167.813 40.6472C168.195 41.5854 168.543 42.5263 168.855 43.4678L168.38 43.6253C168.696 44.576 168.975 45.527 169.217 46.4762L169.702 46.3524C169.952 47.3335 170.164 48.3129 170.337 49.2882L169.845 49.3753C170.019 50.3611 170.153 51.3422 170.246 52.3161L170.744 52.2686C170.84 53.2771 170.892 54.2785 170.901 55.2699L170.401 55.2743C170.41 56.2711 170.373 57.2572 170.291 58.2296L170.789 58.2717C170.704 59.2795 170.57 60.2735 170.387 61.2507L169.896 61.1587C169.714 62.1335 169.482 63.0907 169.199 64.027L169.678 64.1713C169.388 65.1344 169.045 66.0765 168.649 66.9942L168.19 66.7962C167.801 67.6983 167.36 68.5761 166.866 69.4262L167.298 69.6774C166.797 70.54 166.242 71.375 165.634 72.1791L165.235 71.8772C164.94 72.2671 164.631 72.6496 164.31 73.0244Z" stroke="white" stroke-dasharray="3 3"/>
<path d="M124.35 107.74L124.297 107.992L124.31 107.994L122.205 118.094C120.504 126.26 114.39 132.724 105.837 136.56C97.2846 140.396 86.312 141.594 74.9502 139.229C63.5883 136.864 54.0063 131.387 47.6968 124.457C41.3872 117.527 38.3623 109.16 40.0633 100.995L42.2198 90.6437C43.9211 82.4779 50.0358 76.0138 58.5884 72.1775C67.1407 68.3414 78.1133 67.1435 89.4751 69.5086C100.837 71.8737 110.416 77.3499 116.722 84.2791C123.029 91.2086 126.051 99.5746 124.35 107.74Z" fill="url(#paint5_radial_23588_617)" fill-opacity="0.27" stroke="#B4F9BA" stroke-width="0.5"/>
<g style="mix-blend-mode:multiply" opacity="0.3">
<path d="M124.35 107.74L124.297 107.992L124.31 107.994L122.205 118.094C120.504 126.26 114.39 132.724 105.837 136.56C97.2846 140.396 86.312 141.594 74.9502 139.229C63.5883 136.864 54.0063 131.387 47.6968 124.457C41.3872 117.527 38.3623 109.16 40.0633 100.995L42.2198 90.6437C43.9211 82.4779 50.0358 76.0138 58.5884 72.1775C67.1407 68.3414 78.1133 67.1435 89.4751 69.5086C100.837 71.8737 110.416 77.3499 116.722 84.2791C123.029 91.2086 126.051 99.5746 124.35 107.74Z" fill="url(#paint6_radial_23588_617)" fill-opacity="0.27" stroke="#B4F9BA" stroke-width="0.5"/>
<path d="M124.35 107.74L124.297 107.992L124.31 107.994L122.205 118.094C120.504 126.26 114.39 132.724 105.837 136.56C97.2846 140.396 86.312 141.594 74.9502 139.229C63.5883 136.864 54.0063 131.387 47.6968 124.457C41.3872 117.527 38.3623 109.16 40.0633 100.995L42.2198 90.6437C43.9211 82.4779 50.0358 76.0138 58.5884 72.1775C67.1407 68.3414 78.1133 67.1435 89.4751 69.5086C100.837 71.8737 110.416 77.3499 116.722 84.2791C123.029 91.2086 126.051 99.5746 124.35 107.74Z" fill="url(#paint7_radial_23588_617)" fill-opacity="0.27" stroke="#B4F9BA" stroke-width="0.5"/>
</g>
<path d="M124.35 107.74L124.297 107.992L124.31 107.994L122.205 118.094C120.504 126.26 114.39 132.724 105.837 136.56C97.2846 140.396 86.312 141.594 74.9502 139.229C63.5883 136.864 54.0063 131.387 47.6968 124.457C41.3872 117.527 38.3623 109.16 40.0633 100.995L42.2198 90.6437C43.9211 82.4779 50.0358 76.0138 58.5884 72.1775C67.1407 68.3414 78.1133 67.1435 89.4751 69.5086C100.837 71.8737 110.416 77.3499 116.722 84.2791C123.029 91.2086 126.051 99.5746 124.35 107.74Z" fill="url(#paint8_radial_23588_617)" fill-opacity="0.27" stroke="#B4F9BA" stroke-width="0.5"/>
<path d="M124.361 107.741C122.66 115.908 116.546 122.372 107.994 126.208C99.442 130.044 88.4694 131.242 77.1061 128.876C65.7429 126.511 56.1607 121.034 49.8515 114.105C43.5422 107.175 40.5179 98.8087 42.2193 90.6421L41.9751 90.5912L42.2193 90.6421C43.9206 82.4752 50.0347 76.0109 58.587 72.1749C67.1391 68.3389 78.1116 67.1416 89.4746 69.507C100.838 71.8724 110.42 77.3487 116.729 84.2782C123.039 91.208 126.063 99.5745 124.361 107.741Z" fill="url(#paint9_radial_23588_617)" fill-opacity="0.27" stroke="#B4F9BA" stroke-width="0.5"/>
<defs>
<radialGradient id="paint0_radial_23588_617" cx="0" cy="0" r="1" gradientUnits="userSpaceOnUse" gradientTransform="translate(24.9839 36.6333) rotate(78.7241) scale(80.8231 84.5914)">
<stop stop-color="#A3F5AA"/>
<stop offset="0.4" stop-color="#82D289"/>
<stop offset="0.835" stop-color="#66AB6C"/>
<stop offset="1" stop-color="#386A3C"/>
</radialGradient>
<radialGradient id="paint1_radial_23588_617" cx="0" cy="0" r="1" gradientUnits="userSpaceOnUse" gradientTransform="translate(24.9839 36.6333) rotate(78.7241) scale(80.8231 84.5914)">
<stop stop-color="#A3F5AA"/>
<stop offset="0.4" stop-color="#82D289"/>
<stop offset="0.835" stop-color="#66AB6C"/>
<stop offset="1" stop-color="#386A3C"/>
</radialGradient>
<radialGradient id="paint2_radial_23588_617" cx="0" cy="0" r="1" gradientUnits="userSpaceOnUse" gradientTransform="translate(24.9839 36.6333) rotate(78.7241) scale(80.8231 84.5914)">
<stop stop-color="#A3F5AA"/>
<stop offset="0.4" stop-color="#82D289"/>
<stop offset="0.835" stop-color="#66AB6C"/>
<stop offset="1" stop-color="#386A3C"/>
</radialGradient>
<radialGradient id="paint3_radial_23588_617" cx="0" cy="0" r="1" gradientUnits="userSpaceOnUse" gradientTransform="translate(24.9839 36.6333) rotate(78.7241) scale(80.8231 84.5914)">
<stop stop-color="#A3F5AA"/>
<stop offset="0.4" stop-color="#82D289"/>
<stop offset="0.835" stop-color="#66AB6C"/>
<stop offset="1" stop-color="#386A3C"/>
</radialGradient>
<radialGradient id="paint4_radial_23588_617" cx="0" cy="0" r="1" gradientUnits="userSpaceOnUse" gradientTransform="translate(24.0869 34.9892) rotate(77.3363) scale(69.4715 81.104)">
<stop stop-color="#A3F5AA"/>
<stop offset="0.4" stop-color="#82D289"/>
<stop offset="0.835" stop-color="#66AB6C"/>
<stop offset="1" stop-color="#386A3C"/>
</radialGradient>
<radialGradient id="paint5_radial_23588_617" cx="0" cy="0" r="1" gradientUnits="userSpaceOnUse" gradientTransform="translate(63.3939 83.6153) rotate(81.9517) scale(109.817 83.0914)">
<stop stop-color="#A3F5AA"/>
<stop offset="0.4" stop-color="#82D289"/>
<stop offset="0.835" stop-color="#66AB6C"/>
<stop offset="1" stop-color="#386A3C"/>
</radialGradient>
<radialGradient id="paint6_radial_23588_617" cx="0" cy="0" r="1" gradientUnits="userSpaceOnUse" gradientTransform="translate(63.3939 83.6153) rotate(81.9517) scale(109.817 83.0914)">
<stop stop-color="#A3F5AA"/>
<stop offset="0.4" stop-color="#82D289"/>
<stop offset="0.835" stop-color="#66AB6C"/>
<stop offset="1" stop-color="#386A3C"/>
</radialGradient>
<radialGradient id="paint7_radial_23588_617" cx="0" cy="0" r="1" gradientUnits="userSpaceOnUse" gradientTransform="translate(63.3939 83.6153) rotate(81.9517) scale(109.817 83.0914)">
<stop stop-color="#A3F5AA"/>
<stop offset="0.4" stop-color="#82D289"/>
<stop offset="0.835" stop-color="#66AB6C"/>
<stop offset="1" stop-color="#386A3C"/>
</radialGradient>
<radialGradient id="paint8_radial_23588_617" cx="0" cy="0" r="1" gradientUnits="userSpaceOnUse" gradientTransform="translate(63.3939 83.6153) rotate(81.9517) scale(109.817 83.0914)">
<stop stop-color="#A3F5AA"/>
<stop offset="0.4" stop-color="#82D289"/>
<stop offset="0.835" stop-color="#66AB6C"/>
<stop offset="1" stop-color="#386A3C"/>
</radialGradient>
<radialGradient id="paint9_radial_23588_617" cx="0" cy="0" r="1" gradientUnits="userSpaceOnUse" gradientTransform="translate(64.9481 81.395) rotate(80.8668) scale(94.4404 80.7817)">
<stop stop-color="#A3F5AA"/>
<stop offset="0.4" stop-color="#82D289"/>
<stop offset="0.835" stop-color="#66AB6C"/>
<stop offset="1" stop-color="#386A3C"/>
</radialGradient>
</defs>
</svg>
