<svg width="177" height="141" viewBox="0 0 177 141" fill="none" xmlns="http://www.w3.org/2000/svg">
<path d="M79.0515 26.4389C81.8581 27.257 83.7369 28.6176 84.5208 30.4974C84.8016 31.1767 85.4934 32.8337 86.1738 34.4635C86.8183 36.0071 87.4526 37.5265 87.7181 38.1682L87.7184 38.1689C88.5022 40.0487 88.1471 42.3405 86.7542 44.9094C85.3626 47.4758 82.9536 50.2814 79.7047 53.154C73.2088 58.8975 63.3985 64.871 51.8098 69.7025C40.221 74.534 29.0696 77.3028 20.4143 77.8775C16.0853 78.1649 12.3952 77.9025 9.59138 77.0845C6.78497 76.2658 4.90625 74.9037 4.12241 73.0208C3.84722 72.3554 3.18537 70.7703 2.52381 69.1858L2.52345 69.185C1.8614 67.5993 1.19969 66.0145 0.924971 65.3503L0.924689 65.3496C0.14079 63.4698 0.495724 61.178 1.8886 58.6091C3.28012 56.0426 5.68904 53.237 8.93793 50.3644C15.4338 44.6208 25.244 38.6472 36.8327 33.8154C48.4218 28.984 59.5732 26.2184 68.2285 25.6453C72.5575 25.3586 76.2477 25.6215 79.0515 26.4389Z" fill="url(#paint0_radial_28101_1369)" fill-opacity="0.27" stroke="#B4F9BA" stroke-width="0.5"/>
<g style="mix-blend-mode:multiply" opacity="0.3">
<path d="M79.0515 26.4389C81.8581 27.257 83.7369 28.6176 84.5208 30.4974C84.8016 31.1767 85.4934 32.8337 86.1738 34.4635C86.8183 36.0071 87.4526 37.5265 87.7181 38.1682L87.7184 38.1689C88.5022 40.0487 88.1471 42.3405 86.7542 44.9094C85.3626 47.4758 82.9536 50.2814 79.7047 53.154C73.2088 58.8975 63.3985 64.871 51.8098 69.7025C40.221 74.534 29.0696 77.3028 20.4143 77.8775C16.0853 78.1649 12.3952 77.9025 9.59138 77.0845C6.78497 76.2658 4.90625 74.9037 4.12241 73.0208C3.84722 72.3554 3.18537 70.7703 2.52381 69.1858L2.52345 69.185C1.8614 67.5993 1.19969 66.0145 0.924971 65.3503L0.924689 65.3496C0.14079 63.4698 0.495724 61.178 1.8886 58.6091C3.28012 56.0426 5.68904 53.237 8.93793 50.3644C15.4338 44.6208 25.244 38.6472 36.8327 33.8154C48.4218 28.984 59.5732 26.2184 68.2285 25.6453C72.5575 25.3586 76.2477 25.6215 79.0515 26.4389Z" fill="url(#paint1_radial_28101_1369)" fill-opacity="0.27" stroke="#B4F9BA" stroke-width="0.5"/>
<path d="M79.0515 26.4389C81.8581 27.257 83.7369 28.6176 84.5208 30.4974C84.8016 31.1767 85.4934 32.8337 86.1738 34.4635C86.8183 36.0071 87.4526 37.5265 87.7181 38.1682L87.7184 38.1689C88.5022 40.0487 88.1471 42.3405 86.7542 44.9094C85.3626 47.4758 82.9536 50.2814 79.7047 53.154C73.2088 58.8975 63.3985 64.871 51.8098 69.7025C40.221 74.534 29.0696 77.3028 20.4143 77.8775C16.0853 78.1649 12.3952 77.9025 9.59138 77.0845C6.78497 76.2658 4.90625 74.9037 4.12241 73.0208C3.84722 72.3554 3.18537 70.7703 2.52381 69.1858L2.52345 69.185C1.8614 67.5993 1.19969 66.0145 0.924971 65.3503L0.924689 65.3496C0.14079 63.4698 0.495724 61.178 1.8886 58.6091C3.28012 56.0426 5.68904 53.237 8.93793 50.3644C15.4338 44.6208 25.244 38.6472 36.8327 33.8154C48.4218 28.984 59.5732 26.2184 68.2285 25.6453C72.5575 25.3586 76.2477 25.6215 79.0515 26.4389Z" fill="url(#paint2_radial_28101_1369)" fill-opacity="0.27" stroke="#B4F9BA" stroke-width="0.5"/>
</g>
<path d="M79.0515 26.4389C81.8581 27.257 83.7369 28.6176 84.5208 30.4974C84.8016 31.1767 85.4934 32.8337 86.1738 34.4635C86.8183 36.0071 87.4526 37.5265 87.7181 38.1682L87.7184 38.1689C88.5022 40.0487 88.1471 42.3405 86.7542 44.9094C85.3626 47.4758 82.9536 50.2814 79.7047 53.154C73.2088 58.8975 63.3985 64.871 51.8098 69.7025C40.221 74.534 29.0696 77.3028 20.4143 77.8775C16.0853 78.1649 12.3952 77.9025 9.59138 77.0845C6.78497 76.2658 4.90625 74.9037 4.12241 73.0208C3.84722 72.3554 3.18537 70.7703 2.52381 69.1858L2.52345 69.185C1.8614 67.5993 1.19969 66.0145 0.924971 65.3503L0.924689 65.3496C0.14079 63.4698 0.495724 61.178 1.8886 58.6091C3.28012 56.0426 5.68904 53.237 8.93793 50.3644C15.4338 44.6208 25.244 38.6472 36.8327 33.8154C48.4218 28.984 59.5732 26.2184 68.2285 25.6453C72.5575 25.3586 76.2477 25.6215 79.0515 26.4389Z" fill="url(#paint3_radial_28101_1369)" fill-opacity="0.27" stroke="#B4F9BA" stroke-width="0.5"/>
<path d="M0.92475 65.3497L0.924689 65.3496C0.14079 63.4698 0.495724 61.178 1.8886 58.6091C3.28012 56.0426 5.68904 53.237 8.93793 50.3644C15.4338 44.6208 25.244 38.6472 36.8328 33.8154C48.4218 28.984 59.5732 26.2184 68.2285 25.6453C72.5575 25.3586 76.2477 25.6215 79.0515 26.4389C81.8582 27.257 83.7369 28.6176 84.5208 30.4973C85.3046 32.3772 84.9495 34.669 83.5566 37.238C82.165 39.8045 79.756 42.6101 76.5071 45.4828C70.0112 51.2264 60.2009 57.2 48.6122 62.0315C37.0234 66.863 25.872 69.6318 17.2166 70.2065C12.8877 70.4939 9.19754 70.2315 6.39376 69.4135C3.5873 68.5948 1.70856 67.2327 0.92475 65.3497Z" fill="url(#paint4_radial_28101_1369)" fill-opacity="0.27"/>
<path d="M0.92475 65.3497L0.924689 65.3496C0.14079 63.4698 0.495724 61.178 1.8886 58.6091C3.28012 56.0426 5.68904 53.237 8.93793 50.3644C15.4338 44.6208 25.244 38.6472 36.8328 33.8154C48.4218 28.984 59.5732 26.2184 68.2285 25.6453C72.5575 25.3586 76.2477 25.6215 79.0515 26.4389C81.8582 27.257 83.7369 28.6176 84.5208 30.4973C85.3046 32.3772 84.9495 34.669 83.5566 37.238C82.165 39.8045 79.756 42.6101 76.5071 45.4828C70.0112 51.2264 60.2009 57.2 48.6122 62.0315C37.0234 66.863 25.872 69.6318 17.2166 70.2065C12.8877 70.4939 9.19754 70.2315 6.39376 69.4135C3.5873 68.5948 1.70856 67.2327 0.92475 65.3497Z" fill="white"/>
<path d="M0.92475 65.3497L0.924689 65.3496C0.14079 63.4698 0.495724 61.178 1.8886 58.6091C3.28012 56.0426 5.68904 53.237 8.93793 50.3644C15.4338 44.6208 25.244 38.6472 36.8328 33.8154C48.4218 28.984 59.5732 26.2184 68.2285 25.6453C72.5575 25.3586 76.2477 25.6215 79.0515 26.4389C81.8582 27.257 83.7369 28.6176 84.5208 30.4973C85.3046 32.3772 84.9495 34.669 83.5566 37.238C82.165 39.8045 79.756 42.6101 76.5071 45.4828C70.0112 51.2264 60.2009 57.2 48.6122 62.0315C37.0234 66.863 25.872 69.6318 17.2166 70.2065C12.8877 70.4939 9.19754 70.2315 6.39376 69.4135C3.5873 68.5948 1.70856 67.2327 0.92475 65.3497Z" stroke="#B4F9BA" stroke-width="0.5"/>
<path d="M98.981 16.8494L98.9824 16.8477C99.4689 16.2761 99.9534 15.7083 100.437 15.1426L100.057 14.8176C101.003 13.7115 101.946 12.6134 102.894 11.5099C102.921 11.4776 102.949 11.4452 102.977 11.4129L103.356 11.7386C103.842 11.1735 104.328 10.6067 104.817 10.0366C105.138 9.6622 105.469 9.29957 105.809 8.94869L105.45 8.60073C106.151 7.87695 106.891 7.20209 107.667 6.57591L107.981 6.96488C108.745 6.34754 109.545 5.77831 110.376 5.257L110.11 4.83339C110.956 4.30293 111.835 3.82129 112.741 3.38825L112.957 3.83944C113.839 3.4184 114.748 3.04391 115.683 2.71586L115.518 2.24407C116.455 1.91518 117.416 1.63236 118.398 1.39537L118.516 1.88142C119.463 1.65273 120.431 1.46729 121.417 1.325L121.346 0.830134C122.326 0.6886 123.323 0.589203 124.333 0.531748L124.362 1.03094C125.338 0.975463 126.327 0.959614 127.327 0.983291L127.338 0.483431C128.328 0.506856 129.327 0.568462 130.334 0.668079L130.284 1.16565C131.258 1.26202 132.24 1.39443 133.226 1.56277L133.31 1.0699C134.287 1.23661 135.269 1.43811 136.253 1.67425L136.136 2.16045C137.089 2.38915 138.045 2.65075 139.001 2.94515L139.148 2.46728C140.097 2.75918 141.045 3.08291 141.992 3.43834L141.816 3.90645C142.735 4.25147 143.653 4.62673 144.568 5.03211L144.771 4.57499C145.678 4.97717 146.582 5.40865 147.481 5.86932L147.254 6.31433C148.129 6.76275 149 7.23915 149.864 7.7434L150.116 7.3115C150.974 7.81162 151.825 8.33885 152.668 8.89307L152.394 9.31094C153.217 9.85202 154.033 10.4191 154.841 11.0121L155.137 10.6092C155.936 11.1967 156.728 11.8094 157.509 12.4472L157.192 12.8345C157.576 13.1478 157.957 13.4672 158.336 13.7928C158.715 14.1187 159.088 14.4481 159.456 14.7808L159.792 14.4101C160.54 15.0874 161.265 15.7784 161.966 16.4818L161.612 16.8349C162.32 17.5447 163.004 18.2673 163.663 19.0011L164.035 18.667C164.71 19.4185 165.36 20.1817 165.983 20.9552L165.594 21.269C166.223 22.0489 166.825 22.8391 167.4 23.6381L167.806 23.3459C168.397 24.1666 168.96 24.9966 169.494 25.8342L169.073 26.1031C169.611 26.9474 170.121 27.7993 170.6 28.657L171.037 28.413C171.531 29.2966 171.994 30.1865 172.425 31.0808L171.975 31.2981C172.41 32.2001 172.813 33.1065 173.183 34.0153L173.646 33.8268C174.028 34.765 174.375 35.7059 174.688 36.6475L174.213 36.8049C174.528 37.7556 174.807 38.7067 175.05 39.6559L175.534 39.5322C175.785 40.5132 175.997 41.4926 176.169 42.468L175.677 42.5551C175.851 43.5409 175.985 44.5221 176.078 45.4959L176.576 45.4485C176.672 46.457 176.725 47.4584 176.733 48.4499L176.233 48.4542C176.242 49.451 176.205 50.4371 176.123 51.4095L176.621 51.4517C176.536 52.4595 176.402 53.4536 176.219 54.4307L175.728 54.3387C175.545 55.3135 175.313 56.2707 175.031 57.207L175.509 57.3513C175.219 58.3144 174.876 59.2565 174.481 60.1742L174.022 59.9762C173.633 60.8783 173.191 61.7561 172.697 62.6063L173.13 62.8575C172.628 63.72 172.074 64.555 171.465 65.3592L171.066 65.0573C170.771 65.4472 170.463 65.8298 170.141 66.2045L170.14 66.2059C169.653 66.7775 169.169 67.3452 168.685 67.9108L169.065 68.2358C168.131 69.3278 167.2 70.412 166.265 71.5011C166.225 71.5475 166.185 71.5939 166.145 71.6403L165.766 71.3146C165.281 71.8797 164.794 72.4464 164.305 73.0165C163.984 73.391 163.653 73.7537 163.313 74.1046L163.672 74.4525C162.971 75.1764 162.231 75.8514 161.455 76.4777L161.141 76.0887C160.377 76.7061 159.577 77.2754 158.745 77.7968L159.011 78.2204C158.165 78.7509 157.286 79.2326 156.379 79.6656L156.164 79.2144C155.282 79.6354 154.372 80.0099 153.437 80.3379L153.603 80.8097C152.665 81.1386 151.704 81.4213 150.721 81.6582L150.604 81.1722C149.656 81.4007 148.688 81.5861 147.702 81.7282L147.773 82.2231C146.793 82.3645 145.796 82.4638 144.785 82.521L144.757 82.0218C143.781 82.0771 142.792 82.0928 141.792 82.0689L141.78 82.5688C140.79 82.5451 139.791 82.4833 138.784 82.3834L138.833 81.8859C137.859 81.7893 136.878 81.6566 135.891 81.488L135.807 81.9809C134.83 81.8139 133.848 81.6121 132.864 81.3757L132.981 80.8895C132.028 80.6606 131.072 80.3987 130.115 80.104L129.968 80.5818C129.02 80.2897 128.071 79.9656 127.124 79.6099L127.3 79.1418C126.381 78.7965 125.463 78.421 124.548 78.0153L124.346 78.4724C123.438 78.0699 122.534 77.6381 121.635 77.1772L121.863 76.7322C120.987 76.2835 120.116 75.8068 119.252 75.3023L119 75.7342C118.142 75.2338 117.291 74.7063 116.448 74.1518L116.722 73.734C115.899 73.1926 115.083 72.6253 114.275 72.032L113.979 72.4349C113.179 71.8472 112.388 71.2342 111.607 70.5962L111.923 70.209C111.54 69.8955 111.158 69.576 110.78 69.2503C110.401 68.9245 110.027 68.5951 109.66 68.2624L109.324 68.6331C108.576 67.9559 107.851 67.265 107.15 66.5617L107.504 66.2086C106.796 65.4989 106.112 64.7764 105.453 64.0427L105.081 64.3769C104.406 63.6255 103.757 62.8623 103.133 62.089L103.522 61.7751C102.894 60.9954 102.291 60.2054 101.716 59.4065L101.31 59.6987C100.72 58.8781 100.157 58.0482 99.6225 57.2108L100.044 56.9418C99.5054 56.0977 98.9961 55.246 98.5164 54.3884L98.0801 54.6324C97.586 53.749 97.123 52.8592 96.6914 51.965L97.1417 51.7477C96.7065 50.8458 96.3038 49.9396 95.9339 49.031L95.4708 49.2195C95.0889 48.2815 94.7416 47.3406 94.4294 46.3992L94.904 46.2418C94.5886 45.2912 94.3096 44.3403 94.0672 43.3913L93.5828 43.515C93.3323 42.534 93.1204 41.5548 92.9477 40.5796L93.4401 40.4924C93.2655 39.5067 93.1317 38.5257 93.0389 37.552L92.5412 37.5994C92.4451 36.591 92.3925 35.5898 92.384 34.5985L92.884 34.5942C92.8755 33.5975 92.9122 32.6116 92.9946 31.6393L92.4964 31.597C92.5819 30.5894 92.7158 29.5955 92.8989 28.6185L93.3903 28.7106C93.5729 27.736 93.8052 26.7791 94.0877 25.843L93.609 25.6985C93.8996 24.7356 94.2426 23.7938 94.6387 22.8764L95.0977 23.0746C95.4871 22.1728 95.9286 21.2953 96.423 20.4455L95.9909 20.1941C96.4925 19.3319 97.0476 18.4974 97.657 17.6937L98.0554 17.9958C98.3509 17.6061 98.6593 17.2239 98.981 16.8494Z" stroke="white" stroke-dasharray="3 3"/>
<g style="mix-blend-mode:multiply" opacity="0.3">
<path d="M98.981 16.8494L98.9824 16.8477C99.4689 16.2761 99.9534 15.7083 100.437 15.1426L100.057 14.8176C101.003 13.7115 101.946 12.6134 102.894 11.5099C102.921 11.4776 102.949 11.4452 102.977 11.4129L103.356 11.7386C103.842 11.1735 104.328 10.6067 104.817 10.0366C105.138 9.6622 105.469 9.29957 105.809 8.94869L105.45 8.60073C106.151 7.87695 106.891 7.20209 107.667 6.57591L107.981 6.96488C108.745 6.34754 109.545 5.77831 110.376 5.257L110.11 4.83339C110.956 4.30293 111.835 3.82129 112.741 3.38825L112.957 3.83944C113.839 3.4184 114.748 3.04391 115.683 2.71586L115.518 2.24407C116.455 1.91518 117.416 1.63236 118.398 1.39537L118.516 1.88142C119.463 1.65273 120.431 1.46729 121.417 1.325L121.346 0.830134C122.326 0.6886 123.323 0.589203 124.333 0.531748L124.362 1.03094C125.338 0.975463 126.327 0.959614 127.327 0.983291L127.338 0.483431C128.328 0.506856 129.327 0.568462 130.334 0.668079L130.284 1.16565C131.258 1.26202 132.24 1.39443 133.226 1.56277L133.31 1.0699C134.287 1.23661 135.269 1.43811 136.253 1.67425L136.136 2.16045C137.089 2.38915 138.045 2.65075 139.001 2.94515L139.148 2.46728C140.097 2.75918 141.045 3.08291 141.992 3.43834L141.816 3.90645C142.735 4.25147 143.653 4.62673 144.568 5.03211L144.771 4.57499C145.678 4.97717 146.582 5.40865 147.481 5.86932L147.254 6.31433C148.129 6.76275 149 7.23915 149.864 7.7434L150.116 7.3115C150.974 7.81162 151.825 8.33885 152.668 8.89307L152.394 9.31094C153.217 9.85202 154.033 10.4191 154.841 11.0121L155.137 10.6092C155.936 11.1967 156.728 11.8094 157.509 12.4472L157.192 12.8345C157.576 13.1478 157.957 13.4672 158.336 13.7928C158.715 14.1187 159.088 14.4481 159.456 14.7808L159.792 14.4101C160.54 15.0874 161.265 15.7784 161.966 16.4818L161.612 16.8349C162.32 17.5447 163.004 18.2673 163.663 19.0011L164.035 18.667C164.71 19.4185 165.36 20.1817 165.983 20.9552L165.594 21.269C166.223 22.0489 166.825 22.8391 167.4 23.6381L167.806 23.3459C168.397 24.1666 168.96 24.9966 169.494 25.8342L169.073 26.1031C169.611 26.9474 170.121 27.7993 170.6 28.657L171.037 28.413C171.531 29.2966 171.994 30.1865 172.425 31.0808L171.975 31.2981C172.41 32.2001 172.813 33.1065 173.183 34.0153L173.646 33.8268C174.028 34.765 174.375 35.7059 174.688 36.6475L174.213 36.8049C174.528 37.7556 174.807 38.7067 175.05 39.6559L175.534 39.5322C175.785 40.5132 175.997 41.4926 176.169 42.468L175.677 42.5551C175.851 43.5409 175.985 44.5221 176.078 45.4959L176.576 45.4485C176.672 46.457 176.725 47.4584 176.733 48.4499L176.233 48.4542C176.242 49.451 176.205 50.4371 176.123 51.4095L176.621 51.4517C176.536 52.4595 176.402 53.4536 176.219 54.4307L175.728 54.3387C175.545 55.3135 175.313 56.2707 175.031 57.207L175.509 57.3513C175.219 58.3144 174.876 59.2565 174.481 60.1742L174.022 59.9762C173.633 60.8783 173.191 61.7561 172.697 62.6063L173.13 62.8575C172.628 63.72 172.074 64.555 171.465 65.3592L171.066 65.0573C170.771 65.4472 170.463 65.8298 170.141 66.2045L170.14 66.2059C169.653 66.7775 169.169 67.3452 168.685 67.9108L169.065 68.2358C168.131 69.3278 167.2 70.412 166.265 71.5011C166.225 71.5475 166.185 71.5939 166.145 71.6403L165.766 71.3146C165.281 71.8797 164.794 72.4464 164.305 73.0165C163.984 73.391 163.653 73.7537 163.313 74.1046L163.672 74.4525C162.971 75.1764 162.231 75.8514 161.455 76.4777L161.141 76.0887C160.377 76.7061 159.577 77.2754 158.745 77.7968L159.011 78.2204C158.165 78.7509 157.286 79.2326 156.379 79.6656L156.164 79.2144C155.282 79.6354 154.372 80.0099 153.437 80.3379L153.603 80.8097C152.665 81.1386 151.704 81.4213 150.721 81.6582L150.604 81.1722C149.656 81.4007 148.688 81.5861 147.702 81.7282L147.773 82.2231C146.793 82.3645 145.796 82.4638 144.785 82.521L144.757 82.0218C143.781 82.0771 142.792 82.0928 141.792 82.0689L141.78 82.5688C140.79 82.5451 139.791 82.4833 138.784 82.3834L138.833 81.8859C137.859 81.7893 136.878 81.6566 135.891 81.488L135.807 81.9809C134.83 81.8139 133.848 81.6121 132.864 81.3757L132.981 80.8895C132.028 80.6606 131.072 80.3987 130.115 80.104L129.968 80.5818C129.02 80.2897 128.071 79.9656 127.124 79.6099L127.3 79.1418C126.381 78.7965 125.463 78.421 124.548 78.0153L124.346 78.4724C123.438 78.0699 122.534 77.6381 121.635 77.1772L121.863 76.7322C120.987 76.2835 120.116 75.8068 119.252 75.3023L119 75.7342C118.142 75.2338 117.291 74.7063 116.448 74.1518L116.722 73.734C115.899 73.1926 115.083 72.6253 114.275 72.032L113.979 72.4349C113.179 71.8472 112.388 71.2342 111.607 70.5962L111.923 70.209C111.54 69.8955 111.158 69.576 110.78 69.2503C110.401 68.9245 110.027 68.5951 109.66 68.2624L109.324 68.6331C108.576 67.9559 107.851 67.265 107.15 66.5617L107.504 66.2086C106.796 65.4989 106.112 64.7764 105.453 64.0427L105.081 64.3769C104.406 63.6255 103.757 62.8623 103.133 62.089L103.522 61.7751C102.894 60.9954 102.291 60.2054 101.716 59.4065L101.31 59.6987C100.72 58.8781 100.157 58.0482 99.6225 57.2108L100.044 56.9418C99.5054 56.0977 98.9961 55.246 98.5164 54.3884L98.0801 54.6324C97.586 53.749 97.123 52.8592 96.6914 51.965L97.1417 51.7477C96.7065 50.8458 96.3038 49.9396 95.9339 49.031L95.4708 49.2195C95.0889 48.2815 94.7416 47.3406 94.4294 46.3992L94.904 46.2418C94.5886 45.2912 94.3096 44.3403 94.0672 43.3913L93.5828 43.515C93.3323 42.534 93.1204 41.5548 92.9477 40.5796L93.4401 40.4924C93.2655 39.5067 93.1317 38.5257 93.0389 37.552L92.5412 37.5994C92.4451 36.591 92.3925 35.5898 92.384 34.5985L92.884 34.5942C92.8755 33.5975 92.9122 32.6116 92.9946 31.6393L92.4964 31.597C92.5819 30.5894 92.7158 29.5955 92.8989 28.6185L93.3903 28.7106C93.5729 27.736 93.8052 26.7791 94.0877 25.843L93.609 25.6985C93.8996 24.7356 94.2426 23.7938 94.6387 22.8764L95.0977 23.0746C95.4871 22.1728 95.9286 21.2953 96.423 20.4455L95.9909 20.1941C96.4925 19.3319 97.0476 18.4974 97.657 17.6937L98.0554 17.9958C98.3509 17.6061 98.6593 17.2239 98.981 16.8494Z" stroke="white" stroke-dasharray="3 3"/>
</g>
<path d="M98.981 16.8494L98.9824 16.8477C99.4689 16.2761 99.9534 15.7083 100.437 15.1426L100.057 14.8176C101.003 13.7115 101.946 12.6134 102.894 11.5099C102.921 11.4776 102.949 11.4452 102.977 11.4129L103.356 11.7386C103.842 11.1735 104.328 10.6067 104.817 10.0366C105.138 9.6622 105.469 9.29957 105.809 8.94869L105.45 8.60073C106.151 7.87695 106.891 7.20209 107.667 6.57591L107.981 6.96488C108.745 6.34754 109.545 5.77831 110.376 5.257L110.11 4.83339C110.956 4.30293 111.835 3.82129 112.741 3.38825L112.957 3.83944C113.839 3.4184 114.748 3.04391 115.683 2.71586L115.518 2.24407C116.455 1.91518 117.416 1.63236 118.398 1.39537L118.516 1.88142C119.463 1.65273 120.431 1.46729 121.417 1.325L121.346 0.830134C122.326 0.6886 123.323 0.589203 124.333 0.531748L124.362 1.03094C125.338 0.975463 126.327 0.959614 127.327 0.983291L127.338 0.483431C128.328 0.506856 129.327 0.568462 130.334 0.668079L130.284 1.16565C131.258 1.26202 132.24 1.39443 133.226 1.56277L133.31 1.0699C134.287 1.23661 135.269 1.43811 136.253 1.67425L136.136 2.16045C137.089 2.38915 138.045 2.65075 139.001 2.94515L139.148 2.46728C140.097 2.75918 141.045 3.08291 141.992 3.43834L141.816 3.90645C142.735 4.25147 143.653 4.62673 144.568 5.03211L144.771 4.57499C145.678 4.97717 146.582 5.40865 147.481 5.86932L147.254 6.31433C148.129 6.76275 149 7.23915 149.864 7.7434L150.116 7.3115C150.974 7.81162 151.825 8.33885 152.668 8.89307L152.394 9.31094C153.217 9.85202 154.033 10.4191 154.841 11.0121L155.137 10.6092C155.936 11.1967 156.728 11.8094 157.509 12.4472L157.192 12.8345C157.576 13.1478 157.957 13.4672 158.336 13.7928C158.715 14.1187 159.088 14.4481 159.456 14.7808L159.792 14.4101C160.54 15.0874 161.265 15.7784 161.966 16.4818L161.612 16.8349C162.32 17.5447 163.004 18.2673 163.663 19.0011L164.035 18.667C164.71 19.4185 165.36 20.1817 165.983 20.9552L165.594 21.269C166.223 22.0489 166.825 22.8391 167.4 23.6381L167.806 23.3459C168.397 24.1666 168.96 24.9966 169.494 25.8342L169.073 26.1031C169.611 26.9474 170.121 27.7993 170.6 28.657L171.037 28.413C171.531 29.2966 171.994 30.1865 172.425 31.0808L171.975 31.2981C172.41 32.2001 172.813 33.1065 173.183 34.0153L173.646 33.8268C174.028 34.765 174.375 35.7059 174.688 36.6475L174.213 36.8049C174.528 37.7556 174.807 38.7067 175.05 39.6559L175.534 39.5322C175.785 40.5132 175.997 41.4926 176.169 42.468L175.677 42.5551C175.851 43.5409 175.985 44.5221 176.078 45.4959L176.576 45.4485C176.672 46.457 176.725 47.4584 176.733 48.4499L176.233 48.4542C176.242 49.451 176.205 50.4371 176.123 51.4095L176.621 51.4517C176.536 52.4595 176.402 53.4536 176.219 54.4307L175.728 54.3387C175.545 55.3135 175.313 56.2707 175.031 57.207L175.509 57.3513C175.219 58.3144 174.876 59.2565 174.481 60.1742L174.022 59.9762C173.633 60.8783 173.191 61.7561 172.697 62.6063L173.13 62.8575C172.628 63.72 172.074 64.555 171.465 65.3592L171.066 65.0573C170.771 65.4472 170.463 65.8298 170.141 66.2045L170.14 66.2059C169.653 66.7775 169.169 67.3452 168.685 67.9108L169.065 68.2358C168.131 69.3278 167.2 70.412 166.265 71.5011C166.225 71.5475 166.185 71.5939 166.145 71.6403L165.766 71.3146C165.281 71.8797 164.794 72.4464 164.305 73.0165C163.984 73.391 163.653 73.7537 163.313 74.1046L163.672 74.4525C162.971 75.1764 162.231 75.8514 161.455 76.4777L161.141 76.0887C160.377 76.7061 159.577 77.2754 158.745 77.7968L159.011 78.2204C158.165 78.7509 157.286 79.2326 156.379 79.6656L156.164 79.2144C155.282 79.6354 154.372 80.0099 153.437 80.3379L153.603 80.8097C152.665 81.1386 151.704 81.4213 150.721 81.6582L150.604 81.1722C149.656 81.4007 148.688 81.5861 147.702 81.7282L147.773 82.2231C146.793 82.3645 145.796 82.4638 144.785 82.521L144.757 82.0218C143.781 82.0771 142.792 82.0928 141.792 82.0689L141.78 82.5688C140.79 82.5451 139.791 82.4833 138.784 82.3834L138.833 81.8859C137.859 81.7893 136.878 81.6566 135.891 81.488L135.807 81.9809C134.83 81.8139 133.848 81.6121 132.864 81.3757L132.981 80.8895C132.028 80.6606 131.072 80.3987 130.115 80.104L129.968 80.5818C129.02 80.2897 128.071 79.9656 127.124 79.6099L127.3 79.1418C126.381 78.7965 125.463 78.421 124.548 78.0153L124.346 78.4724C123.438 78.0699 122.534 77.6381 121.635 77.1772L121.863 76.7322C120.987 76.2835 120.116 75.8068 119.252 75.3023L119 75.7342C118.142 75.2338 117.291 74.7063 116.448 74.1518L116.722 73.734C115.899 73.1926 115.083 72.6253 114.275 72.032L113.979 72.4349C113.179 71.8472 112.388 71.2342 111.607 70.5962L111.923 70.209C111.54 69.8955 111.158 69.576 110.78 69.2503C110.401 68.9245 110.027 68.5951 109.66 68.2624L109.324 68.6331C108.576 67.9559 107.851 67.265 107.15 66.5617L107.504 66.2086C106.796 65.4989 106.112 64.7764 105.453 64.0427L105.081 64.3769C104.406 63.6255 103.757 62.8623 103.133 62.089L103.522 61.7751C102.894 60.9954 102.291 60.2054 101.716 59.4065L101.31 59.6987C100.72 58.8781 100.157 58.0482 99.6225 57.2108L100.044 56.9418C99.5054 56.0977 98.9961 55.246 98.5164 54.3884L98.0801 54.6324C97.586 53.749 97.123 52.8592 96.6914 51.965L97.1417 51.7477C96.7065 50.8458 96.3038 49.9396 95.9339 49.031L95.4708 49.2195C95.0889 48.2815 94.7416 47.3406 94.4294 46.3992L94.904 46.2418C94.5886 45.2912 94.3096 44.3403 94.0672 43.3913L93.5828 43.515C93.3323 42.534 93.1204 41.5548 92.9477 40.5796L93.4401 40.4924C93.2655 39.5067 93.1317 38.5257 93.0389 37.552L92.5412 37.5994C92.4451 36.591 92.3925 35.5898 92.384 34.5985L92.884 34.5942C92.8755 33.5975 92.9122 32.6116 92.9946 31.6393L92.4964 31.597C92.5819 30.5894 92.7158 29.5955 92.8989 28.6185L93.3903 28.7106C93.5729 27.736 93.8052 26.7791 94.0877 25.843L93.609 25.6985C93.8996 24.7356 94.2426 23.7938 94.6387 22.8764L95.0977 23.0746C95.4871 22.1728 95.9286 21.2953 96.423 20.4455L95.9909 20.1941C96.4925 19.3319 97.0476 18.4974 97.657 17.6937L98.0554 17.9958C98.3509 17.6061 98.6593 17.2239 98.981 16.8494Z" stroke="white" stroke-dasharray="3 3"/>
<path d="M164.31 73.0244C163.989 73.3989 163.658 73.7616 163.318 74.1125L163.677 74.4605C162.976 75.1843 162.236 75.8593 161.46 76.4855L161.146 76.0965C160.381 76.7139 159.582 77.2831 158.75 77.8044L159.016 78.2281C158.169 78.7585 157.291 79.2401 156.384 79.6731L156.169 79.2219C155.287 79.6428 154.377 80.0172 153.442 80.3451L153.607 80.817C152.67 81.1457 151.708 81.4284 150.726 81.6653L150.608 81.1792C149.66 81.4077 148.692 81.593 147.706 81.7351L147.777 82.23C146.797 82.3713 145.8 82.4705 144.789 82.5278L144.761 82.0286C143.785 82.0838 142.795 82.0995 141.795 82.0756L141.783 82.5754C140.794 82.5518 139.795 82.49 138.788 82.3901L138.837 81.8925C137.863 81.796 136.882 81.6633 135.895 81.4947L135.811 81.9876C134.834 81.8206 133.852 81.6189 132.868 81.3825L132.984 80.8964C132.031 80.6674 131.075 80.4056 130.119 80.111L129.972 80.5888C129.023 80.2967 128.075 79.9727 127.128 79.617L127.303 79.149C126.384 78.8037 125.466 78.4282 124.551 78.0226L124.349 78.4797C123.441 78.0773 122.537 77.6456 121.637 77.1847L121.865 76.7398C120.99 76.2911 120.119 75.8145 119.254 75.3101L119.003 75.7419C118.145 75.2416 117.294 74.7142 116.45 74.1598L116.725 73.7419C115.901 73.2006 115.085 72.6334 114.277 72.0402L113.981 72.4431C113.181 71.8554 112.39 71.2425 111.609 70.6046L111.925 70.2173C111.541 69.9039 111.16 69.5844 110.781 69.2587C110.402 68.9329 110.029 68.6035 109.661 68.2708L109.326 68.6416C108.577 67.9644 107.852 67.2734 107.151 66.5701L107.505 66.217C106.797 65.5072 106.113 64.7847 105.454 64.051L105.082 64.3851C104.407 63.6337 103.757 62.8705 103.133 62.0971L103.523 61.7832C102.894 61.0035 102.292 60.2133 101.716 59.4144L101.31 59.7065C100.719 58.8859 100.157 58.0559 99.6222 57.2184L100.044 56.9494C99.505 56.1052 98.9956 55.2534 98.5159 54.3956L98.0795 54.6397C97.5854 53.7562 97.1223 52.8663 96.6907 51.9719L97.141 51.7546C96.7057 50.8526 96.3029 49.9463 95.933 49.0376L95.4699 49.2261C95.088 48.2879 94.7406 47.347 94.4283 46.4055L94.9029 46.2481C94.5875 45.2973 94.3084 44.3463 94.066 43.3971L93.5816 43.5208C93.331 42.5398 93.1191 41.5604 92.9464 40.5851L93.4387 40.4979C93.2641 39.5121 93.1301 38.531 93.0373 37.5571L92.5396 37.6046C92.4434 36.5961 92.3907 35.5947 92.3821 34.6033L92.8821 34.5989C92.8734 33.6021 92.91 32.616 92.9923 31.6436L92.4941 31.6014C92.5794 30.5936 92.7131 29.5996 92.8959 28.6225L93.3874 28.7144C93.5698 27.7396 93.8018 26.7824 94.084 25.8461L93.6053 25.7018C93.8956 24.7387 94.2382 23.7966 94.6339 22.8789L95.0931 23.0769C95.4821 22.1748 95.9233 21.297 96.4173 20.4469L95.985 20.1956C96.4863 19.3331 97.041 18.4981 97.6499 17.694L98.0485 17.9958C98.3438 17.6059 98.6521 17.2234 98.9735 16.8487C99.2947 16.4742 99.6256 16.1115 99.9657 15.7606L99.6066 15.4126C100.308 14.6887 101.048 14.0138 101.824 13.3876L102.138 13.7766C102.903 13.1593 103.702 12.59 104.534 12.0688L104.268 11.6451C105.115 11.1147 105.993 10.6331 106.9 10.2002L107.116 10.6514C107.997 10.2305 108.907 9.85609 109.843 9.52817L109.677 9.05634C110.615 8.7276 111.576 8.44493 112.559 8.20811L112.676 8.69419C113.624 8.46568 114.592 8.28044 115.578 8.13835L115.507 7.64346C116.487 7.50213 117.484 7.40295 118.495 7.34572L118.523 7.84492C119.499 7.78966 120.489 7.77404 121.489 7.79795L121.501 7.2981C122.49 7.32176 123.489 7.3836 124.496 7.48347L124.447 7.98103C125.421 8.07763 126.402 8.21028 127.389 8.37887L127.473 7.88602C128.45 8.05298 129.432 8.25472 130.416 8.49111L130.3 8.97729C131.253 9.20623 132.209 9.46807 133.165 9.76271L133.312 9.28487C134.261 9.577 135.209 9.90097 136.156 10.2567L135.981 10.7247C136.9 11.07 137.818 11.4455 138.733 11.8511L138.935 11.394C139.843 11.7964 140.747 12.2281 141.646 12.689L141.418 13.134C142.294 13.5826 143.165 14.0592 144.029 14.5636L144.281 14.1318C145.139 14.6321 145.99 15.1595 146.834 15.7139L146.559 16.1318C147.383 16.673 148.199 17.2403 149.007 17.8335L149.303 17.4306C150.102 18.0182 150.894 18.6311 151.675 19.269L151.359 19.6563C151.742 19.9697 152.124 20.2893 152.503 20.6149C152.882 20.9407 153.255 21.2701 153.623 21.6028L153.958 21.232C154.707 21.9092 155.432 22.6001 156.133 23.3034L155.779 23.6565C156.487 24.3663 157.171 25.0888 157.83 25.8225L158.202 25.4883C158.877 26.2398 159.527 27.003 160.15 27.7764L159.761 28.0902C160.39 28.87 160.992 29.6601 161.568 30.4591L161.973 30.1669C162.564 30.9875 163.127 31.8175 163.662 32.655L163.24 32.924C163.779 33.7682 164.288 34.62 164.768 35.4778L165.204 35.2337C165.699 36.1172 166.162 37.0071 166.593 37.9014L166.143 38.1187C166.578 39.0207 166.981 39.927 167.351 40.8358L167.814 40.6472C168.196 41.5854 168.543 42.5263 168.855 43.4678L168.381 43.6253C168.696 44.576 168.975 45.527 169.218 46.4762L169.702 46.3524C169.953 47.3335 170.165 48.3129 170.337 49.2882L169.845 49.3753C170.02 50.3611 170.154 51.3422 170.246 52.3161L170.744 52.2686C170.84 53.2771 170.893 54.2785 170.902 55.2699L170.402 55.2743C170.41 56.2711 170.374 57.2572 170.291 58.2296L170.79 58.2717C170.704 59.2795 170.571 60.2735 170.388 61.2507L169.896 61.1587C169.714 62.1335 169.482 63.0907 169.2 64.027L169.679 64.1713C169.388 65.1344 169.046 66.0765 168.65 66.9942L168.191 66.7962C167.802 67.6983 167.361 68.5761 166.867 69.4262L167.299 69.6774C166.798 70.54 166.243 71.375 165.634 72.1791L165.235 71.8772C164.94 72.2671 164.632 72.6496 164.31 73.0244Z" stroke="white" stroke-dasharray="3 3"/>
<path d="M124.348 107.74L124.296 107.992L124.308 107.994L122.204 118.094C120.503 126.26 114.388 132.724 105.835 136.56C97.2831 140.396 86.3105 141.594 74.9487 139.229C63.5869 136.864 54.0048 131.387 47.6954 124.457C41.3857 117.527 38.3608 109.16 40.0619 100.995L42.2183 90.6437C43.9197 82.4779 50.0343 76.0138 58.5869 72.1775C67.1392 68.3414 78.1118 67.1435 89.4736 69.5086C100.836 71.8737 110.415 77.3499 116.721 84.2791C123.028 91.2086 126.049 99.5746 124.348 107.74Z" fill="url(#paint5_radial_28101_1369)" fill-opacity="0.27" stroke="#B4F9BA" stroke-width="0.5"/>
<g style="mix-blend-mode:multiply" opacity="0.3">
<path d="M124.348 107.74L124.296 107.992L124.308 107.994L122.204 118.094C120.503 126.26 114.388 132.724 105.835 136.56C97.2831 140.396 86.3105 141.594 74.9487 139.229C63.5869 136.864 54.0048 131.387 47.6954 124.457C41.3857 117.527 38.3608 109.16 40.0619 100.995L42.2183 90.6437C43.9197 82.4779 50.0343 76.0138 58.5869 72.1775C67.1392 68.3414 78.1118 67.1435 89.4736 69.5086C100.836 71.8737 110.415 77.3499 116.721 84.2791C123.028 91.2086 126.049 99.5746 124.348 107.74Z" fill="url(#paint6_radial_28101_1369)" fill-opacity="0.27" stroke="#B4F9BA" stroke-width="0.5"/>
<path d="M124.348 107.74L124.296 107.992L124.308 107.994L122.204 118.094C120.503 126.26 114.388 132.724 105.835 136.56C97.2831 140.396 86.3105 141.594 74.9487 139.229C63.5869 136.864 54.0048 131.387 47.6954 124.457C41.3857 117.527 38.3608 109.16 40.0619 100.995L42.2183 90.6437C43.9197 82.4779 50.0343 76.0138 58.5869 72.1775C67.1392 68.3414 78.1118 67.1435 89.4736 69.5086C100.836 71.8737 110.415 77.3499 116.721 84.2791C123.028 91.2086 126.049 99.5746 124.348 107.74Z" fill="url(#paint7_radial_28101_1369)" fill-opacity="0.27" stroke="#B4F9BA" stroke-width="0.5"/>
</g>
<path d="M124.348 107.74L124.296 107.992L124.308 107.994L122.204 118.094C120.503 126.26 114.388 132.724 105.835 136.56C97.2831 140.396 86.3105 141.594 74.9487 139.229C63.5869 136.864 54.0048 131.387 47.6954 124.457C41.3857 117.527 38.3608 109.16 40.0619 100.995L42.2183 90.6437C43.9197 82.4779 50.0343 76.0138 58.5869 72.1775C67.1392 68.3414 78.1118 67.1435 89.4736 69.5086C100.836 71.8737 110.415 77.3499 116.721 84.2791C123.028 91.2086 126.049 99.5746 124.348 107.74Z" fill="url(#paint8_radial_28101_1369)" fill-opacity="0.27" stroke="#B4F9BA" stroke-width="0.5"/>
<path d="M124.36 107.741C122.659 115.908 116.545 122.372 107.993 126.208C99.441 130.044 88.4684 131.242 77.1052 128.876C65.7419 126.511 56.1597 121.034 49.8506 114.105C43.5412 107.175 40.517 98.8087 42.2183 90.6421L41.9741 90.5912L42.2183 90.6421C43.9197 82.4752 50.0337 76.0109 58.5861 72.1749C67.1381 68.3389 78.1107 67.1416 89.4736 69.507C100.837 71.8724 110.419 77.3487 116.728 84.2782C123.038 91.208 126.062 99.5745 124.36 107.741Z" fill="url(#paint9_radial_28101_1369)" fill-opacity="0.27"/>
<path d="M124.36 107.741C122.659 115.908 116.545 122.372 107.993 126.208C99.441 130.044 88.4684 131.242 77.1052 128.876C65.7419 126.511 56.1597 121.034 49.8506 114.105C43.5412 107.175 40.517 98.8087 42.2183 90.6421L41.9741 90.5912L42.2183 90.6421C43.9197 82.4752 50.0337 76.0109 58.5861 72.1749C67.1381 68.3389 78.1107 67.1416 89.4736 69.507C100.837 71.8724 110.419 77.3487 116.728 84.2782C123.038 91.208 126.062 99.5745 124.36 107.741Z" fill="black" fill-opacity="0.2"/>
<path d="M124.36 107.741C122.659 115.908 116.545 122.372 107.993 126.208C99.441 130.044 88.4684 131.242 77.1052 128.876C65.7419 126.511 56.1597 121.034 49.8506 114.105C43.5412 107.175 40.517 98.8087 42.2183 90.6421L41.9741 90.5912L42.2183 90.6421C43.9197 82.4752 50.0337 76.0109 58.5861 72.1749C67.1381 68.3389 78.1107 67.1416 89.4736 69.507C100.837 71.8724 110.419 77.3487 116.728 84.2782C123.038 91.208 126.062 99.5745 124.36 107.741Z" stroke="#B4F9BA" stroke-width="0.5"/>
<defs>
<radialGradient id="paint0_radial_28101_1369" cx="0" cy="0" r="1" gradientUnits="userSpaceOnUse" gradientTransform="translate(24.9844 36.6333) rotate(78.7241) scale(80.8231 84.5914)">
<stop stop-color="#A3F5AA"/>
<stop offset="0.4" stop-color="#82D289"/>
<stop offset="0.835" stop-color="#66AB6C"/>
<stop offset="1" stop-color="#386A3C"/>
</radialGradient>
<radialGradient id="paint1_radial_28101_1369" cx="0" cy="0" r="1" gradientUnits="userSpaceOnUse" gradientTransform="translate(24.9844 36.6333) rotate(78.7241) scale(80.8231 84.5914)">
<stop stop-color="#A3F5AA"/>
<stop offset="0.4" stop-color="#82D289"/>
<stop offset="0.835" stop-color="#66AB6C"/>
<stop offset="1" stop-color="#386A3C"/>
</radialGradient>
<radialGradient id="paint2_radial_28101_1369" cx="0" cy="0" r="1" gradientUnits="userSpaceOnUse" gradientTransform="translate(24.9844 36.6333) rotate(78.7241) scale(80.8231 84.5914)">
<stop stop-color="#A3F5AA"/>
<stop offset="0.4" stop-color="#82D289"/>
<stop offset="0.835" stop-color="#66AB6C"/>
<stop offset="1" stop-color="#386A3C"/>
</radialGradient>
<radialGradient id="paint3_radial_28101_1369" cx="0" cy="0" r="1" gradientUnits="userSpaceOnUse" gradientTransform="translate(24.9844 36.6333) rotate(78.7241) scale(80.8231 84.5914)">
<stop stop-color="#A3F5AA"/>
<stop offset="0.4" stop-color="#82D289"/>
<stop offset="0.835" stop-color="#66AB6C"/>
<stop offset="1" stop-color="#386A3C"/>
</radialGradient>
<radialGradient id="paint4_radial_28101_1369" cx="0" cy="0" r="1" gradientUnits="userSpaceOnUse" gradientTransform="translate(24.0874 34.9892) rotate(77.3363) scale(69.4715 81.104)">
<stop stop-color="#A3F5AA"/>
<stop offset="0.4" stop-color="#82D289"/>
<stop offset="0.835" stop-color="#66AB6C"/>
<stop offset="1" stop-color="#386A3C"/>
</radialGradient>
<radialGradient id="paint5_radial_28101_1369" cx="0" cy="0" r="1" gradientUnits="userSpaceOnUse" gradientTransform="translate(63.3924 83.6153) rotate(81.9517) scale(109.817 83.0914)">
<stop stop-color="#A3F5AA"/>
<stop offset="0.4" stop-color="#82D289"/>
<stop offset="0.835" stop-color="#66AB6C"/>
<stop offset="1" stop-color="#386A3C"/>
</radialGradient>
<radialGradient id="paint6_radial_28101_1369" cx="0" cy="0" r="1" gradientUnits="userSpaceOnUse" gradientTransform="translate(63.3924 83.6153) rotate(81.9517) scale(109.817 83.0914)">
<stop stop-color="#A3F5AA"/>
<stop offset="0.4" stop-color="#82D289"/>
<stop offset="0.835" stop-color="#66AB6C"/>
<stop offset="1" stop-color="#386A3C"/>
</radialGradient>
<radialGradient id="paint7_radial_28101_1369" cx="0" cy="0" r="1" gradientUnits="userSpaceOnUse" gradientTransform="translate(63.3924 83.6153) rotate(81.9517) scale(109.817 83.0914)">
<stop stop-color="#A3F5AA"/>
<stop offset="0.4" stop-color="#82D289"/>
<stop offset="0.835" stop-color="#66AB6C"/>
<stop offset="1" stop-color="#386A3C"/>
</radialGradient>
<radialGradient id="paint8_radial_28101_1369" cx="0" cy="0" r="1" gradientUnits="userSpaceOnUse" gradientTransform="translate(63.3924 83.6153) rotate(81.9517) scale(109.817 83.0914)">
<stop stop-color="#A3F5AA"/>
<stop offset="0.4" stop-color="#82D289"/>
<stop offset="0.835" stop-color="#66AB6C"/>
<stop offset="1" stop-color="#386A3C"/>
</radialGradient>
<radialGradient id="paint9_radial_28101_1369" cx="0" cy="0" r="1" gradientUnits="userSpaceOnUse" gradientTransform="translate(64.9471 81.395) rotate(80.8668) scale(94.4404 80.7817)">
<stop stop-color="#A3F5AA"/>
<stop offset="0.4" stop-color="#82D289"/>
<stop offset="0.835" stop-color="#66AB6C"/>
<stop offset="1" stop-color="#386A3C"/>
</radialGradient>
</defs>
</svg>
