<svg width="12" height="14" viewBox="0 0 12 14" fill="none" xmlns="http://www.w3.org/2000/svg">
<g style="mix-blend-mode:luminosity">
<path d="M0.905153 1.05859H10.9243C10.8133 2.62416 10.2568 4.01967 9.42135 5.05145L9.42132 5.0515C8.56669 6.10751 7.42661 6.7728 6.18023 6.85594C6.09228 6.85075 6.00378 6.84812 5.91476 6.84812C5.82574 6.84812 5.73724 6.85075 5.6493 6.85594C4.40293 6.7728 3.26295 6.10752 2.40803 5.05147C1.57283 4.01965 1.0161 2.62413 0.905153 1.05859ZM5.6493 7.35696C5.73724 7.36215 5.82574 7.36477 5.91476 7.36477C6.00378 7.36477 6.09228 7.36215 6.18023 7.35695C7.42672 7.44009 8.56668 8.10537 9.42132 9.16139L9.42134 9.16142C10.2567 10.1932 10.8132 11.5887 10.9243 13.1543H0.905173C1.01623 11.5887 1.57284 10.1932 2.40804 9.16141C3.26283 8.10548 4.40282 7.4401 5.6493 7.35696Z" fill="url(#paint0_radial_23588_528)" fill-opacity="0.27"/>
<path d="M0.905153 1.05859H10.9243C10.8133 2.62416 10.2568 4.01967 9.42135 5.05145L9.42132 5.0515C8.56669 6.10751 7.42661 6.7728 6.18023 6.85594C6.09228 6.85075 6.00378 6.84812 5.91476 6.84812C5.82574 6.84812 5.73724 6.85075 5.6493 6.85594C4.40293 6.7728 3.26295 6.10752 2.40803 5.05147C1.57283 4.01965 1.0161 2.62413 0.905153 1.05859ZM5.6493 7.35696C5.73724 7.36215 5.82574 7.36477 5.91476 7.36477C6.00378 7.36477 6.09228 7.36215 6.18023 7.35695C7.42672 7.44009 8.56668 8.10537 9.42132 9.16139L9.42134 9.16142C10.2567 10.1932 10.8132 11.5887 10.9243 13.1543H0.905173C1.01623 11.5887 1.57284 10.1932 2.40804 9.16141C3.26283 8.10548 4.40282 7.4401 5.6493 7.35696Z" stroke="#B4F9BA" stroke-width="0.5"/>
</g>
<defs>
<radialGradient id="paint0_radial_23588_528" cx="0" cy="0" r="1" gradientUnits="userSpaceOnUse" gradientTransform="translate(3.60004 3.5082) rotate(84.2699) scale(18.9472 10.2736)">
<stop stop-color="#A3F5AA"/>
<stop offset="0.4" stop-color="#82D289"/>
<stop offset="0.835" stop-color="#66AB6C"/>
<stop offset="1" stop-color="#386A3C"/>
</radialGradient>
</defs>
</svg>
