<svg width="735" height="349" viewBox="0 0 735 349" fill="none" xmlns="http://www.w3.org/2000/svg">
<g filter="url(#filter0_d_21731_45)">
<path d="M37.9173 115.907C37.9173 115.907 38.0825 114.353 38.3635 111.659C38.6279 108.948 39.0245 105.097 39.5037 100.452C39.7351 98.1376 39.9995 95.6417 40.2639 92.997C40.5449 90.3357 40.8258 87.5423 41.1233 84.6496C41.4207 81.757 41.7347 78.7486 42.0487 75.7237C42.3462 72.6823 42.6767 69.5913 42.9907 66.5003C43.3047 63.4258 43.6187 60.3514 43.9327 57.3099C44.2467 54.2685 44.5441 51.2767 44.8416 48.3675C45.1391 45.4749 45.4365 42.6814 45.7009 40.0367C45.9653 37.392 46.2298 34.896 46.4611 32.5654C46.9404 27.9371 47.337 24.0693 47.6179 21.375C47.8989 18.6807 48.0476 17.16 48.0476 17.16C48.0476 17.16 49.8324 17.1434 52.493 17.1434C55.1372 17.16 58.6737 17.1434 62.2102 17.1434C65.7302 17.16 69.2668 17.16 71.9274 17.1434C74.5715 17.1434 76.3398 17.16 76.3398 17.16C76.3398 17.16 76.2406 18.6807 76.0423 21.375C75.8275 24.0693 75.5466 27.9371 75.1499 32.5654C74.9682 34.8795 74.7533 37.392 74.5054 40.0367C74.2741 42.6814 74.0427 45.4749 73.7618 48.3675C73.5139 51.2767 73.2164 54.2685 72.9355 57.3099C72.6545 60.3348 72.3571 63.4258 72.0761 66.5003C71.7622 69.5913 71.4812 72.6823 71.1837 75.7237C70.8863 78.7486 70.5888 81.757 70.3079 84.6496C70.0269 87.5423 69.746 90.3357 69.4816 92.997C69.2337 95.6417 68.9693 98.1376 68.771 100.452C68.2917 105.097 67.9282 108.948 67.6637 111.659C67.3828 114.353 67.2175 115.907 67.2175 115.907C67.2175 115.907 65.3997 115.907 62.6729 115.907C59.9131 115.907 56.2444 115.907 52.5922 115.907C48.9235 115.907 45.2547 115.907 42.4949 115.907C39.7351 115.907 37.9173 115.907 37.9173 115.907Z" fill="white"/>
<path d="M80.9836 115.907C80.9836 115.907 81.1488 114.353 81.3967 111.659C81.6611 108.948 82.0247 105.097 82.4709 100.452C82.6857 98.1376 82.9501 95.6417 83.1815 92.997C83.4294 90.3357 83.6938 87.5423 83.9582 84.6496C84.2391 81.757 84.5201 78.7486 84.801 75.7237C85.082 72.6823 85.3629 69.5913 85.6604 66.5168C85.9248 63.4258 86.2222 60.3514 86.4701 57.3099C86.7511 54.2685 87.0155 51.2767 87.2468 48.3675C87.4947 45.4749 87.7261 42.6814 87.9409 40.0367C88.1558 37.392 88.3541 34.896 88.5524 32.5654C88.8829 27.9371 89.1638 24.0693 89.3621 21.375C89.5439 18.6807 89.6431 17.16 89.6431 17.16C89.6431 17.16 91.7914 17.1434 94.9644 17.1434C98.1704 17.16 102.418 17.1434 106.665 17.1434C110.928 17.1434 115.192 17.1434 118.381 17.1434C121.571 17.1434 123.703 17.1434 123.703 17.1434C123.703 17.1434 125.653 20.7799 128.578 26.2346C130.032 28.9785 131.734 32.1522 133.552 35.5737C135.37 38.9623 137.32 42.6153 139.27 46.2683C141.204 49.9048 143.154 53.5412 144.972 56.9463C146.773 60.3679 148.492 63.5415 149.946 66.2689C152.871 71.7401 154.821 75.3931 154.821 75.3931L155.829 75.3766C155.829 75.3766 155.879 73.641 156.011 71.0294C156.11 68.4342 156.259 64.9631 156.391 61.4919C156.54 58.0207 156.672 54.5495 156.771 51.9544C156.854 49.3428 156.936 47.6237 156.936 47.6237C156.936 47.6237 157.052 45.7063 157.217 42.8302C157.415 39.9871 157.647 36.1853 157.862 32.3505C158.077 28.5653 158.291 24.7635 158.473 21.8874C158.638 19.0443 158.738 17.1434 158.738 17.1434C158.738 17.1434 160.473 17.16 163.1 17.1434C165.728 17.1434 169.215 17.16 172.735 17.16C176.222 17.16 179.742 17.16 182.353 17.16C184.981 17.1434 186.749 17.1434 186.749 17.1434C186.749 17.1434 186.65 18.6807 186.517 21.375C186.385 24.0693 186.187 27.9371 185.956 32.5654C185.823 34.8795 185.691 37.392 185.559 40.0367C185.41 42.6814 185.228 45.4749 185.08 48.3675C184.914 51.2767 184.749 54.2685 184.551 57.3099C184.386 60.3514 184.187 63.4258 184.022 66.5168C183.824 69.5913 183.642 72.6823 183.46 75.7237C183.262 78.7486 183.064 81.757 182.882 84.6496C182.7 87.5423 182.518 90.3357 182.353 92.997C182.171 95.6417 181.989 98.1376 181.857 100.452C181.543 105.097 181.295 108.948 181.114 111.659C180.915 114.353 180.8 115.907 180.8 115.907C180.8 115.907 178.651 115.907 175.429 115.89C172.206 115.89 167.893 115.907 163.596 115.907C159.283 115.907 154.986 115.89 151.747 115.907C148.525 115.907 146.36 115.907 146.36 115.907C146.36 115.907 144.41 112.303 141.501 106.915C140.047 104.22 138.345 101.096 136.527 97.7244C134.726 94.3689 132.775 90.7655 130.858 87.1621C128.925 83.5752 126.991 79.9883 125.19 76.6163C123.389 73.2608 121.703 70.1202 120.265 67.4259C117.39 62.0374 115.489 58.4505 115.489 58.4505L114.349 58.467C114.349 58.467 114.283 60.1199 114.151 62.6489C114.035 65.1614 113.886 68.5004 113.705 71.8558C113.539 75.2278 113.374 78.5668 113.258 81.0793C113.11 83.5917 113.044 85.2612 113.044 85.2612C113.044 85.2612 112.862 87.1786 112.631 90.0713C112.383 92.9308 112.052 96.7657 111.705 100.567C111.391 104.402 111.044 108.237 110.796 111.097C110.532 113.989 110.366 115.89 110.366 115.89C110.366 115.89 108.532 115.89 105.789 115.907C103.029 115.907 99.3603 115.89 95.7081 115.907C92.0228 115.907 88.3541 115.89 85.5943 115.907C82.8344 115.907 80.9836 115.907 80.9836 115.907Z" fill="white"/>
<path d="M216.958 115.89C216.958 115.89 217.222 111.262 217.619 104.287C217.817 100.815 218.032 96.7657 218.28 92.4184C218.396 90.2365 218.528 87.9885 218.644 85.691C218.759 83.4099 218.892 81.0958 219.007 78.7486C219.139 76.4345 219.255 74.1369 219.354 71.8558C219.503 69.5748 219.619 67.3268 219.701 65.1449C219.949 60.7976 220.131 56.7479 220.313 53.2602C220.66 46.2848 220.875 41.6566 220.875 41.6566C220.875 41.6566 219.156 41.6731 216.594 41.6731C214.016 41.6731 210.596 41.6566 207.158 41.6731C203.737 41.6566 200.317 41.6731 197.738 41.6566C195.177 41.6566 193.458 41.6731 193.458 41.6731C193.458 41.6731 193.772 35.5407 194.103 29.4083C194.4 23.2593 194.714 17.16 194.714 17.16C194.714 17.16 196.003 17.1434 198.284 17.1434C200.564 17.16 203.82 17.1434 207.72 17.16C209.687 17.16 211.802 17.1434 214.033 17.16C216.28 17.1434 218.644 17.1434 221.089 17.1434C223.535 17.1434 226.047 17.1434 228.625 17.1434C231.187 17.16 233.798 17.16 236.409 17.1434C239.003 17.1434 241.615 17.1434 244.193 17.1434C246.754 17.16 249.266 17.1434 251.712 17.1434C254.158 17.1434 256.521 17.16 258.768 17.1434C260.999 17.1434 263.098 17.1434 265.081 17.1434C268.981 17.16 272.237 17.1434 274.517 17.16C276.798 17.16 278.104 17.16 278.104 17.16C278.104 17.16 277.922 23.2593 277.723 29.3917C277.525 35.5407 277.31 41.6566 277.31 41.6566C277.31 41.6566 275.526 41.6731 272.898 41.6566C270.27 41.6731 266.734 41.6566 263.23 41.6731C259.71 41.6731 256.19 41.6566 253.546 41.6731C250.902 41.6566 249.15 41.6566 249.15 41.6566C249.15 41.6566 248.935 46.2848 248.638 53.2602C248.489 56.7479 248.324 60.7976 248.159 65.1449C248.076 67.3268 247.977 69.5748 247.845 71.8558C247.746 74.1369 247.63 76.4345 247.564 78.7817C247.432 81.0958 247.349 83.4099 247.217 85.691C247.134 87.9885 247.002 90.2365 246.936 92.4184C246.738 96.7657 246.506 100.815 246.374 104.287C246.01 111.245 245.812 115.907 245.812 115.907C245.812 115.907 244.011 115.907 241.301 115.907C238.59 115.89 234.988 115.907 231.385 115.907C227.782 115.907 224.163 115.89 221.453 115.89C218.759 115.907 216.958 115.89 216.958 115.89Z" fill="white"/>
<path d="M328.805 117.229C324.508 117.229 320.459 116.932 316.658 116.32C312.857 115.725 309.321 114.816 306.032 113.642C302.727 112.452 299.719 110.981 296.959 109.295C294.2 107.576 291.721 105.592 289.506 103.377C287.308 101.162 285.375 98.7161 283.739 96.0218C282.119 93.3606 280.764 90.4679 279.69 87.3604C278.649 84.2694 277.856 80.947 277.426 77.4758C276.947 73.9716 276.765 70.2855 276.93 66.4341C277.062 62.6158 277.492 58.9298 278.219 55.4421C278.897 51.9544 279.921 48.6485 281.161 45.574C282.433 42.4665 283.97 39.5738 285.755 36.8961C287.54 34.2348 289.605 31.7885 291.903 29.5735C294.2 27.3751 296.778 25.4081 299.571 23.7056C302.363 21.9865 305.388 20.5485 308.676 19.3749C311.948 18.2343 315.452 17.3252 319.17 16.7136C322.922 16.1186 326.871 15.821 331.036 15.821C335.184 15.821 339.084 16.1186 342.769 16.7136C346.438 17.3252 349.875 18.2343 353.065 19.3749C356.271 20.565 359.245 21.9865 361.939 23.7056C364.649 25.4081 367.112 27.3751 369.31 29.5735C371.507 31.7885 373.458 34.2348 375.127 36.8961C376.796 39.5738 378.2 42.4665 379.341 45.574C380.464 48.6485 381.307 51.9544 381.853 55.4421C382.431 58.9298 382.695 62.6158 382.662 66.4507C382.629 70.2855 382.299 73.9716 381.671 77.4758C381.043 80.947 380.134 84.2529 378.944 87.3604C377.738 90.4679 376.25 93.3606 374.499 96.0218C372.747 98.7161 370.698 101.162 368.417 103.377C366.12 105.592 363.542 107.576 360.733 109.295C357.923 110.981 354.833 112.452 351.528 113.642C348.206 114.799 344.653 115.725 340.852 116.32C337.068 116.932 333.035 117.229 328.805 117.229ZM329.383 92.8812C332.986 92.8647 336.307 92.3688 339.282 91.3109C342.224 90.2696 344.818 88.6828 346.983 86.5174C349.132 84.3686 350.85 81.6412 352.024 78.3023C353.213 74.9468 353.891 71.0293 353.957 66.4507C354.04 61.872 353.478 57.938 352.42 54.5991C351.362 51.2601 349.759 48.5162 347.694 46.384C345.645 44.2021 343.133 42.6318 340.257 41.5904C337.382 40.5325 334.11 40.0201 330.54 40.0367C326.921 40.0201 323.599 40.5325 320.641 41.5904C317.666 42.6318 315.088 44.2021 312.923 46.384C310.775 48.5162 309.04 51.2601 307.817 54.5991C306.611 57.938 305.9 61.872 305.768 66.4507C305.636 71.0293 306.131 74.9468 307.156 78.3023C308.197 81.6412 309.784 84.3686 311.833 86.5174C313.915 88.6828 316.443 90.2696 319.402 91.3109C322.343 92.3688 325.698 92.8812 329.383 92.8812Z" fill="white"/>
<path d="M440.057 115.907C440.057 115.907 440.024 111.245 439.957 104.287C439.924 100.815 439.891 96.7657 439.858 92.4184C439.842 90.2365 439.809 87.9885 439.809 85.691C439.792 83.4099 439.776 81.0958 439.759 78.7817C439.743 76.4345 439.726 74.1369 439.71 71.8558C439.677 69.5748 439.677 67.3268 439.677 65.1449C439.643 60.7976 439.61 56.7479 439.594 53.2602C439.561 46.2848 439.544 41.6731 439.544 41.6731C439.544 41.6731 437.809 41.6731 435.248 41.6731C432.67 41.6731 429.265 41.6566 425.828 41.6566C422.39 41.6566 418.97 41.6566 416.392 41.6566C413.83 41.6731 412.128 41.6566 412.128 41.6566C412.128 41.6566 412.128 35.5407 412.161 29.4083C412.161 23.2758 412.194 17.1434 412.194 17.1434C412.194 17.1434 413.483 17.16 415.764 17.1434C418.044 17.1434 421.3 17.16 425.2 17.1434C427.166 17.1434 429.282 17.16 431.513 17.1434C433.76 17.16 436.123 17.1434 438.569 17.1434C441.015 17.1434 443.527 17.1434 446.105 17.1434C448.667 17.16 451.278 17.1434 453.872 17.1434C456.483 17.1434 459.078 17.1434 461.656 17.16C464.217 17.1434 466.746 17.1434 469.192 17.1434C471.637 17.16 474.001 17.16 476.248 17.1434C478.479 17.1434 480.594 17.1434 482.561 17.16C486.461 17.1434 489.717 17.1434 491.997 17.1434C494.261 17.1434 495.583 17.1434 495.583 17.1434C495.583 17.1434 495.683 23.2593 495.782 29.4083C495.881 35.5242 495.98 41.6566 495.98 41.6566C495.98 41.6566 494.212 41.6731 491.568 41.6731C488.94 41.6731 485.403 41.6731 481.867 41.6731C478.38 41.6731 474.86 41.6731 472.216 41.6731C469.572 41.6731 467.82 41.6731 467.82 41.6731C467.82 41.6731 467.87 46.2848 467.969 53.2602C468.002 56.7479 468.035 60.7976 468.117 65.1449C468.134 67.3268 468.184 69.5748 468.217 71.8558C468.25 74.1369 468.283 76.4345 468.316 78.7817C468.349 81.0958 468.382 83.4099 468.415 85.691C468.448 87.9885 468.481 90.2365 468.531 92.4184C468.597 96.7657 468.663 100.815 468.712 104.287C468.845 111.245 468.911 115.907 468.911 115.907C468.911 115.907 467.109 115.89 464.383 115.89C461.689 115.907 458.07 115.89 454.484 115.89C450.864 115.89 447.262 115.89 444.552 115.907C441.858 115.907 440.057 115.907 440.057 115.907Z" fill="white"/>
<path d="M505.912 115.907C505.912 115.907 505.862 114.353 505.796 111.659C505.714 108.948 505.615 105.097 505.482 100.452C505.4 98.1376 505.35 95.6417 505.284 92.997C505.201 90.3357 505.135 87.5423 505.053 84.6496C504.97 81.757 504.904 78.7486 504.838 75.7237C504.755 72.6823 504.673 69.5913 504.623 66.5003C504.54 63.4258 504.474 60.3514 504.408 57.3099C504.342 54.2685 504.276 51.2767 504.21 48.3675C504.16 45.4749 504.094 42.6814 504.045 40.0367C503.979 37.392 503.945 34.896 503.912 32.5654C503.813 27.9371 503.764 24.0693 503.714 21.375C503.665 18.6807 503.648 17.1434 503.648 17.1434C503.648 17.1434 505.4 17.1434 508.044 17.1434C510.705 17.1434 514.241 17.1434 517.778 17.16C521.298 17.1434 524.818 17.16 527.478 17.1434C530.106 17.16 531.891 17.16 531.891 17.16C531.891 17.16 531.94 19.4245 532.023 22.8791C532.089 26.3173 532.188 30.9124 532.32 35.5076C532.436 40.0863 532.552 44.6484 532.651 48.103C532.75 51.5577 532.8 53.8553 532.8 53.8553C532.8 53.8553 535.262 53.8553 538.947 53.8388C540.798 53.8388 542.946 53.8388 545.243 53.8553C547.541 53.8388 550.003 53.8388 552.465 53.8388C554.911 53.8388 557.373 53.8388 559.671 53.8388C561.984 53.8388 564.133 53.8553 565.983 53.8388C569.669 53.8553 572.131 53.8553 572.131 53.8553C572.131 53.8553 572.032 51.5577 571.9 48.103C571.784 44.6815 571.619 40.0863 571.453 35.5076C571.305 30.9124 571.156 26.3007 571.057 22.8791C570.958 19.4245 570.875 17.1434 570.875 17.1434C570.875 17.1434 572.643 17.1434 575.287 17.1434C577.948 17.1434 581.485 17.1434 585.005 17.1434C588.525 17.1434 592.061 17.1434 594.722 17.16C597.366 17.1434 599.134 17.1434 599.134 17.1434C599.134 17.1434 599.167 18.6807 599.283 21.375C599.382 24.0693 599.514 27.9371 599.696 32.5654C599.779 34.896 599.894 37.392 599.994 40.0367C600.109 42.6814 600.225 45.4749 600.341 48.3675C600.473 51.2767 600.622 54.2685 600.77 57.3099C600.902 60.3348 601.068 63.4258 601.216 66.5168C601.365 69.5913 601.53 72.6823 601.663 75.7237C601.828 78.7486 601.993 81.757 602.158 84.6496C602.307 87.5423 602.456 90.3357 602.605 92.997C602.753 95.6417 602.886 98.1376 603.001 100.452C603.282 105.097 603.497 108.948 603.646 111.659C603.811 114.353 603.877 115.89 603.877 115.89C603.877 115.89 602.076 115.907 599.366 115.907C596.639 115.907 593.003 115.89 589.4 115.907C585.765 115.907 582.129 115.89 579.419 115.907C576.709 115.907 574.891 115.907 574.891 115.907C574.891 115.907 574.775 113.527 574.61 109.973C574.428 106.402 574.213 101.675 573.982 96.931C573.767 92.187 573.536 87.4431 573.387 83.8727C573.222 80.3354 573.123 77.9552 573.123 77.9552C573.123 77.9552 570.644 77.9552 566.925 77.9552C565.075 77.9552 562.91 77.9552 560.596 77.9717C558.282 77.9717 555.804 77.9552 553.341 77.9552C550.862 77.9717 548.383 77.9717 546.07 77.9552C543.74 77.9717 541.591 77.9717 539.724 77.9717C536.022 77.9552 533.56 77.9717 533.56 77.9717C533.56 77.9717 533.626 80.3354 533.758 83.8727C533.874 87.4431 534.039 92.187 534.204 96.931C534.369 101.675 534.535 106.402 534.667 109.973C534.799 113.527 534.898 115.907 534.898 115.907C534.898 115.907 533.047 115.907 530.354 115.89C527.644 115.907 524.008 115.89 520.405 115.907C516.769 115.907 513.15 115.89 510.424 115.89C507.713 115.907 505.912 115.907 505.912 115.907Z" fill="white"/>
<path d="M617.577 115.907C617.577 115.907 617.478 114.353 617.313 111.659C617.147 108.948 616.916 105.097 616.635 100.452C616.486 98.1376 616.338 95.6417 616.189 92.997C616.024 90.3357 615.875 87.5423 615.693 84.6496C615.528 81.757 615.363 78.7486 615.197 75.7237C615.032 72.6823 614.85 69.5913 614.685 66.5003C614.52 63.4258 614.371 60.3348 614.206 57.3099C614.057 54.2685 613.908 51.2767 613.76 48.3675C613.627 45.4749 613.495 42.6814 613.379 40.0367C613.247 37.392 613.148 34.896 613.049 32.5654C612.851 27.9371 612.702 24.0693 612.603 21.375C612.504 18.6807 612.437 17.1434 612.437 17.1434C612.437 17.1434 613.677 17.16 615.809 17.1434C617.957 17.1434 621.047 17.1434 624.733 17.1434C626.584 17.16 628.567 17.16 630.699 17.1434C632.797 17.16 635.028 17.1434 637.342 17.1434C639.639 17.16 642.019 17.1434 644.448 17.1434C646.861 17.1434 649.323 17.1434 651.802 17.16C654.248 17.1434 656.71 17.1434 659.123 17.1434C661.552 17.1434 663.932 17.1434 666.246 17.1434C668.543 17.1434 670.774 17.1434 672.889 17.1434C675.004 17.16 677.004 17.16 678.855 17.1434C682.54 17.1434 685.614 17.1434 687.762 17.1434C689.911 17.1434 691.15 17.1434 691.15 17.1434C691.15 17.1434 691.58 23.1932 692.042 29.2595C692.505 35.3258 693.001 41.3756 693.001 41.3756C693.001 41.3756 689.745 41.3921 684.903 41.3921C682.49 41.3756 679.665 41.3756 676.657 41.3921C673.666 41.3756 670.46 41.3921 667.287 41.3921C664.097 41.3921 660.908 41.3921 657.933 41.3921C654.942 41.3756 652.166 41.3756 649.786 41.3921C645.01 41.3756 641.853 41.3921 641.853 41.3921C641.853 41.3921 642.035 44.7972 642.217 48.2188C642.432 51.6403 642.63 55.0619 642.63 55.0619C642.63 55.0619 645.423 55.0785 649.637 55.0619C651.719 55.0785 654.182 55.0619 656.809 55.0785C659.437 55.0785 662.263 55.0619 665.072 55.0619C667.882 55.0785 670.708 55.0619 673.352 55.0785C675.996 55.0619 678.475 55.0619 680.59 55.0785C684.854 55.0619 687.713 55.0785 687.713 55.0785C687.713 55.0785 688.142 60.7315 688.588 66.3846C689.035 72.0377 689.464 77.6907 689.464 77.6907C689.464 77.6907 686.605 77.6907 682.309 77.6907C680.193 77.6907 677.681 77.6907 675.021 77.6907C672.36 77.6907 669.501 77.6907 666.675 77.6907C663.849 77.6907 661.007 77.6907 658.346 77.6907C655.702 77.6907 653.223 77.6907 651.108 77.6907C646.861 77.6907 644.051 77.6907 644.051 77.6907C644.051 77.6907 644.283 81.1784 644.514 84.6661C644.745 88.1538 644.977 91.625 644.977 91.625C644.977 91.625 648.232 91.6415 653.108 91.625C655.553 91.625 658.412 91.625 661.453 91.625C664.527 91.625 667.799 91.625 671.055 91.625C674.343 91.625 677.599 91.625 680.689 91.625C683.763 91.625 686.638 91.6415 689.101 91.625C694.042 91.6415 697.347 91.6416 697.347 91.6416C697.347 91.6416 697.826 97.7079 698.306 103.774C698.785 109.84 699.264 115.907 699.264 115.907C699.264 115.907 697.975 115.907 695.728 115.907C693.48 115.907 690.258 115.907 686.424 115.907C684.49 115.907 682.424 115.907 680.21 115.907C678.012 115.907 675.698 115.907 673.286 115.907C670.906 115.907 668.427 115.907 665.915 115.907C663.387 115.907 660.842 115.907 658.297 115.907C655.735 115.89 653.19 115.907 650.678 115.907C648.166 115.907 645.704 115.907 643.324 115.89C640.928 115.907 638.614 115.907 636.433 115.89C634.252 115.907 632.186 115.907 630.269 115.89C626.468 115.89 623.278 115.89 621.047 115.907C618.833 115.89 617.577 115.907 617.577 115.907Z" fill="white"/>
<path d="M15.8553 331.054C15.8553 331.054 16.1362 328.26 16.632 323.368C16.8799 320.938 17.1939 317.979 17.5409 314.574C17.888 311.185 18.2846 307.35 18.7143 303.169C18.9291 301.086 19.1439 298.904 19.3753 296.656C19.6066 294.391 19.8545 292.061 20.1024 289.664C20.3338 287.267 20.5982 284.788 20.8461 282.292C21.1105 279.779 21.3749 277.201 21.6393 274.606C21.9037 271.978 22.1847 269.316 22.4656 266.639C22.73 263.911 23.011 261.217 23.2919 258.456C23.5728 255.746 23.8538 252.969 24.1512 250.175C24.4322 247.415 24.7131 244.621 24.9941 241.844C25.2915 239.051 25.5725 236.257 25.8534 233.464C26.1509 230.704 26.4318 227.943 26.7128 225.199C26.9937 222.455 27.2746 219.745 27.539 217.034C27.82 214.356 28.1009 211.695 28.3653 209.083C28.6297 206.455 28.8942 203.893 29.1586 201.38C29.4065 198.868 29.6709 196.405 29.9022 194.025C30.1501 191.611 30.398 189.281 30.6294 187.016C30.8607 184.768 31.0756 182.586 31.2904 180.504C31.7201 176.322 32.1167 172.487 32.4637 169.098C32.8108 165.693 33.1082 162.735 33.3727 160.305C33.8684 155.412 34.1494 152.635 34.1494 152.635C34.1494 152.635 36.3638 152.635 40.2474 152.635C42.1809 152.635 44.5276 152.635 47.2378 152.635C49.915 152.635 52.9723 152.635 56.294 152.635C59.6157 152.635 63.2018 152.619 67.0027 152.635C70.8036 152.619 74.8194 152.619 78.9509 152.619C81.0166 152.635 83.1319 152.635 85.2637 152.619C87.3956 152.635 89.5605 152.635 91.7253 152.619C93.9067 152.635 96.0882 152.619 98.2861 152.619C100.484 152.635 102.698 152.619 104.913 152.635C107.127 152.619 109.325 152.619 111.523 152.635C113.721 152.619 115.903 152.635 118.067 152.619C120.249 152.619 122.397 152.619 124.529 152.635C126.661 152.635 128.776 152.619 130.825 152.619C134.957 152.635 138.956 152.635 142.757 152.635C146.525 152.635 150.128 152.635 153.433 152.619C156.721 152.635 159.779 152.619 162.456 152.619C165.15 152.619 167.48 152.619 169.413 152.635C173.264 152.635 175.462 152.635 175.462 152.635C175.462 152.635 175.296 155.362 174.999 159.462C174.834 161.528 174.668 163.925 174.487 166.503C174.305 169.065 174.107 171.793 173.908 174.52C173.71 177.28 173.528 180.008 173.33 182.57C173.148 185.132 172.983 187.529 172.834 189.595C172.537 193.694 172.338 196.438 172.338 196.438C172.338 196.438 170.95 196.438 168.504 196.455C166.058 196.455 162.572 196.455 158.391 196.455C156.308 196.455 154.028 196.455 151.631 196.455C149.235 196.455 146.707 196.438 144.079 196.438C141.468 196.455 138.758 196.455 136.015 196.438C133.271 196.455 130.478 196.455 127.719 196.455C124.926 196.455 122.133 196.455 119.373 196.455C116.63 196.455 113.936 196.438 111.325 196.438C108.714 196.438 106.185 196.455 103.789 196.455C101.409 196.455 99.1289 196.455 97.0467 196.455C92.8656 196.455 89.3787 196.455 86.9494 196.455C84.5036 196.455 83.1154 196.438 83.1154 196.438C83.1154 196.438 82.9336 198.339 82.6527 201.182C82.4048 204.025 82.0412 207.81 81.6776 211.612C81.3306 215.414 80.967 219.183 80.6861 222.042C80.4217 224.885 80.2399 226.786 80.2399 226.786C80.2399 226.786 85.2637 226.786 92.783 226.786C94.6835 226.786 96.7161 226.786 98.8645 226.786C101.029 226.786 103.31 226.786 105.673 226.786C108.02 226.786 110.466 226.786 112.928 226.786C115.407 226.786 117.935 226.786 120.447 226.786C122.959 226.786 125.488 226.786 127.966 226.786C130.445 226.77 132.875 226.77 135.221 226.786C137.568 226.786 139.882 226.786 142.046 226.786C144.178 226.786 146.244 226.786 148.145 226.786C155.68 226.786 160.737 226.786 160.737 226.786C160.737 226.786 160.555 229.348 160.274 233.233C160.126 235.183 159.977 237.448 159.812 239.861C159.63 242.291 159.448 244.869 159.266 247.464C159.085 250.043 158.886 252.622 158.721 255.051C158.572 257.465 158.424 259.729 158.291 261.68C158.027 265.531 157.845 268.126 157.845 268.126C157.845 268.126 152.722 268.126 145.104 268.126C143.187 268.126 141.104 268.126 138.94 268.126C136.742 268.126 134.412 268.126 132.032 268.126C129.669 268.126 127.19 268.126 124.678 268.126C122.182 268.126 119.621 268.126 117.076 268.126C114.531 268.126 111.986 268.126 109.474 268.126C106.979 268.126 104.5 268.126 102.137 268.126C99.7404 268.126 97.4433 268.126 95.2453 268.126C93.0639 268.126 91.0147 268.126 89.0977 268.126C81.4793 268.126 76.4059 268.126 76.4059 268.126C76.4059 268.126 76.0423 272.077 75.5135 277.978C75.2656 280.92 74.9516 284.358 74.6542 288.028C74.3402 291.747 74.0097 295.664 73.6791 299.598C73.3651 303.532 73.0512 307.466 72.7372 311.152C72.4562 314.822 72.2083 318.26 72.01 321.219C71.5804 327.103 71.3159 331.037 71.3159 331.037C71.3159 331.037 67.8455 331.054 62.6399 331.037C60.0288 331.054 56.9881 331.054 53.7325 331.037C50.4934 331.037 47.023 331.054 43.5195 331.037C40.0656 331.037 36.5952 331.037 33.3396 331.037C30.084 331.037 27.0598 331.037 24.4487 331.054C19.2596 331.054 15.8553 331.054 15.8553 331.054Z" fill="white"/>
<path d="M266.767 333.5C263.396 333.5 260.107 333.401 256.901 333.203C253.678 333.021 250.555 332.74 247.514 332.359C244.457 331.979 241.515 331.483 238.64 330.905C235.781 330.326 232.972 329.632 230.311 328.855C227.617 328.078 225.056 327.186 222.56 326.211C220.081 325.219 217.685 324.128 215.405 322.921C213.124 321.731 210.926 320.409 208.86 319.004C206.795 317.599 204.828 316.061 202.977 314.425C201.126 312.805 199.391 311.07 197.772 309.202C196.152 307.35 194.632 305.383 193.26 303.301C191.872 301.202 190.616 299.02 189.476 296.706C188.352 294.391 187.327 291.962 186.451 289.4C185.575 286.854 184.832 284.176 184.204 281.399C183.592 278.589 183.113 275.697 182.766 272.672C182.436 269.63 182.221 266.473 182.155 263.184C182.089 259.911 182.171 256.506 182.403 252.969C182.403 252.969 182.502 251.382 182.667 248.654C182.849 245.911 183.097 241.993 183.394 237.266C183.543 234.935 183.708 232.39 183.89 229.695C184.055 227.001 184.253 224.158 184.435 221.216C184.617 218.273 184.832 215.249 185.047 212.158C185.228 209.067 185.46 205.926 185.675 202.802C185.873 199.661 186.088 196.537 186.303 193.43C186.501 190.355 186.699 187.314 186.914 184.372C187.112 181.446 187.294 178.586 187.476 175.892C187.658 173.214 187.823 170.669 187.988 168.305C188.319 163.594 188.567 159.677 188.765 156.933C188.947 154.205 189.046 152.635 189.046 152.635C189.046 152.635 192.301 152.635 197.177 152.619C199.606 152.635 202.465 152.635 205.522 152.619C208.546 152.635 211.818 152.635 215.058 152.635C218.313 152.635 221.569 152.635 224.609 152.619C227.667 152.635 230.509 152.635 232.955 152.635C237.814 152.619 241.086 152.619 241.086 152.619C241.086 152.619 241.003 154.205 240.871 156.949C240.722 159.693 240.524 163.627 240.276 168.338C240.16 170.702 240.028 173.264 239.879 175.958C239.747 178.652 239.598 181.512 239.45 184.454C239.284 187.396 239.136 190.454 238.97 193.529C238.822 196.636 238.656 199.777 238.508 202.918C238.342 206.058 238.177 209.215 238.028 212.306C237.847 215.397 237.714 218.439 237.549 221.381C237.417 224.34 237.252 227.183 237.136 229.877C236.987 232.588 236.872 235.133 236.756 237.497C236.525 242.208 236.343 246.142 236.194 248.869C236.062 251.646 235.979 253.2 235.979 253.2C235.88 255.795 235.88 258.258 236.012 260.589C236.161 262.969 236.425 265.2 236.905 267.3C237.814 271.531 239.4 275.25 241.846 278.292C244.275 281.366 247.58 283.78 251.91 285.432C254.108 286.259 256.537 286.871 259.248 287.284C261.991 287.747 264.949 287.978 268.287 287.978C270.783 287.978 273.195 287.862 275.492 287.598C277.79 287.35 279.971 286.953 282.037 286.391C286.201 285.284 289.87 283.499 292.944 280.87C296.001 278.242 298.463 274.754 300.199 270.209C301.091 267.928 301.785 265.399 302.281 262.572C302.777 259.762 303.091 256.638 303.19 253.217C303.19 253.217 303.223 251.646 303.322 248.869C303.405 246.142 303.52 242.208 303.636 237.497C303.735 235.133 303.801 232.588 303.884 229.877C303.95 227.183 304.066 224.34 304.148 221.381C304.247 218.439 304.33 215.397 304.413 212.306C304.512 209.215 304.628 206.058 304.727 202.918C304.809 199.777 304.908 196.636 305.008 193.529C305.09 190.454 305.206 187.396 305.272 184.454C305.388 181.512 305.47 178.652 305.553 175.958C305.652 173.264 305.718 170.702 305.801 168.338C305.95 163.627 306.049 159.693 306.148 156.949C306.247 154.205 306.28 152.635 306.28 152.635C306.28 152.635 309.552 152.635 314.444 152.635C316.89 152.635 319.749 152.635 322.806 152.635C325.863 152.619 329.135 152.635 332.407 152.635C335.68 152.635 338.935 152.635 341.992 152.619C345.066 152.635 347.925 152.635 350.371 152.635C355.263 152.619 358.535 152.635 358.535 152.635C358.535 152.635 358.518 154.205 358.469 156.933C358.419 159.677 358.353 163.594 358.303 168.305C358.27 170.669 358.237 173.214 358.188 175.892C358.155 178.586 358.089 181.446 358.055 184.372C358.022 187.314 357.956 190.355 357.907 193.43C357.874 196.537 357.824 199.661 357.791 202.802C357.725 205.926 357.692 209.067 357.642 212.158C357.593 215.249 357.543 218.273 357.51 221.216C357.461 224.158 357.428 227.001 357.378 229.695C357.345 232.39 357.295 234.935 357.262 237.266C357.196 241.993 357.13 245.911 357.097 248.654C357.064 251.382 357.031 252.969 357.031 252.969C356.965 255.96 356.833 258.919 356.601 261.812C356.337 264.705 356.006 267.515 355.544 270.258C355.097 273.019 354.552 275.697 353.874 278.308C353.213 280.887 352.437 283.449 351.544 285.895C350.652 288.342 349.677 290.722 348.553 293.003C347.446 295.301 346.223 297.515 344.884 299.631C343.529 301.764 342.075 303.797 340.489 305.747C338.919 307.698 337.216 309.549 335.399 311.318C333.564 313.086 331.631 314.739 329.548 316.309C327.483 317.896 325.285 319.367 322.955 320.723C320.641 322.111 318.179 323.368 315.601 324.525C313.023 325.698 310.312 326.756 307.453 327.698C304.594 328.64 301.62 329.467 298.513 330.194C295.39 330.921 292.134 331.517 288.763 332.029C285.375 332.508 281.838 332.872 278.186 333.12C274.517 333.368 270.683 333.5 266.767 333.5Z" fill="white"/>
<path d="M459.375 333.5C455.574 333.5 451.906 333.401 448.369 333.203C444.816 333.021 441.412 332.74 438.107 332.36C434.818 331.979 431.645 331.5 428.604 330.955C425.58 330.409 422.655 329.781 419.846 329.037C417.053 328.326 414.375 327.516 411.83 326.64C409.286 325.764 406.856 324.789 404.543 323.748C402.246 322.706 400.064 321.599 397.998 320.409C395.949 319.235 393.999 317.962 392.181 316.64C388.546 313.979 385.373 311.053 382.679 307.879C380.002 304.722 377.787 301.301 376.003 297.664C374.267 294.044 372.978 290.193 372.135 286.16C371.276 282.127 370.896 277.912 370.946 273.531C370.946 273.531 374.499 273.531 379.853 273.531C382.514 273.531 385.637 273.548 388.975 273.531C392.314 273.531 395.867 273.548 399.436 273.531C403.006 273.548 406.575 273.531 409.897 273.531C413.235 273.548 416.342 273.531 419.019 273.548C424.374 273.531 427.943 273.548 427.943 273.548C428.009 276.705 428.736 279.697 430.141 282.342C431.546 285.003 433.612 287.383 436.371 289.317C439.131 291.284 442.585 292.838 446.7 293.912C448.799 294.458 451.03 294.854 453.459 295.135C455.872 295.416 458.483 295.565 461.243 295.549C465.688 295.549 469.654 295.218 473.075 294.573C476.496 293.912 479.388 292.937 481.718 291.648C484.015 290.358 485.817 288.771 486.973 286.871C488.147 285.003 488.742 282.837 488.692 280.391C488.643 277.399 488.147 275.069 486.99 273.25C485.883 271.416 484.081 270.06 481.437 268.969C478.744 267.878 475.224 267.068 470.547 266.308C468.217 265.928 465.589 265.564 462.697 265.167C459.772 264.804 456.549 264.424 452.996 264.01C449.592 263.597 446.336 263.167 443.196 262.705C440.073 262.258 437.049 261.729 434.14 261.217C431.232 260.704 428.439 260.126 425.762 259.514C423.085 258.919 420.523 258.275 418.077 257.564C415.615 256.886 413.285 256.175 411.054 255.399C408.839 254.622 406.708 253.812 404.724 252.936C400.709 251.184 397.139 249.25 393.999 247.101C390.859 244.952 388.149 242.555 385.835 239.944C383.538 237.315 381.654 234.439 380.167 231.282C378.68 228.142 377.572 224.72 376.878 221.001C376.151 217.282 375.821 213.265 375.87 208.934C375.887 206.571 376.036 204.29 376.3 202.091C376.564 199.876 376.928 197.727 377.407 195.645C378.366 191.496 379.787 187.595 381.654 183.991C383.505 180.355 385.786 176.999 388.463 173.958C391.14 170.9 394.214 168.107 397.701 165.627C399.453 164.388 401.287 163.214 403.204 162.106C405.138 161.032 407.154 159.991 409.269 159.065C411.384 158.123 413.582 157.247 415.896 156.453C418.193 155.643 420.573 154.933 423.052 154.305C425.53 153.66 428.092 153.098 430.736 152.619C433.397 152.139 436.123 151.726 438.933 151.395C441.775 151.065 444.667 150.833 447.642 150.652C450.617 150.503 453.69 150.42 456.847 150.42C459.623 150.42 462.35 150.503 464.978 150.652C467.638 150.8 470.249 151.015 472.794 151.296C475.356 151.627 477.835 151.99 480.247 152.42C482.66 152.867 485.007 153.379 487.304 153.974C489.584 154.553 491.799 155.214 493.964 155.958C496.112 156.668 498.194 157.478 500.194 158.354C504.259 160.106 507.994 162.123 511.432 164.437C514.852 166.751 518.009 169.33 520.785 172.189C523.611 175.066 526.074 178.19 528.189 181.611C530.321 185 532.089 188.686 533.444 192.62C534.832 196.57 535.824 200.769 536.402 205.248C536.402 205.248 533.014 205.248 527.924 205.248C525.379 205.248 522.405 205.248 519.232 205.248C516.059 205.248 512.671 205.248 509.267 205.248C505.862 205.248 502.475 205.248 499.302 205.248C496.129 205.248 493.138 205.248 490.609 205.248C485.519 205.248 482.131 205.248 482.131 205.248C481.569 202.108 480.512 199.463 479.058 197.265C477.57 195.05 475.653 193.264 473.34 191.876C471.043 190.487 468.349 189.463 465.325 188.818C462.284 188.173 458.946 187.876 455.326 187.876C451.393 187.876 447.939 188.223 444.915 188.884C441.924 189.545 439.379 190.521 437.33 191.777C433.215 194.289 431.083 197.893 431.116 202.306C431.166 207.447 432.455 210.505 437.578 212.703C440.139 213.811 443.643 214.687 448.386 215.53C450.798 215.943 453.492 216.34 456.549 216.736C459.607 217.133 463.027 217.546 466.845 217.976C470.282 218.356 473.588 218.786 476.777 219.232C479.95 219.695 483.024 220.158 485.949 220.67C488.874 221.166 491.683 221.728 494.377 222.307C497.071 222.885 499.632 223.497 502.111 224.174C504.557 224.836 506.887 225.53 509.101 226.307C511.332 227.051 513.431 227.844 515.431 228.72C519.447 230.439 522.983 232.373 526.123 234.555C529.23 236.737 531.94 239.183 534.287 241.927C536.584 244.654 538.534 247.712 540.087 251.084C541.641 254.456 542.831 258.175 543.674 262.258C544.07 264.324 544.417 266.473 544.682 268.705C544.896 270.953 545.078 273.3 545.161 275.746C545.31 280.259 544.963 284.556 544.136 288.623C543.31 292.672 541.988 296.491 540.17 300.028C538.385 303.598 536.121 306.904 533.394 309.929C530.635 312.971 527.445 315.731 523.809 318.194C521.975 319.45 520.058 320.607 517.992 321.715C515.96 322.789 513.795 323.83 511.498 324.773C509.267 325.731 506.887 326.591 504.408 327.384C501.929 328.194 499.302 328.921 496.625 329.55C493.947 330.211 491.138 330.773 488.246 331.269C485.337 331.748 482.33 332.178 479.223 332.508C476.116 332.822 472.91 333.07 469.588 333.236C466.283 333.401 462.879 333.5 459.375 333.5Z" fill="white"/>
<path d="M563.653 331.037C563.653 331.037 563.587 328.26 563.455 323.368C563.389 320.938 563.306 317.979 563.207 314.574C563.108 311.185 562.992 307.35 562.86 303.169C562.794 301.086 562.711 298.904 562.645 296.656C562.546 294.391 562.48 292.061 562.397 289.664C562.315 287.267 562.216 284.788 562.133 282.292C562.05 279.779 561.935 277.201 561.835 274.606C561.753 271.978 561.654 269.316 561.538 266.639C561.422 263.911 561.34 261.217 561.224 258.456C561.108 255.746 560.993 252.969 560.877 250.175C560.761 247.415 560.646 244.621 560.53 241.844C560.414 239.051 560.282 236.257 560.183 233.464C560.051 230.704 559.918 227.943 559.819 225.199C559.671 222.455 559.571 219.745 559.456 217.034C559.34 214.356 559.208 211.695 559.076 209.083C558.976 206.455 558.844 203.893 558.729 201.38C558.613 198.868 558.497 196.405 558.415 194.025C558.282 191.611 558.183 189.281 558.084 187.016C557.985 184.768 557.886 182.586 557.77 180.504C557.588 176.322 557.423 172.487 557.241 169.098C557.109 165.693 556.96 162.735 556.861 160.305C556.63 155.412 556.481 152.635 556.481 152.635C556.481 152.635 558.795 152.635 562.827 152.635C564.843 152.635 567.305 152.619 570.115 152.635C572.924 152.635 576.081 152.635 579.551 152.635C583.005 152.635 586.756 152.635 590.723 152.635C594.672 152.619 598.87 152.619 603.183 152.635C605.348 152.619 607.546 152.619 609.777 152.635C612.008 152.619 614.255 152.635 616.519 152.619C618.8 152.635 621.097 152.619 623.394 152.635C625.691 152.635 627.988 152.635 630.318 152.635C632.616 152.619 634.913 152.635 637.21 152.635C639.523 152.619 641.82 152.635 644.084 152.619C646.365 152.635 648.613 152.635 650.844 152.635C653.075 152.635 655.272 152.635 657.454 152.635C661.767 152.635 665.965 152.635 669.931 152.635C673.914 152.619 677.681 152.635 681.152 152.635C684.622 152.635 687.795 152.635 690.621 152.635C693.447 152.635 695.909 152.635 697.942 152.619C701.991 152.635 704.321 152.635 704.321 152.635C704.321 152.635 704.536 155.362 704.833 159.462C705.015 161.528 705.213 163.925 705.412 166.503C705.594 169.065 705.808 171.793 706.056 174.537C706.271 177.28 706.486 180.008 706.684 182.57C706.883 185.132 707.081 187.529 707.246 189.595C707.56 193.694 707.758 196.438 707.758 196.438C707.758 196.438 706.288 196.455 703.677 196.438C701.066 196.455 697.331 196.438 692.869 196.455C690.638 196.438 688.208 196.455 685.647 196.438C683.069 196.455 680.375 196.455 677.566 196.455C674.773 196.455 671.881 196.455 668.939 196.455C666.014 196.438 663.023 196.455 660.032 196.438C657.041 196.455 654.049 196.438 651.108 196.438C648.166 196.455 645.274 196.455 642.465 196.455C639.672 196.455 636.962 196.455 634.384 196.455C631.806 196.455 629.376 196.455 627.129 196.455C622.65 196.455 618.899 196.455 616.288 196.455C613.66 196.455 612.173 196.455 612.173 196.455C612.173 196.455 612.553 202.62 612.933 208.786C613.313 214.968 613.677 221.15 613.677 221.15C613.677 221.15 614.999 221.15 617.313 221.133C619.61 221.15 622.915 221.15 626.898 221.15C628.881 221.15 631.029 221.15 633.293 221.15C635.557 221.15 637.953 221.133 640.432 221.133C642.911 221.133 645.456 221.15 648.067 221.15C650.662 221.133 653.306 221.15 655.95 221.15C658.578 221.15 661.205 221.15 663.8 221.15C666.411 221.15 668.956 221.15 671.435 221.15C673.881 221.15 676.277 221.15 678.541 221.15C680.805 221.133 682.937 221.15 684.903 221.133C688.853 221.15 692.142 221.15 694.439 221.133C696.719 221.133 698.041 221.15 698.041 221.15C698.041 221.15 698.24 223.712 698.537 227.53C698.702 229.447 698.851 231.679 699.066 234.076C699.248 236.489 699.429 239.034 699.628 241.596C699.843 244.142 700.024 246.688 700.223 249.084C700.421 251.481 700.586 253.729 700.735 255.646C701.032 259.465 701.247 262.043 701.247 262.043C701.247 262.043 699.909 262.043 697.612 262.043C695.298 262.043 691.993 262.027 688.01 262.043C686.027 262.027 683.879 262.043 681.598 262.043C679.318 262.043 676.905 262.043 674.426 262.043C671.93 262.043 669.352 262.043 666.725 262.043C664.114 262.043 661.437 262.043 658.792 262.043C656.132 262.043 653.455 262.043 650.827 262.043C648.199 262.027 645.621 262.043 643.109 262.043C640.614 262.027 638.185 262.027 635.888 262.043C633.591 262.027 631.409 262.043 629.426 262.043C625.394 262.027 622.056 262.043 619.709 262.043C617.379 262.043 616.024 262.043 616.024 262.043C616.024 262.043 616.387 268.341 616.701 274.639C617.032 280.92 617.346 287.218 617.346 287.218C617.346 287.218 618.899 287.218 621.626 287.234C624.32 287.234 628.187 287.218 632.814 287.218C635.144 287.234 637.656 287.218 640.3 287.234C642.961 287.234 645.754 287.218 648.662 287.218C651.554 287.218 654.545 287.218 657.57 287.218C660.627 287.218 663.701 287.234 666.774 287.218C669.848 287.218 672.939 287.218 675.979 287.234C678.987 287.218 681.962 287.218 684.837 287.234C687.713 287.218 690.489 287.234 693.117 287.218C695.744 287.234 698.223 287.234 700.504 287.234C705.065 287.218 708.866 287.234 711.51 287.234C714.154 287.234 715.674 287.218 715.674 287.218C715.674 287.218 715.889 289.978 716.203 294.077C716.368 296.144 716.567 298.54 716.765 301.102C716.98 303.664 717.178 306.392 717.41 309.152C717.624 311.88 717.839 314.607 718.021 317.186C718.252 319.748 718.418 322.144 718.599 324.211C718.93 328.31 719.145 331.054 719.145 331.054C719.145 331.054 716.748 331.054 712.518 331.037C710.386 331.054 707.825 331.037 704.85 331.037C701.892 331.037 698.554 331.054 694.901 331.054C691.249 331.054 687.316 331.037 683.135 331.054C678.954 331.037 674.558 331.037 669.997 331.037C667.716 331.054 665.386 331.037 663.04 331.037C660.693 331.037 658.33 331.037 655.933 331.037C653.537 331.037 651.141 331.037 648.712 331.037C646.299 331.037 643.87 331.037 641.44 331.037C638.995 331.037 636.565 331.037 634.152 331.054C631.723 331.054 629.31 331.037 626.914 331.054C624.518 331.037 622.155 331.037 619.808 331.037C617.461 331.037 615.148 331.037 612.867 331.037C608.306 331.054 603.91 331.037 599.729 331.054C595.548 331.037 591.598 331.037 587.946 331.054C584.294 331.054 580.972 331.037 578.014 331.054C575.04 331.037 572.462 331.054 570.33 331.054C566.083 331.054 563.653 331.037 563.653 331.037Z" fill="white"/>
</g>
<defs>
<filter id="filter0_d_21731_45" x="0.870426" y="0.836185" width="733.259" height="347.649" filterUnits="userSpaceOnUse" color-interpolation-filters="sRGB">
<feFlood flood-opacity="0" result="BackgroundImageFix"/>
<feColorMatrix in="SourceAlpha" type="matrix" values="0 0 0 0 0 0 0 0 0 0 0 0 0 0 0 0 0 0 127 0" result="hardAlpha"/>
<feOffset/>
<feGaussianBlur stdDeviation="7.49243"/>
<feComposite in2="hardAlpha" operator="out"/>
<feColorMatrix type="matrix" values="0 0 0 0 1 0 0 0 0 1 0 0 0 0 1 0 0 0 0.49 0"/>
<feBlend mode="normal" in2="BackgroundImageFix" result="effect1_dropShadow_21731_45"/>
<feBlend mode="normal" in="SourceGraphic" in2="effect1_dropShadow_21731_45" result="shape"/>
</filter>
</defs>
</svg>
