<svg width="163" height="135" viewBox="0 0 163 135" fill="none" xmlns="http://www.w3.org/2000/svg">
<path d="M135.573 67.5009C135.573 104.586 105.464 134.65 68.3214 134.65C31.1787 134.65 1.06934 104.586 1.06934 67.5009C1.06934 30.4157 31.1787 0.351562 68.3214 0.351562C105.464 0.351562 135.573 30.4157 135.573 67.5009Z" fill="url(#paint0_radial_23588_582)" fill-opacity="0.27" stroke="#B4F9BA" stroke-width="0.5"/>
<path d="M85.7727 91.6153C88.2422 90.6595 90.6159 89.4919 92.8633 88.1374L93.1812 87.9458L92.8841 87.7232C92.2825 87.2726 91.6876 86.8014 91.1058 86.3165L90.9831 86.2142L90.8387 86.2825C77.0083 92.8296 61.8026 92.8301 47.8027 86.282L47.6578 86.2143L47.5356 86.3174C46.9613 86.8017 46.3669 87.2723 45.7594 87.7224L45.4591 87.9449L45.7794 88.1375C48.02 89.4853 50.3872 90.6527 52.8565 91.6085C51.5802 94.1368 50.1117 96.5417 48.4739 98.8116C41.5286 96.6297 34.4655 93.3115 27.1784 87.8855C25.6961 71.778 28.7132 55.4433 39.7842 38.6862C45.2278 36.1393 51.0493 34.279 57.1328 33.2104C57.8762 34.5583 58.7353 36.3149 59.3204 37.7204L59.3956 37.9011L59.5891 37.8714C66.0188 36.8863 72.5091 36.8862 79.0607 37.8715L79.2537 37.9005L79.3287 37.7204C79.9144 36.3138 80.7548 34.5575 81.4902 33.2106C87.5671 34.2791 93.3819 36.1327 98.8253 38.6729C108.427 53.0356 113.202 69.2219 111.464 87.8855C104.177 93.3184 97.107 96.6366 90.1548 98.8186C88.5116 96.5491 87.0489 94.1383 85.7727 91.6153ZM47.1845 69.305C47.1845 74.2122 50.73 78.2976 55.1201 78.2976C59.5848 78.2976 63.0615 74.212 63.0556 69.3066C63.1302 64.3884 59.582 60.3055 55.1201 60.3055C50.6544 60.3055 47.1845 64.3996 47.1845 69.305ZM75.5868 69.305C75.5868 74.2122 79.1323 78.2976 83.5224 78.2976L91.2079 69.305L91.4579 69.3088C91.4579 69.3081 91.4579 69.3075 91.4579 69.3068C91.5326 64.3885 87.9842 60.3055 83.5224 60.3055C79.0565 60.3055 75.5868 64.3996 75.5868 69.305Z" fill="url(#paint1_radial_23588_582)" fill-opacity="0.27" stroke="#B4F9BA" stroke-width="0.5"/>
<circle cx="127.397" cy="99.9004" r="34.5" fill="url(#paint2_radial_23588_582)" stroke="white" stroke-dasharray="3 3"/>
<g style="mix-blend-mode:luminosity">
<path d="M120.628 83.3233L127.12 79.5741C127.305 79.4675 127.534 79.4675 127.719 79.5741L144.829 89.4527C145.014 89.5593 145.128 89.7567 145.129 89.97L145.152 96.7643C145.152 96.9794 145.039 97.1785 144.852 97.2851L138.369 101.029C137.971 101.26 137.471 100.972 137.469 100.512L137.448 94.4142C137.448 94.2009 137.332 94.0035 137.148 93.8969L120.628 84.3614C120.228 84.1303 120.228 83.5544 120.628 83.3233Z" fill="white"/>
<path d="M116.432 114.103L109.942 110.356C109.755 110.249 109.641 110.052 109.641 109.837V90.0794C109.641 89.8661 109.755 89.6688 109.94 89.5603L115.813 86.1419C116 86.0334 116.229 86.0334 116.414 86.1419L122.897 89.8857C123.295 90.1168 123.297 90.691 122.899 90.9238L117.63 93.9903C117.445 94.097 117.331 94.2943 117.331 94.5094V113.586C117.331 114.048 116.832 114.336 116.432 114.105V114.103Z" fill="white"/>
<path d="M145.149 102.335V109.829C145.149 110.045 145.035 110.242 144.848 110.349L127.738 120.227C127.553 120.334 127.326 120.334 127.141 120.227L121.244 116.849C121.057 116.743 120.942 116.544 120.942 116.329V108.843C120.942 108.382 121.44 108.094 121.84 108.322L127.13 111.353C127.315 111.46 127.542 111.458 127.727 111.353L144.247 101.814C144.647 101.583 145.147 101.871 145.147 102.333L145.149 102.335Z" fill="white"/>
</g>
<defs>
<radialGradient id="paint0_radial_23588_582" cx="0" cy="0" r="1" gradientUnits="userSpaceOnUse" gradientTransform="translate(38.6933 28.9927) rotate(83.1564) scale(203.207 131.22)">
<stop stop-color="#A3F5AA"/>
<stop offset="0.4" stop-color="#82D289"/>
<stop offset="0.835" stop-color="#66AB6C"/>
<stop offset="1" stop-color="#386A3C"/>
</radialGradient>
<radialGradient id="paint1_radial_23588_582" cx="0" cy="0" r="1" gradientUnits="userSpaceOnUse" gradientTransform="translate(50.5598 47.1172) rotate(81.2003) scale(100.23 82.7043)">
<stop stop-color="#A3F5AA"/>
<stop offset="0.4" stop-color="#82D289"/>
<stop offset="0.835" stop-color="#66AB6C"/>
<stop offset="1" stop-color="#386A3C"/>
</radialGradient>
<radialGradient id="paint2_radial_23588_582" cx="0" cy="0" r="1" gradientUnits="userSpaceOnUse" gradientTransform="translate(112.035 79.9033) rotate(83.1667) scale(105.522 68.0393)">
<stop stop-color="#656565"/>
<stop offset="0.4" stop-color="#525252"/>
<stop offset="0.835" stop-color="#373737"/>
<stop offset="1" stop-color="#2F2F2F"/>
</radialGradient>
</defs>
</svg>
