<svg width="155" height="136" viewBox="0 0 155 136" fill="none" xmlns="http://www.w3.org/2000/svg">
<path d="M135.176 68.2294C135.176 105.315 105.067 135.379 67.9244 135.379C30.7818 135.379 0.672363 105.315 0.672363 68.2294C0.672363 31.1442 30.7818 1.08008 67.9244 1.08008C105.067 1.08008 135.176 31.1442 135.176 68.2294Z" fill="url(#paint0_radial_26623_1230)" fill-opacity="0.27" stroke="#B4F9BA" stroke-width="0.5"/>
<path d="M54.6744 94.5431L46.6731 72.3966L46.9494 66.8646L90.7761 46.3239L73.3657 79.9518L73.345 79.9733L73.2113 80.1122C73.0941 80.2338 72.922 80.4123 72.7026 80.6394C72.2639 81.0937 71.6358 81.7427 70.8788 82.5216C69.3646 84.0793 67.3348 86.1561 65.2715 88.2327C63.2079 90.3097 61.1125 92.3849 59.4666 93.9403C58.6433 94.7183 57.9352 95.3637 57.4011 95.8135C57.1336 96.0388 56.9139 96.2115 56.7475 96.3266C56.6639 96.3843 56.5988 96.4241 56.5511 96.4484C56.5269 96.4607 56.5124 96.4663 56.506 96.4686C56.3217 96.4638 56.117 96.3717 55.899 96.1985C55.6777 96.0225 55.4664 95.7817 55.2806 95.5311C55.0959 95.2818 54.9424 95.0312 54.8348 94.8421C54.7812 94.7478 54.7393 94.6694 54.711 94.615C54.6969 94.5879 54.6862 94.5667 54.6791 94.5526L54.6744 94.5431Z" fill="url(#paint1_radial_26623_1230)" fill-opacity="0.18" stroke="#B4F9BA" stroke-width="0.5"/>
<mask id="path-3-inside-1_26623_1230" fill="white">
<path d="M57.0588 78.1289L55.5187 94.4974C55.5187 94.4974 54.874 99.5129 59.8883 94.4974C64.9027 89.4819 68.604 84.819 68.604 84.819"/>
</mask>
<path d="M57.0588 78.1289L55.5187 94.4974C55.5187 94.4974 54.874 99.5129 59.8883 94.4974C64.9027 89.4819 68.604 84.819 68.604 84.819" fill="url(#paint2_radial_26623_1230)" fill-opacity="0.27"/>
<path d="M55.5187 94.4974L56.0146 94.5612L56.0157 94.5527L56.0165 94.5443L55.5187 94.4974ZM56.561 78.0821L55.0209 94.4506L56.0165 94.5443L57.5566 78.1757L56.561 78.0821ZM55.5187 94.4974C55.0228 94.4337 55.0227 94.4339 55.0227 94.4341C55.0227 94.4343 55.0226 94.4345 55.0226 94.4347C55.0226 94.4352 55.0225 94.4357 55.0224 94.4363C55.0223 94.4374 55.0221 94.4389 55.0219 94.4407C55.0214 94.4442 55.0209 94.449 55.0202 94.4549C55.0189 94.4667 55.0171 94.483 55.0151 94.5035C55.011 94.5444 55.006 94.602 55.0017 94.6724C54.9931 94.8126 54.9868 95.0074 54.9968 95.2255C55.0155 95.634 55.0942 96.2354 55.4217 96.6763C55.5975 96.913 55.8487 97.108 56.1871 97.1881C56.5167 97.266 56.8781 97.2229 57.2614 97.0831C58.0127 96.8091 58.9762 96.1169 60.2419 94.8509L59.5347 94.1439C58.2933 95.3857 57.457 95.9473 56.9188 96.1436C56.6575 96.2389 56.5017 96.2349 56.4173 96.2149C56.3415 96.197 56.2816 96.157 56.2245 96.0801C56.0864 95.8941 56.0129 95.5551 55.9958 95.1799C55.9878 95.0062 55.9928 94.8483 55.9998 94.7338C56.0033 94.6769 56.0073 94.6316 56.0102 94.6015C56.0117 94.5865 56.013 94.5753 56.0137 94.5684C56.0141 94.565 56.0144 94.5626 56.0146 94.5614C56.0146 94.5608 56.0147 94.5604 56.0147 94.5604C56.0147 94.5604 56.0147 94.5604 56.0147 94.5606C56.0147 94.5606 56.0146 94.5608 56.0146 94.5608C56.0146 94.561 56.0146 94.5612 55.5187 94.4974ZM60.2419 94.8509C62.7598 92.3325 64.947 89.9036 66.5046 88.1047C67.2835 87.205 67.9054 86.4624 68.333 85.9442C68.5468 85.6851 68.712 85.482 68.824 85.3435C68.88 85.2743 68.9227 85.2211 68.9515 85.1852C68.9659 85.1672 68.9768 85.1535 68.9842 85.1443C68.9879 85.1396 68.9907 85.1361 68.9926 85.1337C68.9935 85.1325 68.9943 85.1316 68.9948 85.1309C68.995 85.1306 68.9952 85.1304 68.9954 85.1302C68.9954 85.1301 68.9955 85.13 68.9955 85.13C68.9956 85.1299 68.9956 85.1299 68.604 84.819C68.2124 84.5082 68.2124 84.5082 68.2124 84.5082C68.2124 84.5082 68.2123 84.5082 68.2123 84.5083C68.2122 84.5084 68.2121 84.5086 68.2119 84.5088C68.2115 84.5093 68.2109 84.5101 68.21 84.5111C68.2083 84.5133 68.2057 84.5165 68.2023 84.5209C68.1954 84.5295 68.1849 84.5427 68.171 84.56C68.1431 84.5948 68.1014 84.6468 68.0463 84.7148C67.9363 84.8509 67.7732 85.0513 67.5617 85.3078C67.1385 85.8206 66.5217 86.5571 65.7486 87.4501C64.2018 89.2366 62.0312 91.6469 59.5347 94.1439L60.2419 94.8509Z" fill="#B4F9BA" mask="url(#path-3-inside-1_26623_1230)"/>
<path d="M28.9606 65.3174L28.9606 65.3172C29.0644 65.0204 29.2725 64.7401 30.0505 64.2004L30.051 64.2001C30.2586 64.0554 30.7031 63.8246 31.3754 63.5149C32.0411 63.2082 32.9132 62.8317 33.9622 62.3957C36.06 61.5237 38.8588 60.4165 42.1165 59.1588C48.6315 56.6436 56.9764 53.5285 65.208 50.4927C73.4394 47.4569 81.5567 44.5008 87.6161 42.3036C90.6458 41.205 93.1611 40.2961 94.9189 39.6619C95.7977 39.3448 96.4873 39.0964 96.9571 38.9272L97.4932 38.7342L97.6305 38.6848L97.6652 38.6724L97.6721 38.6698L97.6728 38.6696L97.674 38.6692L97.6759 38.6686L97.6762 38.6684L97.6898 38.6641C97.7022 38.66 97.7211 38.654 97.7457 38.6464C97.7949 38.6313 97.8671 38.6098 97.9573 38.5852C98.1379 38.536 98.3893 38.4744 98.6723 38.4253C99.2517 38.3246 99.9119 38.2857 100.378 38.4626L100.385 38.4654L100.392 38.4677C100.614 38.5363 100.813 38.6624 100.97 38.8333C101.127 39.0041 101.235 39.2135 101.284 39.4401L101.284 39.4401L101.286 39.4457C101.395 39.8997 101.441 40.3667 101.422 40.8334L101.422 40.8334L101.422 40.8407C101.419 41.0933 101.399 41.3266 101.376 41.613C101.36 41.7997 101.343 42.0088 101.327 42.2605L101.327 42.2608C101.231 43.81 100.434 47.9021 99.2834 53.1979C98.135 58.4828 96.6401 64.9408 95.1572 71.2033C93.6743 77.4655 92.2035 83.5314 91.1035 88.0317C90.5535 90.2818 90.0961 92.1405 89.7763 93.4367C89.6164 94.0848 89.4909 94.5922 89.4053 94.9376L89.3077 95.3315L89.2827 95.4323L89.2763 95.4578L89.2747 95.4642L89.2746 95.4647L89.2746 95.4648L89.2746 95.4649L89.2744 95.4654L89.2743 95.4658L89.2733 95.4696L89.2679 95.4892C89.2628 95.5069 89.2549 95.534 89.2437 95.569C89.2214 95.6391 89.1865 95.7408 89.1368 95.8639C89.0373 96.1106 88.8801 96.4393 88.65 96.7693C88.1902 97.4285 87.4542 98.0754 86.3082 98.1187C85.7273 98.1374 85.1485 98.0389 84.6064 97.8292C84.064 97.6194 83.5695 97.3025 83.1522 96.8975L83.1468 96.8923L83.1411 96.8874C78.2179 92.6525 61.236 81.2405 57.4929 78.7368C57.4382 78.6994 57.3922 78.6507 57.3578 78.5941L57.144 78.7237L57.3578 78.5941C57.3232 78.5371 57.3013 78.4735 57.2935 78.4073L57.2923 78.3977L57.2904 78.3881C57.2829 78.3499 57.3003 78.2711 57.3604 78.1653C57.3865 78.1194 57.4145 78.0792 57.4361 78.0504C57.4407 78.0443 57.4449 78.0387 57.4487 78.0339C57.4531 78.0283 57.4569 78.0235 57.46 78.0197L57.4678 78.0128L57.5312 77.9564L57.7785 77.7361C57.9952 77.543 58.313 77.2595 58.7178 76.8977C59.5274 76.174 60.6848 75.1372 62.076 73.8845C64.8585 71.3791 68.5769 68.0096 72.3201 64.5537C76.0628 61.0982 79.8321 57.5548 82.7155 54.7021C84.1568 53.2761 85.3794 52.0202 86.2673 51.0329C86.711 50.5395 87.074 50.1101 87.3397 49.7582C87.5975 49.4167 87.7873 49.1187 87.8508 48.8959L87.8508 48.8959C87.8792 48.7963 87.8793 48.6865 87.8316 48.5838C87.7844 48.4817 87.7024 48.4134 87.6159 48.373C87.4509 48.2959 87.2471 48.306 87.06 48.3627L87.053 48.3648L87.0462 48.3673C86.9023 48.4203 86.6371 48.5567 86.2833 48.752C85.9226 48.9511 85.4526 49.2213 84.8892 49.5523C83.7621 50.2145 82.2563 51.123 80.4941 52.1995C76.9694 54.3526 72.4152 57.18 67.8057 60.0587C58.6342 65.7862 49.2411 71.7176 47.296 72.946C47.0779 73.007 46.8491 73.0198 46.6255 72.9834L30.1496 67.6152L30.1408 67.6114C30.129 67.6062 30.1107 67.5979 30.087 67.5865C30.0397 67.5637 29.9715 67.5286 29.8908 67.4809C29.7285 67.3851 29.5214 67.2414 29.3346 67.0487C28.9681 66.6704 28.6823 66.1125 28.9606 65.3174Z" fill="url(#paint3_radial_26623_1230)" stroke="#B4F9BA" stroke-width="0.5"/>
<circle cx="120" cy="100.629" r="34.5" fill="url(#paint4_radial_26623_1230)" stroke="white" stroke-dasharray="3 3"/>
<g style="mix-blend-mode:luminosity">
<path d="M113.231 84.0518L119.723 80.3027C119.908 80.196 120.137 80.196 120.322 80.3027L137.432 90.1812C137.617 90.2879 137.731 90.4852 137.732 90.6985L137.755 97.4928C137.755 97.7079 137.642 97.907 137.455 98.0136L130.972 101.757C130.574 101.989 130.074 101.701 130.072 101.24L130.051 95.1427C130.051 94.9294 129.935 94.7321 129.751 94.6254L113.231 85.0899C112.831 84.8588 112.831 84.2829 113.231 84.0518Z" fill="white"/>
<path d="M109.035 114.831L102.545 111.084C102.358 110.977 102.244 110.78 102.244 110.565V90.8079C102.244 90.5946 102.358 90.3973 102.543 90.2889L108.416 86.8704C108.603 86.762 108.832 86.762 109.017 86.8704L115.5 90.6142C115.898 90.8453 115.9 91.4195 115.502 91.6523L110.233 94.7188C110.048 94.8255 109.934 95.0228 109.934 95.2379V114.314C109.934 114.776 109.435 115.064 109.035 114.833V114.831Z" fill="white"/>
<path d="M137.752 103.063V110.558C137.752 110.773 137.638 110.97 137.451 111.077L120.341 120.956C120.156 121.062 119.929 121.062 119.744 120.956L113.847 117.578C113.66 117.471 113.545 117.272 113.545 117.057V109.571C113.545 109.111 114.043 108.823 114.443 109.05L119.733 112.081C119.918 112.188 120.145 112.186 120.33 112.081L136.85 102.542C137.25 102.311 137.75 102.599 137.75 103.061L137.752 103.063Z" fill="white"/>
</g>
<defs>
<radialGradient id="paint0_radial_26623_1230" cx="0" cy="0" r="1" gradientUnits="userSpaceOnUse" gradientTransform="translate(38.2963 29.7212) rotate(83.1564) scale(203.207 131.22)">
<stop stop-color="#A3F5AA"/>
<stop offset="0.4" stop-color="#82D289"/>
<stop offset="0.835" stop-color="#66AB6C"/>
<stop offset="1" stop-color="#386A3C"/>
</radialGradient>
<radialGradient id="paint1_radial_26623_1230" cx="0" cy="0" r="1" gradientUnits="userSpaceOnUse" gradientTransform="translate(59.0215 56.7016) rotate(83.9677) scale(76.6592 43.7265)">
<stop stop-color="#A3F5AA"/>
<stop offset="0.4" stop-color="#82D289"/>
<stop offset="0.835" stop-color="#66AB6C"/>
<stop offset="1" stop-color="#386A3C"/>
</radialGradient>
<radialGradient id="paint2_radial_26623_1230" cx="0" cy="0" r="1" gradientUnits="userSpaceOnUse" gradientTransform="translate(59.4783 82.1149) rotate(84.7683) scale(27.9523 13.8535)">
<stop stop-color="#A3F5AA"/>
<stop offset="0.4" stop-color="#82D289"/>
<stop offset="0.835" stop-color="#66AB6C"/>
<stop offset="1" stop-color="#386A3C"/>
</radialGradient>
<radialGradient id="paint3_radial_26623_1230" cx="0" cy="0" r="1" gradientUnits="userSpaceOnUse" gradientTransform="translate(49.0998 51.0097) rotate(81.7344) scale(91.1725 70.7958)">
<stop stop-color="#679C6B"/>
<stop offset="0.835" stop-color="#638065"/>
<stop offset="1" stop-color="#386A3C"/>
</radialGradient>
<radialGradient id="paint4_radial_26623_1230" cx="0" cy="0" r="1" gradientUnits="userSpaceOnUse" gradientTransform="translate(104.638 80.6318) rotate(83.1667) scale(105.522 68.0393)">
<stop stop-color="#656565"/>
<stop offset="0.4" stop-color="#525252"/>
<stop offset="0.835" stop-color="#373737"/>
<stop offset="1" stop-color="#2F2F2F"/>
</radialGradient>
</defs>
</svg>
