<svg width="155" height="135" viewBox="0 0 155 135" fill="none" xmlns="http://www.w3.org/2000/svg">
<path d="M135.176 67.5009C135.176 104.586 105.067 134.65 67.9239 134.65C30.7813 134.65 0.671875 104.586 0.671875 67.5009C0.671875 30.4157 30.7813 0.351562 67.9239 0.351562C105.067 0.351562 135.176 30.4157 135.176 67.5009Z" fill="url(#paint0_radial_28101_1397)" fill-opacity="0.27" stroke="#B4F9BA" stroke-width="0.5"/>
<path d="M54.6734 93.8146L46.6721 71.6681L46.9484 66.1361L90.7751 45.5954L73.3647 79.2233L73.344 79.2448L73.2103 79.3837C73.0931 79.5053 72.9211 79.6838 72.7017 79.9109C72.2629 80.3652 71.6348 81.0142 70.8778 81.7931C69.3636 83.3508 67.3338 85.4276 65.2706 87.5042C63.2069 89.5812 61.1115 91.6564 59.4657 93.2118C58.6423 93.9898 57.9343 94.6352 57.4002 95.0849C57.1326 95.3103 56.9129 95.483 56.7465 95.598C56.663 95.6558 56.5979 95.6956 56.5501 95.7199C56.5259 95.7322 56.5115 95.7378 56.505 95.7401C56.3207 95.7353 56.1161 95.6432 55.8981 95.4699C55.6767 95.294 55.4655 95.0532 55.2797 94.8025C55.0949 94.5533 54.9414 94.3027 54.8338 94.1136C54.7802 94.0193 54.7383 93.9409 54.71 93.8865C54.6959 93.8593 54.6852 93.8382 54.6781 93.8241L54.6734 93.8146Z" fill="url(#paint1_radial_28101_1397)" fill-opacity="0.18" stroke="#B4F9BA" stroke-width="0.5"/>
<mask id="path-3-inside-1_28101_1397" fill="white">
<path d="M57.0574 77.4004L55.5172 93.7689C55.5172 93.7689 54.8725 98.7844 59.8869 93.7689C64.9012 88.7534 68.6025 84.0905 68.6025 84.0905"/>
</mask>
<path d="M57.0574 77.4004L55.5172 93.7689C55.5172 93.7689 54.8725 98.7844 59.8869 93.7689C64.9012 88.7534 68.6025 84.0905 68.6025 84.0905" fill="url(#paint2_radial_28101_1397)" fill-opacity="0.27"/>
<path d="M55.5172 93.7689L56.0131 93.8326L56.0142 93.8242L56.015 93.8157L55.5172 93.7689ZM56.5596 77.3536L55.0194 93.7221L56.015 93.8157L57.5552 77.4472L56.5596 77.3536ZM55.5172 93.7689C55.0213 93.7052 55.0213 93.7054 55.0212 93.7056C55.0212 93.7057 55.0212 93.706 55.0212 93.7062C55.0211 93.7067 55.021 93.7072 55.021 93.7077C55.0208 93.7089 55.0206 93.7104 55.0204 93.7122C55.02 93.7157 55.0194 93.7205 55.0187 93.7264C55.0174 93.7382 55.0156 93.7545 55.0136 93.775C55.0096 93.8159 55.0046 93.8735 55.0002 93.9439C54.9916 94.0841 54.9854 94.2789 54.9953 94.497C55.014 94.9055 55.0928 95.5069 55.4203 95.9478C55.596 96.1844 55.8472 96.3795 56.1856 96.4595C56.5153 96.5375 56.8767 96.4943 57.26 96.3545C58.0112 96.0806 58.9748 95.3884 60.2405 94.1224L59.5333 93.4154C58.2918 94.6572 57.4556 95.2188 56.9174 95.4151C56.656 95.5104 56.5003 95.5064 56.4158 95.4864C56.34 95.4685 56.2801 95.4284 56.2231 95.3516C56.0849 95.1656 56.0115 94.8266 55.9943 94.4514C55.9864 94.2777 55.9913 94.1198 55.9984 94.0053C56.0019 93.9484 56.0058 93.9031 56.0088 93.873C56.0103 93.858 56.0115 93.8468 56.0123 93.8399C56.0127 93.8364 56.013 93.8341 56.0131 93.8329C56.0132 93.8322 56.0132 93.8319 56.0132 93.8319C56.0132 93.8319 56.0132 93.8319 56.0132 93.832C56.0132 93.8321 56.0132 93.8323 56.0132 93.8323C56.0132 93.8325 56.0131 93.8326 55.5172 93.7689ZM60.2405 94.1224C62.7584 91.604 64.9456 89.1751 66.5031 87.3762C67.282 86.4765 67.904 85.7339 68.3315 85.2157C68.5453 84.9566 68.7105 84.7535 68.8225 84.615C68.8785 84.5458 68.9212 84.4926 68.95 84.4567C68.9644 84.4387 68.9753 84.425 68.9827 84.4157C68.9864 84.4111 68.9892 84.4076 68.9911 84.4052C68.9921 84.404 68.9928 84.4031 68.9933 84.4024C68.9936 84.4021 68.9938 84.4019 68.9939 84.4017C68.994 84.4016 68.994 84.4015 68.9941 84.4015C68.9941 84.4014 68.9942 84.4014 68.6025 84.0905C68.2109 83.7796 68.2109 83.7796 68.2109 83.7796C68.2109 83.7797 68.2109 83.7797 68.2108 83.7798C68.2107 83.7799 68.2106 83.78 68.2104 83.7803C68.21 83.7808 68.2094 83.7816 68.2086 83.7826C68.2069 83.7847 68.2043 83.788 68.2008 83.7923C68.1939 83.801 68.1834 83.8141 68.1695 83.8315C68.1416 83.8663 68.0999 83.9183 68.0449 83.9863C67.9349 84.1224 67.7718 84.3228 67.5602 84.5792C67.1371 85.0921 66.5203 85.8286 65.7471 86.7216C64.2004 88.508 62.0297 90.9184 59.5333 93.4154L60.2405 94.1224Z" fill="#B4F9BA" mask="url(#path-3-inside-1_28101_1397)"/>
<path d="M28.9596 64.5888L28.9597 64.5887C29.0634 64.2919 29.2715 64.0115 30.0496 63.4719L30.05 63.4716C30.2576 63.3269 30.7021 63.0961 31.3744 62.7864C32.0402 62.4797 32.9122 62.1032 33.9613 61.6671C36.0591 60.7951 38.8578 59.688 42.1155 58.4303C48.6305 55.9151 56.9754 52.8 65.207 49.7642C73.4384 46.7284 81.5557 43.7723 87.6151 41.5751C90.6449 40.4764 93.1601 39.5676 94.9179 38.9334C95.7968 38.6163 96.4863 38.3678 96.9561 38.1987L97.4922 38.0057L97.6295 37.9563L97.6643 37.9438L97.6711 37.9413L97.6718 37.9411L97.673 37.9407L97.675 37.94L97.6752 37.9399L97.6888 37.9355C97.7013 37.9315 97.7201 37.9255 97.7447 37.9179C97.7939 37.9028 97.8661 37.8813 97.9563 37.8567C98.1369 37.8074 98.3883 37.7459 98.6713 37.6968C99.2507 37.5961 99.9109 37.5571 100.377 37.7341L100.384 37.7369L100.391 37.7392C100.613 37.8078 100.812 37.9339 100.969 38.1048C101.126 38.2756 101.234 38.485 101.283 38.7115L101.283 38.7116L101.285 38.7172C101.394 39.1712 101.44 39.6382 101.421 40.1049L101.421 40.1049L101.421 40.1122C101.418 40.3647 101.398 40.5981 101.375 40.8845C101.359 41.0711 101.342 41.2803 101.326 41.532L101.326 41.5323C101.23 43.0815 100.433 47.1736 99.2824 52.4694C98.134 57.7543 96.6392 64.2122 95.1562 70.4748C93.6733 76.737 92.2025 82.8028 91.1025 87.3032C90.5525 89.5533 90.0951 91.412 89.7753 92.7082C89.6154 93.3562 89.4899 93.8637 89.4043 94.2091L89.3067 94.603L89.2817 94.7038L89.2754 94.7293L89.2738 94.7357L89.2736 94.7362L89.2736 94.7362L89.2736 94.7363L89.2735 94.7369L89.2734 94.7373L89.2723 94.7411L89.2669 94.7606C89.2619 94.7784 89.2539 94.8055 89.2427 94.8405C89.2204 94.9106 89.1855 95.0123 89.1358 95.1353C89.0363 95.3821 88.8791 95.7107 88.649 96.0408C88.1893 96.7 87.4532 97.3469 86.3072 97.3902C85.7263 97.4088 85.1475 97.3104 84.6054 97.1007C84.0631 96.8909 83.5685 96.574 83.1513 96.169L83.1459 96.1638L83.1402 96.1589C78.2169 91.924 61.235 80.5119 57.4919 78.0083C57.4372 77.9709 57.3912 77.9222 57.3568 77.8656L57.1431 77.9952L57.3568 77.8655C57.3223 77.8086 57.3003 77.7449 57.2925 77.6788L57.2914 77.6692L57.2895 77.6596C57.2819 77.6214 57.2993 77.5426 57.3594 77.4368C57.3855 77.3909 57.4135 77.3507 57.4351 77.3218C57.4397 77.3157 57.4439 77.3102 57.4477 77.3054C57.4521 77.2997 57.4559 77.295 57.459 77.2912L57.4668 77.2843L57.5302 77.2279L57.7776 77.0076C57.9942 76.8145 58.3121 76.531 58.7169 76.1691C59.5264 75.4455 60.6838 74.4087 62.0751 73.156C64.8576 70.6505 68.576 67.281 72.3191 63.8252C76.0619 60.3697 79.8311 56.8263 82.7145 53.9736C84.1559 52.5476 85.3784 51.2917 86.2663 50.3044C86.71 49.811 87.073 49.3816 87.3388 49.0297C87.5966 48.6882 87.7863 48.3901 87.8498 48.1674L87.8498 48.1674C87.8782 48.0678 87.8783 47.958 87.8307 47.8552C87.7834 47.7532 87.7015 47.6849 87.6149 47.6445C87.4499 47.5674 87.2461 47.5775 87.0591 47.6342L87.0521 47.6363L87.0452 47.6388C86.9013 47.6917 86.6361 47.8282 86.2824 48.0235C85.9217 48.2226 85.4516 48.4928 84.8882 48.8238C83.7611 49.486 82.2553 50.3945 80.4931 51.471C76.9684 53.6241 72.4142 56.4515 67.8047 59.3301C58.6332 65.0577 49.2402 70.9891 47.295 72.2175C47.077 72.2785 46.8482 72.2913 46.6245 72.2549L30.1486 66.8867L30.1398 66.8829C30.128 66.8777 30.1097 66.8694 30.0861 66.858C30.0388 66.8351 29.9705 66.8001 29.8898 66.7524C29.7275 66.6566 29.5205 66.5129 29.3337 66.3201C28.9671 65.9419 28.6813 65.384 28.9596 64.5888Z" fill="url(#paint3_radial_28101_1397)"/>
<path d="M28.9596 64.5888L28.9597 64.5887C29.0634 64.2919 29.2715 64.0115 30.0496 63.4719L30.05 63.4716C30.2576 63.3269 30.7021 63.0961 31.3744 62.7864C32.0402 62.4797 32.9122 62.1032 33.9613 61.6671C36.0591 60.7951 38.8578 59.688 42.1155 58.4303C48.6305 55.9151 56.9754 52.8 65.207 49.7642C73.4384 46.7284 81.5557 43.7723 87.6151 41.5751C90.6449 40.4764 93.1601 39.5676 94.9179 38.9334C95.7968 38.6163 96.4863 38.3678 96.9561 38.1987L97.4922 38.0057L97.6295 37.9563L97.6643 37.9438L97.6711 37.9413L97.6718 37.9411L97.673 37.9407L97.675 37.94L97.6752 37.9399L97.6888 37.9355C97.7013 37.9315 97.7201 37.9255 97.7447 37.9179C97.7939 37.9028 97.8661 37.8813 97.9563 37.8567C98.1369 37.8074 98.3883 37.7459 98.6713 37.6968C99.2507 37.5961 99.9109 37.5571 100.377 37.7341L100.384 37.7369L100.391 37.7392C100.613 37.8078 100.812 37.9339 100.969 38.1048C101.126 38.2756 101.234 38.485 101.283 38.7115L101.283 38.7116L101.285 38.7172C101.394 39.1712 101.44 39.6382 101.421 40.1049L101.421 40.1049L101.421 40.1122C101.418 40.3647 101.398 40.5981 101.375 40.8845C101.359 41.0711 101.342 41.2803 101.326 41.532L101.326 41.5323C101.23 43.0815 100.433 47.1736 99.2824 52.4694C98.134 57.7543 96.6392 64.2122 95.1562 70.4748C93.6733 76.737 92.2025 82.8028 91.1025 87.3032C90.5525 89.5533 90.0951 91.412 89.7753 92.7082C89.6154 93.3562 89.4899 93.8637 89.4043 94.2091L89.3067 94.603L89.2817 94.7038L89.2754 94.7293L89.2738 94.7357L89.2736 94.7362L89.2736 94.7362L89.2736 94.7363L89.2735 94.7369L89.2734 94.7373L89.2723 94.7411L89.2669 94.7606C89.2619 94.7784 89.2539 94.8055 89.2427 94.8405C89.2204 94.9106 89.1855 95.0123 89.1358 95.1353C89.0363 95.3821 88.8791 95.7107 88.649 96.0408C88.1893 96.7 87.4532 97.3469 86.3072 97.3902C85.7263 97.4088 85.1475 97.3104 84.6054 97.1007C84.0631 96.8909 83.5685 96.574 83.1513 96.169L83.1459 96.1638L83.1402 96.1589C78.2169 91.924 61.235 80.5119 57.4919 78.0083C57.4372 77.9709 57.3912 77.9222 57.3568 77.8656L57.1431 77.9952L57.3568 77.8655C57.3223 77.8086 57.3003 77.7449 57.2925 77.6788L57.2914 77.6692L57.2895 77.6596C57.2819 77.6214 57.2993 77.5426 57.3594 77.4368C57.3855 77.3909 57.4135 77.3507 57.4351 77.3218C57.4397 77.3157 57.4439 77.3102 57.4477 77.3054C57.4521 77.2997 57.4559 77.295 57.459 77.2912L57.4668 77.2843L57.5302 77.2279L57.7776 77.0076C57.9942 76.8145 58.3121 76.531 58.7169 76.1691C59.5264 75.4455 60.6838 74.4087 62.0751 73.156C64.8576 70.6505 68.576 67.281 72.3191 63.8252C76.0619 60.3697 79.8311 56.8263 82.7145 53.9736C84.1559 52.5476 85.3784 51.2917 86.2663 50.3044C86.71 49.811 87.073 49.3816 87.3388 49.0297C87.5966 48.6882 87.7863 48.3901 87.8498 48.1674L87.8498 48.1674C87.8782 48.0678 87.8783 47.958 87.8307 47.8552C87.7834 47.7532 87.7015 47.6849 87.6149 47.6445C87.4499 47.5674 87.2461 47.5775 87.0591 47.6342L87.0521 47.6363L87.0452 47.6388C86.9013 47.6917 86.6361 47.8282 86.2824 48.0235C85.9217 48.2226 85.4516 48.4928 84.8882 48.8238C83.7611 49.486 82.2553 50.3945 80.4931 51.471C76.9684 53.6241 72.4142 56.4515 67.8047 59.3301C58.6332 65.0577 49.2402 70.9891 47.295 72.2175C47.077 72.2785 46.8482 72.2913 46.6245 72.2549L30.1486 66.8867L30.1398 66.8829C30.128 66.8777 30.1097 66.8694 30.0861 66.858C30.0388 66.8351 29.9705 66.8001 29.8898 66.7524C29.7275 66.6566 29.5205 66.5129 29.3337 66.3201C28.9671 65.9419 28.6813 65.384 28.9596 64.5888Z" fill="white"/>
<path d="M28.9596 64.5888L28.9597 64.5887C29.0634 64.2919 29.2715 64.0115 30.0496 63.4719L30.05 63.4716C30.2576 63.3269 30.7021 63.0961 31.3744 62.7864C32.0402 62.4797 32.9122 62.1032 33.9613 61.6671C36.0591 60.7951 38.8578 59.688 42.1155 58.4303C48.6305 55.9151 56.9754 52.8 65.207 49.7642C73.4384 46.7284 81.5557 43.7723 87.6151 41.5751C90.6449 40.4764 93.1601 39.5676 94.9179 38.9334C95.7968 38.6163 96.4863 38.3678 96.9561 38.1987L97.4922 38.0057L97.6295 37.9563L97.6643 37.9438L97.6711 37.9413L97.6718 37.9411L97.673 37.9407L97.675 37.94L97.6752 37.9399L97.6888 37.9355C97.7013 37.9315 97.7201 37.9255 97.7447 37.9179C97.7939 37.9028 97.8661 37.8813 97.9563 37.8567C98.1369 37.8074 98.3883 37.7459 98.6713 37.6968C99.2507 37.5961 99.9109 37.5571 100.377 37.7341L100.384 37.7369L100.391 37.7392C100.613 37.8078 100.812 37.9339 100.969 38.1048C101.126 38.2756 101.234 38.485 101.283 38.7115L101.283 38.7116L101.285 38.7172C101.394 39.1712 101.44 39.6382 101.421 40.1049L101.421 40.1049L101.421 40.1122C101.418 40.3647 101.398 40.5981 101.375 40.8845C101.359 41.0711 101.342 41.2803 101.326 41.532L101.326 41.5323C101.23 43.0815 100.433 47.1736 99.2824 52.4694C98.134 57.7543 96.6392 64.2122 95.1562 70.4748C93.6733 76.737 92.2025 82.8028 91.1025 87.3032C90.5525 89.5533 90.0951 91.412 89.7753 92.7082C89.6154 93.3562 89.4899 93.8637 89.4043 94.2091L89.3067 94.603L89.2817 94.7038L89.2754 94.7293L89.2738 94.7357L89.2736 94.7362L89.2736 94.7362L89.2736 94.7363L89.2735 94.7369L89.2734 94.7373L89.2723 94.7411L89.2669 94.7606C89.2619 94.7784 89.2539 94.8055 89.2427 94.8405C89.2204 94.9106 89.1855 95.0123 89.1358 95.1353C89.0363 95.3821 88.8791 95.7107 88.649 96.0408C88.1893 96.7 87.4532 97.3469 86.3072 97.3902C85.7263 97.4088 85.1475 97.3104 84.6054 97.1007C84.0631 96.8909 83.5685 96.574 83.1513 96.169L83.1459 96.1638L83.1402 96.1589C78.2169 91.924 61.235 80.5119 57.4919 78.0083C57.4372 77.9709 57.3912 77.9222 57.3568 77.8656L57.1431 77.9952L57.3568 77.8655C57.3223 77.8086 57.3003 77.7449 57.2925 77.6788L57.2914 77.6692L57.2895 77.6596C57.2819 77.6214 57.2993 77.5426 57.3594 77.4368C57.3855 77.3909 57.4135 77.3507 57.4351 77.3218C57.4397 77.3157 57.4439 77.3102 57.4477 77.3054C57.4521 77.2997 57.4559 77.295 57.459 77.2912L57.4668 77.2843L57.5302 77.2279L57.7776 77.0076C57.9942 76.8145 58.3121 76.531 58.7169 76.1691C59.5264 75.4455 60.6838 74.4087 62.0751 73.156C64.8576 70.6505 68.576 67.281 72.3191 63.8252C76.0619 60.3697 79.8311 56.8263 82.7145 53.9736C84.1559 52.5476 85.3784 51.2917 86.2663 50.3044C86.71 49.811 87.073 49.3816 87.3388 49.0297C87.5966 48.6882 87.7863 48.3901 87.8498 48.1674L87.8498 48.1674C87.8782 48.0678 87.8783 47.958 87.8307 47.8552C87.7834 47.7532 87.7015 47.6849 87.6149 47.6445C87.4499 47.5674 87.2461 47.5775 87.0591 47.6342L87.0521 47.6363L87.0452 47.6388C86.9013 47.6917 86.6361 47.8282 86.2824 48.0235C85.9217 48.2226 85.4516 48.4928 84.8882 48.8238C83.7611 49.486 82.2553 50.3945 80.4931 51.471C76.9684 53.6241 72.4142 56.4515 67.8047 59.3301C58.6332 65.0577 49.2402 70.9891 47.295 72.2175C47.077 72.2785 46.8482 72.2913 46.6245 72.2549L30.1486 66.8867L30.1398 66.8829C30.128 66.8777 30.1097 66.8694 30.0861 66.858C30.0388 66.8351 29.9705 66.8001 29.8898 66.7524C29.7275 66.6566 29.5205 66.5129 29.3337 66.3201C28.9671 65.9419 28.6813 65.384 28.9596 64.5888Z" stroke="#B4F9BA" stroke-width="0.5"/>
<circle cx="120" cy="99.9004" r="34.5" fill="url(#paint4_radial_28101_1397)" stroke="white" stroke-dasharray="3 3"/>
<g style="mix-blend-mode:luminosity">
<path d="M113.23 83.3233L119.722 79.5741C119.907 79.4675 120.136 79.4675 120.321 79.5741L137.431 89.4527C137.616 89.5593 137.73 89.7567 137.731 89.97L137.755 96.7643C137.755 96.9794 137.641 97.1785 137.454 97.2851L130.971 101.029C130.573 101.26 130.073 100.972 130.071 100.512L130.05 94.4142C130.05 94.2009 129.935 94.0035 129.75 93.8969L113.23 84.3614C112.83 84.1303 112.83 83.5544 113.23 83.3233Z" fill="white"/>
<path d="M109.035 114.103L102.545 110.356C102.358 110.249 102.244 110.052 102.244 109.837V90.0794C102.244 89.8661 102.358 89.6688 102.543 89.5603L108.416 86.1419C108.603 86.0334 108.832 86.0334 109.017 86.1419L115.5 89.8857C115.898 90.1168 115.9 90.691 115.502 90.9238L110.233 93.9903C110.048 94.097 109.934 94.2943 109.934 94.5094V113.586C109.934 114.048 109.435 114.336 109.035 114.105V114.103Z" fill="white"/>
<path d="M137.752 102.335V109.829C137.752 110.045 137.638 110.242 137.451 110.349L120.341 120.227C120.156 120.334 119.929 120.334 119.744 120.227L113.847 116.849C113.66 116.743 113.545 116.544 113.545 116.329V108.843C113.545 108.382 114.043 108.094 114.443 108.322L119.733 111.353C119.918 111.46 120.145 111.458 120.33 111.353L136.85 101.814C137.25 101.583 137.75 101.871 137.75 102.333L137.752 102.335Z" fill="white"/>
</g>
<defs>
<radialGradient id="paint0_radial_28101_1397" cx="0" cy="0" r="1" gradientUnits="userSpaceOnUse" gradientTransform="translate(38.2959 28.9927) rotate(83.1564) scale(203.207 131.22)">
<stop stop-color="#A3F5AA"/>
<stop offset="0.4" stop-color="#82D289"/>
<stop offset="0.835" stop-color="#66AB6C"/>
<stop offset="1" stop-color="#386A3C"/>
</radialGradient>
<radialGradient id="paint1_radial_28101_1397" cx="0" cy="0" r="1" gradientUnits="userSpaceOnUse" gradientTransform="translate(59.0205 55.9731) rotate(83.9677) scale(76.6592 43.7265)">
<stop stop-color="#A3F5AA"/>
<stop offset="0.4" stop-color="#82D289"/>
<stop offset="0.835" stop-color="#66AB6C"/>
<stop offset="1" stop-color="#386A3C"/>
</radialGradient>
<radialGradient id="paint2_radial_28101_1397" cx="0" cy="0" r="1" gradientUnits="userSpaceOnUse" gradientTransform="translate(59.4769 81.3864) rotate(84.7683) scale(27.9523 13.8535)">
<stop stop-color="#A3F5AA"/>
<stop offset="0.4" stop-color="#82D289"/>
<stop offset="0.835" stop-color="#66AB6C"/>
<stop offset="1" stop-color="#386A3C"/>
</radialGradient>
<radialGradient id="paint3_radial_28101_1397" cx="0" cy="0" r="1" gradientUnits="userSpaceOnUse" gradientTransform="translate(49.0988 50.2812) rotate(81.7344) scale(91.1725 70.7958)">
<stop stop-color="#679C6B"/>
<stop offset="0.835" stop-color="#638065"/>
<stop offset="1" stop-color="#386A3C"/>
</radialGradient>
<radialGradient id="paint4_radial_28101_1397" cx="0" cy="0" r="1" gradientUnits="userSpaceOnUse" gradientTransform="translate(104.638 79.9033) rotate(83.1667) scale(105.522 68.0393)">
<stop stop-color="#656565"/>
<stop offset="0.4" stop-color="#525252"/>
<stop offset="0.835" stop-color="#373737"/>
<stop offset="1" stop-color="#2F2F2F"/>
</radialGradient>
</defs>
</svg>
