<svg width="163" height="135" viewBox="0 0 163 135" fill="none" xmlns="http://www.w3.org/2000/svg">
<path d="M135.653 67.5009C135.653 104.586 105.543 134.65 68.4005 134.65C31.2579 134.65 1.14844 104.586 1.14844 67.5009C1.14844 30.4157 31.2579 0.351562 68.4005 0.351562C105.543 0.351562 135.653 30.4157 135.653 67.5009Z" fill="url(#paint0_radial_28101_1353)" fill-opacity="0.27" stroke="#B4F9BA" stroke-width="0.5"/>
<path d="M85.8523 91.6153C88.3218 90.6595 90.6955 89.4919 92.9429 88.1374L93.2608 87.9458L92.9637 87.7232C92.3621 87.2726 91.7672 86.8014 91.1853 86.3165L91.0627 86.2142L90.9183 86.2825C77.0878 92.8296 61.8822 92.8301 47.8823 86.282L47.7374 86.2143L47.6152 86.3174C47.0409 86.8017 46.4465 87.2723 45.839 87.7224L45.5387 87.9449L45.8589 88.1375C48.0996 89.4853 50.4668 90.6527 52.9361 91.6085C51.6598 94.1368 50.1913 96.5417 48.5534 98.8116C41.6082 96.6297 34.545 93.3115 27.2579 87.8855C25.7757 71.778 28.7928 55.4433 39.8638 38.6862C45.3074 36.1393 51.1289 34.279 57.2124 33.2104C57.9558 34.5583 58.8149 36.3149 59.4 37.7204L59.4752 37.9011L59.6686 37.8714C66.0984 36.8863 72.5887 36.8862 79.1403 37.8715L79.3333 37.9005L79.4083 37.7204C79.994 36.3138 80.8344 34.5575 81.5698 33.2106C87.6467 34.2791 93.4615 36.1327 98.9049 38.6729C108.506 53.0356 113.282 69.2219 111.544 87.8855C104.256 93.3184 97.1866 96.6366 90.2344 98.8186C88.5911 96.5491 87.1285 94.1383 85.8523 91.6153ZM47.2641 69.305C47.2641 74.2122 50.8096 78.2976 55.1997 78.2976C59.6643 78.2976 63.1411 74.212 63.1352 69.3066C63.2098 64.3884 59.6616 60.3055 55.1997 60.3055C50.7339 60.3055 47.2641 64.3996 47.2641 69.305ZM75.6664 69.305C75.6664 74.2122 79.2119 78.2976 83.602 78.2976L91.2875 69.305L91.5375 69.3088C91.5375 69.3081 91.5375 69.3075 91.5375 69.3068C91.6122 64.3885 88.0638 60.3055 83.602 60.3055C79.1361 60.3055 75.6664 64.3996 75.6664 69.305Z" fill="url(#paint1_radial_28101_1353)" fill-opacity="0.27"/>
<path d="M85.8523 91.6153C88.3218 90.6595 90.6955 89.4919 92.9429 88.1374L93.2608 87.9458L92.9637 87.7232C92.3621 87.2726 91.7672 86.8014 91.1853 86.3165L91.0627 86.2142L90.9183 86.2825C77.0878 92.8296 61.8822 92.8301 47.8823 86.282L47.7374 86.2143L47.6152 86.3174C47.0409 86.8017 46.4465 87.2723 45.839 87.7224L45.5387 87.9449L45.8589 88.1375C48.0996 89.4853 50.4668 90.6527 52.9361 91.6085C51.6598 94.1368 50.1913 96.5417 48.5534 98.8116C41.6082 96.6297 34.545 93.3115 27.2579 87.8855C25.7757 71.778 28.7928 55.4433 39.8638 38.6862C45.3074 36.1393 51.1289 34.279 57.2124 33.2104C57.9558 34.5583 58.8149 36.3149 59.4 37.7204L59.4752 37.9011L59.6686 37.8714C66.0984 36.8863 72.5887 36.8862 79.1403 37.8715L79.3333 37.9005L79.4083 37.7204C79.994 36.3138 80.8344 34.5575 81.5698 33.2106C87.6467 34.2791 93.4615 36.1327 98.9049 38.6729C108.506 53.0356 113.282 69.2219 111.544 87.8855C104.256 93.3184 97.1866 96.6366 90.2344 98.8186C88.5911 96.5491 87.1285 94.1383 85.8523 91.6153ZM47.2641 69.305C47.2641 74.2122 50.8096 78.2976 55.1997 78.2976C59.6643 78.2976 63.1411 74.212 63.1352 69.3066C63.2098 64.3884 59.6616 60.3055 55.1997 60.3055C50.7339 60.3055 47.2641 64.3996 47.2641 69.305ZM75.6664 69.305C75.6664 74.2122 79.2119 78.2976 83.602 78.2976L91.2875 69.305L91.5375 69.3088C91.5375 69.3081 91.5375 69.3075 91.5375 69.3068C91.6122 64.3885 88.0638 60.3055 83.602 60.3055C79.1361 60.3055 75.6664 64.3996 75.6664 69.305Z" fill="white"/>
<path d="M85.8523 91.6153C88.3218 90.6595 90.6955 89.4919 92.9429 88.1374L93.2608 87.9458L92.9637 87.7232C92.3621 87.2726 91.7672 86.8014 91.1853 86.3165L91.0627 86.2142L90.9183 86.2825C77.0878 92.8296 61.8822 92.8301 47.8823 86.282L47.7374 86.2143L47.6152 86.3174C47.0409 86.8017 46.4465 87.2723 45.839 87.7224L45.5387 87.9449L45.8589 88.1375C48.0996 89.4853 50.4668 90.6527 52.9361 91.6085C51.6598 94.1368 50.1913 96.5417 48.5534 98.8116C41.6082 96.6297 34.545 93.3115 27.2579 87.8855C25.7757 71.778 28.7928 55.4433 39.8638 38.6862C45.3074 36.1393 51.1289 34.279 57.2124 33.2104C57.9558 34.5583 58.8149 36.3149 59.4 37.7204L59.4752 37.9011L59.6686 37.8714C66.0984 36.8863 72.5887 36.8862 79.1403 37.8715L79.3333 37.9005L79.4083 37.7204C79.994 36.3138 80.8344 34.5575 81.5698 33.2106C87.6467 34.2791 93.4615 36.1327 98.9049 38.6729C108.506 53.0356 113.282 69.2219 111.544 87.8855C104.256 93.3184 97.1866 96.6366 90.2344 98.8186C88.5911 96.5491 87.1285 94.1383 85.8523 91.6153ZM47.2641 69.305C47.2641 74.2122 50.8096 78.2976 55.1997 78.2976C59.6643 78.2976 63.1411 74.212 63.1352 69.3066C63.2098 64.3884 59.6616 60.3055 55.1997 60.3055C50.7339 60.3055 47.2641 64.3996 47.2641 69.305ZM75.6664 69.305C75.6664 74.2122 79.2119 78.2976 83.602 78.2976L91.2875 69.305L91.5375 69.3088C91.5375 69.3081 91.5375 69.3075 91.5375 69.3068C91.6122 64.3885 88.0638 60.3055 83.602 60.3055C79.1361 60.3055 75.6664 64.3996 75.6664 69.305Z" stroke="#B4F9BA" stroke-width="0.5"/>
<circle cx="127.477" cy="99.9004" r="34.5" fill="url(#paint2_radial_28101_1353)" stroke="white" stroke-dasharray="3 3"/>
<g style="mix-blend-mode:luminosity">
<path d="M120.706 83.3233L127.198 79.5741C127.383 79.4675 127.613 79.4675 127.797 79.5741L144.908 89.4527C145.092 89.5593 145.206 89.7567 145.208 89.97L145.231 96.7643C145.231 96.9794 145.117 97.1785 144.931 97.2851L138.447 101.029C138.049 101.26 137.55 100.972 137.548 100.512L137.527 94.4142C137.527 94.2009 137.411 94.0035 137.226 93.8969L120.706 84.3614C120.306 84.1303 120.306 83.5544 120.706 83.3233Z" fill="white"/>
<path d="M116.511 114.103L110.021 110.356C109.834 110.249 109.721 110.052 109.721 109.837V90.0794C109.721 89.8661 109.834 89.6688 110.019 89.5603L115.893 86.1419C116.079 86.0334 116.309 86.0334 116.494 86.1419L122.977 89.8857C123.375 90.1168 123.377 90.691 122.979 90.9238L117.71 93.9903C117.525 94.097 117.411 94.2943 117.411 94.5094V113.586C117.411 114.048 116.911 114.336 116.511 114.105V114.103Z" fill="white"/>
<path d="M145.228 102.335V109.829C145.228 110.045 145.114 110.242 144.928 110.349L127.818 120.227C127.633 120.334 127.405 120.334 127.22 120.227L121.324 116.849C121.137 116.743 121.021 116.544 121.021 116.329V108.843C121.021 108.382 121.519 108.094 121.919 108.322L127.21 111.353C127.394 111.46 127.622 111.458 127.807 111.353L144.327 101.814C144.727 101.583 145.226 101.871 145.226 102.333L145.228 102.335Z" fill="white"/>
</g>
<defs>
<radialGradient id="paint0_radial_28101_1353" cx="0" cy="0" r="1" gradientUnits="userSpaceOnUse" gradientTransform="translate(38.7724 28.9927) rotate(83.1564) scale(203.207 131.22)">
<stop stop-color="#A3F5AA"/>
<stop offset="0.4" stop-color="#82D289"/>
<stop offset="0.835" stop-color="#66AB6C"/>
<stop offset="1" stop-color="#386A3C"/>
</radialGradient>
<radialGradient id="paint1_radial_28101_1353" cx="0" cy="0" r="1" gradientUnits="userSpaceOnUse" gradientTransform="translate(50.6394 47.1172) rotate(81.2003) scale(100.23 82.7043)">
<stop stop-color="#A3F5AA"/>
<stop offset="0.4" stop-color="#82D289"/>
<stop offset="0.835" stop-color="#66AB6C"/>
<stop offset="1" stop-color="#386A3C"/>
</radialGradient>
<radialGradient id="paint2_radial_28101_1353" cx="0" cy="0" r="1" gradientUnits="userSpaceOnUse" gradientTransform="translate(112.114 79.9033) rotate(83.1667) scale(105.522 68.0393)">
<stop stop-color="#656565"/>
<stop offset="0.4" stop-color="#525252"/>
<stop offset="0.835" stop-color="#373737"/>
<stop offset="1" stop-color="#2F2F2F"/>
</radialGradient>
</defs>
</svg>
