<svg width="196" height="201" viewBox="0 0 196 201" fill="none" xmlns="http://www.w3.org/2000/svg">
<path d="M109.31 194.361V200.411L116.575 189.951L109.31 194.361Z" fill="#7BB280"/>
<path d="M109.31 176.211L116.575 188.537L109.31 192.947L101.99 188.537" fill="#7BB280"/>
<path d="M109.31 176.211V185.145L101.99 188.537M101.99 189.951L109.31 194.361V200.411" fill="#7BB280"/>
<path d="M109.31 185.145V192.947L116.575 188.537" fill="#7BB280"/>
<path d="M140.29 178.473L144.125 176.258C144.235 176.195 144.37 176.195 144.479 176.258L154.586 182.094C154.696 182.157 154.763 182.273 154.764 182.399L154.778 186.413C154.778 186.54 154.71 186.657 154.6 186.72L150.77 188.932C150.535 189.068 150.24 188.898 150.239 188.626L150.226 185.024C150.226 184.898 150.158 184.782 150.049 184.719L140.29 179.086C140.054 178.95 140.054 178.609 140.29 178.473Z" fill="#7BB280"/>
<path d="M137.812 196.655L133.978 194.441C133.868 194.378 133.801 194.262 133.801 194.135V182.464C133.801 182.338 133.868 182.221 133.977 182.157L137.447 180.138C137.557 180.074 137.692 180.074 137.802 180.138L141.631 182.349C141.867 182.486 141.868 182.825 141.632 182.963L138.52 184.774C138.411 184.837 138.343 184.954 138.343 185.081V196.349C138.343 196.622 138.048 196.792 137.812 196.656V196.655Z" fill="#7BB280"/>
<path d="M154.776 189.703V194.131C154.776 194.258 154.708 194.374 154.598 194.437L144.491 200.273C144.382 200.336 144.247 200.336 144.138 200.273L140.655 198.277C140.545 198.214 140.477 198.097 140.477 197.97V193.548C140.477 193.276 140.771 193.106 141.007 193.24L144.132 195.031C144.241 195.094 144.376 195.093 144.485 195.031L154.243 189.396C154.479 189.259 154.775 189.429 154.775 189.702L154.776 189.703Z" fill="#7BB280"/>
<g clip-path="url(#clip0_25676_1322)">
<path d="M26.9668 201C33.6168 201 38.9668 195.427 38.9668 188.5C38.9668 181.573 33.6168 176 26.9668 176C20.3168 176 14.9668 181.573 14.9668 188.5C14.9668 195.427 20.3168 201 26.9668 201Z" fill="#7BB280"/>
<path d="M30.2669 190.479C30.2669 188.656 29.2169 188.031 27.1169 187.77C25.6169 187.562 25.3169 187.145 25.3169 186.416C25.3169 185.687 25.8169 185.218 26.8169 185.218C27.7169 185.218 28.2169 185.531 28.4669 186.312C28.5169 186.468 28.6669 186.572 28.8169 186.572H29.6168C29.8169 186.572 29.9669 186.416 29.9669 186.208V186.156C29.7668 185.01 28.8668 184.124 27.7169 184.02V182.77C27.7169 182.562 27.5669 182.406 27.3169 182.354H26.5669C26.3669 182.354 26.2169 182.51 26.1668 182.77V183.968C24.6668 184.177 23.7169 185.218 23.7169 186.52C23.7169 188.239 24.7169 188.916 26.8169 189.177C28.2169 189.437 28.6669 189.749 28.6669 190.583C28.6669 191.416 27.9668 191.989 27.0169 191.989C25.7168 191.989 25.2668 191.416 25.1168 190.635C25.0669 190.427 24.9169 190.322 24.7669 190.322H23.9168C23.7169 190.322 23.5669 190.479 23.5669 190.687V190.739C23.7668 192.041 24.5669 192.979 26.2169 193.239V194.489C26.2169 194.697 26.3669 194.854 26.6168 194.906H27.3668C27.5669 194.906 27.7169 194.749 27.7669 194.489V193.239C29.2669 192.979 30.2669 191.885 30.2669 190.479Z" fill="#474747"/>
<path d="M24.4168 195.948C20.5168 194.49 18.5168 189.959 19.9668 185.948C20.7168 183.761 22.3668 182.094 24.4168 181.313C24.6168 181.209 24.7168 181.053 24.7168 180.792V180.063C24.7168 179.855 24.6168 179.698 24.4168 179.646C24.3668 179.646 24.2668 179.646 24.2168 179.698C19.4668 181.261 16.8668 186.521 18.3668 191.469C19.2668 194.386 21.4168 196.626 24.2168 197.563C24.4168 197.667 24.6168 197.563 24.6668 197.355C24.7168 197.303 24.7168 197.251 24.7168 197.146V196.417C24.7168 196.261 24.5668 196.053 24.4168 195.948ZM29.7168 179.698C29.5168 179.594 29.3168 179.698 29.2668 179.907C29.2168 179.959 29.2168 180.011 29.2168 180.115V180.844C29.2168 181.053 29.3668 181.261 29.5168 181.365C33.4168 182.823 35.4168 187.355 33.9668 191.365C33.2168 193.553 31.5668 195.219 29.5168 196.001C29.3168 196.105 29.2168 196.261 29.2168 196.521V197.251C29.2168 197.459 29.3168 197.615 29.5168 197.667C29.5668 197.667 29.6668 197.667 29.7168 197.615C34.4668 196.053 37.0668 190.792 35.5668 185.844C34.6668 182.876 32.4668 180.636 29.7168 179.698Z" fill="#474747"/>
</g>
<g clip-path="url(#clip1_25676_1322)">
<path d="M68.4106 176C75.3139 176 80.9106 181.597 80.9106 188.5C80.9106 195.403 75.3136 201 68.4106 201C61.5076 201 55.9106 195.405 55.9106 188.5C55.9106 181.595 61.5066 176 68.4106 176Z" fill="#7BB280"/>
<path d="M69.9532 186.835V184.976H74.2055V182.143H62.6265V184.976H66.8792V186.834C63.423 186.993 60.8242 187.677 60.8242 188.497C60.8242 189.317 63.4242 190.002 66.8792 190.161V196.118H69.9542V190.161C73.4042 190.002 75.9977 189.318 75.9977 188.498C75.9977 187.679 73.4042 186.995 69.9542 186.836M69.9542 189.656V189.655C69.8675 189.66 69.4217 189.687 68.4292 189.687C67.6357 189.687 67.0775 189.665 66.8807 189.654V189.657C63.8272 189.522 61.548 188.99 61.548 188.354C61.548 187.717 63.8275 187.186 66.8807 187.051V189.127C67.0807 189.141 67.6527 189.175 68.4422 189.175C69.3905 189.175 69.8672 189.135 69.9547 189.127V187.051C73.0022 187.187 75.2762 187.719 75.2762 188.353C75.2762 188.987 73.0012 189.519 69.9547 189.655" fill="#474747"/>
</g>
<path d="M5.30029 132.636C6.38211 129.382 7.68771 126.207 9.20777 123.133" stroke="#9DD6A2" stroke-width="0.5" stroke-miterlimit="10" stroke-linecap="round"/>
<path d="M12.3315 117.413C13.5126 115.457 14.8444 113.43 16.3898 111.369" stroke="#9DD6A2" stroke-width="0.5" stroke-miterlimit="10" stroke-linecap="round"/>
<path d="M17.5972 109.782C20.8731 105.606 24.5837 101.79 28.6663 98.3989C39.6481 89.3153 52.9668 83.5094 67.0963 81.6465" stroke="#9DD6A2" stroke-width="0.5" stroke-miterlimit="10" stroke-linecap="round"/>
<path d="M74.1841 93.3125C64.0544 102.303 56.7754 114.06 53.2437 127.136" stroke="#9DD6A2" stroke-width="0.5" stroke-miterlimit="10" stroke-linecap="round"/>
<path d="M52.8883 128.365C52.4067 130.271 52.0172 132.135 51.7031 133.948" stroke="#9DD6A2" stroke-width="0.5" stroke-miterlimit="10" stroke-linecap="round"/>
<path d="M51.036 138.682C50.7889 140.914 50.6549 143.037 50.6172 145.018" stroke="#9DD6A2" stroke-width="0.5" stroke-miterlimit="10" stroke-linecap="round"/>
<path d="M50.584 148.92C50.6426 151.99 50.8688 154.57 51.0866 156.496" stroke="#9DD6A2" stroke-width="0.5" stroke-miterlimit="10" stroke-linecap="round"/>
<path d="M86.0908 99.1289C83.6058 108.725 82.4294 118.614 82.5937 128.525C82.6482 131.783 82.845 134.925 83.1591 137.94" stroke="#9DD6A2" stroke-width="0.5" stroke-miterlimit="10" stroke-linecap="round"/>
<path d="M84.9438 149.297C85.6265 152.534 86.418 155.579 87.264 158.389" stroke="#9DD6A2" stroke-width="0.5" stroke-miterlimit="10" stroke-linecap="round"/>
<path d="M89.4087 164.814C90.485 167.746 91.574 170.339 92.5917 172.575" stroke="#9DD6A2" stroke-width="0.5" stroke-miterlimit="10" stroke-linecap="round"/>
<path d="M108.317 63.6462H108.417L108.489 63.5774L159.681 14.9023L191.031 45.6815C191.032 45.6818 191.032 45.6822 191.032 45.6826C194.653 49.3041 195.94 55.3551 193.861 63.0293L193.86 63.03C191.803 70.7047 186.826 78.5016 180.429 84.8986C174.031 91.2956 166.235 96.2736 158.56 98.3306L158.56 98.3306C150.884 100.39 144.832 99.1224 141.211 95.5013L134.322 88.6119L134.29 88.5801L134.249 88.5614L99.2252 72.5043L96.4467 61.2098L96.5712 61.236C96.8984 61.3047 97.366 61.4029 97.928 61.5207C99.052 61.7563 100.553 62.0704 102.063 62.3846C103.573 62.6987 105.091 63.0129 106.248 63.2486C106.827 63.3664 107.316 63.4647 107.669 63.5336C107.845 63.5681 107.988 63.5953 108.092 63.6141C108.144 63.6234 108.187 63.6308 108.22 63.636L108.221 63.6361C108.245 63.6398 108.285 63.6462 108.317 63.6462Z" fill="url(#paint0_radial_25676_1322)" fill-opacity="0.27" stroke="#B4F9BA" stroke-width="0.5"/>
<path d="M141.834 11.3951C126.384 15.5371 110.499 31.4226 106.357 46.8766C104.472 53.9042 105.352 59.6294 108.317 63.3945L127.716 67.1009C142.889 62.6071 158.256 47.04 162.318 31.8791C166.46 16.425 157.288 7.25306 141.834 11.3951Z" fill="#4E554E"/>
<path d="M105.671 48.995L105.851 49.0537L106.689 45.7283L106.781 45.1671C106.04 43.9107 105.286 42.5412 104.553 41.0544C103.774 39.4881 103.108 37.9803 102.534 36.5606C101.574 34.0243 100.777 31.4294 100.147 28.7917C99.8412 27.485 99.6988 26.6976 99.6318 26.2788C99.3064 24.2956 99.1662 22.2865 99.213 20.2773C99.2231 18.6283 99.4283 16.9863 99.8245 15.3856C100.385 13.1081 101.321 10.9398 102.593 8.96942L102.321 8.81445C99.3889 12.0116 97.6033 16.0926 97.2446 20.4155C97.0526 22.6915 97.0863 24.981 97.3451 27.2505C97.3786 27.5352 97.5252 28.7665 97.8602 30.3999C98.2178 32.1737 98.695 33.9214 99.2884 35.6308C100.881 40.3254 103.028 44.8132 105.684 48.9992L105.671 48.995Z" fill="#566C58"/>
<path d="M142.027 11.3448L141.834 11.3951C126.384 15.5371 110.499 31.4225 106.357 46.8766C104.472 53.9042 105.352 59.6293 108.317 63.3944L127.716 67.1009C142.889 62.6071 158.256 47.0399 162.318 31.879C166.045 17.9704 158.989 9.15024 146.269 10.5449" stroke="#9DD6A2" stroke-width="0.5" stroke-miterlimit="10"/>
<path d="M93.0847 53.129C89.4494 50.8591 86.1073 50.6162 83.6866 52.0317L80.0346 53.975L80.8094 55.4115C80.171 56.9296 79.8298 58.5561 79.8042 60.2027C79.5236 68.5119 85.0142 78.8104 92.067 83.2079C93.5607 84.1862 95.2452 84.8357 97.0089 85.1135L97.7251 86.2904L100.703 84.6863C101.088 84.5271 101.455 84.3292 101.8 84.0958H101.825C103.898 82.6844 105.222 79.958 105.347 76.1384C105.615 67.825 100.137 57.5265 93.0847 53.129Z" fill="#566C58" stroke="#9DD6A2" stroke-width="0.5" stroke-miterlimit="10"/>
<path d="M97.3214 86.5676C102.508 83.8029 102.831 74.2794 98.0422 65.2964C93.2537 56.3133 85.1674 51.2723 79.9809 54.037C74.7943 56.8017 74.4716 66.3252 79.2601 75.3082C84.0485 84.2913 92.1348 89.3323 97.3214 86.5676Z" fill="#566C58" stroke="#566C58" stroke-width="0.5" stroke-miterlimit="10"/>
<path d="M83.3017 65.6405C84.1692 65.1781 84.2241 63.587 83.4244 62.0868C82.6247 60.5865 81.2732 59.7452 80.4057 60.2076C79.5382 60.6701 79.4832 62.2611 80.283 63.7613C81.0827 65.2616 82.4342 66.1029 83.3017 65.6405Z" fill="#80B785"/>
<path d="M85.0605 76.1073C85.9279 75.6449 85.9829 74.0538 85.1832 72.5536C84.3835 71.0534 83.032 70.212 82.1645 70.6744C81.297 71.1369 81.242 72.7279 82.0418 74.2282C82.8415 75.7284 84.193 76.5697 85.0605 76.1073Z" fill="#80B785"/>
<path d="M93.6078 82.5604C94.4753 82.098 94.5302 80.5069 93.7305 79.0067C92.9308 77.5065 91.5793 76.6652 90.7118 77.1276C89.8443 77.59 89.7894 79.181 90.5891 80.6813C91.3888 82.1815 92.7403 83.0228 93.6078 82.5604Z" fill="#80B785"/>
<path d="M96.7724 74.2655C97.6399 73.8031 97.6948 72.212 96.8951 70.7118C96.0954 69.2115 94.7439 68.3702 93.8764 68.8326C93.0089 69.2951 92.9539 70.8861 93.7537 72.3863C94.5534 73.8866 95.9049 74.7279 96.7724 74.2655Z" fill="#80B785"/>
<path d="M91.3744 65.5565C92.2419 65.0941 92.2969 63.5031 91.4972 62.0028C90.6974 60.5026 89.3459 59.6612 88.4784 60.1237C87.6109 60.5861 87.556 62.1771 88.3557 63.6774C89.1554 65.1776 90.5069 66.0189 91.3744 65.5565Z" fill="#80B785"/>
<path d="M141.778 11.3951C126.329 15.5371 110.443 31.4226 106.301 46.8766C104.416 53.9042 105.296 59.6294 108.261 63.3945L127.66 67.1009C142.834 62.6071 158.2 47.04 162.262 31.8791C166.404 16.425 157.232 7.25306 141.778 11.3951Z" stroke="#9DD6A2" stroke-width="0.5" stroke-miterlimit="10"/>
<path d="M104.396 7.06103C104.358 7.01915 104.425 6.85164 104.94 6.26112C105.879 5.37557 106.913 4.59607 108.023 3.93672C109.325 3.18007 110.711 2.57847 112.152 2.14421C115.059 1.27997 118.099 0.950746 121.123 1.17257C126.347 1.62076 131.458 2.94009 136.246 5.07588C138.286 5.98051 140.435 7.03591 142.629 8.27977C147.73 11.1706 152.466 14.6633 156.735 18.683C158.334 20.1572 159.968 21.7696 161.601 23.537C162.179 24.1652 162.74 24.7934 163.276 25.4049C163.276 25.4049 162.91 23.853 162.91 25.3206C162.91 26.7882 162.543 28.6227 162.543 28.6227L162.933 29.6432L161.677 28.1523C161.258 27.6958 160.877 27.2393 160.479 26.7786C157.078 22.9508 153.33 19.4458 149.284 16.3084C147.684 15.0519 146.105 13.9421 144.568 12.916C138.294 8.51231 131.177 5.45117 123.665 3.92415C119.101 2.87746 114.345 3.0086 109.845 4.30527C109.187 4.4885 108.544 4.72234 107.922 5.00469C105.845 5.96795 104.517 7.20343 104.396 7.06103Z" fill="#566C58"/>
<path d="M106.823 45.2526C104.107 40.734 102.012 35.8697 100.596 30.7911C94.8789 9.46115 107.535 -3.19527 128.865 2.52147C141.233 5.83426 153.805 14.6041 163.3 25.556L163.363 25.5853" stroke="#9DD6A2" stroke-width="0.5" stroke-miterlimit="10"/>
<path d="M105.847 49.2865C102.58 44.2323 100.09 38.7166 98.459 32.9236C92.7422 11.5979 105.399 -1.06274 126.729 4.65401C139.842 8.16782 153.176 17.8046 162.834 29.6653" stroke="#9DD6A2" stroke-width="0.5" stroke-miterlimit="10"/>
<circle cx="30.9512" cy="40.0518" r="30.0225" fill="url(#paint1_radial_25676_1322)" stroke="white" stroke-dasharray="3 3"/>
<path fill-rule="evenodd" clip-rule="evenodd" d="M18.4053 41.0395L33.6909 18.809C33.9187 18.4778 34.4376 18.639 34.4376 19.041L34.4376 34.9776L43.1589 34.9776C43.4885 34.9776 43.683 35.3473 43.4962 35.6189L28.2106 57.8494C27.9828 58.1806 27.4639 58.0194 27.4639 57.6175L27.4639 41.6808L18.7426 41.6808C18.413 41.6808 18.2185 41.3111 18.4053 41.0395Z" fill="white"/>
<defs>
<radialGradient id="paint0_radial_25676_1322" cx="0" cy="0" r="1" gradientUnits="userSpaceOnUse" gradientTransform="translate(51.2294 44.5464) rotate(4.82229) scale(148.867 111.218)">
<stop stop-color="#A3F5AA"/>
<stop offset="0.4" stop-color="#82D289"/>
<stop offset="0.835" stop-color="#66AB6C"/>
<stop offset="1" stop-color="#386A3C"/>
</radialGradient>
<radialGradient id="paint1_radial_25676_1322" cx="0" cy="0" r="1" gradientUnits="userSpaceOnUse" gradientTransform="translate(17.5542 22.6129) rotate(83.1667) scale(92.0224 59.3351)">
<stop stop-color="#656565"/>
<stop offset="0.4" stop-color="#525252"/>
<stop offset="0.835" stop-color="#373737"/>
<stop offset="1" stop-color="#2F2F2F"/>
</radialGradient>
<clipPath id="clip0_25676_1322">
<rect width="24" height="25" fill="white" transform="translate(14.9668 176)"/>
</clipPath>
<clipPath id="clip1_25676_1322">
<rect width="25" height="25" fill="white" transform="translate(55.9106 176)"/>
</clipPath>
</defs>
</svg>
