<svg width="172" height="45" viewBox="0 0 172 45" fill="none" xmlns="http://www.w3.org/2000/svg">
<mask id="mask0_22316_2827" style="mask-type:luminance" maskUnits="userSpaceOnUse" x="0" y="0" width="172" height="43">
<path d="M172 0.5H0V42.5736H172V0.5Z" fill="white"/>
</mask>
<g mask="url(#mask0_22316_2827)">
<path d="M37.5466 39.8666H6.51849C2.91899 39.8666 0 36.9153 0 33.2758V1.9043L9.3866 9.02224V23.7852C9.3866 27.4247 12.3056 30.376 15.9052 30.376H28.1597L37.5466 39.8666Z" fill="#F2F2F2"/>
<path d="M122.017 17.8517V33.2738C122.017 36.9133 119.098 39.8646 115.498 39.8646H90.989C87.3892 39.8646 84.4702 36.9133 84.4702 33.2738V8.49301C84.4702 4.85364 87.3892 1.90234 90.989 1.90234H122.017L112.63 11.3929H97.1162C95.3158 11.3929 93.8571 12.8679 93.8571 14.6883V27.0786C93.8571 28.8992 95.3158 30.374 97.1162 30.374H112.63V24.4424H99.5932L106.112 17.8517H122.017Z" fill="#F2F2F2"/>
<path d="M71.4391 1.90234H46.669C43.0692 1.90234 40.1504 4.90504 40.1504 8.609V33.1567C40.1504 36.8607 43.0692 39.8631 46.669 39.8631H71.4391C75.0386 39.8631 77.9574 36.8607 77.9574 33.1567V8.609C77.9574 4.90504 75.0386 1.90234 71.4391 1.90234ZM68.7014 27.5111C68.7014 29.3631 67.2425 30.8643 65.4421 30.8643H52.7362C50.9358 30.8643 49.4771 29.3631 49.4771 27.5111V14.9149C49.4771 13.063 50.9358 11.5616 52.7362 11.5616H65.4421C67.2425 11.5616 68.7014 13.063 68.7014 14.9149V27.5111Z" fill="#F2F2F2"/>
<path d="M157.674 2.89258H169.365L157.893 19.4133H146.881L157.674 2.89258Z" stroke="white" stroke-width="0.946187"/>
<path d="M157.709 38.7124H169.364L157.991 22.1914H147.011L157.709 38.7124Z" stroke="white" stroke-width="0.946187"/>
<path fill-rule="evenodd" clip-rule="evenodd" d="M131.769 1.90234H143.424L154.209 20.4055H143.229L131.769 1.90234ZM144.601 39.7678H131.791L143.229 21.1986H154.209L144.601 39.7678Z" fill="white"/>
<mask id="mask1_22316_2827" style="mask-type:luminance" maskUnits="userSpaceOnUse" x="131" y="1" width="24" height="39">
<path fill-rule="evenodd" clip-rule="evenodd" d="M131.769 1.90234H143.424L154.209 20.4055H143.229L131.769 1.90234ZM144.601 39.7678H131.791L143.229 21.1986H154.209L144.601 39.7678Z" fill="url(#paint0_linear_22316_2827)"/>
</mask>
<g mask="url(#mask1_22316_2827)">
<path d="M143.426 1.90365L143.539 1.83655L143.501 1.77148H143.426V1.90365ZM131.77 1.90365V1.77148H131.534L131.66 1.97379L131.77 1.90365ZM154.21 20.4069V20.539H154.439L154.323 20.3397L154.21 20.4069ZM143.23 20.4069L143.119 20.477L143.158 20.539H143.23V20.4069ZM131.792 39.7692L131.682 39.6992L131.557 39.9014H131.792V39.7692ZM144.603 39.7692V39.9014H144.682L144.719 39.8306L144.603 39.7692ZM143.23 21.1998V21.0677H143.158L143.119 21.13L143.23 21.1998ZM154.21 21.1998L154.327 21.2613L154.427 21.0677H154.21V21.1998ZM143.426 1.77148H131.77V2.03582H143.426V1.77148ZM154.323 20.3397L143.539 1.83655L143.313 1.97075L154.098 20.4741L154.323 20.3397ZM143.23 20.539H154.21V20.2748H143.23V20.539ZM131.66 1.97379L143.119 20.477L143.341 20.3368L131.881 1.83351L131.66 1.97379ZM131.792 39.9014H144.603V39.637H131.792V39.9014ZM143.119 21.13L131.682 39.6992L131.903 39.8391L143.341 21.2698L143.119 21.13ZM154.21 21.0677H143.23V21.3321H154.21V21.0677ZM144.719 39.8306L154.327 21.2613L154.095 21.1386L144.487 39.708L144.719 39.8306Z" fill="url(#paint1_linear_22316_2827)"/>
</g>
</g>
<defs>
<linearGradient id="paint0_linear_22316_2827" x1="154.826" y1="21.156" x2="131.769" y2="21.156" gradientUnits="userSpaceOnUse">
<stop stop-color="#27F9BB"/>
<stop offset="1" stop-color="#07F2C7"/>
</linearGradient>
<linearGradient id="paint1_linear_22316_2827" x1="154.829" y1="21.1574" x2="131.77" y2="21.1574" gradientUnits="userSpaceOnUse">
<stop stop-color="white"/>
<stop offset="1" stop-color="white"/>
</linearGradient>
</defs>
</svg>
