<svg width="128" height="57" viewBox="0 0 128 57" fill="none" xmlns="http://www.w3.org/2000/svg">
<g clip-path="url(#clip0_22316_2875)">
<path d="M0 43.2992V10.8248L7.83161 0H8.25267V35.0116H24.9265V43.2992H0Z" fill="white"/>
<path d="M106.088 25.6726L94.0764 9.03642H103.382L105.164 11.555C106.616 13.676 108.42 16.3713 110.576 19.6411L124.632 0.169922H125.137V12.2633L115.328 25.7388L128 43.2367H118.694L117.44 41.4471C116.12 39.547 113.898 36.3214 110.774 31.7702C110.774 31.7702 104.285 40.8063 102.569 43.2367H93.4165L106.088 25.6726Z" fill="white"/>
<path d="M48.4238 9.08789L45.6531 17.6959C43.3221 25.3768 41.4968 31.7113 40.1774 36.6996C38.5061 30.078 36.7029 23.7215 34.7678 17.6296L31.9971 9.08789H23.025L32.9206 37.1631C33.9761 40.1206 34.5039 42.4161 34.5039 44.0494C34.5039 45.6828 34.0202 47.007 33.0526 48.0224C32.0851 49.0375 30.6997 49.5452 28.8965 49.5452H25.0945L19.689 56.9993H29.3583C33.4484 56.9993 36.571 56.2488 38.7261 54.748C40.8371 53.2913 42.5964 49.9204 44.0038 46.0358L57.1321 9.08789H48.4238Z" fill="white"/>
<path d="M79.0068 8.29492C82.7011 8.29492 85.6039 9.37643 87.7149 11.5394C89.8701 13.6583 90.9476 16.6821 90.9476 20.6109V43.2564H82.6351V22.0015C82.6351 17.6754 80.502 15.5123 76.2359 15.5123C74.1249 15.5123 72.3217 16.2848 70.8262 17.8299C69.3749 19.3308 68.6492 21.4275 68.6492 24.1203V43.2564H60.3369V9.08948H68.3854V13.9894C70.9802 10.1931 74.5207 8.29492 79.0068 8.29492Z" fill="white"/>
</g>
<defs>
<clipPath id="clip0_22316_2875">
<rect width="128" height="57" fill="white"/>
</clipPath>
</defs>
</svg>
