<svg width="25" height="2" viewBox="0 0 25 2" fill="none" xmlns="http://www.w3.org/2000/svg">
<path fill-rule="evenodd" clip-rule="evenodd" d="M1.03068 0.0134683L11.2078 0.0124531L23.3579 0.013469C23.6155 0.0195617 23.8605 0.126166 24.0405 0.310499C24.2205 0.494831 24.3213 0.742269 24.3213 0.999927C24.3213 1.25758 24.2205 1.50502 24.0405 1.68935C23.8605 1.87369 23.6155 1.98029 23.3579 1.98638L11.2083 1.98588L1.03068 1.98638C0.773094 1.98029 0.528108 1.87369 0.348083 1.68935C0.168058 1.50502 0.0672756 1.25758 0.0672758 0.999926C0.067276 0.742268 0.168059 0.49483 0.348083 0.310498C0.528107 0.126166 0.773092 0.019561 1.03068 0.0134683Z" fill="white"/>
</svg>
