<svg width="192" height="38" viewBox="0 0 192 38" fill="none" xmlns="http://www.w3.org/2000/svg">
<g clip-path="url(#clip0_25792_1321)">
<path d="M20.1827 34.4742H3.45434V3.63163H33.4875V15.13H36.9111V0.113281H0.0307617V37.9903H21.6322L20.1827 34.4742Z" fill="white"/>
<path d="M17.812 19.6094H21.6992L27.3994 33.2961L33.0234 19.6094H36.9106V37.9902H33.6372V25.3071L28.6509 37.9902H25.9368L17.812 19.6094Z" fill="url(#paint0_linear_25792_1321)"/>
</g>
<path d="M54.666 33V5.7H58.839L70.773 25.629H68.589L80.328 5.7H84.501L84.54 33H79.743L79.704 13.227H80.718L70.734 29.88H68.472L58.332 13.227H59.502V33H54.666ZM90.276 33V12.174H95.151V33H90.276ZM92.733 8.742C91.823 8.742 91.069 8.456 90.471 7.884C89.899 7.312 89.613 6.623 89.613 5.817C89.613 4.985 89.899 4.296 90.471 3.75C91.069 3.178 91.823 2.892 92.733 2.892C93.643 2.892 94.384 3.165 94.956 3.711C95.554 4.231 95.853 4.894 95.853 5.7C95.853 6.558 95.567 7.286 94.995 7.884C94.423 8.456 93.669 8.742 92.733 8.742ZM100.379 33V12.174H105.02V17.907L104.474 16.23C105.098 14.826 106.073 13.76 107.399 13.032C108.751 12.304 110.428 11.94 112.43 11.94V16.581C112.222 16.529 112.027 16.503 111.845 16.503C111.663 16.477 111.481 16.464 111.299 16.464C109.453 16.464 107.984 17.01 106.892 18.102C105.8 19.168 105.254 20.767 105.254 22.899V33H100.379ZM126.742 33V28.788L126.469 27.891V20.52C126.469 19.09 126.04 17.985 125.182 17.205C124.324 16.399 123.024 15.996 121.282 15.996C120.112 15.996 118.955 16.178 117.811 16.542C116.693 16.906 115.744 17.413 114.964 18.063L113.053 14.514C114.171 13.656 115.497 13.019 117.031 12.603C118.591 12.161 120.203 11.94 121.867 11.94C124.883 11.94 127.21 12.668 128.848 14.124C130.512 15.554 131.344 17.777 131.344 20.793V33H126.742ZM120.19 33.273C118.63 33.273 117.265 33.013 116.095 32.493C114.925 31.947 114.015 31.206 113.365 30.27C112.741 29.308 112.429 28.229 112.429 27.033C112.429 25.863 112.702 24.81 113.248 23.874C113.82 22.938 114.743 22.197 116.017 21.651C117.291 21.105 118.981 20.832 121.087 20.832H127.132V24.069H121.438C119.774 24.069 118.656 24.342 118.084 24.888C117.512 25.408 117.226 26.058 117.226 26.838C117.226 27.722 117.577 28.424 118.279 28.944C118.981 29.464 119.956 29.724 121.204 29.724C122.4 29.724 123.466 29.451 124.402 28.905C125.364 28.359 126.053 27.553 126.469 26.487L127.288 29.412C126.82 30.634 125.975 31.583 124.753 32.259C123.557 32.935 122.036 33.273 120.19 33.273ZM140.408 28.359L140.525 22.236L151.406 12.174H157.256L148.013 21.456L145.439 23.601L140.408 28.359ZM136.43 33V4.062H141.305V33H136.43ZM152.147 33L144.542 23.601L147.623 19.701L158.075 33H152.147ZM160.054 33V4.062H164.929V33H160.054ZM179.946 33.273C177.632 33.273 175.604 32.818 173.862 31.908C172.146 30.972 170.807 29.698 169.845 28.086C168.909 26.474 168.441 24.641 168.441 22.587C168.441 20.507 168.896 18.674 169.806 17.088C170.742 15.476 172.016 14.215 173.628 13.305C175.266 12.395 177.125 11.94 179.205 11.94C181.233 11.94 183.04 12.382 184.626 13.266C186.212 14.15 187.46 15.398 188.37 17.01C189.28 18.622 189.735 20.52 189.735 22.704C189.735 22.912 189.722 23.146 189.696 23.406C189.696 23.666 189.683 23.913 189.657 24.147H172.302V20.91H187.083L185.172 21.924C185.198 20.728 184.951 19.675 184.431 18.765C183.911 17.855 183.196 17.14 182.286 16.62C181.402 16.1 180.375 15.84 179.205 15.84C178.009 15.84 176.956 16.1 176.046 16.62C175.162 17.14 174.46 17.868 173.94 18.804C173.446 19.714 173.199 20.793 173.199 22.041V22.821C173.199 24.069 173.485 25.174 174.057 26.136C174.629 27.098 175.435 27.839 176.475 28.359C177.515 28.879 178.711 29.139 180.063 29.139C181.233 29.139 182.286 28.957 183.222 28.593C184.158 28.229 184.99 27.657 185.718 26.877L188.331 29.88C187.395 30.972 186.212 31.817 184.782 32.415C183.378 32.987 181.766 33.273 179.946 33.273Z" fill="white"/>
<defs>
<linearGradient id="paint0_linear_25792_1321" x1="17.8118" y1="28.8002" x2="36.9106" y2="28.8002" gradientUnits="userSpaceOnUse">
<stop stop-color="white"/>
<stop offset="1" stop-color="white"/>
</linearGradient>
<clipPath id="clip0_25792_1321">
<rect width="37" height="38" fill="white"/>
</clipPath>
</defs>
</svg>
