<svg width="127" height="127" viewBox="0 0 127 127" fill="none" xmlns="http://www.w3.org/2000/svg">
<rect x="0.414062" y="1.06836" width="125.686" height="125.686" rx="42.75" fill="url(#paint0_radial_28101_1343)" fill-opacity="0.27" stroke="#B4F9BA" stroke-width="0.5"/>
<mask id="path-2-inside-1_28101_1343" fill="white">
<path fill-rule="evenodd" clip-rule="evenodd" d="M66.7475 46.4712C69.0187 45.2486 70.5624 42.8491 70.5624 40.089C70.5624 36.0886 67.3195 32.8457 63.3191 32.8457C59.3187 32.8457 56.0758 36.0886 56.0758 40.089C56.0758 42.9533 57.7383 45.4293 60.1511 46.6046L49.5346 69.3887L32.8742 58.8855L32.7172 58.9767C33.6978 57.741 34.2835 56.1777 34.2835 54.4777C34.2835 50.4773 31.0405 47.2344 27.0402 47.2344C23.0398 47.2344 19.7969 50.4773 19.7969 54.4777C19.7969 58.478 23.0398 61.721 27.0402 61.721C27.8105 61.721 28.5527 61.6007 29.2491 61.378L41.5666 94.9821H85.1483L96.9859 61.3822C97.7616 61.6658 98.5994 61.8206 99.4733 61.8206C103.474 61.8206 106.717 58.5777 106.717 54.5773C106.717 50.5769 103.474 47.334 99.4733 47.334C95.4729 47.334 92.23 50.5769 92.23 54.5773C92.23 56.205 92.7669 57.7074 93.6733 58.9168L78.1462 69.3887L66.7475 46.4712Z"/>
</mask>
<path fill-rule="evenodd" clip-rule="evenodd" d="M66.7475 46.4712C69.0187 45.2486 70.5624 42.8491 70.5624 40.089C70.5624 36.0886 67.3195 32.8457 63.3191 32.8457C59.3187 32.8457 56.0758 36.0886 56.0758 40.089C56.0758 42.9533 57.7383 45.4293 60.1511 46.6046L49.5346 69.3887L32.8742 58.8855L32.7172 58.9767C33.6978 57.741 34.2835 56.1777 34.2835 54.4777C34.2835 50.4773 31.0405 47.2344 27.0402 47.2344C23.0398 47.2344 19.7969 50.4773 19.7969 54.4777C19.7969 58.478 23.0398 61.721 27.0402 61.721C27.8105 61.721 28.5527 61.6007 29.2491 61.378L41.5666 94.9821H85.1483L96.9859 61.3822C97.7616 61.6658 98.5994 61.8206 99.4733 61.8206C103.474 61.8206 106.717 58.5777 106.717 54.5773C106.717 50.5769 103.474 47.334 99.4733 47.334C95.4729 47.334 92.23 50.5769 92.23 54.5773C92.23 56.205 92.7669 57.7074 93.6733 58.9168L78.1462 69.3887L66.7475 46.4712Z" fill="url(#paint1_radial_28101_1343)" fill-opacity="0.27"/>
<path fill-rule="evenodd" clip-rule="evenodd" d="M66.7475 46.4712C69.0187 45.2486 70.5624 42.8491 70.5624 40.089C70.5624 36.0886 67.3195 32.8457 63.3191 32.8457C59.3187 32.8457 56.0758 36.0886 56.0758 40.089C56.0758 42.9533 57.7383 45.4293 60.1511 46.6046L49.5346 69.3887L32.8742 58.8855L32.7172 58.9767C33.6978 57.741 34.2835 56.1777 34.2835 54.4777C34.2835 50.4773 31.0405 47.2344 27.0402 47.2344C23.0398 47.2344 19.7969 50.4773 19.7969 54.4777C19.7969 58.478 23.0398 61.721 27.0402 61.721C27.8105 61.721 28.5527 61.6007 29.2491 61.378L41.5666 94.9821H85.1483L96.9859 61.3822C97.7616 61.6658 98.5994 61.8206 99.4733 61.8206C103.474 61.8206 106.717 58.5777 106.717 54.5773C106.717 50.5769 103.474 47.334 99.4733 47.334C95.4729 47.334 92.23 50.5769 92.23 54.5773C92.23 56.205 92.7669 57.7074 93.6733 58.9168L78.1462 69.3887L66.7475 46.4712Z" fill="white"/>
<path d="M66.7475 46.4712L66.5105 46.0309L66.0843 46.2604L66.2998 46.6938L66.7475 46.4712ZM60.1511 46.6046L60.6043 46.8158L60.8118 46.3703L60.37 46.1551L60.1511 46.6046ZM49.5346 69.3887L49.268 69.8116L49.7481 70.1143L49.9879 69.5999L49.5346 69.3887ZM32.8742 58.8855L33.1409 58.4625L32.8849 58.3012L32.6232 58.4531L32.8742 58.8855ZM32.7172 58.9767L32.3255 58.6659L32.9683 59.4091L32.7172 58.9767ZM29.2491 61.378L29.7185 61.2059L29.5535 60.7557L29.0968 60.9018L29.2491 61.378ZM41.5666 94.9821L41.0972 95.1542L41.2174 95.4821H41.5666V94.9821ZM85.1483 94.9821V95.4821H85.5022L85.6199 95.1482L85.1483 94.9821ZM96.9859 61.3822L97.1576 60.9126L96.6825 60.7389L96.5144 61.2161L96.9859 61.3822ZM93.6733 58.9168L93.9529 59.3314L94.3885 59.0375L94.0734 58.617L93.6733 58.9168ZM78.1462 69.3887L77.6986 69.6113L77.9527 70.1223L78.4258 69.8032L78.1462 69.3887ZM70.0624 40.089C70.0624 42.6579 68.6262 44.892 66.5105 46.0309L66.9845 46.9114C69.4112 45.6051 71.0624 43.0403 71.0624 40.089H70.0624ZM63.3191 33.3457C67.0433 33.3457 70.0624 36.3648 70.0624 40.089H71.0624C71.0624 35.8125 67.5956 32.3457 63.3191 32.3457V33.3457ZM56.5758 40.089C56.5758 36.3648 59.5949 33.3457 63.3191 33.3457V32.3457C59.0426 32.3457 55.5758 35.8125 55.5758 40.089H56.5758ZM60.37 46.1551C58.1227 45.0603 56.5758 42.7548 56.5758 40.089H55.5758C55.5758 43.1518 57.354 45.7982 59.9321 47.0541L60.37 46.1551ZM59.6978 46.3934L49.0814 69.1775L49.9879 69.5999L60.6043 46.8158L59.6978 46.3934ZM49.8013 68.9657L33.1409 58.4625L32.6076 59.3085L49.268 69.8116L49.8013 68.9657ZM32.6232 58.4531L32.4661 58.5443L32.9683 59.4091L33.1253 59.3179L32.6232 58.4531ZM33.7835 54.4777C33.7835 56.0609 33.2385 57.5154 32.3255 58.6659L33.1089 59.2875C34.1571 57.9666 34.7835 56.2946 34.7835 54.4777H33.7835ZM27.0402 47.7344C30.7644 47.7344 33.7835 50.7535 33.7835 54.4777H34.7835C34.7835 50.2012 31.3167 46.7344 27.0402 46.7344V47.7344ZM20.2969 54.4777C20.2969 50.7535 23.316 47.7344 27.0402 47.7344V46.7344C22.7637 46.7344 19.2969 50.2012 19.2969 54.4777H20.2969ZM27.0402 61.221C23.316 61.221 20.2969 58.2019 20.2969 54.4777H19.2969C19.2969 58.7542 22.7637 62.221 27.0402 62.221V61.221ZM29.0968 60.9018C28.449 61.1089 27.7582 61.221 27.0402 61.221V62.221C27.8628 62.221 28.6564 62.0925 29.4014 61.8542L29.0968 60.9018ZM28.7796 61.5501L41.0972 95.1542L42.0361 94.81L29.7185 61.2059L28.7796 61.5501ZM41.5666 95.4821H85.1483V94.4821H41.5666V95.4821ZM85.6199 95.1482L97.4575 61.5484L96.5144 61.2161L84.6767 94.816L85.6199 95.1482ZM96.8143 61.8518C97.6441 62.1552 98.54 62.3206 99.4733 62.3206V61.3206C98.6588 61.3206 97.8791 61.1764 97.1576 60.9126L96.8143 61.8518ZM99.4733 62.3206C103.75 62.3206 107.217 58.8538 107.217 54.5773H106.217C106.217 58.3015 103.198 61.3206 99.4733 61.3206V62.3206ZM107.217 54.5773C107.217 50.3008 103.75 46.834 99.4733 46.834V47.834C103.198 47.834 106.217 50.8531 106.217 54.5773H107.217ZM99.4733 46.834C95.1968 46.834 91.73 50.3008 91.73 54.5773H92.73C92.73 50.8531 95.7491 47.834 99.4733 47.834V46.834ZM91.73 54.5773C91.73 56.3168 92.3042 57.9237 93.2732 59.2167L94.0734 58.617C93.2296 57.4911 92.73 56.0932 92.73 54.5773H91.73ZM93.3937 58.5023L77.8667 68.9741L78.4258 69.8032L93.9529 59.3314L93.3937 58.5023ZM78.5939 69.166L67.1952 46.2485L66.2998 46.6938L77.6986 69.6113L78.5939 69.166Z" fill="#B4F9BA" mask="url(#path-2-inside-1_28101_1343)"/>
<defs>
<radialGradient id="paint0_radial_28101_1343" cx="0" cy="0" r="1" gradientUnits="userSpaceOnUse" gradientTransform="translate(-3.87925 -68.8517) rotate(64.2556) scale(275.815 177.843)">
<stop stop-color="#A3F5AA"/>
<stop offset="0.32258" stop-color="#82D289"/>
<stop offset="0.568893" stop-color="#66AB6C"/>
<stop offset="1" stop-color="#386A3C"/>
</radialGradient>
<radialGradient id="paint1_radial_28101_1343" cx="0" cy="0" r="1" gradientUnits="userSpaceOnUse" gradientTransform="translate(44.1813 46.1632) rotate(80.4841) scale(94.3 83.9188)">
<stop stop-color="#A3F5AA"/>
<stop offset="0.4" stop-color="#82D289"/>
<stop offset="0.835" stop-color="#66AB6C"/>
<stop offset="1" stop-color="#386A3C"/>
</radialGradient>
</defs>
</svg>
