<svg width="133" height="133" viewBox="0 0 133 133" fill="none" xmlns="http://www.w3.org/2000/svg">
<rect x="2.28662" y="2.31836" width="129.186" height="129.186" rx="51.5" fill="#474747" stroke="#474747" stroke-width="3"/>
<rect x="4.03662" y="4.06836" width="125.686" height="125.686" rx="42.75" fill="url(#paint0_radial_25657_1374)" fill-opacity="0.27" stroke="#B4F9BA" stroke-width="0.5"/>
<mask id="path-3-inside-1_25657_1374" fill="white">
<path fill-rule="evenodd" clip-rule="evenodd" d="M70.3706 49.4712C72.6417 48.2486 74.1855 45.8491 74.1855 43.089C74.1855 39.0886 70.9425 35.8457 66.9422 35.8457C62.9418 35.8457 59.6988 39.0886 59.6988 43.089C59.6988 45.9533 61.3614 48.4293 63.7741 49.6046L53.1577 72.3887L36.4973 61.8855L36.3408 61.9764C37.3211 60.7408 37.9065 59.1778 37.9065 57.4781C37.9065 53.4777 34.6636 50.2348 30.6632 50.2348C26.6629 50.2348 23.4199 53.4777 23.4199 57.4781C23.4199 61.4784 26.6629 64.7214 30.6632 64.7214C31.4336 64.7214 32.1758 64.6011 32.8723 64.3783L45.1897 97.9821H88.7713L100.609 64.3826C101.385 64.6663 102.222 64.8211 103.096 64.8211C107.097 64.8211 110.34 61.5781 110.34 57.5778C110.34 53.5774 107.097 50.3345 103.096 50.3345C99.096 50.3345 95.8531 53.5774 95.8531 57.5778C95.8531 59.2054 96.3899 60.7075 97.2961 61.917L81.7693 72.3887L70.3706 49.4712Z"/>
</mask>
<path fill-rule="evenodd" clip-rule="evenodd" d="M70.3706 49.4712C72.6417 48.2486 74.1855 45.8491 74.1855 43.089C74.1855 39.0886 70.9425 35.8457 66.9422 35.8457C62.9418 35.8457 59.6988 39.0886 59.6988 43.089C59.6988 45.9533 61.3614 48.4293 63.7741 49.6046L53.1577 72.3887L36.4973 61.8855L36.3408 61.9764C37.3211 60.7408 37.9065 59.1778 37.9065 57.4781C37.9065 53.4777 34.6636 50.2348 30.6632 50.2348C26.6629 50.2348 23.4199 53.4777 23.4199 57.4781C23.4199 61.4784 26.6629 64.7214 30.6632 64.7214C31.4336 64.7214 32.1758 64.6011 32.8723 64.3783L45.1897 97.9821H88.7713L100.609 64.3826C101.385 64.6663 102.222 64.8211 103.096 64.8211C107.097 64.8211 110.34 61.5781 110.34 57.5778C110.34 53.5774 107.097 50.3345 103.096 50.3345C99.096 50.3345 95.8531 53.5774 95.8531 57.5778C95.8531 59.2054 96.3899 60.7075 97.2961 61.917L81.7693 72.3887L70.3706 49.4712Z" fill="url(#paint1_radial_25657_1374)" fill-opacity="0.27"/>
<path d="M70.3706 49.4712L70.1336 49.0309L69.7073 49.2604L69.9229 49.6938L70.3706 49.4712ZM63.7741 49.6046L64.2273 49.8158L64.4349 49.3703L63.9931 49.1551L63.7741 49.6046ZM53.1577 72.3887L52.891 72.8116L53.3712 73.1143L53.6109 72.5999L53.1577 72.3887ZM36.4973 61.8855L36.7639 61.4625L36.5079 61.3012L36.2462 61.4531L36.4973 61.8855ZM36.3408 61.9764L35.9491 61.6656L36.5919 62.4088L36.3408 61.9764ZM32.8723 64.3783L33.3417 64.2063L33.1767 63.756L32.7199 63.9021L32.8723 64.3783ZM45.1897 97.9821L44.7202 98.1542L44.8404 98.4821H45.1897V97.9821ZM88.7713 97.9821V98.4821H89.1253L89.2429 98.1482L88.7713 97.9821ZM100.609 64.3826L100.781 63.913L100.305 63.7393L100.137 64.2165L100.609 64.3826ZM97.2961 61.917L97.5757 62.3315L98.0114 62.0377L97.6963 61.6171L97.2961 61.917ZM81.7693 72.3887L81.3216 72.6113L81.5757 73.1223L82.0489 72.8032L81.7693 72.3887ZM73.6855 43.089C73.6855 45.6579 72.2492 47.892 70.1336 49.0309L70.6076 49.9114C73.0342 48.6051 74.6855 46.0403 74.6855 43.089H73.6855ZM66.9422 36.3457C70.6664 36.3457 73.6855 39.3648 73.6855 43.089H74.6855C74.6855 38.8125 71.2187 35.3457 66.9422 35.3457V36.3457ZM60.1988 43.089C60.1988 39.3648 63.2179 36.3457 66.9422 36.3457V35.3457C62.6656 35.3457 59.1988 38.8125 59.1988 43.089H60.1988ZM63.9931 49.1551C61.7457 48.0603 60.1988 45.7548 60.1988 43.089H59.1988C59.1988 46.1518 60.9771 48.7982 63.5551 50.0541L63.9931 49.1551ZM63.3209 49.3934L52.7045 72.1775L53.6109 72.5999L64.2273 49.8158L63.3209 49.3934ZM53.4243 71.9657L36.7639 61.4625L36.2306 62.3085L52.891 72.8116L53.4243 71.9657ZM36.2462 61.4531L36.0897 61.544L36.5919 62.4088L36.7483 62.3179L36.2462 61.4531ZM37.4065 57.4781C37.4065 59.061 36.8618 60.5152 35.9491 61.6656L36.7325 62.2871C37.7804 60.9663 38.4065 59.2946 38.4065 57.4781H37.4065ZM30.6632 50.7348C34.3875 50.7348 37.4065 53.7538 37.4065 57.4781H38.4065C38.4065 53.2015 34.9397 49.7348 30.6632 49.7348V50.7348ZM23.9199 57.4781C23.9199 53.7538 26.939 50.7348 30.6632 50.7348V49.7348C26.3867 49.7348 22.9199 53.2015 22.9199 57.4781H23.9199ZM30.6632 64.2214C26.939 64.2214 23.9199 61.2023 23.9199 57.4781H22.9199C22.9199 61.7546 26.3867 65.2214 30.6632 65.2214V64.2214ZM32.7199 63.9021C32.0722 64.1093 31.3813 64.2214 30.6632 64.2214V65.2214C31.4859 65.2214 32.2795 65.0929 33.0246 64.8546L32.7199 63.9021ZM32.4028 64.5504L44.7202 98.1542L45.6591 97.81L33.3417 64.2063L32.4028 64.5504ZM45.1897 98.4821H88.7713V97.4821H45.1897V98.4821ZM89.2429 98.1482L101.08 64.5488L100.137 64.2165L88.2997 97.816L89.2429 98.1482ZM100.437 64.8522C101.267 65.1557 102.163 65.3211 103.096 65.3211V64.3211C102.282 64.3211 101.502 64.1769 100.781 63.913L100.437 64.8522ZM103.096 65.3211C107.373 65.3211 110.84 61.8543 110.84 57.5778H109.84C109.84 61.302 106.821 64.3211 103.096 64.3211V65.3211ZM110.84 57.5778C110.84 53.3013 107.373 49.8345 103.096 49.8345V50.8345C106.821 50.8345 109.84 53.8536 109.84 57.5778H110.84ZM103.096 49.8345C98.8199 49.8345 95.3531 53.3013 95.3531 57.5778H96.3531C96.3531 53.8536 99.3722 50.8345 103.096 50.8345V49.8345ZM95.3531 57.5778C95.3531 59.3171 95.9272 60.9238 96.896 62.2168L97.6963 61.6171C96.8527 60.4913 96.3531 59.0936 96.3531 57.5778H95.3531ZM97.0166 61.5024L81.4897 71.9741L82.0489 72.8032L97.5757 62.3315L97.0166 61.5024ZM82.217 72.166L70.8183 49.2485L69.9229 49.6938L81.3216 72.6113L82.217 72.166Z" fill="#B4F9BA" mask="url(#path-3-inside-1_25657_1374)"/>
<defs>
<radialGradient id="paint0_radial_25657_1374" cx="0" cy="0" r="1" gradientUnits="userSpaceOnUse" gradientTransform="translate(-0.256694 -65.8517) rotate(64.2556) scale(275.815 177.843)">
<stop stop-color="#A3F5AA"/>
<stop offset="0.32258" stop-color="#82D289"/>
<stop offset="0.568893" stop-color="#66AB6C"/>
<stop offset="1" stop-color="#386A3C"/>
</radialGradient>
<radialGradient id="paint1_radial_25657_1374" cx="0" cy="0" r="1" gradientUnits="userSpaceOnUse" gradientTransform="translate(47.8044 49.1632) rotate(80.4841) scale(94.3 83.9188)">
<stop stop-color="#A3F5AA"/>
<stop offset="0.4" stop-color="#82D289"/>
<stop offset="0.835" stop-color="#66AB6C"/>
<stop offset="1" stop-color="#386A3C"/>
</radialGradient>
</defs>
</svg>
