<svg width="127" height="127" viewBox="0 0 127 127" fill="none" xmlns="http://www.w3.org/2000/svg">
<rect x="0.000488281" y="0.1875" width="126.186" height="126.186" rx="43" fill="#474747"/>
<rect x="0.000488281" y="0.1875" width="126.186" height="126.186" rx="43" stroke="#474747"/>
<rect x="0.250488" y="0.4375" width="125.686" height="125.686" rx="42.75" fill="url(#paint0_radial_25909_1365)" fill-opacity="0.27" stroke="#B4F9BA" stroke-width="0.5"/>
<mask id="path-3-inside-1_25909_1365" fill="white">
<path fill-rule="evenodd" clip-rule="evenodd" d="M66.5844 45.8403C68.8556 44.6177 70.3993 42.2182 70.3993 39.4581C70.3993 35.4578 67.1564 32.2148 63.156 32.2148C59.1557 32.2148 55.9127 35.4578 55.9127 39.4581C55.9127 42.3224 57.5752 44.7984 59.988 45.9737L49.3716 68.7578L32.7111 58.2547L32.5547 58.3455C33.5349 57.1099 34.1204 55.5469 34.1204 53.8472C34.1204 49.8468 30.8775 46.6039 26.8771 46.6039C22.8767 46.6039 19.6338 49.8468 19.6338 53.8472C19.6338 57.8476 22.8767 61.0905 26.8771 61.0905C27.6474 61.0905 28.3897 60.9702 29.0861 60.7475L41.4035 94.3512H84.9852L96.8227 60.7518C97.5985 61.0354 98.4363 61.1902 99.3103 61.1902C103.311 61.1902 106.554 57.9473 106.554 53.9469C106.554 49.9466 103.311 46.7036 99.3103 46.7036C95.3099 46.7036 92.067 49.9466 92.067 53.9469C92.067 55.5745 92.6038 57.0767 93.51 58.2861L77.9831 68.7578L66.5844 45.8403Z"/>
</mask>
<path fill-rule="evenodd" clip-rule="evenodd" d="M66.5844 45.8403C68.8556 44.6177 70.3993 42.2182 70.3993 39.4581C70.3993 35.4578 67.1564 32.2148 63.156 32.2148C59.1557 32.2148 55.9127 35.4578 55.9127 39.4581C55.9127 42.3224 57.5752 44.7984 59.988 45.9737L49.3716 68.7578L32.7111 58.2547L32.5547 58.3455C33.5349 57.1099 34.1204 55.5469 34.1204 53.8472C34.1204 49.8468 30.8775 46.6039 26.8771 46.6039C22.8767 46.6039 19.6338 49.8468 19.6338 53.8472C19.6338 57.8476 22.8767 61.0905 26.8771 61.0905C27.6474 61.0905 28.3897 60.9702 29.0861 60.7475L41.4035 94.3512H84.9852L96.8227 60.7518C97.5985 61.0354 98.4363 61.1902 99.3103 61.1902C103.311 61.1902 106.554 57.9473 106.554 53.9469C106.554 49.9466 103.311 46.7036 99.3103 46.7036C95.3099 46.7036 92.067 49.9466 92.067 53.9469C92.067 55.5745 92.6038 57.0767 93.51 58.2861L77.9831 68.7578L66.5844 45.8403Z" fill="url(#paint1_radial_25909_1365)" fill-opacity="0.27"/>
<path d="M66.5844 45.8403L66.3474 45.4L65.9212 45.6295L66.1368 46.063L66.5844 45.8403ZM59.988 45.9737L60.4412 46.1849L60.6488 45.7394L60.2069 45.5242L59.988 45.9737ZM49.3716 68.7578L49.1049 69.1808L49.585 69.4835L49.8248 68.969L49.3716 68.7578ZM32.7111 58.2547L32.9778 57.8317L32.7218 57.6703L32.4601 57.8223L32.7111 58.2547ZM32.5547 58.3455L32.163 58.0347L32.8057 58.7779L32.5547 58.3455ZM29.0861 60.7475L29.5556 60.5754L29.3905 60.1251L28.9338 60.2712L29.0861 60.7475ZM41.4035 94.3512L40.9341 94.5233L41.0543 94.8512H41.4035V94.3512ZM84.9852 94.3512V94.8512H85.3391L85.4568 94.5174L84.9852 94.3512ZM96.8227 60.7518L96.9944 60.2822L96.5192 60.1084L96.3511 60.5856L96.8227 60.7518ZM93.51 58.2861L93.7896 58.7006L94.2253 58.4068L93.9101 57.9863L93.51 58.2861ZM77.9831 68.7578L77.5355 68.9805L77.7896 69.4914L78.2627 69.1724L77.9831 68.7578ZM69.8993 39.4581C69.8993 42.027 68.4631 44.2611 66.3474 45.4L66.8214 46.2806C69.2481 44.9742 70.8993 42.4094 70.8993 39.4581H69.8993ZM63.156 32.7148C66.8802 32.7148 69.8993 35.7339 69.8993 39.4581H70.8993C70.8993 35.1816 67.4325 31.7148 63.156 31.7148V32.7148ZM56.4127 39.4581C56.4127 35.7339 59.4318 32.7148 63.156 32.7148V31.7148C58.8795 31.7148 55.4127 35.1816 55.4127 39.4581H56.4127ZM60.2069 45.5242C57.9596 44.4295 56.4127 42.124 56.4127 39.4581H55.4127C55.4127 42.5209 57.1909 45.1674 59.769 46.4232L60.2069 45.5242ZM59.5348 45.7625L48.9183 68.5466L49.8248 68.969L60.4412 46.1849L59.5348 45.7625ZM49.6382 68.3349L32.9778 57.8317L32.4445 58.6776L49.1049 69.1808L49.6382 68.3349ZM32.4601 57.8223L32.3036 57.9131L32.8057 58.7779L32.9622 58.687L32.4601 57.8223ZM33.6204 53.8472C33.6204 55.4301 33.0756 56.8844 32.163 58.0347L32.9464 58.6563C33.9942 57.3355 34.6204 55.6638 34.6204 53.8472H33.6204ZM26.8771 47.1039C30.6013 47.1039 33.6204 50.123 33.6204 53.8472H34.6204C34.6204 49.5707 31.1536 46.1039 26.8771 46.1039V47.1039ZM20.1338 53.8472C20.1338 50.123 23.1529 47.1039 26.8771 47.1039V46.1039C22.6006 46.1039 19.1338 49.5707 19.1338 53.8472H20.1338ZM26.8771 60.5905C23.1529 60.5905 20.1338 57.5714 20.1338 53.8472H19.1338C19.1338 58.1237 22.6006 61.5905 26.8771 61.5905V60.5905ZM28.9338 60.2712C28.286 60.4784 27.5951 60.5905 26.8771 60.5905V61.5905C27.6998 61.5905 28.4934 61.462 29.2385 61.2237L28.9338 60.2712ZM28.6167 60.9196L40.9341 94.5233L41.873 94.1792L29.5556 60.5754L28.6167 60.9196ZM41.4035 94.8512H84.9852V93.8512H41.4035V94.8512ZM85.4568 94.5174L97.2943 60.9179L96.3511 60.5856L84.5136 94.1851L85.4568 94.5174ZM96.651 61.2214C97.481 61.5248 98.3769 61.6902 99.3103 61.6902V60.6902C98.4957 60.6902 97.716 60.546 96.9944 60.2822L96.651 61.2214ZM99.3103 61.6902C103.587 61.6902 107.054 58.2234 107.054 53.9469H106.054C106.054 57.6711 103.035 60.6902 99.3103 60.6902V61.6902ZM107.054 53.9469C107.054 49.6704 103.587 46.2036 99.3103 46.2036V47.2036C103.035 47.2036 106.054 50.2227 106.054 53.9469H107.054ZM99.3103 46.2036C95.0338 46.2036 91.567 49.6704 91.567 53.9469H92.567C92.567 50.2227 95.5861 47.2036 99.3103 47.2036V46.2036ZM91.567 53.9469C91.567 55.6863 92.1411 57.293 93.1099 58.5859L93.9101 57.9863C93.0665 56.8604 92.567 55.4627 92.567 53.9469H91.567ZM93.2304 57.8716L77.7036 68.3433L78.2627 69.1724L93.7896 58.7006L93.2304 57.8716ZM78.4308 68.5352L67.0321 45.6176L66.1368 46.063L77.5355 68.9805L78.4308 68.5352Z" fill="#B4F9BA" mask="url(#path-3-inside-1_25909_1365)"/>
<defs>
<radialGradient id="paint0_radial_25909_1365" cx="0" cy="0" r="1" gradientUnits="userSpaceOnUse" gradientTransform="translate(-4.04283 -69.4826) rotate(64.2556) scale(275.815 177.843)">
<stop stop-color="#A3F5AA"/>
<stop offset="0.32258" stop-color="#82D289"/>
<stop offset="0.568893" stop-color="#66AB6C"/>
<stop offset="1" stop-color="#386A3C"/>
</radialGradient>
<radialGradient id="paint1_radial_25909_1365" cx="0" cy="0" r="1" gradientUnits="userSpaceOnUse" gradientTransform="translate(44.0182 45.5324) rotate(80.4841) scale(94.3 83.9188)">
<stop stop-color="#A3F5AA"/>
<stop offset="0.4" stop-color="#82D289"/>
<stop offset="0.835" stop-color="#66AB6C"/>
<stop offset="1" stop-color="#386A3C"/>
</radialGradient>
</defs>
</svg>
