<svg width="25" height="26" viewBox="0 0 25 26" fill="none" xmlns="http://www.w3.org/2000/svg">
<path fill-rule="evenodd" clip-rule="evenodd" d="M12.1948 0.849342C12.4564 0.849415 12.7073 0.953368 12.8923 1.13835C13.0772 1.32333 13.1812 1.5742 13.1813 1.8358L13.1818 12.0125L23.3579 12.0135C23.6155 12.0196 23.8605 12.1262 24.0405 12.3105C24.2205 12.4948 24.3213 12.7423 24.3213 12.9999C24.3213 13.2576 24.2205 13.505 24.0405 13.6894C23.8605 13.8737 23.6155 13.9803 23.3579 13.9864L13.1813 13.9859L13.1813 24.163C13.1752 24.4206 13.0686 24.6656 12.8842 24.8456C12.6999 25.0257 12.4525 25.1264 12.1948 25.1264C11.9371 25.1264 11.6897 25.0257 11.5054 24.8456C11.321 24.6656 11.2144 24.4206 11.2083 24.163L11.2083 13.9859L1.03068 13.9864C0.773091 13.9803 0.528105 13.8737 0.348082 13.6894C0.168057 13.505 0.0672743 13.2576 0.0672745 12.9999C0.0672734 12.7423 0.168056 12.4948 0.348082 12.3105C0.528106 12.1262 0.773092 12.0196 1.03068 12.0135L11.2078 12.0125L11.2089 1.83631C11.2089 1.5747 11.3129 1.32384 11.4979 1.13886C11.6828 0.953876 11.9337 0.849922 12.1953 0.849849L12.1948 0.849342Z" fill="white"/>
</svg>
