<svg width="27" height="28" viewBox="0 0 27 28" fill="none" xmlns="http://www.w3.org/2000/svg">
<g clip-path="url(#clip0_28469_6117)">
<path fill-rule="evenodd" clip-rule="evenodd" d="M13.1948 1.84934C13.4564 1.84941 13.7073 1.95337 13.8923 2.13835C14.0772 2.32333 14.1812 2.5742 14.1813 2.8358L14.1818 13.0125L24.3579 13.0135C24.6155 13.0196 24.8605 13.1262 25.0405 13.3105C25.2205 13.4948 25.3213 13.7423 25.3213 13.9999C25.3213 14.2576 25.2205 14.505 25.0405 14.6894C24.8605 14.8737 24.6155 14.9803 24.3579 14.9864L14.1813 14.9859L14.1813 25.163C14.1752 25.4206 14.0686 25.6656 13.8842 25.8456C13.6999 26.0257 13.4525 26.1264 13.1948 26.1264C12.9371 26.1264 12.6897 26.0257 12.5054 25.8456C12.321 25.6656 12.2144 25.4206 12.2083 25.163L12.2083 14.9859L2.03068 14.9864C1.77309 14.9803 1.52811 14.8737 1.34808 14.6894C1.16806 14.505 1.06727 14.2576 1.06727 13.9999C1.06727 13.7423 1.16806 13.4948 1.34808 13.3105C1.52811 13.1262 1.77309 13.0196 2.03068 13.0135L12.2078 13.0125L12.2089 2.83631C12.2089 2.5747 12.3129 2.32384 12.4979 2.13886C12.6828 1.95388 12.9337 1.84992 13.1953 1.84985L13.1948 1.84934Z" fill="#333333"/>
</g>
<defs>
<clipPath id="clip0_28469_6117">
<rect width="18.6582" height="18.6582" fill="white" transform="translate(13.1934 0.806641) rotate(45)"/>
</clipPath>
</defs>
</svg>
