<svg width="163" height="135" viewBox="0 0 163 135" fill="none" xmlns="http://www.w3.org/2000/svg">
<path d="M135.573 67.5009C135.573 104.586 105.464 134.65 68.3214 134.65C31.1787 134.65 1.06934 104.586 1.06934 67.5009C1.06934 30.4157 31.1787 0.351562 68.3214 0.351562C105.464 0.351562 135.573 30.4157 135.573 67.5009Z" fill="url(#paint0_radial_23588_583)" fill-opacity="0.27" stroke="#B4F9BA" stroke-width="0.5"/>
<path d="M78.3293 63.0588C79.7792 62.4909 81.1734 61.8017 82.4951 61.0051L82.8131 60.8134L82.516 60.5909C82.1566 60.3217 81.801 60.0401 81.4533 59.7502L81.3306 59.648L81.1863 59.7163C72.9171 63.6307 63.8271 63.6313 55.4557 59.7158L55.3109 59.6481L55.1886 59.7511C54.8457 60.0403 54.4908 60.3213 54.1281 60.5901L53.8278 60.8125L54.1481 61.0052C55.4658 61.7978 56.8562 62.4868 58.3058 63.0547C57.5654 64.509 56.7184 65.8946 55.777 67.2053C51.6542 65.9028 47.4619 63.9286 43.1371 60.7147C42.2602 51.0952 44.0666 41.342 50.6713 31.3341C53.9005 29.826 57.3515 28.7214 60.957 28.0817C61.3932 28.8786 61.8896 29.8967 62.2301 30.7146L62.3053 30.8952L62.4987 30.8656C66.3456 30.2762 70.2287 30.2761 74.149 30.8657L74.342 30.8947L74.417 30.7146C74.758 29.8957 75.2437 28.8779 75.6747 28.0819C79.2762 28.7216 82.7233 29.8221 85.9523 31.3263C91.682 39.9071 94.5336 49.5723 93.506 60.7147C89.181 63.9327 84.9847 65.907 80.8576 67.2095C79.9135 65.8992 79.0697 64.5104 78.3293 63.0588ZM54.9425 49.6225C54.9425 52.6089 57.1023 55.1169 59.8028 55.1169C62.5482 55.1169 64.6663 52.6087 64.6631 49.6242C64.7081 46.6296 62.5454 44.1241 59.8028 44.1241C57.0563 44.1241 54.9425 46.638 54.9425 49.6225ZM71.98 49.6225C71.98 52.6089 74.1398 55.1169 76.8403 55.1169C79.5859 55.1169 81.6997 52.6083 81.7005 49.6244C81.7456 46.6297 79.5829 44.1241 76.8403 44.1241C74.0937 44.1241 71.98 46.638 71.98 49.6225Z" fill="url(#paint1_radial_23588_583)" fill-opacity="0.27" stroke="#B4F9BA" stroke-width="0.5"/>
<mask id="path-3-inside-1_23588_583" fill="white">
<path d="M37.6954 104.331C30.9154 104.331 26.8654 99.8305 26.8654 93.1105C26.8654 86.0305 31.2754 81.9205 37.9054 81.9205C43.7254 81.9205 47.5354 84.9805 48.0454 89.5405H43.2454C42.7354 87.2605 40.7254 85.9105 37.9054 85.9105C34.1254 85.9105 31.6654 88.2805 31.6654 93.1105C31.6654 97.9705 34.0054 100.431 37.7854 100.431C41.1754 100.431 43.3954 98.6305 43.6954 95.7205H37.6954V92.3905H48.4354V94.4905C48.4354 100.461 44.1754 104.331 37.6954 104.331ZM51.8866 104.061V82.1905H58.9666L63.4666 96.5005H63.6466L68.0866 82.1905H75.1966V104.061H70.6666V95.4205L70.7266 87.0805H70.5166L65.3866 104.061H61.7266L56.5966 87.0805H56.3566L56.4466 95.4805V104.061H51.8866ZM80.6144 97.5205L79.5044 89.3905V82.1905H84.0044V89.3905L82.8944 97.5205H80.6144ZM79.7444 104.061V99.9505H83.7344V104.061H79.7444Z"/>
</mask>
<path d="M37.6954 104.331C30.9154 104.331 26.8654 99.8305 26.8654 93.1105C26.8654 86.0305 31.2754 81.9205 37.9054 81.9205C43.7254 81.9205 47.5354 84.9805 48.0454 89.5405H43.2454C42.7354 87.2605 40.7254 85.9105 37.9054 85.9105C34.1254 85.9105 31.6654 88.2805 31.6654 93.1105C31.6654 97.9705 34.0054 100.431 37.7854 100.431C41.1754 100.431 43.3954 98.6305 43.6954 95.7205H37.6954V92.3905H48.4354V94.4905C48.4354 100.461 44.1754 104.331 37.6954 104.331ZM51.8866 104.061V82.1905H58.9666L63.4666 96.5005H63.6466L68.0866 82.1905H75.1966V104.061H70.6666V95.4205L70.7266 87.0805H70.5166L65.3866 104.061H61.7266L56.5966 87.0805H56.3566L56.4466 95.4805V104.061H51.8866ZM80.6144 97.5205L79.5044 89.3905V82.1905H84.0044V89.3905L82.8944 97.5205H80.6144ZM79.7444 104.061V99.9505H83.7344V104.061H79.7444Z" fill="url(#paint2_radial_23588_583)" fill-opacity="0.27"/>
<path d="M48.0454 89.5405V90.0405H48.6045L48.5423 89.485L48.0454 89.5405ZM43.2454 89.5405L42.7575 89.6497L42.8449 90.0405H43.2454V89.5405ZM43.6954 95.7205L44.1928 95.7718L44.2496 95.2205H43.6954V95.7205ZM37.6954 95.7205H37.1954V96.2205H37.6954V95.7205ZM37.6954 92.3905V91.8905H37.1954V92.3905H37.6954ZM48.4354 92.3905H48.9354V91.8905H48.4354V92.3905ZM37.6954 103.831C34.4202 103.831 31.8522 102.747 30.1011 100.897C28.3466 99.0434 27.3654 96.3709 27.3654 93.1105H26.3654C26.3654 96.5702 27.4092 99.5077 29.3748 101.584C31.3437 103.664 34.1906 104.831 37.6954 104.831V103.831ZM27.3654 93.1105C27.3654 89.6762 28.4327 87.0165 30.251 85.2158C32.0704 83.414 34.6942 82.4205 37.9054 82.4205V81.4205C34.4867 81.4205 31.5904 82.4821 29.5474 84.5053C27.5032 86.5296 26.3654 89.4649 26.3654 93.1105H27.3654ZM37.9054 82.4205C40.7298 82.4205 43.0237 83.1627 44.6627 84.4176C46.2962 85.6681 47.3084 87.4487 47.5485 89.5961L48.5423 89.485C48.2725 87.0724 47.1247 85.043 45.2706 83.6235C43.4221 82.2084 40.901 81.4205 37.9054 81.4205V82.4205ZM48.0454 89.0405H43.2454V90.0405H48.0454V89.0405ZM43.7334 89.4314C43.1581 86.8598 40.888 85.4105 37.9054 85.4105V86.4105C40.5629 86.4105 42.3127 87.6613 42.7575 89.6497L43.7334 89.4314ZM37.9054 85.4105C35.9084 85.4105 34.2008 86.0398 32.998 87.363C31.801 88.6796 31.1654 90.6157 31.1654 93.1105H32.1654C32.1654 90.7754 32.7598 89.1115 33.7379 88.0356C34.7101 86.9663 36.1225 86.4105 37.9054 86.4105V85.4105ZM31.1654 93.1105C31.1654 95.6138 31.7677 97.5767 32.9298 98.9202C34.1011 100.274 35.7818 100.931 37.7854 100.931V99.9305C36.009 99.9305 34.6297 99.3568 33.6861 98.2659C32.7332 97.1644 32.1654 95.4672 32.1654 93.1105H31.1654ZM37.7854 100.931C39.567 100.931 41.0878 100.457 42.2117 99.5571C43.3413 98.6526 44.0303 97.3484 44.1928 95.7718L43.1981 95.6693C43.0606 97.0027 42.4896 98.0535 41.5867 98.7765C40.6781 99.504 39.3938 99.9305 37.7854 99.9305V100.931ZM43.6954 95.2205H37.6954V96.2205H43.6954V95.2205ZM38.1954 95.7205V92.3905H37.1954V95.7205H38.1954ZM37.6954 92.8905H48.4354V91.8905H37.6954V92.8905ZM47.9354 92.3905V94.4905H48.9354V92.3905H47.9354ZM47.9354 94.4905C47.9354 97.3505 46.9186 99.6711 45.1581 101.28C43.3931 102.893 40.837 103.831 37.6954 103.831V104.831C41.0338 104.831 43.8478 103.833 45.8328 102.018C47.8222 100.2 48.9354 97.6006 48.9354 94.4905H47.9354ZM51.8866 104.061H51.3866V104.561H51.8866V104.061ZM51.8866 82.1905V81.6905H51.3866V82.1905H51.8866ZM58.9666 82.1905L59.4436 82.0406L59.3335 81.6905H58.9666V82.1905ZM63.4666 96.5005L62.9896 96.6505L63.0997 97.0005H63.4666V96.5005ZM63.6466 96.5005V97.0005H64.015L64.1241 96.6487L63.6466 96.5005ZM68.0866 82.1905V81.6905H67.7182L67.6091 82.0424L68.0866 82.1905ZM75.1966 82.1905H75.6966V81.6905H75.1966V82.1905ZM75.1966 104.061V104.561H75.6966V104.061H75.1966ZM70.6666 104.061H70.1666V104.561H70.6666V104.061ZM70.6666 95.4205L70.1666 95.417V95.4205H70.6666ZM70.7266 87.0805L71.2266 87.0841L71.2302 86.5805H70.7266V87.0805ZM70.5166 87.0805V86.5805H70.1453L70.038 86.9359L70.5166 87.0805ZM65.3866 104.061V104.561H65.7579L65.8652 104.205L65.3866 104.061ZM61.7266 104.061L61.248 104.205L61.3553 104.561H61.7266V104.061ZM56.5966 87.0805L57.0752 86.9359L56.9679 86.5805H56.5966V87.0805ZM56.3566 87.0805V86.5805H55.8512L55.8566 87.0859L56.3566 87.0805ZM56.4466 95.4805H56.9466L56.9466 95.4752L56.4466 95.4805ZM56.4466 104.061V104.561H56.9466V104.061H56.4466ZM52.3866 104.061V82.1905H51.3866V104.061H52.3866ZM51.8866 82.6905H58.9666V81.6905H51.8866V82.6905ZM58.4896 82.3405L62.9896 96.6505L63.9436 96.3506L59.4436 82.0406L58.4896 82.3405ZM63.4666 97.0005H63.6466V96.0005H63.4666V97.0005ZM64.1241 96.6487L68.5641 82.3387L67.6091 82.0424L63.1691 96.3524L64.1241 96.6487ZM68.0866 82.6905H75.1966V81.6905H68.0866V82.6905ZM74.6966 82.1905V104.061H75.6966V82.1905H74.6966ZM75.1966 103.561H70.6666V104.561H75.1966V103.561ZM71.1666 104.061V95.4205H70.1666V104.061H71.1666ZM71.1666 95.4241L71.2266 87.0841L70.2266 87.0769L70.1666 95.417L71.1666 95.4241ZM70.7266 86.5805H70.5166V87.5805H70.7266V86.5805ZM70.038 86.9359L64.908 103.916L65.8652 104.205L70.9952 87.2252L70.038 86.9359ZM65.3866 103.561H61.7266V104.561H65.3866V103.561ZM62.2052 103.916L57.0752 86.9359L56.118 87.2252L61.248 104.205L62.2052 103.916ZM56.5966 86.5805H56.3566V87.5805H56.5966V86.5805ZM55.8566 87.0859L55.9466 95.4859L56.9466 95.4752L56.8566 87.0752L55.8566 87.0859ZM55.9466 95.4805V104.061H56.9466V95.4805H55.9466ZM56.4466 103.561H51.8866V104.561H56.4466V103.561ZM80.6144 97.5205L80.119 97.5882L80.178 98.0205H80.6144V97.5205ZM79.5044 89.3905H79.0044V89.4245L79.009 89.4582L79.5044 89.3905ZM79.5044 82.1905V81.6905H79.0044V82.1905H79.5044ZM84.0044 82.1905H84.5044V81.6905H84.0044V82.1905ZM84.0044 89.3905L84.4998 89.4582L84.5044 89.4245V89.3905H84.0044ZM82.8944 97.5205V98.0205H83.3308L83.3898 97.5882L82.8944 97.5205ZM79.7444 104.061H79.2444V104.561H79.7444V104.061ZM79.7444 99.9505V99.4505H79.2444V99.9505H79.7444ZM83.7344 99.9505H84.2344V99.4505H83.7344V99.9505ZM83.7344 104.061V104.561H84.2344V104.061H83.7344ZM81.1098 97.4529L79.9998 89.3229L79.009 89.4582L80.119 97.5882L81.1098 97.4529ZM80.0044 89.3905V82.1905H79.0044V89.3905H80.0044ZM79.5044 82.6905H84.0044V81.6905H79.5044V82.6905ZM83.5044 82.1905V89.3905H84.5044V82.1905H83.5044ZM83.509 89.3229L82.399 97.4529L83.3898 97.5882L84.4998 89.4582L83.509 89.3229ZM82.8944 97.0205H80.6144V98.0205H82.8944V97.0205ZM80.2444 104.061V99.9505H79.2444V104.061H80.2444ZM79.7444 100.451H83.7344V99.4505H79.7444V100.451ZM83.2344 99.9505V104.061H84.2344V99.9505H83.2344ZM83.7344 103.561H79.7444V104.561H83.7344V103.561Z" fill="#B4F9BA" mask="url(#path-3-inside-1_23588_583)"/>
<circle cx="127.397" cy="94.9004" r="34.5" fill="url(#paint3_radial_23588_583)" stroke="white" stroke-dasharray="3 3"/>
<g style="mix-blend-mode:luminosity">
<path d="M120.628 78.3233L127.12 74.5741C127.305 74.4675 127.534 74.4675 127.719 74.5741L144.829 84.4527C145.014 84.5593 145.128 84.7567 145.129 84.97L145.152 91.7643C145.152 91.9794 145.039 92.1785 144.852 92.2851L138.369 96.0289C137.971 96.26 137.471 95.972 137.469 95.5116L137.448 89.4142C137.448 89.2009 137.332 89.0035 137.148 88.8969L120.628 79.3614C120.228 79.1303 120.228 78.5544 120.628 78.3233Z" fill="white"/>
<path d="M116.432 109.103L109.942 105.356C109.755 105.249 109.641 105.052 109.641 104.837V85.0794C109.641 84.8661 109.755 84.6688 109.94 84.5603L115.813 81.1419C116 81.0334 116.229 81.0334 116.414 81.1419L122.897 84.8857C123.295 85.1168 123.297 85.691 122.899 85.9238L117.63 88.9903C117.445 89.097 117.331 89.2943 117.331 89.5094V108.586C117.331 109.048 116.832 109.336 116.432 109.105V109.103Z" fill="white"/>
<path d="M145.149 97.3347V104.829C145.149 105.045 145.035 105.242 144.848 105.349L127.738 115.227C127.553 115.334 127.326 115.334 127.141 115.227L121.244 111.849C121.057 111.743 120.942 111.544 120.942 111.329V103.843C120.942 103.382 121.44 103.094 121.84 103.322L127.13 106.353C127.315 106.46 127.542 106.458 127.727 106.353L144.247 96.8139C144.647 96.5828 145.147 96.8708 145.147 97.333L145.149 97.3347Z" fill="white"/>
</g>
<defs>
<radialGradient id="paint0_radial_23588_583" cx="0" cy="0" r="1" gradientUnits="userSpaceOnUse" gradientTransform="translate(38.6933 28.9927) rotate(83.1564) scale(203.207 131.22)">
<stop stop-color="#A3F5AA"/>
<stop offset="0.4" stop-color="#82D289"/>
<stop offset="0.835" stop-color="#66AB6C"/>
<stop offset="1" stop-color="#386A3C"/>
</radialGradient>
<radialGradient id="paint1_radial_23588_583" cx="0" cy="0" r="1" gradientUnits="userSpaceOnUse" gradientTransform="translate(57.0673 36.3129) rotate(81.2003) scale(60.1243 49.6112)">
<stop stop-color="#A3F5AA"/>
<stop offset="0.4" stop-color="#82D289"/>
<stop offset="0.835" stop-color="#66AB6C"/>
<stop offset="1" stop-color="#386A3C"/>
</radialGradient>
<radialGradient id="paint2_radial_23588_583" cx="0" cy="0" r="1" gradientUnits="userSpaceOnUse" gradientTransform="translate(42.9283 84.7763) rotate(78.5222) scale(54.9824 58.5214)">
<stop stop-color="#A3F5AA"/>
<stop offset="0.4" stop-color="#82D289"/>
<stop offset="0.835" stop-color="#66AB6C"/>
<stop offset="1" stop-color="#386A3C"/>
</radialGradient>
<radialGradient id="paint3_radial_23588_583" cx="0" cy="0" r="1" gradientUnits="userSpaceOnUse" gradientTransform="translate(112.035 74.9033) rotate(83.1667) scale(105.522 68.0393)">
<stop stop-color="#656565"/>
<stop offset="0.4" stop-color="#525252"/>
<stop offset="0.835" stop-color="#373737"/>
<stop offset="1" stop-color="#2F2F2F"/>
</radialGradient>
</defs>
</svg>
