<svg width="482" height="197" viewBox="0 0 482 197" fill="none" xmlns="http://www.w3.org/2000/svg">
<g opacity="0.6">
<rect x="20.5" y="37.5" width="461" height="107" rx="19.5" fill="url(#paint0_linear_30093_5223)" fill-opacity="0.2"/>
<rect x="20.5" y="37.5" width="461" height="107" rx="19.5" fill="black" fill-opacity="0.2"/>
<rect x="20.5" y="37.5" width="461" height="107" rx="19.5" stroke="url(#paint1_linear_30093_5223)"/>
</g>
<path d="M134.4 104.36C126.52 104.36 122.36 100.52 122.36 94.84H128.68C128.76 97.72 130.48 99.6 134.64 99.6C137.84 99.6 139.92 98.44 139.92 96.12C139.92 93.32 138.4 92.72 133.12 91.84C126.4 90.8 122.96 88.44 122.96 83.36C122.96 77.88 127.28 74.48 134.36 74.48C141.2 74.48 145.48 77.96 145.52 83.16H139.24C139.12 80.32 136.92 79.2 134.16 79.2C131.24 79.2 129.44 80.48 129.44 82.56C129.44 85.24 131.44 85.6 136.48 86.44C141.36 87.2 146.4 88.48 146.4 95.52C146.4 100.76 142.36 104.36 134.4 104.36ZM158.834 104.36C152.114 104.36 148.154 100 148.154 93.44C148.154 86.52 152.274 82.16 158.634 82.16C166.074 82.16 169.594 87.48 168.874 94.6H153.954C153.914 98 155.874 99.92 158.834 99.92C161.074 99.92 162.754 98.84 163.194 97.2H168.754C168.194 101.52 164.234 104.36 158.834 104.36ZM158.634 86.6C155.954 86.6 154.234 88.24 153.994 90.84H163.114C162.954 88 161.074 86.6 158.634 86.6ZM179.386 104.36C174.266 104.36 170.826 100.64 170.826 93.28C170.826 85.88 174.266 82.16 179.386 82.16C182.706 82.16 185.186 83.8 186.186 86.28H186.506L186.746 82.56H192.386V104H186.506V100.24H186.186C185.186 102.72 182.706 104.36 179.386 104.36ZM181.626 99.6C184.906 99.6 186.426 97.04 186.426 94.28V92.24C186.426 89.48 184.906 86.92 181.626 86.92C178.746 86.92 176.826 88.92 176.826 93.28C176.826 97.6 178.746 99.6 181.626 99.6ZM205.018 104.4C198.778 104.4 195.258 101.52 195.298 97.24H201.058C201.098 99.52 202.858 100.44 205.178 100.44C207.578 100.44 208.818 99.56 208.818 98.12C208.818 96.16 207.458 95.88 204.418 95.44C199.658 94.8 195.858 93.68 195.858 88.96C195.858 84.44 199.618 82.16 205.218 82.16C210.698 82.16 214.178 84.68 214.298 88.92H208.538C208.538 87.12 207.178 86.12 205.058 86.12C202.858 86.12 201.738 87.04 201.738 88.36C201.738 89.96 203.098 90.44 206.258 90.84C210.698 91.44 214.738 92.32 214.738 97.56C214.738 102.28 211.058 104.4 205.018 104.4ZM227.281 104.36C220.841 104.36 216.521 100.24 216.521 93.28C216.521 86.64 220.481 82.16 227.281 82.16C233.681 82.16 238.001 86.32 238.001 93.28C238.001 99.92 234.041 104.36 227.281 104.36ZM227.241 99.6C230.121 99.6 232.041 97.56 232.041 93.28C232.041 89.04 230.201 86.96 227.281 86.96C224.361 86.96 222.441 89 222.441 93.28C222.441 97.52 224.321 99.6 227.241 99.6ZM240.747 104V82.56H246.387L246.627 86.44H246.867C248.027 83.6 250.667 82.16 253.707 82.16C257.987 82.16 261.267 84.6 261.267 91.04V104H255.387V92.32C255.387 88.72 254.187 86.96 251.347 86.96C248.307 86.96 246.627 89.36 246.627 92.08V104H240.747ZM271.694 104V103.16C271.694 91.24 285.774 90.08 285.774 83.72C285.774 81.32 284.134 79.84 281.694 79.84C279.094 79.84 277.374 81.52 277.614 84.56H271.774C271.614 78.64 275.774 74.8 282.054 74.8C287.934 74.8 291.854 78.08 291.854 83.44C291.854 91.92 281.414 94 279.174 98.84H292.134V104H271.694ZM302.879 79.8V74.84H308.759V79.8H302.879ZM302.879 104V82.56H308.759V104H302.879ZM321.261 104.4C315.021 104.4 311.501 101.52 311.541 97.24H317.301C317.341 99.52 319.101 100.44 321.421 100.44C323.821 100.44 325.061 99.56 325.061 98.12C325.061 96.16 323.701 95.88 320.661 95.44C315.901 94.8 312.101 93.68 312.101 88.96C312.101 84.44 315.861 82.16 321.461 82.16C326.941 82.16 330.421 84.68 330.541 88.92H324.781C324.781 87.12 323.421 86.12 321.301 86.12C319.101 86.12 317.981 87.04 317.981 88.36C317.981 89.96 319.341 90.44 322.501 90.84C326.941 91.44 330.981 92.32 330.981 97.56C330.981 102.28 327.301 104.4 321.261 104.4ZM350.922 104.36C344.482 104.36 340.162 100.24 340.162 93.28C340.162 86.64 344.122 82.16 350.922 82.16C357.322 82.16 361.642 86.32 361.642 93.28C361.642 99.92 357.682 104.36 350.922 104.36ZM350.882 99.6C353.762 99.6 355.682 97.56 355.682 93.28C355.682 89.04 353.842 86.96 350.922 86.96C348.002 86.96 346.082 89 346.082 93.28C346.082 97.52 347.962 99.6 350.882 99.6ZM368.444 104L361.124 82.52H367.444L370.684 94L371.964 99.12H372.164L373.444 94.04L376.684 82.52H383.044L375.764 104H368.444ZM393.217 104.36C386.497 104.36 382.537 100 382.537 93.44C382.537 86.52 386.657 82.16 393.017 82.16C400.457 82.16 403.977 87.48 403.257 94.6H388.337C388.297 98 390.257 99.92 393.217 99.92C395.457 99.92 397.137 98.84 397.577 97.2H403.137C402.577 101.52 398.617 104.36 393.217 104.36ZM393.017 86.6C390.337 86.6 388.617 88.24 388.377 90.84H397.497C397.337 88 395.457 86.6 393.017 86.6ZM406.098 104V82.56H411.418L411.658 86H411.858C412.818 83.24 415.058 82.28 417.778 82.28H418.978V87.8H417.658C413.698 87.8 412.058 89.6 411.978 92.8V104H406.098ZM422.675 95.28L421.195 84.44V74.84H427.195V84.44L425.715 95.28H422.675ZM421.515 104V98.52H426.835V104H421.515Z" fill="white"/>
<path d="M474.438 45.7711C474.438 46.9715 474.349 48.1511 474.176 49.3033C467.226 50.3291 457.757 49.1351 449.316 46.2765C445.08 44.8417 441.107 42.989 437.846 40.791C434.606 38.6078 432.076 36.0887 430.681 33.3066C434.854 26.5903 442.298 22.119 450.786 22.119C463.849 22.119 474.438 32.7084 474.438 45.7711Z" fill="url(#paint2_radial_30093_5223)" stroke="white" stroke-width="0.23796"/>
<path fill-rule="evenodd" clip-rule="evenodd" d="M434.368 61.662L431.449 72.5304L439.426 80.4552L442.342 69.6012L453.265 66.7386L445.296 58.6067L434.368 61.662Z" fill="url(#paint3_radial_30093_5223)" fill-opacity="0.27"/>
<path d="M450.345 77.6071L453.265 66.7386L442.342 69.6012L439.426 80.4552L450.345 77.6071Z" fill="url(#paint4_radial_30093_5223)" fill-opacity="0.12"/>
<path d="M445.26 58.7403L453.036 66.6755L442.312 69.4862L442.245 69.5037L442.227 69.5704L439.365 80.2262L431.581 72.4947L434.466 61.7583L445.26 58.7403ZM450.248 77.5094L439.594 80.2884L442.439 69.6988L453.097 66.9056L450.248 77.5094Z" stroke="#B4F9BA" stroke-width="0.23796"/>
<path d="M430.674 33.6094L443.663 64.2909L474.14 49.4827" stroke="white" stroke-width="0.23796"/>
<path d="M30.5812 49.1192C30.1004 51.5953 29.8124 54.0641 29.7068 56.51C43.6313 61.4095 63.6422 62.7394 82.1969 60.2238C91.5103 58.9612 100.447 56.7309 108.054 53.5034C115.61 50.2977 121.839 46.115 125.83 40.9352C119.913 25.4104 106.349 13.206 88.8409 9.80621C61.897 4.57421 35.8132 22.1752 30.5812 49.1192Z" fill="url(#paint5_radial_30093_5223)" stroke="white" stroke-width="0.5"/>
<path fill-rule="evenodd" clip-rule="evenodd" d="M106.865 97.9472L108.535 121.535L88.9052 134.685L87.2378 111.13L65.8554 100.85L85.5488 87.2684L106.865 97.9472Z" fill="url(#paint6_radial_30093_5223)" fill-opacity="0.27"/>
<path d="M67.5251 124.438L65.8554 100.85L87.2378 111.13L88.9052 134.685L67.5251 124.438Z" fill="url(#paint7_radial_30093_5223)" fill-opacity="0.12"/>
<path d="M85.569 87.5582L66.3519 100.811L87.3461 110.904L87.4769 110.967L87.4872 111.112L89.1242 134.238L108.275 121.408L106.626 98.107L85.569 87.5582ZM67.7642 124.275L88.6255 134.274L86.9987 111.292L66.1352 101.262L67.7642 124.275Z" stroke="#B4F9BA" stroke-width="0.5"/>
<path d="M125.723 41.5586L86.6424 99.6418L29.7082 56.8903" stroke="white" stroke-width="0.5"/>
<g opacity="0.2" filter="url(#filter0_f_30093_5223)">
<circle cx="88.6978" cy="107.824" r="38.5" transform="rotate(10.989 88.6978 107.824)" fill="#A3F5AA"/>
</g>
<defs>
<filter id="filter0_f_30093_5223" x="0.19043" y="19.3164" width="177.015" height="177.016" filterUnits="userSpaceOnUse" color-interpolation-filters="sRGB">
<feFlood flood-opacity="0" result="BackgroundImageFix"/>
<feBlend mode="normal" in="SourceGraphic" in2="BackgroundImageFix" result="shape"/>
<feGaussianBlur stdDeviation="25" result="effect1_foregroundBlur_30093_5223"/>
</filter>
<linearGradient id="paint0_linear_30093_5223" x1="251" y1="37" x2="251" y2="171" gradientUnits="userSpaceOnUse">
<stop stop-color="#A3F5AA"/>
<stop offset="1" stop-color="#060606" stop-opacity="0"/>
</linearGradient>
<linearGradient id="paint1_linear_30093_5223" x1="251" y1="37" x2="251" y2="123.294" gradientUnits="userSpaceOnUse">
<stop stop-color="#A3F5AA"/>
<stop offset="1" stop-color="#A3F5AA" stop-opacity="0"/>
</linearGradient>
<radialGradient id="paint2_radial_30093_5223" cx="0" cy="0" r="1" gradientUnits="userSpaceOnUse" gradientTransform="translate(459.429 34.1427) rotate(-179.293) scale(27.0156 27.0156)">
<stop stop-color="#D1D1D1"/>
<stop offset="1" stop-color="#969696"/>
</radialGradient>
<radialGradient id="paint3_radial_30093_5223" cx="0" cy="0" r="1" gradientUnits="userSpaceOnUse" gradientTransform="translate(439.913 62.1811) rotate(99.1209) scale(34.0425 19.0522)">
<stop stop-color="#A3F5AA"/>
<stop offset="0.4" stop-color="#82D289"/>
<stop offset="0.835" stop-color="#66AB6C"/>
<stop offset="1" stop-color="#386A3C"/>
</radialGradient>
<radialGradient id="paint4_radial_30093_5223" cx="0" cy="0" r="1" gradientUnits="userSpaceOnUse" gradientTransform="translate(439.913 62.1811) rotate(99.1209) scale(34.0425 19.0522)">
<stop stop-color="#F2F2F2"/>
<stop offset="0.4" stop-color="#82D289"/>
<stop offset="0.835" stop-color="#66AB6C"/>
<stop offset="1" stop-color="#386A3C"/>
</radialGradient>
<radialGradient id="paint5_radial_30093_5223" cx="0" cy="0" r="1" gradientUnits="userSpaceOnUse" gradientTransform="translate(66.1983 31.1456) rotate(10.2817) scale(56.7651 56.7651)">
<stop stop-color="#D1D1D1"/>
<stop offset="1" stop-color="#969696"/>
</radialGradient>
<radialGradient id="paint6_radial_30093_5223" cx="0" cy="0" r="1" gradientUnits="userSpaceOnUse" gradientTransform="translate(95.2213 96.7975) rotate(91.8681) scale(71.5299 40.0324)">
<stop stop-color="#A3F5AA"/>
<stop offset="0.4" stop-color="#82D289"/>
<stop offset="0.835" stop-color="#66AB6C"/>
<stop offset="1" stop-color="#386A3C"/>
</radialGradient>
<radialGradient id="paint7_radial_30093_5223" cx="0" cy="0" r="1" gradientUnits="userSpaceOnUse" gradientTransform="translate(95.2213 96.7975) rotate(91.8681) scale(71.5299 40.0324)">
<stop stop-color="#F2F2F2"/>
<stop offset="0.4" stop-color="#82D289"/>
<stop offset="0.835" stop-color="#66AB6C"/>
<stop offset="1" stop-color="#386A3C"/>
</radialGradient>
</defs>
</svg>
