<svg width="464" height="185" viewBox="0 0 464 185" fill="none" xmlns="http://www.w3.org/2000/svg">
<rect opacity="0.6" x="2.5" y="11.5" width="461" height="107" rx="19.5" fill="url(#paint0_linear_29425_2972)" fill-opacity="0.2" stroke="url(#paint1_linear_29425_2972)"/>
<path d="M20.2583 49.9476C20.2583 52.47 20.4462 54.9484 20.8087 57.3696C35.4119 59.5249 55.3094 57.016 73.0443 51.0097C81.9463 47.9948 90.2937 44.1019 97.1462 39.4836C103.953 34.8963 109.27 29.603 112.2 23.7574C103.433 9.64507 87.7913 0.25 69.9559 0.25C42.5087 0.25 20.2583 22.5004 20.2583 49.9476Z" fill="url(#paint2_radial_29425_2972)" stroke="white" stroke-width="0.5"/>
<path fill-rule="evenodd" clip-rule="evenodd" d="M104.451 83.3386L110.586 106.175L93.8235 122.827L87.6965 100.021L64.7467 94.0056L81.49 76.9189L104.451 83.3386Z" fill="url(#paint3_radial_29425_2972)" fill-opacity="0.27"/>
<path d="M70.882 116.842L64.7467 94.0056L87.6965 100.021L93.8235 122.827L70.882 116.842Z" fill="url(#paint4_radial_29425_2972)" fill-opacity="0.12"/>
<path d="M81.5651 77.1995L65.2267 93.8729L87.7598 99.7787L87.9002 99.8155L87.9379 99.9557L93.9532 122.346L110.307 106.1L104.247 83.541L81.5651 77.1995ZM71.0857 116.637L93.4705 122.476L87.4927 100.226L65.0998 94.3566L71.0857 116.637Z" stroke="#B4F9BA" stroke-width="0.5"/>
<path d="M112.215 24.3906L84.9225 88.8584L20.883 57.7436" stroke="white" stroke-width="0.5"/>
<path d="M154.04 48.216C151.672 48.216 149.872 47.688 148.64 46.632C147.424 45.576 146.816 44.2 146.816 42.504H150.608C150.64 43.368 150.928 44.064 151.472 44.592C152.032 45.104 152.936 45.36 154.184 45.36C155.144 45.36 155.912 45.184 156.488 44.832C157.064 44.48 157.352 43.96 157.352 43.272C157.352 42.712 157.232 42.28 156.992 41.976C156.752 41.656 156.336 41.408 155.744 41.232C155.152 41.056 154.328 40.88 153.272 40.704C151.256 40.384 149.736 39.84 148.712 39.072C147.688 38.288 147.176 37.136 147.176 35.616C147.176 33.968 147.784 32.672 149 31.728C150.216 30.768 151.888 30.288 154.016 30.288C155.392 30.288 156.576 30.504 157.568 30.936C158.56 31.368 159.328 31.976 159.872 32.76C160.432 33.544 160.712 34.456 160.712 35.496H156.944C156.912 34.648 156.6 34.04 156.008 33.672C155.432 33.304 154.728 33.12 153.896 33.12C153.016 33.12 152.32 33.304 151.808 33.672C151.312 34.024 151.064 34.512 151.064 35.136C151.064 35.68 151.208 36.088 151.496 36.36C151.784 36.632 152.232 36.84 152.84 36.984C153.464 37.128 154.28 37.288 155.288 37.464C156.024 37.576 156.744 37.728 157.448 37.92C158.152 38.112 158.784 38.4 159.344 38.784C159.92 39.152 160.376 39.672 160.712 40.344C161.064 41 161.24 41.856 161.24 42.912C161.24 44.48 160.632 45.76 159.416 46.752C158.216 47.728 156.424 48.216 154.04 48.216ZM168.3 48.216C166.956 48.216 165.804 47.944 164.844 47.4C163.9 46.856 163.172 46.096 162.66 45.12C162.148 44.128 161.892 42.976 161.892 41.664C161.892 40.272 162.148 39.072 162.66 38.064C163.188 37.056 163.924 36.28 164.868 35.736C165.812 35.176 166.916 34.896 168.18 34.896C169.668 34.896 170.892 35.224 171.852 35.88C172.812 36.52 173.5 37.408 173.916 38.544C174.332 39.664 174.468 40.936 174.324 42.36H165.372C165.356 43.384 165.62 44.176 166.164 44.736C166.708 45.28 167.42 45.552 168.3 45.552C168.972 45.552 169.54 45.408 170.004 45.12C170.484 44.816 170.788 44.416 170.916 43.92H174.252C174.14 44.784 173.812 45.536 173.268 46.176C172.74 46.816 172.052 47.32 171.204 47.688C170.356 48.04 169.388 48.216 168.3 48.216ZM168.18 37.56C167.38 37.56 166.732 37.792 166.236 38.256C165.74 38.704 165.46 39.32 165.396 40.104H170.868C170.82 39.24 170.54 38.6 170.028 38.184C169.532 37.768 168.916 37.56 168.18 37.56ZM180.232 48.216C178.696 48.216 177.456 47.664 176.512 46.56C175.568 45.44 175.096 43.776 175.096 41.568C175.096 39.344 175.568 37.68 176.512 36.576C177.456 35.456 178.696 34.896 180.232 34.896C181.224 34.896 182.072 35.12 182.776 35.568C183.496 36.016 184.008 36.616 184.312 37.368H184.504L184.648 35.136H188.032V48H184.504V45.744H184.312C184.008 46.48 183.496 47.08 182.776 47.544C182.072 47.992 181.224 48.216 180.232 48.216ZM181.576 45.36C182.232 45.36 182.768 45.208 183.184 44.904C183.616 44.6 183.936 44.208 184.144 43.728C184.352 43.232 184.456 42.712 184.456 42.168V40.944C184.456 40.384 184.352 39.864 184.144 39.384C183.936 38.904 183.616 38.512 183.184 38.208C182.768 37.904 182.232 37.752 181.576 37.752C180.712 37.752 180.016 38.064 179.488 38.688C178.96 39.296 178.696 40.256 178.696 41.568C178.696 42.864 178.96 43.824 179.488 44.448C180.016 45.056 180.712 45.36 181.576 45.36ZM195.211 48.24C193.339 48.24 191.891 47.848 190.867 47.064C189.859 46.264 189.363 45.224 189.379 43.944H192.835C192.851 44.632 193.091 45.128 193.555 45.432C194.035 45.72 194.619 45.864 195.307 45.864C196.027 45.864 196.571 45.744 196.939 45.504C197.307 45.248 197.491 44.904 197.491 44.472C197.491 43.88 197.275 43.496 196.843 43.32C196.427 43.144 195.763 42.992 194.851 42.864C193.907 42.736 193.043 42.552 192.259 42.312C191.475 42.056 190.851 41.672 190.387 41.16C189.939 40.648 189.715 39.92 189.715 38.976C189.715 37.616 190.227 36.6 191.251 35.928C192.291 35.24 193.651 34.896 195.331 34.896C196.979 34.896 198.291 35.256 199.267 35.976C200.243 36.68 200.747 37.672 200.779 38.952H197.323C197.323 38.408 197.131 37.992 196.747 37.704C196.379 37.416 195.875 37.272 195.235 37.272C194.579 37.272 194.083 37.4 193.747 37.656C193.411 37.896 193.243 38.216 193.243 38.616C193.243 39.096 193.459 39.432 193.891 39.624C194.323 39.816 195.011 39.976 195.955 40.104C196.627 40.2 197.267 40.32 197.875 40.464C198.483 40.592 199.019 40.8 199.483 41.088C199.963 41.36 200.339 41.744 200.611 42.24C200.899 42.72 201.043 43.352 201.043 44.136C201.043 45.544 200.523 46.584 199.483 47.256C198.443 47.912 197.019 48.24 195.211 48.24ZM208.169 48.216C206.889 48.216 205.761 47.952 204.785 47.424C203.809 46.896 203.049 46.136 202.505 45.144C201.977 44.152 201.713 42.96 201.713 41.568C201.713 40.24 201.969 39.08 202.481 38.088C202.993 37.08 203.729 36.296 204.689 35.736C205.649 35.176 206.809 34.896 208.169 34.896C209.449 34.896 210.569 35.16 211.529 35.688C212.505 36.216 213.257 36.984 213.785 37.992C214.329 38.984 214.601 40.176 214.601 41.568C214.601 42.896 214.345 44.064 213.833 45.072C213.321 46.064 212.585 46.84 211.625 47.4C210.681 47.944 209.529 48.216 208.169 48.216ZM208.145 45.36C209.009 45.36 209.705 45.048 210.233 44.424C210.761 43.8 211.025 42.848 211.025 41.568C211.025 40.288 210.769 39.336 210.257 38.712C209.745 38.088 209.049 37.776 208.169 37.776C207.289 37.776 206.585 38.088 206.057 38.712C205.529 39.336 205.265 40.288 205.265 41.568C205.265 42.832 205.521 43.784 206.033 44.424C206.561 45.048 207.265 45.36 208.145 45.36ZM215.848 48V35.136H219.232L219.376 37.464H219.52C219.872 36.616 220.416 35.976 221.152 35.544C221.888 35.112 222.712 34.896 223.624 34.896C224.488 34.896 225.256 35.072 225.928 35.424C226.616 35.776 227.16 36.344 227.56 37.128C227.96 37.896 228.16 38.928 228.16 40.224V48H224.632V40.992C224.632 39.904 224.44 39.096 224.056 38.568C223.672 38.04 223.056 37.776 222.208 37.776C221.296 37.776 220.592 38.088 220.096 38.712C219.616 39.32 219.376 40.032 219.376 40.848V48H215.848ZM233.616 48V47.496C233.616 46.296 233.816 45.264 234.216 44.4C234.632 43.536 235.16 42.784 235.8 42.144C236.44 41.504 237.12 40.928 237.84 40.416C238.56 39.904 239.24 39.424 239.88 38.976C240.52 38.512 241.04 38.032 241.44 37.536C241.856 37.04 242.064 36.472 242.064 35.832C242.064 35.112 241.84 34.544 241.392 34.128C240.944 33.712 240.352 33.504 239.616 33.504C238.832 33.504 238.208 33.752 237.744 34.248C237.296 34.728 237.104 35.424 237.168 36.336H233.664C233.632 35.152 233.864 34.12 234.36 33.24C234.872 32.36 235.6 31.68 236.544 31.2C237.488 30.72 238.584 30.48 239.832 30.48C241.016 30.48 242.048 30.688 242.928 31.104C243.808 31.52 244.488 32.12 244.968 32.904C245.464 33.672 245.712 34.592 245.712 35.664C245.712 36.512 245.56 37.264 245.256 37.92C244.952 38.576 244.544 39.168 244.032 39.696C243.536 40.208 242.992 40.68 242.4 41.112C241.824 41.544 241.248 41.96 240.672 42.36C240.096 42.744 239.576 43.144 239.112 43.56C238.664 43.976 238.328 44.424 238.104 44.904H245.88V48H233.616ZM251.528 48V35.136H254.72L254.864 37.2H254.984C255.272 36.368 255.728 35.792 256.352 35.472C256.992 35.136 257.72 34.968 258.536 34.968H259.256V38.28H258.464C257.28 38.28 256.424 38.544 255.896 39.072C255.368 39.584 255.088 40.32 255.056 41.28V48H251.528ZM265.519 48.216C264.175 48.216 263.023 47.944 262.063 47.4C261.119 46.856 260.391 46.096 259.879 45.12C259.367 44.128 259.111 42.976 259.111 41.664C259.111 40.272 259.367 39.072 259.879 38.064C260.407 37.056 261.143 36.28 262.087 35.736C263.031 35.176 264.135 34.896 265.399 34.896C266.887 34.896 268.111 35.224 269.071 35.88C270.031 36.52 270.719 37.408 271.135 38.544C271.551 39.664 271.687 40.936 271.543 42.36H262.591C262.575 43.384 262.839 44.176 263.383 44.736C263.927 45.28 264.639 45.552 265.519 45.552C266.191 45.552 266.759 45.408 267.223 45.12C267.703 44.816 268.007 44.416 268.135 43.92H271.471C271.359 44.784 271.031 45.536 270.487 46.176C269.959 46.816 269.271 47.32 268.423 47.688C267.575 48.04 266.607 48.216 265.519 48.216ZM265.399 37.56C264.599 37.56 263.951 37.792 263.455 38.256C262.959 38.704 262.679 39.32 262.615 40.104H268.087C268.039 39.24 267.759 38.6 267.247 38.184C266.751 37.768 266.135 37.56 265.399 37.56ZM274.294 48L271.222 35.136H274.87L276.862 44.472H277.006L278.83 35.136H282.67L284.494 44.52H284.59L286.606 35.136H290.11L287.014 48H282.406L280.654 39.624H280.534L278.83 48H274.294ZM294.943 48.216C293.407 48.216 292.167 47.664 291.223 46.56C290.279 45.44 289.807 43.776 289.807 41.568C289.807 39.344 290.279 37.68 291.223 36.576C292.167 35.456 293.407 34.896 294.943 34.896C295.935 34.896 296.783 35.12 297.487 35.568C298.207 36.016 298.719 36.616 299.023 37.368H299.215L299.359 35.136H302.743V48H299.215V45.744H299.023C298.719 46.48 298.207 47.08 297.487 47.544C296.783 47.992 295.935 48.216 294.943 48.216ZM296.287 45.36C296.943 45.36 297.479 45.208 297.895 44.904C298.327 44.6 298.647 44.208 298.855 43.728C299.063 43.232 299.167 42.712 299.167 42.168V40.944C299.167 40.384 299.063 39.864 298.855 39.384C298.647 38.904 298.327 38.512 297.895 38.208C297.479 37.904 296.943 37.752 296.287 37.752C295.423 37.752 294.727 38.064 294.199 38.688C293.671 39.296 293.407 40.256 293.407 41.568C293.407 42.864 293.671 43.824 294.199 44.448C294.727 45.056 295.423 45.36 296.287 45.36ZM304.762 48V35.136H307.954L308.098 37.2H308.218C308.506 36.368 308.962 35.792 309.586 35.472C310.226 35.136 310.954 34.968 311.77 34.968H312.49V38.28H311.698C310.514 38.28 309.658 38.544 309.13 39.072C308.602 39.584 308.322 40.32 308.29 41.28V48H304.762ZM317.482 48.216C315.946 48.216 314.706 47.664 313.762 46.56C312.818 45.44 312.346 43.776 312.346 41.568C312.346 39.344 312.818 37.68 313.762 36.576C314.706 35.456 315.946 34.896 317.482 34.896C318.474 34.896 319.322 35.12 320.026 35.568C320.746 36.016 321.258 36.616 321.562 37.368H321.754V30.504H325.282V48H321.874L321.754 45.744H321.562C321.258 46.48 320.746 47.08 320.026 47.544C319.322 47.992 318.474 48.216 317.482 48.216ZM318.826 45.36C319.482 45.36 320.018 45.208 320.434 44.904C320.866 44.6 321.186 44.208 321.394 43.728C321.602 43.232 321.706 42.712 321.706 42.168V40.944C321.706 40.384 321.602 39.864 321.394 39.384C321.186 38.904 320.866 38.512 320.434 38.208C320.018 37.904 319.482 37.752 318.826 37.752C317.962 37.752 317.266 38.064 316.738 38.688C316.21 39.296 315.946 40.256 315.946 41.568C315.946 42.864 316.21 43.824 316.738 44.448C317.266 45.056 317.962 45.36 318.826 45.36ZM331.41 33.48V30.504H334.938V33.48H331.41ZM331.41 48V35.136H334.938V48H331.41ZM342.039 48.24C340.167 48.24 338.719 47.848 337.695 47.064C336.687 46.264 336.191 45.224 336.207 43.944H339.663C339.679 44.632 339.919 45.128 340.383 45.432C340.863 45.72 341.447 45.864 342.135 45.864C342.855 45.864 343.399 45.744 343.767 45.504C344.135 45.248 344.319 44.904 344.319 44.472C344.319 43.88 344.103 43.496 343.671 43.32C343.255 43.144 342.591 42.992 341.679 42.864C340.735 42.736 339.871 42.552 339.087 42.312C338.303 42.056 337.679 41.672 337.215 41.16C336.767 40.648 336.543 39.92 336.543 38.976C336.543 37.616 337.055 36.6 338.079 35.928C339.119 35.24 340.479 34.896 342.159 34.896C343.807 34.896 345.119 35.256 346.095 35.976C347.071 36.68 347.575 37.672 347.607 38.952H344.151C344.151 38.408 343.959 37.992 343.575 37.704C343.207 37.416 342.703 37.272 342.063 37.272C341.407 37.272 340.911 37.4 340.575 37.656C340.239 37.896 340.071 38.216 340.071 38.616C340.071 39.096 340.287 39.432 340.719 39.624C341.151 39.816 341.839 39.976 342.783 40.104C343.455 40.2 344.095 40.32 344.703 40.464C345.311 40.592 345.847 40.8 346.311 41.088C346.791 41.36 347.167 41.744 347.439 42.24C347.727 42.72 347.871 43.352 347.871 44.136C347.871 45.544 347.351 46.584 346.311 47.256C345.271 47.912 343.847 48.24 342.039 48.24ZM155.624 77.216C153.88 77.216 152.344 76.864 151.016 76.16C149.704 75.456 148.68 74.432 147.944 73.088C147.208 71.744 146.84 70.128 146.84 68.24C146.84 66.352 147.208 64.744 147.944 63.416C148.68 62.072 149.704 61.048 151.016 60.344C152.344 59.64 153.88 59.288 155.624 59.288C157.128 59.288 158.464 59.552 159.632 60.08C160.8 60.592 161.744 61.32 162.464 62.264C163.184 63.192 163.624 64.28 163.784 65.528H159.992C159.784 64.632 159.288 63.904 158.504 63.344C157.736 62.768 156.776 62.48 155.624 62.48C154.12 62.48 152.92 62.96 152.024 63.92C151.144 64.88 150.704 66.32 150.704 68.24C150.704 70.176 151.144 71.624 152.024 72.584C152.92 73.544 154.12 74.024 155.624 74.024C156.744 74.024 157.704 73.744 158.504 73.184C159.304 72.624 159.8 71.88 159.992 70.952H163.784C163.64 72.2 163.2 73.296 162.464 74.24C161.728 75.184 160.768 75.92 159.584 76.448C158.416 76.96 157.096 77.216 155.624 77.216ZM170.927 77.216C169.647 77.216 168.519 76.952 167.543 76.424C166.567 75.896 165.807 75.136 165.263 74.144C164.735 73.152 164.471 71.96 164.471 70.568C164.471 69.24 164.727 68.08 165.239 67.088C165.751 66.08 166.487 65.296 167.447 64.736C168.407 64.176 169.567 63.896 170.927 63.896C172.207 63.896 173.327 64.16 174.287 64.688C175.263 65.216 176.015 65.984 176.543 66.992C177.087 67.984 177.359 69.176 177.359 70.568C177.359 71.896 177.103 73.064 176.591 74.072C176.079 75.064 175.343 75.84 174.383 76.4C173.439 76.944 172.287 77.216 170.927 77.216ZM170.903 74.36C171.767 74.36 172.463 74.048 172.991 73.424C173.519 72.8 173.783 71.848 173.783 70.568C173.783 69.288 173.527 68.336 173.015 67.712C172.503 67.088 171.807 66.776 170.927 66.776C170.047 66.776 169.343 67.088 168.815 67.712C168.287 68.336 168.023 69.288 168.023 70.568C168.023 71.832 168.279 72.784 168.791 73.424C169.319 74.048 170.023 74.36 170.903 74.36ZM178.606 77V64.136H182.014L182.134 66.464H182.278C182.598 65.616 183.118 64.976 183.838 64.544C184.558 64.112 185.35 63.896 186.214 63.896C187.11 63.896 187.926 64.112 188.662 64.544C189.398 64.976 189.942 65.72 190.294 66.776H190.486C190.79 65.816 191.326 65.096 192.094 64.616C192.878 64.136 193.758 63.896 194.734 63.896C195.566 63.896 196.31 64.072 196.966 64.424C197.622 64.776 198.142 65.344 198.526 66.128C198.926 66.896 199.126 67.928 199.126 69.224V77H195.598V69.992C195.598 68.904 195.414 68.096 195.046 67.568C194.694 67.04 194.118 66.776 193.318 66.776C192.47 66.776 191.806 67.088 191.326 67.712C190.862 68.32 190.63 69.032 190.63 69.848V77H187.102V69.992C187.102 68.904 186.918 68.096 186.55 67.568C186.198 67.04 185.622 66.776 184.822 66.776C183.958 66.776 183.294 67.088 182.83 67.712C182.366 68.32 182.134 69.032 182.134 69.848V77H178.606ZM201.02 62.48V59.504H204.548V62.48H201.02ZM201.02 77V64.136H204.548V77H201.02ZM206.582 77V64.136H209.966L210.11 66.464H210.254C210.606 65.616 211.15 64.976 211.886 64.544C212.622 64.112 213.446 63.896 214.358 63.896C215.222 63.896 215.99 64.072 216.662 64.424C217.35 64.776 217.894 65.344 218.294 66.128C218.694 66.896 218.894 67.928 218.894 69.224V77H215.366V69.992C215.366 68.904 215.174 68.096 214.79 67.568C214.406 67.04 213.79 66.776 212.942 66.776C212.03 66.776 211.326 67.088 210.83 67.712C210.35 68.32 210.11 69.032 210.11 69.848V77H206.582ZM226.193 81.248C224.497 81.248 223.153 80.888 222.161 80.168C221.185 79.464 220.649 78.52 220.553 77.336H223.937C224.017 77.768 224.265 78.112 224.681 78.368C225.097 78.624 225.625 78.752 226.265 78.752C227.305 78.752 228.049 78.528 228.497 78.08C228.945 77.648 229.169 76.992 229.169 76.112V73.904H228.977C228.689 74.592 228.201 75.152 227.513 75.584C226.825 76.016 226.017 76.232 225.089 76.232C223.553 76.232 222.321 75.712 221.393 74.672C220.481 73.632 220.025 72.096 220.025 70.064C220.025 68.032 220.489 66.496 221.417 65.456C222.361 64.416 223.593 63.896 225.113 63.896C226.041 63.896 226.841 64.104 227.513 64.52C228.201 64.936 228.689 65.496 228.977 66.2H229.169L229.265 64.136H232.697V75.464C232.697 76.888 232.425 78.024 231.881 78.872C231.337 79.72 230.577 80.328 229.601 80.696C228.625 81.064 227.489 81.248 226.193 81.248ZM226.385 73.52C227.281 73.52 227.961 73.24 228.425 72.68C228.889 72.12 229.137 71.496 229.169 70.808L229.145 69.272C229.129 68.824 229.017 68.4 228.809 68C228.601 67.584 228.297 67.248 227.897 66.992C227.497 66.736 227.001 66.608 226.409 66.608C225.561 66.608 224.881 66.896 224.369 67.472C223.873 68.032 223.625 68.896 223.625 70.064C223.625 71.232 223.873 72.104 224.369 72.68C224.881 73.24 225.553 73.52 226.385 73.52ZM245.22 77.216C242.852 77.216 241.052 76.688 239.82 75.632C238.604 74.576 237.996 73.2 237.996 71.504H241.788C241.82 72.368 242.108 73.064 242.652 73.592C243.212 74.104 244.116 74.36 245.364 74.36C246.324 74.36 247.092 74.184 247.668 73.832C248.244 73.48 248.532 72.96 248.532 72.272C248.532 71.712 248.412 71.28 248.172 70.976C247.932 70.656 247.516 70.408 246.924 70.232C246.332 70.056 245.508 69.88 244.452 69.704C242.436 69.384 240.916 68.84 239.892 68.072C238.868 67.288 238.356 66.136 238.356 64.616C238.356 62.968 238.964 61.672 240.18 60.728C241.396 59.768 243.068 59.288 245.196 59.288C246.572 59.288 247.756 59.504 248.748 59.936C249.74 60.368 250.508 60.976 251.052 61.76C251.612 62.544 251.892 63.456 251.892 64.496H248.124C248.092 63.648 247.78 63.04 247.188 62.672C246.612 62.304 245.908 62.12 245.076 62.12C244.196 62.12 243.5 62.304 242.988 62.672C242.492 63.024 242.244 63.512 242.244 64.136C242.244 64.68 242.388 65.088 242.676 65.36C242.964 65.632 243.412 65.84 244.02 65.984C244.644 66.128 245.46 66.288 246.468 66.464C247.204 66.576 247.924 66.728 248.628 66.92C249.332 67.112 249.964 67.4 250.524 67.784C251.1 68.152 251.556 68.672 251.892 69.344C252.244 70 252.42 70.856 252.42 71.912C252.42 73.48 251.812 74.76 250.596 75.752C249.396 76.728 247.604 77.216 245.22 77.216ZM259.528 77.216C258.248 77.216 257.12 76.952 256.144 76.424C255.168 75.896 254.408 75.136 253.864 74.144C253.336 73.152 253.072 71.96 253.072 70.568C253.072 69.24 253.328 68.08 253.84 67.088C254.352 66.08 255.088 65.296 256.048 64.736C257.008 64.176 258.168 63.896 259.528 63.896C260.808 63.896 261.928 64.16 262.888 64.688C263.864 65.216 264.616 65.984 265.144 66.992C265.688 67.984 265.96 69.176 265.96 70.568C265.96 71.896 265.704 73.064 265.192 74.072C264.68 75.064 263.944 75.84 262.984 76.4C262.04 76.944 260.888 77.216 259.528 77.216ZM259.504 74.36C260.368 74.36 261.064 74.048 261.592 73.424C262.12 72.8 262.384 71.848 262.384 70.568C262.384 69.288 262.128 68.336 261.616 67.712C261.104 67.088 260.408 66.776 259.528 66.776C258.648 66.776 257.944 67.088 257.416 67.712C256.888 68.336 256.624 69.288 256.624 70.568C256.624 71.832 256.88 72.784 257.392 73.424C257.92 74.048 258.624 74.36 259.504 74.36ZM273.13 77.216C271.85 77.216 270.722 76.952 269.746 76.424C268.77 75.896 268.01 75.136 267.466 74.144C266.938 73.152 266.674 71.96 266.674 70.568C266.674 69.24 266.93 68.08 267.442 67.088C267.954 66.08 268.69 65.296 269.65 64.736C270.61 64.176 271.77 63.896 273.13 63.896C274.41 63.896 275.53 64.16 276.49 64.688C277.466 65.216 278.218 65.984 278.746 66.992C279.29 67.984 279.562 69.176 279.562 70.568C279.562 71.896 279.306 73.064 278.794 74.072C278.282 75.064 277.546 75.84 276.586 76.4C275.642 76.944 274.49 77.216 273.13 77.216ZM273.106 74.36C273.97 74.36 274.666 74.048 275.194 73.424C275.722 72.8 275.986 71.848 275.986 70.568C275.986 69.288 275.73 68.336 275.218 67.712C274.706 67.088 274.01 66.776 273.13 66.776C272.25 66.776 271.546 67.088 271.018 67.712C270.49 68.336 270.226 69.288 270.226 70.568C270.226 71.832 270.482 72.784 270.994 73.424C271.522 74.048 272.226 74.36 273.106 74.36ZM280.809 77V64.136H284.193L284.337 66.464H284.481C284.833 65.616 285.377 64.976 286.113 64.544C286.849 64.112 287.673 63.896 288.585 63.896C289.449 63.896 290.217 64.072 290.889 64.424C291.577 64.776 292.121 65.344 292.521 66.128C292.921 66.896 293.121 67.928 293.121 69.224V77H289.593V69.992C289.593 68.904 289.401 68.096 289.017 67.568C288.633 67.04 288.017 66.776 287.169 66.776C286.257 66.776 285.553 67.088 285.057 67.712C284.577 68.32 284.337 69.032 284.337 69.848V77H280.809ZM295.98 71.768L295.092 65.264V59.504H298.692V65.264L297.804 71.768H295.98ZM295.284 77V73.712H298.476V77H295.284Z" fill="#A3F5AA"/>
<path d="M147.232 101V90.794H151.992C153.112 90.794 153.957 91.0367 154.526 91.522C155.095 92.0073 155.38 92.7027 155.38 93.608C155.38 94.224 155.221 94.7513 154.904 95.19C154.596 95.6193 154.153 95.9133 153.574 96.072V96.17C154.125 96.2633 154.521 96.478 154.764 96.814C155.016 97.15 155.142 97.6073 155.142 98.186V99.894C155.142 100.071 155.147 100.253 155.156 100.44C155.175 100.627 155.226 100.813 155.31 101H153.77C153.705 100.869 153.663 100.706 153.644 100.51C153.625 100.314 153.616 100.099 153.616 99.866V98.452C153.616 97.9293 153.49 97.5373 153.238 97.276C152.995 97.0053 152.515 96.87 151.796 96.87H148.758V101H147.232ZM148.758 95.638H151.782C152.51 95.638 153.028 95.4653 153.336 95.12C153.653 94.7747 153.812 94.336 153.812 93.804C153.812 93.1973 153.625 92.7587 153.252 92.488C152.879 92.2173 152.389 92.082 151.782 92.082H148.758V95.638ZM160.027 101.126C159.29 101.126 158.651 100.967 158.109 100.65C157.577 100.333 157.167 99.8893 156.877 99.32C156.588 98.7507 156.443 98.088 156.443 97.332C156.443 96.548 156.583 95.8713 156.863 95.302C157.153 94.7233 157.563 94.2753 158.095 93.958C158.627 93.6407 159.253 93.482 159.971 93.482C160.783 93.482 161.451 93.664 161.973 94.028C162.505 94.3827 162.888 94.8727 163.121 95.498C163.355 96.114 163.434 96.8093 163.359 97.584H157.871C157.89 98.3493 158.091 98.942 158.473 99.362C158.865 99.7727 159.383 99.978 160.027 99.978C160.522 99.978 160.942 99.866 161.287 99.642C161.633 99.4087 161.852 99.1007 161.945 98.718H163.317C163.252 99.2033 163.07 99.628 162.771 99.992C162.473 100.347 162.085 100.627 161.609 100.832C161.143 101.028 160.615 101.126 160.027 101.126ZM159.957 94.616C159.379 94.616 158.903 94.7887 158.529 95.134C158.165 95.4793 157.955 95.9553 157.899 96.562H161.945C161.927 95.8807 161.726 95.386 161.343 95.078C160.97 94.77 160.508 94.616 159.957 94.616ZM165.747 101L163.857 93.594H165.341L166.797 99.558H166.867L168.239 93.594H169.835L171.249 99.572H171.291L172.747 93.594H174.161L172.271 101H170.381L169.009 95.428H168.953L167.623 101H165.747ZM177.706 101.126C176.8 101.126 176.068 100.799 175.508 100.146C174.957 99.4833 174.682 98.5313 174.682 97.29C174.682 96.0487 174.957 95.1013 175.508 94.448C176.068 93.7947 176.8 93.468 177.706 93.468C178.331 93.468 178.863 93.6127 179.302 93.902C179.74 94.1913 180.048 94.574 180.226 95.05H180.31L180.366 93.594H181.752V101H180.31V99.53H180.226C180.048 100.006 179.74 100.393 179.302 100.692C178.863 100.981 178.331 101.126 177.706 101.126ZM178.21 99.936C178.667 99.936 179.05 99.8333 179.358 99.628C179.666 99.4133 179.899 99.138 180.058 98.802C180.216 98.4567 180.296 98.0927 180.296 97.71V96.87C180.296 96.4873 180.216 96.128 180.058 95.792C179.899 95.456 179.666 95.1807 179.358 94.966C179.05 94.7513 178.667 94.644 178.21 94.644C177.594 94.644 177.099 94.868 176.726 95.316C176.352 95.7547 176.166 96.4127 176.166 97.29C176.166 98.158 176.352 98.816 176.726 99.264C177.099 99.712 177.594 99.936 178.21 99.936ZM183.772 101V93.594H185.06L185.13 94.91H185.2C185.358 94.434 185.634 94.0793 186.026 93.846C186.418 93.6127 186.856 93.496 187.342 93.496C187.426 93.496 187.5 93.5007 187.566 93.51C187.64 93.51 187.71 93.5147 187.776 93.524V94.882C187.72 94.8727 187.65 94.868 187.566 94.868C187.491 94.868 187.412 94.868 187.328 94.868C186.674 94.868 186.166 95.036 185.802 95.372C185.438 95.6987 185.237 96.1653 185.2 96.772V101H183.772ZM191.337 101.126C190.431 101.126 189.699 100.799 189.139 100.146C188.588 99.4833 188.313 98.5313 188.313 97.29C188.313 96.0487 188.588 95.1013 189.139 94.448C189.699 93.7947 190.431 93.468 191.337 93.468C191.962 93.468 192.494 93.6127 192.933 93.902C193.371 94.1913 193.679 94.574 193.857 95.05H193.941V90.794H195.383V101H193.997L193.941 99.53H193.857C193.679 100.006 193.371 100.393 192.933 100.692C192.494 100.981 191.962 101.126 191.337 101.126ZM191.841 99.936C192.298 99.936 192.681 99.8333 192.989 99.628C193.297 99.4133 193.53 99.138 193.689 98.802C193.847 98.4567 193.927 98.0927 193.927 97.71V96.87C193.927 96.4873 193.847 96.128 193.689 95.792C193.53 95.456 193.297 95.1807 192.989 94.966C192.681 94.7513 192.298 94.644 191.841 94.644C191.225 94.644 190.73 94.868 190.357 95.316C189.983 95.7547 189.797 96.4127 189.797 97.29C189.797 98.158 189.983 98.816 190.357 99.264C190.73 99.712 191.225 99.936 191.841 99.936ZM200.161 101.14C199.143 101.14 198.359 100.916 197.809 100.468C197.267 100.011 196.997 99.4133 196.997 98.676H198.425C198.425 99.18 198.593 99.5487 198.929 99.782C199.265 100.006 199.689 100.118 200.203 100.118C200.735 100.118 201.136 100.025 201.407 99.838C201.687 99.642 201.827 99.3713 201.827 99.026C201.827 98.6153 201.687 98.3353 201.407 98.186C201.127 98.0367 200.674 97.9153 200.049 97.822C199.489 97.738 198.994 97.626 198.565 97.486C198.145 97.346 197.813 97.136 197.571 96.856C197.328 96.576 197.207 96.184 197.207 95.68C197.207 94.9707 197.477 94.4247 198.019 94.042C198.569 93.65 199.293 93.454 200.189 93.454C201.103 93.454 201.822 93.664 202.345 94.084C202.867 94.4947 203.133 95.0593 203.143 95.778H201.729C201.719 95.33 201.575 95.0033 201.295 94.798C201.015 94.5833 200.637 94.476 200.161 94.476C199.675 94.476 199.302 94.574 199.041 94.77C198.779 94.966 198.649 95.2227 198.649 95.54C198.649 95.904 198.793 96.1607 199.083 96.31C199.381 96.4593 199.843 96.576 200.469 96.66C200.982 96.7253 201.453 96.828 201.883 96.968C202.312 97.0987 202.653 97.3133 202.905 97.612C203.166 97.9013 203.297 98.3307 203.297 98.9C203.297 99.656 203.017 100.221 202.457 100.594C201.897 100.958 201.131 101.14 200.161 101.14ZM210.587 101.126C209.681 101.126 208.949 100.799 208.389 100.146C207.838 99.4833 207.563 98.5313 207.563 97.29C207.563 96.0487 207.838 95.1013 208.389 94.448C208.949 93.7947 209.681 93.468 210.587 93.468C211.212 93.468 211.744 93.6127 212.183 93.902C212.621 94.1913 212.929 94.574 213.107 95.05H213.191V90.794H214.633V101H213.247L213.191 99.53H213.107C212.929 100.006 212.621 100.393 212.183 100.692C211.744 100.981 211.212 101.126 210.587 101.126ZM211.091 99.936C211.548 99.936 211.931 99.8333 212.239 99.628C212.547 99.4133 212.78 99.138 212.939 98.802C213.097 98.4567 213.177 98.0927 213.177 97.71V96.87C213.177 96.4873 213.097 96.128 212.939 95.792C212.78 95.456 212.547 95.1807 212.239 94.966C211.931 94.7513 211.548 94.644 211.091 94.644C210.475 94.644 209.98 94.868 209.607 95.316C209.233 95.7547 209.047 96.4127 209.047 97.29C209.047 98.158 209.233 98.816 209.607 99.264C209.98 99.712 210.475 99.936 211.091 99.936ZM216.653 92.46V90.794H218.095V92.46H216.653ZM216.653 101V93.594H218.095V101H216.653ZM222.829 101.14C221.811 101.14 221.027 100.916 220.477 100.468C219.935 100.011 219.665 99.4133 219.665 98.676H221.093C221.093 99.18 221.261 99.5487 221.597 99.782C221.933 100.006 222.357 100.118 222.871 100.118C223.403 100.118 223.804 100.025 224.075 99.838C224.355 99.642 224.495 99.3713 224.495 99.026C224.495 98.6153 224.355 98.3353 224.075 98.186C223.795 98.0367 223.342 97.9153 222.717 97.822C222.157 97.738 221.662 97.626 221.233 97.486C220.813 97.346 220.481 97.136 220.239 96.856C219.996 96.576 219.875 96.184 219.875 95.68C219.875 94.9707 220.145 94.4247 220.687 94.042C221.237 93.65 221.961 93.454 222.857 93.454C223.771 93.454 224.49 93.664 225.013 94.084C225.535 94.4947 225.801 95.0593 225.811 95.778H224.397C224.387 95.33 224.243 95.0033 223.963 94.798C223.683 94.5833 223.305 94.476 222.829 94.476C222.343 94.476 221.97 94.574 221.709 94.77C221.447 94.966 221.317 95.2227 221.317 95.54C221.317 95.904 221.461 96.1607 221.751 96.31C222.049 96.4593 222.511 96.576 223.137 96.66C223.65 96.7253 224.121 96.828 224.551 96.968C224.98 97.0987 225.321 97.3133 225.573 97.612C225.834 97.9013 225.965 98.3307 225.965 98.9C225.965 99.656 225.685 100.221 225.125 100.594C224.565 100.958 223.799 101.14 222.829 101.14ZM229.718 101C229.111 101 228.691 100.869 228.458 100.608C228.234 100.337 228.122 99.9547 228.122 99.46V94.77H226.722V93.594H228.122V91.452L229.564 91.284V93.594H231.202V94.77H229.564V99.194C229.564 99.4367 229.61 99.6 229.704 99.684C229.797 99.768 229.96 99.81 230.194 99.81H231.202V101H229.718ZM232.635 101V93.594H233.923L233.993 94.91H234.063C234.222 94.434 234.497 94.0793 234.889 93.846C235.281 93.6127 235.72 93.496 236.205 93.496C236.289 93.496 236.364 93.5007 236.429 93.51C236.504 93.51 236.574 93.5147 236.639 93.524V94.882C236.583 94.8727 236.513 94.868 236.429 94.868C236.354 94.868 236.275 94.868 236.191 94.868C235.538 94.868 235.029 95.036 234.665 95.372C234.301 95.6987 234.1 96.1653 234.063 96.772V101H232.635ZM237.899 92.46V90.794H239.341V92.46H237.899ZM237.899 101V93.594H239.341V101H237.899ZM245.39 101.126C244.765 101.126 244.233 100.981 243.794 100.692C243.355 100.403 243.047 100.02 242.87 99.544H242.786L242.73 101H241.344V90.794H242.786V95.05H242.87C243.047 94.5833 243.355 94.2053 243.794 93.916C244.233 93.6173 244.765 93.468 245.39 93.468C246.295 93.468 247.023 93.7993 247.574 94.462C248.134 95.1153 248.414 96.0627 248.414 97.304C248.414 98.5453 248.134 99.4927 247.574 100.146C247.023 100.799 246.295 101.126 245.39 101.126ZM244.886 99.936C245.502 99.936 245.997 99.7167 246.37 99.278C246.743 98.83 246.93 98.172 246.93 97.304C246.93 96.4267 246.743 95.7687 246.37 95.33C245.997 94.882 245.502 94.658 244.886 94.658C244.429 94.658 244.046 94.7653 243.738 94.98C243.43 95.1853 243.197 95.4607 243.038 95.806C242.879 96.142 242.8 96.5013 242.8 96.884V97.71C242.8 98.0927 242.879 98.4567 243.038 98.802C243.197 99.138 243.43 99.4133 243.738 99.628C244.046 99.8333 244.429 99.936 244.886 99.936ZM252.52 101.126C251.68 101.126 251.027 100.879 250.56 100.384C250.093 99.88 249.86 99.138 249.86 98.158V93.594H251.302V97.794C251.302 98.4753 251.437 99.0027 251.708 99.376C251.979 99.74 252.427 99.922 253.052 99.922C253.659 99.922 254.149 99.7073 254.522 99.278C254.895 98.8393 255.082 98.2793 255.082 97.598V93.594H256.524V101H255.152L255.082 99.502H254.998C254.821 100.015 254.508 100.417 254.06 100.706C253.612 100.986 253.099 101.126 252.52 101.126ZM260.589 101C259.982 101 259.562 100.869 259.329 100.608C259.105 100.337 258.993 99.9547 258.993 99.46V94.77H257.593V93.594H258.993V91.452L260.435 91.284V93.594H262.073V94.77H260.435V99.194C260.435 99.4367 260.481 99.6 260.575 99.684C260.668 99.768 260.831 99.81 261.065 99.81H262.073V101H260.589ZM263.506 92.46V90.794H264.948V92.46H263.506ZM263.506 101V93.594H264.948V101H263.506ZM270.073 101.126C269.355 101.126 268.72 100.972 268.169 100.664C267.628 100.347 267.203 99.9033 266.895 99.334C266.597 98.7647 266.447 98.0927 266.447 97.318C266.447 96.5527 266.592 95.8853 266.881 95.316C267.18 94.7373 267.6 94.2893 268.141 93.972C268.683 93.6453 269.327 93.482 270.073 93.482C270.792 93.482 271.422 93.636 271.963 93.944C272.505 94.252 272.925 94.6953 273.223 95.274C273.531 95.8433 273.685 96.52 273.685 97.304C273.685 98.06 273.536 98.7273 273.237 99.306C272.948 99.8753 272.533 100.323 271.991 100.65C271.459 100.967 270.82 101.126 270.073 101.126ZM270.073 99.922C270.717 99.922 271.235 99.698 271.627 99.25C272.019 98.7927 272.215 98.144 272.215 97.304C272.215 96.4733 272.024 95.8293 271.641 95.372C271.259 94.9053 270.736 94.672 270.073 94.672C269.429 94.672 268.907 94.9007 268.505 95.358C268.113 95.806 267.917 96.4593 267.917 97.318C267.917 98.1393 268.113 98.7787 268.505 99.236C268.897 99.6933 269.42 99.922 270.073 99.922ZM275.196 101V93.594H276.568L276.624 95.064H276.708C276.922 94.5413 277.258 94.1493 277.716 93.888C278.173 93.6173 278.672 93.482 279.214 93.482C279.718 93.482 280.17 93.5847 280.572 93.79C280.973 93.9953 281.286 94.3267 281.51 94.784C281.743 95.2413 281.86 95.848 281.86 96.604V101H280.418V96.898C280.418 96.142 280.278 95.582 279.998 95.218C279.718 94.854 279.284 94.672 278.696 94.672C278.276 94.672 277.907 94.7747 277.59 94.98C277.282 95.1853 277.044 95.4607 276.876 95.806C276.708 96.142 276.624 96.5247 276.624 96.954V101H275.196ZM287.528 101V94.77H286.184V93.594H287.528V92.502C287.528 91.942 287.696 91.5173 288.032 91.228C288.377 90.9387 288.844 90.794 289.432 90.794H290.762V91.844H289.81C289.483 91.844 289.259 91.9187 289.138 92.068C289.026 92.208 288.97 92.3993 288.97 92.642V93.594H290.608V94.77H288.97V101H287.528ZM294.778 101.126C294.06 101.126 293.425 100.972 292.874 100.664C292.333 100.347 291.908 99.9033 291.6 99.334C291.302 98.7647 291.152 98.0927 291.152 97.318C291.152 96.5527 291.297 95.8853 291.586 95.316C291.885 94.7373 292.305 94.2893 292.846 93.972C293.388 93.6453 294.032 93.482 294.778 93.482C295.497 93.482 296.127 93.636 296.668 93.944C297.21 94.252 297.63 94.6953 297.928 95.274C298.236 95.8433 298.39 96.52 298.39 97.304C298.39 98.06 298.241 98.7273 297.942 99.306C297.653 99.8753 297.238 100.323 296.696 100.65C296.164 100.967 295.525 101.126 294.778 101.126ZM294.778 99.922C295.422 99.922 295.94 99.698 296.332 99.25C296.724 98.7927 296.92 98.144 296.92 97.304C296.92 96.4733 296.729 95.8293 296.346 95.372C295.964 94.9053 295.441 94.672 294.778 94.672C294.134 94.672 293.612 94.9007 293.21 95.358C292.818 95.806 292.622 96.4593 292.622 97.318C292.622 98.1393 292.818 98.7787 293.21 99.236C293.602 99.6933 294.125 99.922 294.778 99.922ZM299.901 101V93.594H301.189L301.259 94.91H301.329C301.487 94.434 301.763 94.0793 302.155 93.846C302.547 93.6127 302.985 93.496 303.471 93.496C303.555 93.496 303.629 93.5007 303.695 93.51C303.769 93.51 303.839 93.5147 303.905 93.524V94.882C303.849 94.8727 303.779 94.868 303.695 94.868C303.62 94.868 303.541 94.868 303.457 94.868C302.803 94.868 302.295 95.036 301.931 95.372C301.567 95.6987 301.366 96.1653 301.329 96.772V101H299.901ZM311.935 101.126C311.03 101.126 310.278 100.986 309.681 100.706C309.084 100.426 308.636 100.039 308.337 99.544C308.038 99.04 307.884 98.4613 307.875 97.808H309.443C309.462 98.4613 309.667 98.9793 310.059 99.362C310.46 99.7353 311.095 99.922 311.963 99.922C312.682 99.922 313.256 99.7913 313.685 99.53C314.124 99.2687 314.343 98.8673 314.343 98.326C314.343 97.9153 314.259 97.5933 314.091 97.36C313.923 97.1267 313.643 96.9447 313.251 96.814C312.859 96.674 312.327 96.548 311.655 96.436C310.871 96.296 310.218 96.1187 309.695 95.904C309.172 95.68 308.776 95.386 308.505 95.022C308.244 94.6487 308.113 94.1727 308.113 93.594C308.113 92.698 308.444 91.9887 309.107 91.466C309.779 90.9433 310.698 90.682 311.865 90.682C313.032 90.682 313.942 90.9573 314.595 91.508C315.258 92.0493 315.594 92.768 315.603 93.664H314.049C314.03 93.0573 313.816 92.6047 313.405 92.306C313.004 92.0073 312.472 91.858 311.809 91.858C311.137 91.858 310.614 91.998 310.241 92.278C309.877 92.5487 309.695 92.9173 309.695 93.384C309.695 93.7573 309.784 94.0467 309.961 94.252C310.148 94.4573 310.442 94.6207 310.843 94.742C311.244 94.854 311.772 94.9707 312.425 95.092C312.873 95.1667 313.307 95.26 313.727 95.372C314.147 95.484 314.52 95.6473 314.847 95.862C315.183 96.0767 315.444 96.3707 315.631 96.744C315.827 97.1173 315.925 97.598 315.925 98.186C315.925 99.0633 315.584 99.7727 314.903 100.314C314.231 100.855 313.242 101.126 311.935 101.126ZM320.631 101.126C319.894 101.126 319.254 100.967 318.713 100.65C318.181 100.333 317.77 99.8893 317.481 99.32C317.192 98.7507 317.047 98.088 317.047 97.332C317.047 96.548 317.187 95.8713 317.467 95.302C317.756 94.7233 318.167 94.2753 318.699 93.958C319.231 93.6407 319.856 93.482 320.575 93.482C321.387 93.482 322.054 93.664 322.577 94.028C323.109 94.3827 323.492 94.8727 323.725 95.498C323.958 96.114 324.038 96.8093 323.963 97.584H318.475C318.494 98.3493 318.694 98.942 319.077 99.362C319.469 99.7727 319.987 99.978 320.631 99.978C321.126 99.978 321.546 99.866 321.891 99.642C322.236 99.4087 322.456 99.1007 322.549 98.718H323.921C323.856 99.2033 323.674 99.628 323.375 99.992C323.076 100.347 322.689 100.627 322.213 100.832C321.746 101.028 321.219 101.126 320.631 101.126ZM320.561 94.616C319.982 94.616 319.506 94.7887 319.133 95.134C318.769 95.4793 318.559 95.9553 318.503 96.562H322.549C322.53 95.8807 322.33 95.386 321.947 95.078C321.574 94.77 321.112 94.616 320.561 94.616ZM328.178 101.126C327.273 101.126 326.54 100.799 325.98 100.146C325.43 99.4833 325.154 98.5313 325.154 97.29C325.154 96.0487 325.43 95.1013 325.98 94.448C326.54 93.7947 327.273 93.468 328.178 93.468C328.804 93.468 329.336 93.6127 329.774 93.902C330.213 94.1913 330.521 94.574 330.698 95.05H330.782L330.838 93.594H332.224V101H330.782V99.53H330.698C330.521 100.006 330.213 100.393 329.774 100.692C329.336 100.981 328.804 101.126 328.178 101.126ZM328.682 99.936C329.14 99.936 329.522 99.8333 329.83 99.628C330.138 99.4133 330.372 99.138 330.53 98.802C330.689 98.4567 330.768 98.0927 330.768 97.71V96.87C330.768 96.4873 330.689 96.128 330.53 95.792C330.372 95.456 330.138 95.1807 329.83 94.966C329.522 94.7513 329.14 94.644 328.682 94.644C328.066 94.644 327.572 94.868 327.198 95.316C326.825 95.7547 326.638 96.4127 326.638 97.29C326.638 98.158 326.825 98.816 327.198 99.264C327.572 99.712 328.066 99.936 328.682 99.936ZM337.002 101.14C335.985 101.14 335.201 100.916 334.65 100.468C334.109 100.011 333.838 99.4133 333.838 98.676H335.266C335.266 99.18 335.434 99.5487 335.77 99.782C336.106 100.006 336.531 100.118 337.044 100.118C337.576 100.118 337.978 100.025 338.248 99.838C338.528 99.642 338.668 99.3713 338.668 99.026C338.668 98.6153 338.528 98.3353 338.248 98.186C337.968 98.0367 337.516 97.9153 336.89 97.822C336.33 97.738 335.836 97.626 335.406 97.486C334.986 97.346 334.655 97.136 334.412 96.856C334.17 96.576 334.048 96.184 334.048 95.68C334.048 94.9707 334.319 94.4247 334.86 94.042C335.411 93.65 336.134 93.454 337.03 93.454C337.945 93.454 338.664 93.664 339.186 94.084C339.709 94.4947 339.975 95.0593 339.984 95.778H338.57C338.561 95.33 338.416 95.0033 338.136 94.798C337.856 94.5833 337.478 94.476 337.002 94.476C336.517 94.476 336.144 94.574 335.882 94.77C335.621 94.966 335.49 95.2227 335.49 95.54C335.49 95.904 335.635 96.1607 335.924 96.31C336.223 96.4593 336.685 96.576 337.31 96.66C337.824 96.7253 338.295 96.828 338.724 96.968C339.154 97.0987 339.494 97.3133 339.746 97.612C340.008 97.9013 340.138 98.3307 340.138 98.9C340.138 99.656 339.858 100.221 339.298 100.594C338.738 100.958 337.973 101.14 337.002 101.14ZM344.968 101.126C344.249 101.126 343.615 100.972 343.064 100.664C342.523 100.347 342.098 99.9033 341.79 99.334C341.491 98.7647 341.342 98.0927 341.342 97.318C341.342 96.5527 341.487 95.8853 341.776 95.316C342.075 94.7373 342.495 94.2893 343.036 93.972C343.577 93.6453 344.221 93.482 344.968 93.482C345.687 93.482 346.317 93.636 346.858 93.944C347.399 94.252 347.819 94.6953 348.118 95.274C348.426 95.8433 348.58 96.52 348.58 97.304C348.58 98.06 348.431 98.7273 348.132 99.306C347.843 99.8753 347.427 100.323 346.886 100.65C346.354 100.967 345.715 101.126 344.968 101.126ZM344.968 99.922C345.612 99.922 346.13 99.698 346.522 99.25C346.914 98.7927 347.11 98.144 347.11 97.304C347.11 96.4733 346.919 95.8293 346.536 95.372C346.153 94.9053 345.631 94.672 344.968 94.672C344.324 94.672 343.801 94.9007 343.4 95.358C343.008 95.806 342.812 96.4593 342.812 97.318C342.812 98.1393 343.008 98.7787 343.4 99.236C343.792 99.6933 344.315 99.922 344.968 99.922ZM350.09 101V93.594H351.462L351.518 95.064H351.602C351.817 94.5413 352.153 94.1493 352.61 93.888C353.067 93.6173 353.567 93.482 354.108 93.482C354.612 93.482 355.065 93.5847 355.466 93.79C355.867 93.9953 356.18 94.3267 356.404 94.784C356.637 95.2413 356.754 95.848 356.754 96.604V101H355.312V96.898C355.312 96.142 355.172 95.582 354.892 95.218C354.612 94.854 354.178 94.672 353.59 94.672C353.17 94.672 352.801 94.7747 352.484 94.98C352.176 95.1853 351.938 95.4607 351.77 95.806C351.602 96.142 351.518 96.5247 351.518 96.954V101H350.09ZM363.682 101V93.692H361.246V92.586H361.638C362.31 92.586 362.814 92.432 363.15 92.124C363.496 91.816 363.692 91.41 363.738 90.906H365.124V101H363.682ZM370.666 92.46V90.794H372.108V92.46H370.666ZM370.666 101V93.594H372.108V101H370.666ZM376.842 101.14C375.825 101.14 375.041 100.916 374.49 100.468C373.949 100.011 373.678 99.4133 373.678 98.676H375.106C375.106 99.18 375.274 99.5487 375.61 99.782C375.946 100.006 376.371 100.118 376.884 100.118C377.416 100.118 377.818 100.025 378.088 99.838C378.368 99.642 378.508 99.3713 378.508 99.026C378.508 98.6153 378.368 98.3353 378.088 98.186C377.808 98.0367 377.356 97.9153 376.73 97.822C376.17 97.738 375.676 97.626 375.246 97.486C374.826 97.346 374.495 97.136 374.252 96.856C374.01 96.576 373.888 96.184 373.888 95.68C373.888 94.9707 374.159 94.4247 374.7 94.042C375.251 93.65 375.974 93.454 376.87 93.454C377.785 93.454 378.504 93.664 379.026 94.084C379.549 94.4947 379.815 95.0593 379.824 95.778H378.41C378.401 95.33 378.256 95.0033 377.976 94.798C377.696 94.5833 377.318 94.476 376.842 94.476C376.357 94.476 375.984 94.574 375.722 94.77C375.461 94.966 375.33 95.2227 375.33 95.54C375.33 95.904 375.475 96.1607 375.764 96.31C376.063 96.4593 376.525 96.576 377.15 96.66C377.664 96.7253 378.135 96.828 378.564 96.968C378.994 97.0987 379.334 97.3133 379.586 97.612C379.848 97.9013 379.978 98.3307 379.978 98.9C379.978 99.656 379.698 100.221 379.138 100.594C378.578 100.958 377.813 101.14 376.842 101.14ZM387.842 101.126C387.124 101.126 386.494 100.967 385.952 100.65C385.411 100.333 384.991 99.8893 384.692 99.32C384.394 98.7413 384.244 98.0693 384.244 97.304C384.244 96.5387 384.394 95.8713 384.692 95.302C384.991 94.7233 385.416 94.2753 385.966 93.958C386.517 93.6407 387.161 93.482 387.898 93.482C388.496 93.482 389.028 93.594 389.494 93.818C389.97 94.042 390.348 94.3547 390.628 94.756C390.918 95.1573 391.081 95.624 391.118 96.156H389.718C389.634 95.6707 389.42 95.3067 389.074 95.064C388.738 94.812 388.332 94.686 387.856 94.686C387.175 94.686 386.648 94.9287 386.274 95.414C385.901 95.89 385.714 96.5247 385.714 97.318C385.714 98.1487 385.906 98.7927 386.288 99.25C386.68 99.698 387.198 99.922 387.842 99.922C388.384 99.922 388.822 99.7773 389.158 99.488C389.494 99.1987 389.69 98.8207 389.746 98.354H391.146C391.109 98.914 390.946 99.404 390.656 99.824C390.367 100.235 389.98 100.557 389.494 100.79C389.009 101.014 388.458 101.126 387.842 101.126ZM395.732 101.126C395.013 101.126 394.378 100.972 393.828 100.664C393.286 100.347 392.862 99.9033 392.554 99.334C392.255 98.7647 392.106 98.0927 392.106 97.318C392.106 96.5527 392.25 95.8853 392.54 95.316C392.838 94.7373 393.258 94.2893 393.8 93.972C394.341 93.6453 394.985 93.482 395.732 93.482C396.45 93.482 397.08 93.636 397.622 93.944C398.163 94.252 398.583 94.6953 398.882 95.274C399.19 95.8433 399.344 96.52 399.344 97.304C399.344 98.06 399.194 98.7273 398.896 99.306C398.606 99.8753 398.191 100.323 397.65 100.65C397.118 100.967 396.478 101.126 395.732 101.126ZM395.732 99.922C396.376 99.922 396.894 99.698 397.286 99.25C397.678 98.7927 397.874 98.144 397.874 97.304C397.874 96.4733 397.682 95.8293 397.3 95.372C396.917 94.9053 396.394 94.672 395.732 94.672C395.088 94.672 394.565 94.9007 394.164 95.358C393.772 95.806 393.576 96.4593 393.576 97.318C393.576 98.1393 393.772 98.7787 394.164 99.236C394.556 99.6933 395.078 99.922 395.732 99.922ZM400.854 101V93.594H402.226L402.282 95.064H402.366C402.58 94.5413 402.907 94.1493 403.346 93.888C403.784 93.6173 404.274 93.482 404.816 93.482C405.366 93.482 405.856 93.6127 406.286 93.874C406.715 94.1353 407.023 94.5833 407.21 95.218H407.322C407.527 94.6393 407.863 94.2053 408.33 93.916C408.796 93.6267 409.328 93.482 409.926 93.482C410.42 93.482 410.859 93.5847 411.242 93.79C411.624 93.9953 411.928 94.3267 412.152 94.784C412.376 95.2413 412.488 95.848 412.488 96.604V101H411.06V96.898C411.06 96.142 410.924 95.582 410.654 95.218C410.383 94.854 409.958 94.672 409.38 94.672C408.978 94.672 408.628 94.7747 408.33 94.98C408.031 95.1853 407.798 95.4607 407.63 95.806C407.471 96.142 407.392 96.5247 407.392 96.954V101H405.95V96.898C405.95 96.142 405.814 95.582 405.544 95.218C405.282 94.854 404.862 94.672 404.284 94.672C403.873 94.672 403.518 94.7747 403.22 94.98C402.921 95.1853 402.688 95.4607 402.52 95.806C402.361 96.142 402.282 96.5247 402.282 96.954V101H400.854ZM414.43 103.338V93.594H415.816L415.872 95.05H415.956C416.143 94.5833 416.455 94.2053 416.894 93.916C417.333 93.6173 417.86 93.468 418.476 93.468C419.381 93.468 420.109 93.7993 420.66 94.462C421.22 95.1153 421.5 96.0627 421.5 97.304C421.5 98.5453 421.22 99.4927 420.66 100.146C420.109 100.799 419.381 101.126 418.476 101.126C417.86 101.126 417.333 100.981 416.894 100.692C416.455 100.403 416.143 100.02 415.956 99.544H415.872V103.338H414.43ZM417.972 99.936C418.588 99.936 419.083 99.7167 419.456 99.278C419.839 98.83 420.03 98.172 420.03 97.304C420.03 96.4267 419.839 95.7687 419.456 95.33C419.083 94.882 418.588 94.658 417.972 94.658C417.515 94.658 417.132 94.7653 416.824 94.98C416.516 95.1853 416.283 95.4607 416.124 95.806C415.965 96.142 415.886 96.5013 415.886 96.884V97.71C415.886 98.0927 415.965 98.4567 416.124 98.802C416.283 99.138 416.516 99.4133 416.824 99.628C417.132 99.8333 417.515 99.936 417.972 99.936ZM423.029 101V90.794H424.471V101H423.029ZM429.555 101.126C428.817 101.126 428.178 100.967 427.637 100.65C427.105 100.333 426.694 99.8893 426.405 99.32C426.115 98.7507 425.971 98.088 425.971 97.332C425.971 96.548 426.111 95.8713 426.391 95.302C426.68 94.7233 427.091 94.2753 427.623 93.958C428.155 93.6407 428.78 93.482 429.499 93.482C430.311 93.482 430.978 93.664 431.501 94.028C432.033 94.3827 432.415 94.8727 432.649 95.498C432.882 96.114 432.961 96.8093 432.887 97.584H427.399C427.417 98.3493 427.618 98.942 428.001 99.362C428.393 99.7727 428.911 99.978 429.555 99.978C430.049 99.978 430.469 99.866 430.815 99.642C431.16 99.4087 431.379 99.1007 431.473 98.718H432.845C432.779 99.2033 432.597 99.628 432.299 99.992C432 100.347 431.613 100.627 431.137 100.832C430.67 101.028 430.143 101.126 429.555 101.126ZM429.485 94.616C428.906 94.616 428.43 94.7887 428.057 95.134C427.693 95.4793 427.483 95.9553 427.427 96.562H431.473C431.454 95.8807 431.253 95.386 430.871 95.078C430.497 94.77 430.035 94.616 429.485 94.616ZM436.56 101C435.953 101 435.533 100.869 435.3 100.608C435.076 100.337 434.964 99.9547 434.964 99.46V94.77H433.564V93.594H434.964V91.452L436.406 91.284V93.594H438.044V94.77H436.406V99.194C436.406 99.4367 436.452 99.6 436.546 99.684C436.639 99.768 436.802 99.81 437.035 99.81H438.044V101H436.56ZM442.352 101.126C441.614 101.126 440.975 100.967 440.434 100.65C439.902 100.333 439.491 99.8893 439.202 99.32C438.912 98.7507 438.768 98.088 438.768 97.332C438.768 96.548 438.908 95.8713 439.188 95.302C439.477 94.7233 439.888 94.2753 440.42 93.958C440.952 93.6407 441.577 93.482 442.296 93.482C443.108 93.482 443.775 93.664 444.298 94.028C444.83 94.3827 445.212 94.8727 445.446 95.498C445.679 96.114 445.758 96.8093 445.684 97.584H440.196C440.214 98.3493 440.415 98.942 440.798 99.362C441.19 99.7727 441.708 99.978 442.352 99.978C442.846 99.978 443.266 99.866 443.612 99.642C443.957 99.4087 444.176 99.1007 444.27 98.718H445.642C445.576 99.2033 445.394 99.628 445.096 99.992C444.797 100.347 444.41 100.627 443.934 100.832C443.467 101.028 442.94 101.126 442.352 101.126ZM442.282 94.616C441.703 94.616 441.227 94.7887 440.854 95.134C440.49 95.4793 440.28 95.9553 440.224 96.562H444.27C444.251 95.8807 444.05 95.386 443.668 95.078C443.294 94.77 442.832 94.616 442.282 94.616ZM447.004 101V99.53H448.446V101H447.004Z" fill="#F3F3F3"/>
<path d="M408.971 23.7711C408.971 24.9715 408.881 26.1511 408.709 27.3033C401.759 28.3291 392.289 27.1351 383.849 24.2765C379.612 22.8417 375.64 20.989 372.378 18.791C369.139 16.6078 366.609 14.0887 365.214 11.3066C369.386 4.59028 376.83 0.11898 385.319 0.11898C398.381 0.11898 408.971 10.7084 408.971 23.7711Z" fill="url(#paint5_radial_29425_2972)" stroke="white" stroke-width="0.23796"/>
<path fill-rule="evenodd" clip-rule="evenodd" d="M368.901 39.662L365.981 50.5304L373.959 58.4552L376.875 47.6012L387.797 44.7386L379.829 36.6067L368.901 39.662Z" fill="url(#paint6_radial_29425_2972)" fill-opacity="0.27"/>
<path d="M384.877 55.6071L387.797 44.7386L376.875 47.6012L373.959 58.4552L384.877 55.6071Z" fill="url(#paint7_radial_29425_2972)" fill-opacity="0.12"/>
<path d="M379.793 36.7403L387.569 44.6755L376.845 47.4862L376.778 47.5037L376.76 47.5704L373.897 58.2262L366.114 50.4947L368.998 39.7583L379.793 36.7403ZM384.78 55.5094L374.127 58.2884L376.972 47.6988L387.629 44.9056L384.78 55.5094Z" stroke="#B4F9BA" stroke-width="0.23796"/>
<path d="M365.207 11.6094L378.196 42.2909L408.673 27.4827" stroke="white" stroke-width="0.23796"/>
<g opacity="0.2" filter="url(#filter0_f_29425_2972)">
<circle cx="88.5" cy="96.5" r="38.5" fill="#A3F5AA"/>
</g>
<defs>
<filter id="filter0_f_29425_2972" x="0" y="8" width="177" height="177" filterUnits="userSpaceOnUse" color-interpolation-filters="sRGB">
<feFlood flood-opacity="0" result="BackgroundImageFix"/>
<feBlend mode="normal" in="SourceGraphic" in2="BackgroundImageFix" result="shape"/>
<feGaussianBlur stdDeviation="25" result="effect1_foregroundBlur_29425_2972"/>
</filter>
<linearGradient id="paint0_linear_29425_2972" x1="233" y1="11" x2="233" y2="145" gradientUnits="userSpaceOnUse">
<stop stop-color="#A3F5AA"/>
<stop offset="1" stop-color="#060606" stop-opacity="0"/>
</linearGradient>
<linearGradient id="paint1_linear_29425_2972" x1="233" y1="11" x2="233" y2="97.2941" gradientUnits="userSpaceOnUse">
<stop stop-color="#A3F5AA"/>
<stop offset="1" stop-color="#A3F5AA" stop-opacity="0"/>
</linearGradient>
<radialGradient id="paint2_radial_29425_2972" cx="0" cy="0" r="1" gradientUnits="userSpaceOnUse" gradientTransform="translate(51.7962 25.5142) rotate(-0.707319) scale(56.7651 56.7651)">
<stop stop-color="#D1D1D1"/>
<stop offset="1" stop-color="#969696"/>
</radialGradient>
<radialGradient id="paint3_radial_29425_2972" cx="0" cy="0" r="1" gradientUnits="userSpaceOnUse" gradientTransform="translate(92.8016 84.4295) rotate(80.8791) scale(71.5299 40.0324)">
<stop stop-color="#A3F5AA"/>
<stop offset="0.4" stop-color="#82D289"/>
<stop offset="0.835" stop-color="#66AB6C"/>
<stop offset="1" stop-color="#386A3C"/>
</radialGradient>
<radialGradient id="paint4_radial_29425_2972" cx="0" cy="0" r="1" gradientUnits="userSpaceOnUse" gradientTransform="translate(92.8016 84.4295) rotate(80.8791) scale(71.5299 40.0324)">
<stop stop-color="#F2F2F2"/>
<stop offset="0.4" stop-color="#82D289"/>
<stop offset="0.835" stop-color="#66AB6C"/>
<stop offset="1" stop-color="#386A3C"/>
</radialGradient>
<radialGradient id="paint5_radial_29425_2972" cx="0" cy="0" r="1" gradientUnits="userSpaceOnUse" gradientTransform="translate(393.961 12.1427) rotate(-179.293) scale(27.0156 27.0156)">
<stop stop-color="#D1D1D1"/>
<stop offset="1" stop-color="#969696"/>
</radialGradient>
<radialGradient id="paint6_radial_29425_2972" cx="0" cy="0" r="1" gradientUnits="userSpaceOnUse" gradientTransform="translate(374.445 40.1811) rotate(99.1209) scale(34.0425 19.0522)">
<stop stop-color="#A3F5AA"/>
<stop offset="0.4" stop-color="#82D289"/>
<stop offset="0.835" stop-color="#66AB6C"/>
<stop offset="1" stop-color="#386A3C"/>
</radialGradient>
<radialGradient id="paint7_radial_29425_2972" cx="0" cy="0" r="1" gradientUnits="userSpaceOnUse" gradientTransform="translate(374.445 40.1811) rotate(99.1209) scale(34.0425 19.0522)">
<stop stop-color="#F2F2F2"/>
<stop offset="0.4" stop-color="#82D289"/>
<stop offset="0.835" stop-color="#66AB6C"/>
<stop offset="1" stop-color="#386A3C"/>
</radialGradient>
</defs>
</svg>
