<svg width="187" height="63" viewBox="0 0 187 63" fill="none" xmlns="http://www.w3.org/2000/svg">
<g clip-path="url(#clip0_28093_1825)">
<mask id="mask0_28093_1825" style="mask-type:luminance" maskUnits="userSpaceOnUse" x="0" y="0" width="52" height="63">
<path d="M51.966 0.669922H0V62.8084H51.966V0.669922Z" fill="white"/>
</mask>
<g mask="url(#mask0_28093_1825)">
<path d="M31.8689 54.9036L30.3438 59.1871C30.9674 59.1463 31.5844 59.081 32.1933 58.9921V53.9922L31.8686 54.9038L31.8689 54.9036Z" fill="#26292B"/>
<path d="M36.0089 47.9727H34.9609L36.0089 51.4369V47.9727Z" fill="#26292B"/>
<path d="M36.0089 47.9727H34.9609L36.0089 51.4369V47.9727Z" fill="url(#paint0_linear_28093_1825)"/>
<path d="M34.9604 47.9727H32.291L32.8388 48.203L34.9604 47.9727Z" fill="#26292B"/>
<path d="M34.9604 47.9727H32.291L32.8388 48.203L34.9604 47.9727Z" fill="url(#paint1_linear_28093_1825)"/>
<path d="M32.8772 52.0664L32.1914 53.9927V58.9926C32.8244 58.9001 33.4496 58.7824 34.0649 58.6394L32.8772 52.0664Z" fill="#26292B"/>
<path d="M34.0712 48.7208L32.8792 52.0684L34.0671 58.6414C34.7256 58.4887 35.3736 58.3079 36.0094 58.1002V51.4366L34.9614 47.9727L32.8398 48.203L34.0712 48.7208Z" fill="#26292B"/>
<path d="M34.0712 48.7208L32.8792 52.0684L34.0671 58.6414C34.7256 58.4887 35.3736 58.3079 36.0094 58.1002V51.4366L34.9614 47.9727L32.8398 48.203L34.0712 48.7208Z" fill="url(#paint2_linear_28093_1825)"/>
<path d="M30.4127 47.5029L32.1935 48.0378V47.9709H32.2919L30.5125 47.2227L26.457 58.6132L27.8996 59.2196C28.0992 59.2277 28.2997 59.233 28.5009 59.2355L30.413 47.5029H30.4127Z" fill="#26292B"/>
<path d="M32.1914 48.0395L32.763 48.2112L32.8377 48.203L32.2899 47.9727H32.1914V48.0395Z" fill="#26292B"/>
<path d="M32.1914 48.0395L32.763 48.2112L32.8377 48.203L32.2899 47.9727H32.1914V48.0395Z" fill="url(#paint3_linear_28093_1825)"/>
<path d="M32.1914 48.0395L32.763 48.2112L32.8377 48.203L32.2899 47.9727H32.1914V48.0395Z" fill="url(#paint4_linear_28093_1825)"/>
<path d="M32.8405 48.2031L32.7656 48.2113L33.0945 48.3101L32.9215 51.9517L32.8799 52.0688L34.0718 48.7209L32.8405 48.2031Z" fill="#26292B"/>
<path d="M32.8405 48.2031L32.7656 48.2113L33.0945 48.3101L32.9215 51.9517L32.8799 52.0688L34.0718 48.7209L32.8405 48.2031Z" fill="url(#paint5_linear_28093_1825)"/>
<path d="M32.8405 48.2031L32.7656 48.2113L33.0945 48.3101L32.9215 51.9517L32.8799 52.0688L34.0718 48.7209L32.8405 48.2031Z" fill="url(#paint6_linear_28093_1825)"/>
<path d="M32.1929 48.2726V48.0387L30.4121 47.5039L28.5 59.2364C28.6058 59.2379 28.7118 59.2386 28.8179 59.2386C29.3303 59.2386 29.8387 59.2219 30.343 59.1891L31.8681 54.9055L32.1929 53.9939V48.2726Z" fill="#26292B"/>
<path d="M32.1929 48.2726V48.0387L30.4121 47.5039L28.5 59.2364C28.6058 59.2379 28.7118 59.2386 28.8179 59.2386C29.3303 59.2386 29.8387 59.2219 30.343 59.1891L31.8681 54.9055L32.1929 53.9939V48.2726Z" fill="url(#paint7_linear_28093_1825)"/>
<path d="M32.1914 53.9947L32.8772 52.0689L32.1914 48.2734V53.9947Z" fill="#26292B"/>
<path d="M32.1914 53.9947L32.8772 52.0689L32.1914 48.2734V53.9947Z" fill="url(#paint8_linear_28093_1825)"/>
<path d="M32.1914 53.9947L32.8772 52.0689L32.1914 48.2734V53.9947Z" fill="url(#paint9_linear_28093_1825)"/>
<path d="M32.763 48.2107L32.1914 48.0391V48.2729L32.763 48.2107Z" fill="#26292B"/>
<path d="M32.763 48.2107L32.1914 48.0391V48.2729L32.763 48.2107Z" fill="url(#paint10_linear_28093_1825)"/>
<path d="M32.763 48.2107L32.1914 48.0391V48.2729L32.763 48.2107Z" fill="url(#paint11_linear_28093_1825)"/>
<path d="M32.1914 48.2731L32.8772 52.0684L32.9189 51.9514L33.0918 48.3097L32.763 48.2109L32.1914 48.2731Z" fill="#26292B"/>
<path d="M32.1914 48.2731L32.8772 52.0684L32.9189 51.9514L33.0918 48.3097L32.763 48.2109L32.1914 48.2731Z" fill="url(#paint12_linear_28093_1825)"/>
<path d="M32.1914 48.2731L32.8772 52.0684L32.9189 51.9514L33.0918 48.3097L32.763 48.2109L32.1914 48.2731Z" fill="url(#paint13_linear_28093_1825)"/>
<path d="M31.8689 54.9035L30.3438 59.1871C30.9674 59.1463 31.5844 59.081 32.1933 58.9919V53.9922L31.8686 54.9038L31.8689 54.9035Z" fill="#26292B"/>
<path d="M36.0089 47.9727H34.9609L36.0089 51.4369V47.9727Z" fill="#26292B"/>
<path d="M36.0089 47.9727H34.9609L36.0089 51.4369V47.9727Z" fill="url(#paint14_linear_28093_1825)"/>
<path d="M34.9604 47.9727H32.291L32.8389 48.203L34.9604 47.9727Z" fill="#26292B"/>
<path d="M34.9604 47.9727H32.291L32.8389 48.203L34.9604 47.9727Z" fill="url(#paint15_linear_28093_1825)"/>
<path d="M32.8772 52.0703L32.1914 53.9966V58.9965C32.8244 58.904 33.4496 58.7863 34.0649 58.6433L32.8772 52.0703Z" fill="#26292B"/>
<path d="M34.0712 48.7208L32.8792 52.0684L34.0671 58.6414C34.7256 58.4887 35.3736 58.3077 36.0094 58.1002V51.4366L34.9614 47.9727L32.8398 48.203L34.0712 48.7208Z" fill="#26292B"/>
<path d="M34.0712 48.7208L32.8792 52.0684L34.0671 58.6414C34.7256 58.4887 35.3736 58.3077 36.0094 58.1002V51.4366L34.9614 47.9727L32.8398 48.203L34.0712 48.7208Z" fill="url(#paint16_linear_28093_1825)"/>
<path d="M30.4127 47.5069L32.1935 48.0417V47.9748H32.2919L30.5125 47.2266L26.457 58.6171L27.8996 59.2235C28.0992 59.2314 28.2997 59.2369 28.5009 59.2394L30.413 47.5069H30.4127Z" fill="#26292B"/>
<path d="M32.1914 48.0395L32.763 48.2112L32.8377 48.203L32.2899 47.9727H32.1914V48.0395Z" fill="#26292B"/>
<path d="M32.1914 48.0395L32.763 48.2112L32.8377 48.203L32.2899 47.9727H32.1914V48.0395Z" fill="url(#paint17_linear_28093_1825)"/>
<path d="M32.1914 48.0395L32.763 48.2112L32.8377 48.203L32.2899 47.9727H32.1914V48.0395Z" fill="url(#paint18_linear_28093_1825)"/>
<path d="M32.8385 48.2031L32.7637 48.2113L33.0925 48.3101L32.9196 51.9517L32.8779 52.0688L34.0699 48.7209L32.8385 48.2031Z" fill="#26292B"/>
<path d="M32.8385 48.2031L32.7637 48.2113L33.0925 48.3101L32.9196 51.9517L32.8779 52.0688L34.0699 48.7209L32.8385 48.2031Z" fill="url(#paint19_linear_28093_1825)"/>
<path d="M32.8385 48.2031L32.7637 48.2113L33.0925 48.3101L32.9196 51.9517L32.8779 52.0688L34.0699 48.7209L32.8385 48.2031Z" fill="url(#paint20_linear_28093_1825)"/>
<path d="M32.1929 48.2726V48.0387L30.4121 47.5039L28.5 59.2364C28.6058 59.2379 28.7118 59.2386 28.8179 59.2386C29.3303 59.2386 29.8387 59.2219 30.343 59.1891L31.8681 54.9055L32.1929 53.9939V48.2726Z" fill="#26292B"/>
<path d="M32.1929 48.2726V48.0387L30.4121 47.5039L28.5 59.2364C28.6058 59.2379 28.7118 59.2386 28.8179 59.2386C29.3303 59.2386 29.8387 59.2219 30.343 59.1891L31.8681 54.9055L32.1929 53.9939V48.2726Z" fill="url(#paint21_linear_28093_1825)"/>
<path d="M32.1914 53.9947L32.8772 52.0689L32.1914 48.2734V53.9947Z" fill="#26292B"/>
<path d="M32.1914 53.9947L32.8772 52.0689L32.1914 48.2734V53.9947Z" fill="url(#paint22_linear_28093_1825)"/>
<path d="M32.1914 53.9947L32.8772 52.0689L32.1914 48.2734V53.9947Z" fill="url(#paint23_linear_28093_1825)"/>
<path d="M32.763 48.2107L32.1914 48.0391V48.2729L32.763 48.2107Z" fill="#26292B"/>
<path d="M32.763 48.2107L32.1914 48.0391V48.2729L32.763 48.2107Z" fill="url(#paint24_linear_28093_1825)"/>
<path d="M32.763 48.2107L32.1914 48.0391V48.2729L32.763 48.2107Z" fill="url(#paint25_linear_28093_1825)"/>
<path d="M32.1914 48.2731L32.8772 52.0684L32.9189 51.9514L33.0918 48.3097L32.763 48.2109L32.1914 48.2731Z" fill="#26292B"/>
<path d="M32.1914 48.2731L32.8772 52.0684L32.9189 51.9514L33.0918 48.3097L32.763 48.2109L32.1914 48.2731Z" fill="url(#paint26_linear_28093_1825)"/>
<path d="M32.1914 48.2731L32.8772 52.0684L32.9189 51.9514L33.0918 48.3097L32.763 48.2109L32.1914 48.2731Z" fill="url(#paint27_linear_28093_1825)"/>
<path d="M25.2051 4.55142C25.2051 4.55142 27.8874 3.69939 27.7927 0.669922C27.7927 0.669922 29.055 3.7625 27.0354 5.3719L25.2051 4.55142Z" fill="#B61C0C"/>
<path d="M26.2734 5.30305C26.2734 5.30305 29.0759 5.56055 30.1662 2.73242C30.1662 2.73242 30.1274 6.0724 27.6411 6.77045L26.2734 5.30305Z" fill="#B61C0C"/>
<path d="M23.1858 3.50936C23.1858 3.50936 25.9604 3.98176 27.2649 1.24609C27.2649 1.24609 26.9689 4.57314 24.4362 5.07774L23.1855 3.50936H23.1858Z" fill="#B61C0C"/>
<mask id="mask1_28093_1825" style="mask-type:luminance" maskUnits="userSpaceOnUse" x="9" y="3" width="39" height="56">
<path d="M18.3369 12.7847C18.9846 13.7097 19.8858 14.444 20.9399 14.8867L20.9373 14.8857C20.7047 20.396 9.95703 18.7629 9.95703 29.7544C9.95703 32.5085 10.9265 35.0358 12.5428 37.0142C13.1159 37.7156 13.7704 38.3481 14.4918 38.8971L15.8001 39.759L44.6842 58.7837C46.6997 55.7236 47.8726 52.0592 47.8726 48.1209C47.8726 41.7214 44.776 36.0457 39.9992 32.5097C34.817 28.6736 30.0474 28.2805 23.884 29.2539C23.6625 29.2889 23.4353 29.3072 23.204 29.3072C20.8028 29.3072 18.8807 27.358 18.8807 24.984C18.8807 19.171 29.5094 21.3032 29.5094 10.7117C29.5094 8.82496 28.8451 3.32617 23.2665 3.32617C21.6438 3.32617 20.1007 3.97655 18.9681 5.13406C17.9072 6.21835 17.253 7.70248 17.253 9.33965C17.253 10.6212 17.6538 11.8087 18.3369 12.7844" fill="white"/>
</mask>
<g mask="url(#mask1_28093_1825)">
<path d="M47.8707 3.32617H9.95508V58.7833H47.8707V3.32617Z" fill="url(#paint28_linear_28093_1825)"/>
</g>
<mask id="mask2_28093_1825" style="mask-type:luminance" maskUnits="userSpaceOnUse" x="17" y="3" width="13" height="18">
<path d="M18.3355 12.7844C18.9831 13.7093 19.8844 14.4437 20.9383 14.8864L20.9358 14.8854L21.7305 17.6495L22.2872 20.6815C25.3958 18.9651 29.5083 17.2998 29.5083 10.7117C29.5083 8.82496 28.844 3.32617 23.2654 3.32617C21.6427 3.32617 20.0996 3.97655 18.967 5.13406C17.9061 6.21835 17.252 7.70248 17.252 9.33965C17.252 10.6212 17.6527 11.8087 18.3358 12.7844" fill="white"/>
</mask>
<g mask="url(#mask2_28093_1825)">
<path d="M29.5083 3.32617H17.252V20.6815H29.5083V3.32617Z" fill="url(#paint29_linear_28093_1825)"/>
</g>
<path fill-rule="evenodd" clip-rule="evenodd" d="M26.8936 17.6962C28.3992 16.2333 29.5122 14.1388 29.5122 10.7117C29.5122 8.82496 28.8479 3.32617 23.2693 3.32617C21.6466 3.32617 20.1035 3.97655 18.9709 5.13406C17.91 6.21835 17.2559 7.70248 17.2559 9.33965C17.2559 9.84993 17.3196 10.3451 17.4388 10.8181C17.442 10.8162 26.7166 4.60517 26.8936 17.6959" fill="#51F4E9"/>
<mask id="mask3_28093_1825" style="mask-type:luminance" maskUnits="userSpaceOnUse" x="17" y="28" width="34" height="35">
<path d="M37.2947 53.4924L46.1695 62.8078C48.8483 59.2373 50.4356 54.8008 50.4356 49.9934C50.4356 40.7447 44.5607 32.8681 36.3392 29.8917C34.068 29.0695 31.618 28.6211 29.0635 28.6211C25.7266 28.6211 22.5684 29.3857 19.7548 30.7493C16.582 32.2868 17.6802 32.9044 19.7727 35.1007L37.295 53.4927L37.2947 53.4924Z" fill="white"/>
</mask>
<g mask="url(#mask3_28093_1825)">
<path d="M50.4395 28.6211H16.5859V62.8078H50.4395V28.6211Z" fill="url(#paint30_linear_28093_1825)"/>
</g>
<path fill-rule="evenodd" clip-rule="evenodd" d="M37.3039 53.4925L46.1787 62.8078C47.4113 61.1653 48.4123 59.3391 49.1343 57.3782L18.1523 33.3516C18.5086 33.8225 19.0909 34.3753 19.7816 35.1006L37.3039 53.4925Z" fill="#3E005D"/>
<mask id="mask4_28093_1825" style="mask-type:luminance" maskUnits="userSpaceOnUse" x="9" y="14" width="15" height="27">
<path d="M17.058 40.5847C9.81282 27.1068 21.5435 21.1069 21.5435 21.1069C21.783 20.9619 22.0323 20.8202 22.2883 20.679C25.1366 17.0826 22.2791 15.4486 21.2645 15.0094C21.0818 14.9302 20.959 14.8898 20.9399 14.8838L20.9373 14.8828C20.7047 20.3931 9.95703 18.7599 9.95703 29.7515C9.95703 32.5056 10.9265 35.0329 12.5428 37.0111C13.1159 37.7127 13.7704 38.3451 14.4918 38.8942L15.8001 39.7561L17.058 40.5844V40.5847Z" fill="white"/>
</mask>
<g mask="url(#mask4_28093_1825)">
<path d="M25.1363 14.8828H9.8125V40.5844H25.1363V14.8828Z" fill="url(#paint31_linear_28093_1825)"/>
</g>
<path fill-rule="evenodd" clip-rule="evenodd" d="M15.3106 36.394C12.2606 25.8575 21.5428 21.1094 21.5428 21.1094C21.5428 21.1094 11.2858 25.659 15.3081 36.3877L15.3106 36.394Z" fill="#FFCE4B"/>
<path fill-rule="evenodd" clip-rule="evenodd" d="M17.2988 19.1484C14.1013 20.9712 9.95703 22.9283 9.95703 29.7541C9.95703 31.9195 10.5566 33.9445 11.5983 35.6732C7.91656 24.5607 17.2988 19.1487 17.2988 19.1487V19.1484Z" fill="#FFBBD7"/>
<path fill-rule="evenodd" clip-rule="evenodd" d="M19.0117 5.09147C19.6918 4.9422 27.7912 3.32143 29.1728 10.4836C29.2995 11.1412 29.37 11.8727 29.3726 12.6866C29.4628 12.082 29.511 11.4256 29.511 10.7114C29.511 9.9973 29.4236 8.86977 29.0471 7.67093C28.9534 7.37272 28.8417 7.07198 28.7091 6.77565C27.9036 4.97439 26.3222 3.32617 23.2681 3.32617C22.0027 3.32617 20.7855 3.7219 19.7735 4.44517C19.5239 4.62379 19.2882 4.82102 19.0691 5.03498C19.0499 5.05359 19.031 5.07253 19.0117 5.09147Z" fill="#5EF9F6"/>
<path fill-rule="evenodd" clip-rule="evenodd" d="M17.0595 40.5908C17.0595 40.5908 13.89 32.0529 20.4061 28.2825C19.4721 27.4872 18.8825 26.3026 18.8825 24.9879C18.8825 23.0885 20.0173 22.0373 21.5454 21.1133C21.5454 21.1133 9.81469 27.1133 17.0598 40.5913" fill="#102770"/>
<path fill-rule="evenodd" clip-rule="evenodd" d="M18.3323 33.5781C20.0933 36.3693 25.7097 45.4896 23.4853 44.8197L38.3941 54.6395L37.3015 53.4927L19.7792 35.1007C19.1961 34.4885 18.6898 33.9991 18.332 33.5781" fill="url(#paint32_linear_28093_1825)"/>
<path fill-rule="evenodd" clip-rule="evenodd" d="M34.9217 30.7112C43.6943 33.8871 49.9631 42.2917 49.9631 52.1604C49.9631 53.322 49.8763 54.4631 49.7087 55.5781C50.1893 53.7979 50.4456 51.9256 50.4456 49.9934C50.4456 40.7447 44.5706 32.8681 36.3491 29.8917C34.0779 29.0695 31.6278 28.6211 29.0732 28.6211C26.2218 28.6211 23.501 29.1797 21.0137 30.1929C22.9685 29.6474 25.0293 29.3557 27.1581 29.3557C29.884 29.3557 32.4985 29.8341 34.9217 30.7114" fill="#FCE2A6"/>
<path fill-rule="evenodd" clip-rule="evenodd" d="M21.2662 15.0119C22.2807 15.4512 25.1381 17.0853 22.2898 20.6815C22.6102 20.5045 22.9411 20.3284 23.2773 20.1472C25.0866 17.068 22.8284 15.6384 21.6151 15.1234C21.2443 14.9659 20.9711 14.894 20.9414 14.8867C20.9607 14.8928 21.0837 14.9332 21.2662 15.0124" fill="#1296DF"/>
<path fill-rule="evenodd" clip-rule="evenodd" d="M21.8163 18.1008C22.3277 19.1428 22.2904 20.6827 22.2904 20.6827C25.1387 17.0865 22.2812 15.4525 21.2667 15.0132C21.0839 14.9341 20.9612 14.8936 20.942 14.8877L20.9394 14.8867C20.8978 15.8729 20.5194 16.6302 19.9258 17.2721C20.9054 16.9443 21.4796 17.4144 21.8163 18.1008Z" fill="#102770"/>
<path fill-rule="evenodd" clip-rule="evenodd" d="M37.3007 53.4929L38.3929 54.639L18.6604 32.8509C18.6604 32.8509 17.7698 31.9338 19.6245 30.8164C16.6203 32.3055 17.7165 32.9367 19.7784 35.1009L37.3007 53.4929Z" fill="#FCE2A6"/>
<path d="M18.969 5.12406V5.10352H18.9648C18.9656 5.11074 18.9663 5.11836 18.9672 5.12559L18.969 5.12406Z" fill="url(#paint33_linear_28093_1825)"/>
<path d="M18.9688 5.13669V5.1781C19.0027 5.14175 19.0367 5.10509 19.0716 5.06967C19.0706 5.05893 19.0694 5.04818 19.0684 5.03711L18.9688 5.1212V5.13638V5.13669Z" fill="#FCE2A6"/>
<path d="M17.459 7.78656L17.542 7.72123L17.5634 7.71272C17.8216 6.75118 18.312 5.88525 18.9709 5.17806V5.13672C18.2583 5.86474 17.7301 6.77327 17.4593 7.78687L17.459 7.78656Z" fill="#FCE2A6"/>
<path d="M18.9687 5.13968V5.12109L18.9668 5.12265C18.9675 5.12845 18.968 5.13427 18.9687 5.13968Z" fill="#FCE2A6"/>
<path d="M0.539062 21.1271C2.45014 21.0608 8.62552 20.2076 18.3404 12.7853C17.6571 11.8096 17.2564 10.6218 17.2564 9.34059C17.2564 8.80255 17.3274 8.28154 17.46 7.78516L0.539062 21.1271Z" fill="url(#paint34_linear_28093_1825)"/>
<path d="M18.9682 5.12181C18.9675 5.11581 18.9669 5.10951 18.9662 5.10352L-0.00195312 21.1259C0.0049894 21.1262 0.0125631 21.1266 0.0201367 21.1271L18.9682 5.12181Z" fill="url(#paint35_linear_28093_1825)"/>
<path d="M0.536434 21.127L17.4573 7.78544C17.728 6.77183 18.2567 5.86331 18.9688 5.13529C18.9682 5.13056 18.9679 5.12582 18.9672 5.12109L0.0195312 21.1264C0.123669 21.1315 0.296285 21.1356 0.536434 21.127Z" fill="#FCE2A6"/>
</g>
<path d="M67.7503 15.4712C67.607 14.0944 66.4505 13.3014 64.7322 13.3124C62.9148 13.3014 61.8355 14.1825 61.8244 15.3831C61.8134 16.7268 63.2343 17.2776 64.5561 17.586L66.054 17.9825C68.4331 18.5332 70.7241 19.7889 70.7241 22.5645C70.7241 25.3622 68.5102 27.2788 64.6882 27.2788C60.9763 27.2788 58.6192 25.4945 58.498 22.3443H61.3178C61.4499 24.0075 62.8487 24.8226 64.6662 24.8336C66.5496 24.8226 67.8493 23.9083 67.8604 22.5426C67.8493 21.2869 66.7038 20.7582 64.9745 20.3176L63.1683 19.8551C60.5467 19.1721 58.9167 17.8504 58.9167 15.5594C58.9167 12.7396 61.4169 10.8672 64.7763 10.8672C68.1577 10.8672 70.4597 12.7727 70.5039 15.4712H67.7503ZM76.6138 27.0365V11.0875H79.4775V17.8504H86.9014V11.0875H89.7871V27.0365H86.9014V20.2516H79.4775V27.0365H76.6138ZM110.48 19.0619C110.491 24.2167 107.341 27.2567 103.167 27.2567C98.9701 27.2567 95.842 24.2057 95.853 19.0619C95.842 13.9072 98.9701 10.8672 103.167 10.8672C107.341 10.8672 110.491 13.9072 110.48 19.0619ZM98.7388 19.0619C98.7278 22.7077 100.567 24.6793 103.167 24.6793C105.777 24.6793 107.605 22.7077 107.594 19.0619C107.605 15.4162 105.777 13.4446 103.167 13.4446C100.567 13.4446 98.7278 15.4162 98.7388 19.0619ZM116.546 27.0365V11.0875H126.922V13.4886H119.41V17.8504H126.371V20.2516H119.41V24.6132H126.966V27.0365H116.546ZM133.186 27.0365V11.0875H139.288C142.746 11.0875 144.453 12.8498 144.464 15.2289C144.453 17.1674 143.23 18.2469 141.667 18.6213V18.7755C143.363 18.8636 145.082 20.2735 145.082 22.6968C145.082 25.1751 143.287 27.0365 139.64 27.0365H133.186ZM136.05 24.6353H139.2C141.293 24.6353 142.162 23.7431 142.174 22.4764C142.162 21.0446 141.051 19.9541 139.266 19.9431H136.05V24.6353ZM136.05 17.8723H138.935C140.444 17.8723 141.59 17.0022 141.601 15.5813C141.59 14.3588 140.709 13.4666 139.001 13.4666H136.05V17.8723ZM153.791 11.0875V27.0365H150.927V11.0875H153.791ZM160.276 27.0365V11.0875H163.139V24.6132H170.189V27.0365H160.276ZM175.99 27.0365V11.0875H178.853V24.6132H185.903V27.0365H175.99ZM65.364 49.6903V33.7413H75.5855V36.1425H68.2278V40.5043H74.8806V42.9054H68.2278V49.6903H65.364ZM84.383 33.7413V49.6903H81.5192V33.7413H84.383ZM103.975 33.7413V49.6903H101.419L93.8633 38.7859H93.7312V49.6903H90.8673V33.7413H93.4668L100.979 44.6457H101.133V33.7413H103.975ZM112.464 49.6903H109.402L115.019 33.7413H118.544L124.183 49.6903H121.121L119.788 45.7472H113.785L112.464 49.6903ZM114.556 43.4341H119.017L116.848 37.0016H116.715L114.556 43.4341ZM142.696 33.7413V49.6903H140.14L132.584 38.7859H132.452V49.6903H129.588V33.7413H132.188L139.699 44.6457H139.854V33.7413H142.696ZM159.908 39.1165C159.567 37.1999 158.036 36.0984 156.097 36.0984C153.487 36.0984 151.636 38.1031 151.648 41.7158C151.636 45.3837 153.498 47.3332 156.097 47.3332C157.992 47.3332 159.523 46.2758 159.908 44.4034H162.794C162.353 47.4653 159.831 49.9105 156.053 49.9105C151.846 49.9105 148.75 46.8596 148.762 41.7158C148.75 36.5611 151.878 33.5211 156.053 33.5211C159.578 33.5211 162.298 35.5698 162.794 39.1165H159.908ZM168.772 49.6903V33.7413H179.147V36.1425H171.635V40.5043H178.596V42.9054H171.635V47.2671H179.191V49.6903H168.772Z" fill="white"/>
</g>
<defs>
<linearGradient id="paint0_linear_28093_1825" x1="36.0691" y1="53.1135" x2="37.6272" y2="66.8177" gradientUnits="userSpaceOnUse">
<stop stop-color="#0067AF"/>
<stop offset="1" stop-color="#3AB6A8"/>
</linearGradient>
<linearGradient id="paint1_linear_28093_1825" x1="34.2336" y1="53.3223" x2="35.7917" y2="67.0268" gradientUnits="userSpaceOnUse">
<stop stop-color="#0067AF"/>
<stop offset="1" stop-color="#3AB6A8"/>
</linearGradient>
<linearGradient id="paint2_linear_28093_1825" x1="34.6177" y1="53.2786" x2="36.1757" y2="66.9828" gradientUnits="userSpaceOnUse">
<stop stop-color="#0067AF"/>
<stop offset="1" stop-color="#3AB6A8"/>
</linearGradient>
<linearGradient id="paint3_linear_28093_1825" x1="33.1201" y1="53.4487" x2="34.6781" y2="67.1531" gradientUnits="userSpaceOnUse">
<stop stop-color="#0067AF"/>
<stop offset="1" stop-color="#3AB6A8"/>
</linearGradient>
<linearGradient id="paint4_linear_28093_1825" x1="32.8579" y1="47.0516" x2="27.1251" y2="64.5316" gradientUnits="userSpaceOnUse">
<stop stop-color="#0067AF"/>
<stop offset="1" stop-color="#3AB6A8"/>
</linearGradient>
<linearGradient id="paint5_linear_28093_1825" x1="33.814" y1="53.3702" x2="35.3719" y2="67.0744" gradientUnits="userSpaceOnUse">
<stop stop-color="#0067AF"/>
<stop offset="1" stop-color="#3AB6A8"/>
</linearGradient>
<linearGradient id="paint6_linear_28093_1825" x1="33.7863" y1="47.3554" x2="28.0539" y2="64.8353" gradientUnits="userSpaceOnUse">
<stop stop-color="#0067AF"/>
<stop offset="1" stop-color="#3AB6A8"/>
</linearGradient>
<linearGradient id="paint7_linear_28093_1825" x1="32.5518" y1="46.9501" x2="26.8194" y2="64.4297" gradientUnits="userSpaceOnUse">
<stop stop-color="#0067AF"/>
<stop offset="1" stop-color="#3AB6A8"/>
</linearGradient>
<linearGradient id="paint8_linear_28093_1825" x1="32.5883" y1="53.5094" x2="34.1464" y2="67.2133" gradientUnits="userSpaceOnUse">
<stop stop-color="#0067AF"/>
<stop offset="1" stop-color="#3AB6A8"/>
</linearGradient>
<linearGradient id="paint9_linear_28093_1825" x1="33.4927" y1="47.2601" x2="27.76" y2="64.7397" gradientUnits="userSpaceOnUse">
<stop stop-color="#0067AF"/>
<stop offset="1" stop-color="#3AB6A8"/>
</linearGradient>
<linearGradient id="paint10_linear_28093_1825" x1="33.0697" y1="53.454" x2="34.6276" y2="67.1581" gradientUnits="userSpaceOnUse">
<stop stop-color="#0067AF"/>
<stop offset="1" stop-color="#3AB6A8"/>
</linearGradient>
<linearGradient id="paint11_linear_28093_1825" x1="32.8351" y1="47.0437" x2="27.1027" y2="64.5237" gradientUnits="userSpaceOnUse">
<stop stop-color="#0067AF"/>
<stop offset="1" stop-color="#3AB6A8"/>
</linearGradient>
<linearGradient id="paint12_linear_28093_1825" x1="33.2264" y1="53.4365" x2="34.7845" y2="67.1407" gradientUnits="userSpaceOnUse">
<stop stop-color="#0067AF"/>
<stop offset="1" stop-color="#3AB6A8"/>
</linearGradient>
<linearGradient id="paint13_linear_28093_1825" x1="33.4939" y1="47.2599" x2="27.7614" y2="64.7398" gradientUnits="userSpaceOnUse">
<stop stop-color="#0067AF"/>
<stop offset="1" stop-color="#3AB6A8"/>
</linearGradient>
<linearGradient id="paint14_linear_28093_1825" x1="36.0691" y1="53.1135" x2="37.6272" y2="66.8177" gradientUnits="userSpaceOnUse">
<stop stop-color="#0067AF"/>
<stop offset="1" stop-color="#3AB6A8"/>
</linearGradient>
<linearGradient id="paint15_linear_28093_1825" x1="34.2336" y1="53.3222" x2="35.7917" y2="67.0265" gradientUnits="userSpaceOnUse">
<stop stop-color="#0067AF"/>
<stop offset="1" stop-color="#3AB6A8"/>
</linearGradient>
<linearGradient id="paint16_linear_28093_1825" x1="34.6177" y1="53.2786" x2="36.1757" y2="66.9828" gradientUnits="userSpaceOnUse">
<stop stop-color="#0067AF"/>
<stop offset="1" stop-color="#3AB6A8"/>
</linearGradient>
<linearGradient id="paint17_linear_28093_1825" x1="33.1201" y1="53.4487" x2="34.6781" y2="67.1531" gradientUnits="userSpaceOnUse">
<stop stop-color="#0067AF"/>
<stop offset="1" stop-color="#3AB6A8"/>
</linearGradient>
<linearGradient id="paint18_linear_28093_1825" x1="32.8579" y1="47.0516" x2="27.1251" y2="64.5316" gradientUnits="userSpaceOnUse">
<stop stop-color="#0067AF"/>
<stop offset="1" stop-color="#3AB6A8"/>
</linearGradient>
<linearGradient id="paint19_linear_28093_1825" x1="33.8121" y1="53.3702" x2="35.37" y2="67.0744" gradientUnits="userSpaceOnUse">
<stop stop-color="#0067AF"/>
<stop offset="1" stop-color="#3AB6A8"/>
</linearGradient>
<linearGradient id="paint20_linear_28093_1825" x1="33.7845" y1="47.3554" x2="28.052" y2="64.8353" gradientUnits="userSpaceOnUse">
<stop stop-color="#0067AF"/>
<stop offset="1" stop-color="#3AB6A8"/>
</linearGradient>
<linearGradient id="paint21_linear_28093_1825" x1="32.5518" y1="46.9501" x2="26.8194" y2="64.4297" gradientUnits="userSpaceOnUse">
<stop stop-color="#0067AF"/>
<stop offset="1" stop-color="#3AB6A8"/>
</linearGradient>
<linearGradient id="paint22_linear_28093_1825" x1="32.5883" y1="53.5094" x2="34.1464" y2="67.2133" gradientUnits="userSpaceOnUse">
<stop stop-color="#0067AF"/>
<stop offset="1" stop-color="#3AB6A8"/>
</linearGradient>
<linearGradient id="paint23_linear_28093_1825" x1="33.4927" y1="47.2601" x2="27.76" y2="64.7396" gradientUnits="userSpaceOnUse">
<stop stop-color="#0067AF"/>
<stop offset="1" stop-color="#3AB6A8"/>
</linearGradient>
<linearGradient id="paint24_linear_28093_1825" x1="33.0697" y1="53.454" x2="34.6276" y2="67.1581" gradientUnits="userSpaceOnUse">
<stop stop-color="#0067AF"/>
<stop offset="1" stop-color="#3AB6A8"/>
</linearGradient>
<linearGradient id="paint25_linear_28093_1825" x1="32.8351" y1="47.0437" x2="27.1027" y2="64.5237" gradientUnits="userSpaceOnUse">
<stop stop-color="#0067AF"/>
<stop offset="1" stop-color="#3AB6A8"/>
</linearGradient>
<linearGradient id="paint26_linear_28093_1825" x1="33.2264" y1="53.4365" x2="34.7845" y2="67.1407" gradientUnits="userSpaceOnUse">
<stop stop-color="#0067AF"/>
<stop offset="1" stop-color="#3AB6A8"/>
</linearGradient>
<linearGradient id="paint27_linear_28093_1825" x1="33.4939" y1="47.2599" x2="27.7614" y2="64.7398" gradientUnits="userSpaceOnUse">
<stop stop-color="#0067AF"/>
<stop offset="1" stop-color="#3AB6A8"/>
</linearGradient>
<linearGradient id="paint28_linear_28093_1825" x1="19.9179" y1="39.7608" x2="30.245" y2="29.7658" gradientUnits="userSpaceOnUse">
<stop stop-color="#15FF86"/>
<stop offset="1" stop-color="#1887C8"/>
</linearGradient>
<linearGradient id="paint29_linear_28093_1825" x1="21.0567" y1="18.382" x2="26.7016" y2="2.88469" gradientUnits="userSpaceOnUse">
<stop stop-color="#0067AF"/>
<stop offset="1" stop-color="#51F4E9"/>
</linearGradient>
<linearGradient id="paint30_linear_28093_1825" x1="30.3049" y1="24.841" x2="35.7355" y2="60.1768" gradientUnits="userSpaceOnUse">
<stop stop-color="#FFCE4B"/>
<stop offset="1" stop-color="#BC25C1"/>
</linearGradient>
<linearGradient id="paint31_linear_28093_1825" x1="19.4124" y1="28.5855" x2="11.8637" y2="25.2673" gradientUnits="userSpaceOnUse">
<stop stop-color="#003780"/>
<stop offset="1" stop-color="#C13FF9"/>
</linearGradient>
<linearGradient id="paint32_linear_28093_1825" x1="18.3323" y1="44.1089" x2="38.3941" y2="44.1089" gradientUnits="userSpaceOnUse">
<stop offset="0.07" stop-color="#188FC4"/>
<stop offset="1" stop-color="#15FF86"/>
</linearGradient>
<linearGradient id="paint33_linear_28093_1825" x1="-16.9939" y1="23.7831" x2="24.0361" y2="2.4781" gradientUnits="userSpaceOnUse">
<stop stop-color="#FFCE4B"/>
<stop offset="1" stop-color="#B91C58"/>
</linearGradient>
<linearGradient id="paint34_linear_28093_1825" x1="-8.73994" y1="24.6328" x2="25.2734" y2="6.97288" gradientUnits="userSpaceOnUse">
<stop stop-color="#FFCE4B"/>
<stop offset="1" stop-color="#B91C58"/>
</linearGradient>
<linearGradient id="paint35_linear_28093_1825" x1="-9.58042" y1="23.0184" x2="24.4328" y2="5.35882" gradientUnits="userSpaceOnUse">
<stop stop-color="#FFCE4B"/>
<stop offset="1" stop-color="#B91C58"/>
</linearGradient>
<clipPath id="clip0_28093_1825">
<rect width="187" height="62.1926" fill="white" transform="translate(0 0.671875)"/>
</clipPath>
</defs>
</svg>
