<svg width="152" height="153" viewBox="0 0 152 153" fill="none" xmlns="http://www.w3.org/2000/svg">
<path d="M98.1682 22.6664L98.1682 22.6664C112.901 14.1591 126.225 13.365 135.862 18.8575C145.497 24.3496 151.533 36.1778 151.579 53.1086C151.629 70.0379 145.676 88.8681 136.015 105.601C126.354 122.334 112.998 136.945 98.2662 145.451C83.529 153.958 70.2044 154.755 60.5681 149.264C50.9323 143.775 44.8965 131.949 44.8464 115.018C44.801 98.0841 50.7537 79.2516 60.415 62.5176C70.0762 45.7838 83.4322 31.1723 98.1682 22.6664Z" fill="url(#paint0_radial_23854_3)" fill-opacity="0.27" stroke="#B4F9BA" stroke-width="0.5"/>
<path d="M101.201 42.8334L101.076 42.6169L101.201 42.8334C111.575 36.8439 120.939 36.2942 127.702 40.149C134.464 44.0034 138.713 52.3117 138.745 64.2317C138.781 76.1507 134.589 89.4132 127.783 101.202C120.976 112.99 111.568 123.281 101.196 129.27C90.8199 135.259 81.4552 135.811 74.6921 131.958C67.9297 128.105 63.6807 119.798 63.6457 107.878C63.6133 95.9559 67.8045 82.6918 74.611 70.9025C81.4175 59.1134 90.8254 48.8228 101.201 42.8334Z" fill="url(#paint1_radial_23854_3)" fill-opacity="0.27" stroke="#B4F9BA" stroke-width="0.5"/>
<path d="M35.3141 134.116L35.3111 134.114C25.7438 128.615 19.7615 116.91 19.7132 100.201C19.6649 83.3842 25.6414 64.6793 35.3424 48.0573C45.0434 31.4355 58.4549 16.9204 73.2511 8.46949L73.1271 8.2524L73.2511 8.46948C88.1433 -0.0364019 101.601 -0.782773 111.294 4.78908L132.187 16.8004C122.857 13.6308 111.067 15.3047 98.3161 22.5873C83.4261 31.0911 69.9573 45.6783 60.2235 62.3563C50.4899 79.0341 44.4775 97.8263 44.5261 114.754C44.567 128.92 49.0073 140.023 56.2482 146.53L35.3141 134.116Z" fill="url(#paint2_radial_23854_3)" fill-opacity="0.27" stroke="#B4F9BA" stroke-width="0.5"/>
<path d="M117.708 61.0074C109.945 66.1826 104.222 77.5435 104.222 87.0781C104.222 96.6134 110.512 99.9654 118.672 94.5253C123.644 91.2107 127.296 86.0609 128.748 83.8055C129.159 83.1678 129.23 82.445 128.949 82.1219L126.748 79.5924C126.383 79.1729 125.584 79.5962 125.039 80.4094C123.865 82.1637 121.688 84.9695 118.672 86.9803C115.111 89.3545 112.584 88.4383 111.558 86.5837C111.27 86.0637 111.755 85.006 112.414 84.5668L130.214 72.7001C130.764 72.3335 131.219 71.5137 131.234 70.8429C131.251 70.0394 131.251 69.3396 131.251 68.922C131.251 58.9067 125.075 56.0965 117.708 61.0074ZM112.273 78.6926C111.663 79.0996 111.18 78.7846 111.359 77.9638C112.012 74.9569 114.001 70.9559 117.708 68.4844C121.528 65.9377 123.656 67.266 124.269 69.4111C124.433 69.9852 123.956 70.9042 123.364 71.2988L112.273 78.6926Z" fill="white"/>
<path fill-rule="evenodd" clip-rule="evenodd" d="M75.9289 89.2309C75.7212 88.874 76.0208 88.0896 76.4824 87.7819L82.9475 83.4718C83.1886 83.3111 83.4077 83.333 83.5094 83.5279L88.0113 92.1593L85.3816 98.5089C85.2732 98.7701 85.386 98.9529 85.5772 98.8254L89.1038 96.4744V104.236C89.1038 104.517 89.4049 104.428 89.5369 104.11L95.7466 89.1161C95.8549 88.8546 95.7421 88.6721 95.5509 88.7995L92.2248 91.0169L97.3717 74.2864C97.4734 73.956 97.6925 73.6418 97.9336 73.4811L104.162 69.3288C104.624 69.021 104.923 69.4059 104.716 70.0398L90.8757 112.268C90.6467 112.967 89.9979 113.4 89.7689 113.006L75.9289 89.2309ZM92.2248 91.0169L92.0243 91.1506V83.3881C92.0243 83.1079 91.7233 83.1962 91.5912 83.5152L88.0113 92.1593L89.8786 95.7395C90.1009 96.1661 90.7802 95.7132 91.0025 94.9903L92.2248 91.0169Z" fill="white"/>
<circle cx="31.5103" cy="30.9951" r="30.0225" fill="url(#paint3_radial_23854_3)" stroke="white" stroke-dasharray="3 3"/>
<path fill-rule="evenodd" clip-rule="evenodd" d="M18.9643 31.9829L34.25 9.7524C34.4778 9.42117 34.9966 9.58235 34.9966 9.98432L34.9966 25.921L43.718 25.921C44.0476 25.921 44.2421 26.2906 44.0553 26.5622L28.7696 48.7927C28.5419 49.124 28.023 48.9628 28.023 48.5608L28.023 32.6242L19.3016 32.6242C18.972 32.6242 18.7776 32.2545 18.9643 31.9829Z" fill="white"/>
<defs>
<radialGradient id="paint0_radial_23854_3" cx="0" cy="0" r="1" gradientUnits="userSpaceOnUse" gradientTransform="translate(74.6792 44.6708) rotate(84.6756) scale(207.267 104.522)">
<stop stop-color="#A3F5AA"/>
<stop offset="0.4" stop-color="#82D289"/>
<stop offset="0.835" stop-color="#66AB6C"/>
<stop offset="1" stop-color="#386A3C"/>
</radialGradient>
<radialGradient id="paint1_radial_23854_3" cx="0" cy="0" r="1" gradientUnits="userSpaceOnUse" gradientTransform="translate(84.6042 58.2832) rotate(84.6756) scale(146.124 73.6884)">
<stop stop-color="#A3F5AA"/>
<stop offset="0.4" stop-color="#82D289"/>
<stop offset="0.835" stop-color="#66AB6C"/>
<stop offset="1" stop-color="#386A3C"/>
</radialGradient>
<radialGradient id="paint2_radial_23854_3" cx="0" cy="0" r="1" gradientUnits="userSpaceOnUse" gradientTransform="translate(52.3614 32.6708) rotate(84.5729) scale(222.387 114.285)">
<stop stop-color="#A3F5AA"/>
<stop offset="0.4" stop-color="#82D289"/>
<stop offset="0.835" stop-color="#66AB6C"/>
<stop offset="1" stop-color="#386A3C"/>
</radialGradient>
<radialGradient id="paint3_radial_23854_3" cx="0" cy="0" r="1" gradientUnits="userSpaceOnUse" gradientTransform="translate(18.1133 13.5563) rotate(83.1667) scale(92.0224 59.3351)">
<stop stop-color="#656565"/>
<stop offset="0.4" stop-color="#525252"/>
<stop offset="0.835" stop-color="#373737"/>
<stop offset="1" stop-color="#2F2F2F"/>
</radialGradient>
</defs>
</svg>
