<svg width="153" height="153" viewBox="0 0 153 153" fill="none" xmlns="http://www.w3.org/2000/svg">
<path d="M98.5436 22.6644L98.5437 22.6644C113.276 14.1572 126.601 13.363 136.237 18.8555C145.873 24.3477 151.909 36.1758 151.954 53.1067C152.004 70.0359 146.052 88.8661 136.39 105.599C126.729 122.332 113.373 136.943 98.6417 145.449C83.9045 153.956 70.5799 154.753 60.9436 149.263C51.3078 143.773 45.272 131.947 45.2219 115.016C45.1765 98.0822 51.1292 79.2496 60.7904 62.5157C70.4517 45.7818 83.8077 31.1704 98.5436 22.6644Z" fill="url(#paint0_radial_23854_2)" fill-opacity="0.27" stroke="#B4F9BA" stroke-width="0.5"/>
<path d="M101.576 42.8315L101.451 42.6149L101.576 42.8314C111.95 36.842 121.315 36.2922 128.078 40.147C134.84 44.0014 139.089 52.3097 139.12 64.2297C139.156 76.1488 134.965 89.4113 128.158 101.2C121.352 112.988 111.944 123.279 101.572 129.268C91.1954 135.258 81.8307 135.809 75.0676 131.956C68.3052 128.103 64.0562 119.796 64.0212 107.876C63.9887 95.954 68.18 82.6898 74.9865 70.9006C81.793 59.1114 91.2009 48.8209 101.576 42.8315Z" fill="url(#paint1_radial_23854_2)" fill-opacity="0.27" stroke="#B4F9BA" stroke-width="0.5"/>
<mask id="mask0_23854_2" style="mask-type:luminance" maskUnits="userSpaceOnUse" x="62" y="19" width="77" height="133">
<path d="M62.9915 151.08L65.6425 65.2368L138.152 20.0666L135.501 105.91L62.9915 151.08Z" fill="white" stroke="white" stroke-width="0.5"/>
</mask>
<g mask="url(#mask0_23854_2)">
<path d="M111.685 73.0298L111.502 79.5345C111.485 80.1246 112.016 80.1552 112.456 79.5913L119.625 70.4173C119.831 70.1553 119.963 69.8221 119.972 69.5472L120.021 67.7705C117.278 69.0065 114.454 70.7906 111.683 73.0324L111.685 73.0298Z" fill="white"/>
<path d="M81.4453 95.6914L80.9953 110.262C80.9869 110.537 81.1017 110.714 81.3004 110.725L88.1812 111.151C88.6056 111.18 89.1573 110.474 89.1756 109.881L89.598 96.2056C86.9401 96.8528 84.9903 95.253 82.4046 95.5108C82.09 95.5424 81.7702 95.6043 81.4453 95.6914Z" fill="white"/>
<path d="M118.796 76.6283L100.525 100.007C100.321 100.266 100.075 100.421 99.8787 100.409L94.269 100.093C93.8444 100.071 93.2942 100.776 93.276 101.366L92.9795 110.965C92.9711 111.24 93.0887 111.417 93.286 111.428L99.539 111.78C99.7348 111.792 99.9816 111.638 100.186 111.377L119.109 87.1649C119.315 86.9024 119.447 86.5713 119.456 86.2963L119.752 76.685L119.751 76.6859C119.769 76.0914 119.239 76.0588 118.797 76.6257L118.796 76.6283Z" fill="white"/>
<path d="M101.974 42.5702L101.958 42.5802C81.8613 55.0997 64.9754 84.5274 64.2409 108.312C64.1487 111.297 64.3158 114.049 64.7182 116.559C64.8972 117.675 66.364 116.846 66.7432 115.421C67.2536 113.504 67.9211 111.56 68.7807 109.607C71.6093 103.182 76.9637 96.8849 81.4517 95.6844L81.7841 84.922C81.7925 84.6489 81.9231 84.3183 82.1289 84.0545L88.6282 75.7062C88.8341 75.4423 89.0839 75.2867 89.2797 75.3004L96.1557 75.7249C96.5774 75.7521 96.5576 76.4867 96.116 77.0551L90.2864 84.5437C90.0821 84.8049 89.9501 85.1346 89.9416 85.4112L89.6085 96.196C89.8525 96.1355 90.0982 96.0659 90.3548 95.9652C94.3903 94.3888 98.1122 88.3539 101.693 83.548C104.755 79.4382 108.185 75.8639 111.702 73.0183L111.738 71.7193C111.746 71.4445 111.63 71.2696 111.433 71.2585L93.9116 70.1821C93.4869 70.1567 93.5097 69.4168 93.9527 68.851L101.136 59.6615C101.341 59.3994 101.588 59.2456 101.784 59.2576L119.931 60.3763C120.127 60.3881 120.244 60.5632 120.237 60.8371L120.043 67.7562C122.289 66.7454 124.481 66.0987 126.54 65.8806C130.113 65.5008 133.246 66.4011 135.709 68.3656C136.015 68.6106 136.634 68.005 136.701 67.393C136.864 65.9104 136.97 64.4436 137.015 62.9983L137.016 62.9603C137.75 39.1866 122.061 30.0606 101.974 42.5737L101.974 42.5702Z" fill="url(#paint2_radial_23854_2)" fill-opacity="0.27"/>
<path d="M119.912 60.3841L101.771 59.2617C101.575 59.2498 101.327 59.4044 101.123 59.6656L93.9422 68.8536C93.4994 69.4194 93.4765 70.1592 93.9011 70.1847L111.416 71.2649C111.612 71.2767 111.73 71.451 111.721 71.7258L111.685 73.0247C114.457 70.7827 117.28 68.9985 120.024 67.7624L120.218 60.8433C120.225 60.5711 120.108 60.3945 119.912 60.3824L119.912 60.3841Z" fill="white"/>
<path d="M90.2749 84.5519L96.1027 77.0644C96.5427 76.497 96.564 75.7616 96.1423 75.7343L89.2687 75.3083C89.0729 75.2946 88.8247 75.4492 88.6174 75.7139L82.1201 84.061C81.9158 84.3239 81.7839 84.6553 81.7754 84.9285L81.4431 95.6909C81.768 95.6038 82.0878 95.5419 82.4024 95.5103C84.9896 95.2498 86.9379 96.8523 89.5957 96.2051L89.9288 85.4202C89.9373 85.1436 90.0677 84.8149 90.2735 84.5528L90.2749 84.5519Z" fill="white"/>
</g>
<path d="M111.308 4.86222L111.31 4.8637L132.967 17.0214C123.46 13.8931 110.994 15.4318 98.3838 22.6664C83.5553 31.1729 70.1422 45.7647 60.4489 62.4477C50.7557 79.1305 44.7683 97.9283 44.8167 114.861C44.8576 129.076 49.7135 140.321 57.0843 146.857L35.6438 134.228L35.6419 134.227C26.1146 128.726 20.1568 117.018 20.1087 100.303C20.0606 83.4812 26.0124 64.7704 35.6732 48.1434C45.334 31.5165 58.6899 16.997 73.4246 8.54373L73.3002 8.32688L73.4246 8.54372C88.2548 0.0354058 101.656 -0.710907 111.308 4.86222Z" fill="url(#paint3_radial_23854_2)" fill-opacity="0.27" stroke="#B4F9BA" stroke-width="0.5"/>
<circle cx="30.8862" cy="30.9951" r="30.0225" fill="url(#paint4_radial_23854_2)" stroke="white" stroke-dasharray="3 3"/>
<path fill-rule="evenodd" clip-rule="evenodd" d="M18.3403 31.9829L33.626 9.7524C33.8537 9.42117 34.3726 9.58235 34.3726 9.98432L34.3726 25.921L43.094 25.921C43.4236 25.921 43.618 26.2906 43.4313 26.5622L28.1456 48.7927C27.9179 49.124 27.399 48.9628 27.399 48.5608L27.399 32.6242L18.6776 32.6242C18.348 32.6242 18.1536 32.2545 18.3403 31.9829Z" fill="white"/>
<defs>
<radialGradient id="paint0_radial_23854_2" cx="0" cy="0" r="1" gradientUnits="userSpaceOnUse" gradientTransform="translate(75.0547 44.6689) rotate(84.6756) scale(207.267 104.522)">
<stop stop-color="#A3F5AA"/>
<stop offset="0.4" stop-color="#82D289"/>
<stop offset="0.835" stop-color="#66AB6C"/>
<stop offset="1" stop-color="#386A3C"/>
</radialGradient>
<radialGradient id="paint1_radial_23854_2" cx="0" cy="0" r="1" gradientUnits="userSpaceOnUse" gradientTransform="translate(84.9797 58.2813) rotate(84.6756) scale(146.124 73.6884)">
<stop stop-color="#A3F5AA"/>
<stop offset="0.4" stop-color="#82D289"/>
<stop offset="0.835" stop-color="#66AB6C"/>
<stop offset="1" stop-color="#386A3C"/>
</radialGradient>
<radialGradient id="paint2_radial_23854_2" cx="0" cy="0" r="1" gradientUnits="userSpaceOnUse" gradientTransform="translate(85.6378 63.8385) rotate(81.4793) scale(71.6343 77.0319)">
<stop stop-color="#A3F5AA"/>
<stop offset="0.4" stop-color="#82D289"/>
<stop offset="0.835" stop-color="#66AB6C"/>
<stop offset="1" stop-color="#386A3C"/>
</radialGradient>
<radialGradient id="paint3_radial_23854_2" cx="0" cy="0" r="1" gradientUnits="userSpaceOnUse" gradientTransform="translate(52.6205 32.7527) rotate(84.5969) scale(222.445 113.815)">
<stop stop-color="#A3F5AA"/>
<stop offset="0.4" stop-color="#82D289"/>
<stop offset="0.835" stop-color="#66AB6C"/>
<stop offset="1" stop-color="#386A3C"/>
</radialGradient>
<radialGradient id="paint4_radial_23854_2" cx="0" cy="0" r="1" gradientUnits="userSpaceOnUse" gradientTransform="translate(17.4893 13.5563) rotate(83.1667) scale(92.0224 59.3351)">
<stop stop-color="#656565"/>
<stop offset="0.4" stop-color="#525252"/>
<stop offset="0.835" stop-color="#373737"/>
<stop offset="1" stop-color="#2F2F2F"/>
</radialGradient>
</defs>
</svg>
