<svg width="36" height="35" viewBox="0 0 36 35" fill="none" xmlns="http://www.w3.org/2000/svg">
<path d="M17.9999 0L23.8573 5.83692L32.0728 6.77718L31.1614 14.996L35.5486 22.0054L28.5546 26.4171L25.8098 34.2174L17.9999 31.5L10.19 34.2174L7.44515 26.4171L0.451172 22.0054L4.83835 14.996L3.92691 6.77718L12.1424 5.83692L17.9999 0Z" fill="#E6B404"/>
<path d="M23.5044 6.19109L23.6276 6.3139L23.8004 6.33368L31.521 7.21729L30.6644 14.9409L30.6453 15.1138L30.7376 15.2612L34.8604 21.8483L28.2878 25.9942L28.1407 26.087L28.0829 26.2511L25.5035 33.5815L18.1642 31.0278L17.9999 30.9706L17.8356 31.0278L10.4962 33.5815L7.9168 26.2511L7.85905 26.087L7.71191 25.9942L1.13934 21.8483L5.26218 15.2612L5.35448 15.1138L5.3353 14.9409L4.47878 7.21729L12.1993 6.33368L12.3721 6.3139L12.4954 6.19109L17.9999 0.705869L23.5044 6.19109Z" stroke="white" stroke-opacity="0.8"/>
</svg>
