<svg width="36" height="35" viewBox="0 0 36 35" fill="none" xmlns="http://www.w3.org/2000/svg">
<path d="M18.3457 0.597656L24.2031 6.43458L32.4187 7.37484L31.5072 15.5936L35.8944 22.603L28.9004 27.0148L26.1556 34.8151L18.3457 32.0977L10.5358 34.8151L7.79098 27.0148L0.797001 22.603L5.18418 15.5936L4.27274 7.37484L12.4883 6.43458L18.3457 0.597656Z" fill="#B7836C"/>
<path d="M23.8502 6.78875L23.9734 6.91155L24.1463 6.93133L31.8668 7.81494L31.0103 15.5385L30.9911 15.7114L31.0834 15.8589L35.2062 22.446L28.6337 26.5919L28.4865 26.6847L28.4288 26.8488L25.8493 34.1791L18.51 31.6254L18.3457 31.5683L18.1814 31.6254L10.8421 34.1791L8.26263 26.8488L8.20488 26.6847L8.05774 26.5919L1.48517 22.446L5.608 15.8589L5.70031 15.7114L5.68113 15.5385L4.82461 7.81494L12.5451 6.93133L12.718 6.91155L12.8412 6.78875L18.3457 1.30353L23.8502 6.78875Z" stroke="white" stroke-opacity="0.5"/>
</svg>
