<svg width="24" height="20" viewBox="0 0 24 20" fill="none" xmlns="http://www.w3.org/2000/svg">
<path fill-rule="evenodd" clip-rule="evenodd" d="M20.7782 5.96984C20.7782 5.77046 20.7742 5.57269 20.7653 5.37574C21.6622 4.72756 22.4421 3.91874 23.0564 2.99773C22.2338 3.36339 21.3482 3.60958 20.419 3.72098C21.3676 3.1519 22.0949 2.25268 22.4388 1.18072C21.5508 1.70621 20.5683 2.08882 19.5221 2.29546C18.6833 1.40189 17.4901 0.844116 16.1694 0.844116C13.6321 0.844116 11.5751 2.90086 11.5751 5.43628C11.5751 5.79629 11.6155 6.14742 11.6938 6.48402C7.87611 6.29191 4.49113 4.46441 2.22587 1.68522C1.83111 2.36407 1.60345 3.1519 1.60345 3.99381C1.60345 5.58722 2.41478 6.99417 3.64751 7.81671C2.89431 7.7933 2.18632 7.58585 1.56712 7.24279C1.56632 7.26136 1.56632 7.27992 1.56632 7.30091C1.56632 9.52555 3.15022 11.3821 5.2516 11.8035C4.86572 11.9084 4.45965 11.9649 4.04066 11.9649C3.7452 11.9649 3.45699 11.9359 3.17686 11.8826C3.76215 13.7068 5.45746 15.0347 7.46842 15.0726C5.89582 16.3044 3.91553 17.0382 1.76329 17.0382C1.39275 17.0382 1.02704 17.0172 0.666992 16.9744C2.70056 18.2772 5.11436 19.0376 7.709 19.0376C16.1573 19.0376 20.7782 12.0392 20.7782 5.96984Z" fill="white"/>
</svg>
