<svg width="201" height="28" viewBox="0 0 201 28" fill="none" xmlns="http://www.w3.org/2000/svg">
<path fill-rule="evenodd" clip-rule="evenodd" d="M0.411511 16.7978L10.0952 2.81627C10.3011 2.5188 10.7706 2.66355 10.7706 3.02456V13.0239H16.2701C16.5683 13.0239 16.7442 13.3558 16.5753 13.5997L6.89159 27.5813C6.68556 27.8787 6.21616 27.734 6.21616 27.373L6.21617 17.3737H0.716637C0.41847 17.3737 0.242574 17.0417 0.411511 16.7978Z" fill="white"/>
<path d="M20.9751 8.70898C20.6711 8.70898 20.4738 9.02707 20.6106 9.29657L29.7255 27.2503C29.8763 27.5475 30.3036 27.5475 30.4544 27.2503L39.5693 9.29657C39.7061 9.02707 39.5088 8.70898 39.2048 8.70898H35.1028C34.9439 8.70898 34.7997 8.80038 34.7327 8.94331L30.538 17.8968C30.3916 18.2092 29.9442 18.2092 29.7978 17.8968L25.6031 8.94331C25.5362 8.80038 25.3918 8.70898 25.233 8.70898H20.9751Z" fill="white"/>
<path d="M49.1271 8.24414C43.6344 8.24414 39.2715 12.4595 39.2715 17.8738C39.2715 23.2494 43.6344 27.5034 49.1271 27.5034C54.6197 27.5034 58.9825 23.2494 58.9825 17.8738C58.9825 12.4595 54.6197 8.24414 49.1271 8.24414ZM49.1271 23.172C45.9717 23.172 44.0239 20.7356 44.0239 17.8738C44.0239 15.0119 45.9717 12.5756 49.1271 12.5756C52.2823 12.5756 54.2301 15.0119 54.2301 17.8738C54.2301 20.7356 52.2823 23.172 49.1271 23.172Z" fill="white"/>
<path d="M61.8613 26.6334C61.8613 26.8572 62.0441 27.0386 62.2695 27.0386H66.1278C66.3531 27.0386 66.5359 26.8572 66.5359 26.6334V0.69427C66.5359 0.47048 66.3531 0.289062 66.1278 0.289062H62.2695C62.0441 0.289062 61.8613 0.470481 61.8613 0.69427V26.6334Z" fill="white"/>
<path d="M69.1855 12.479C69.1855 12.7028 69.3683 12.8843 69.5937 12.8843H72.4002C72.6256 12.8843 72.8083 13.0657 72.8083 13.2894V21.0056C72.8083 24.9116 75.5352 27.5027 79.119 27.5027C81.163 27.5027 82.6664 26.8094 83.2693 26.4773C83.4416 26.3823 83.5013 26.1743 83.4205 25.9958L82.0534 22.9727C81.9467 22.7369 81.6435 22.6538 81.4118 22.7719C81.0507 22.9561 80.4998 23.1713 79.8981 23.1713C78.6515 23.1713 77.4829 22.5139 77.4829 20.2709V13.2894C77.4829 13.0657 77.6656 12.8843 77.8911 12.8843H82.6453C82.8707 12.8843 83.0535 12.7028 83.0535 12.479V9.11271C83.0535 8.88892 82.8707 8.70751 82.6453 8.70751H77.8911C77.6656 8.70751 77.4829 8.52609 77.4829 8.3023V7.31924C77.4829 7.19912 77.4292 7.0852 77.3363 7.00821L73.4781 3.8098C73.2123 3.58948 72.8083 3.77709 72.8083 4.12083V8.3023C72.8083 8.52609 72.6256 8.70751 72.4002 8.70751H69.5937C69.3683 8.70751 69.1855 8.88892 69.1855 9.11271V12.479Z" fill="white"/>
<path d="M101.7 26.661L95.2852 8.87216H100.146L105.469 24.1811H103.155L108.709 8.87216H113.074L118.464 24.1811H116.149L121.638 8.87216H126.201L119.753 26.661H114.76L110.032 13.5343H111.553L106.659 26.661H101.7Z" fill="white"/>
<path d="M138.929 26.661V23.1892L138.598 22.4287V16.2125C138.598 15.1104 138.257 14.2507 137.573 13.6335C136.912 13.0163 135.887 12.7077 134.498 12.7077C133.55 12.7077 132.613 12.862 131.688 13.1706C130.784 13.4571 130.012 13.8539 129.373 14.3609L127.521 10.7569C128.491 10.0735 129.66 9.54448 131.026 9.16974C132.393 8.79501 133.782 8.60765 135.193 8.60765C137.904 8.60765 140.009 9.2469 141.508 10.5254C143.007 11.8039 143.756 13.7988 143.756 16.5101V26.661H138.929ZM133.506 26.9255C132.117 26.9255 130.927 26.6941 129.935 26.2312C128.943 25.7462 128.183 25.0959 127.654 24.2803C127.125 23.4647 126.86 22.5499 126.86 21.536C126.86 20.4779 127.114 19.5521 127.621 18.7585C128.15 17.965 128.976 17.3478 130.101 16.9069C131.225 16.444 132.691 16.2125 134.498 16.2125H139.226V19.2214H135.06C133.848 19.2214 133.01 19.4198 132.547 19.8166C132.106 20.2134 131.886 20.7093 131.886 21.3045C131.886 21.9658 132.14 22.4948 132.647 22.8916C133.176 23.2664 133.892 23.4537 134.796 23.4537C135.655 23.4537 136.427 23.2553 137.11 22.8586C137.794 22.4397 138.29 21.8335 138.598 21.04L139.392 23.4207C139.017 24.5669 138.334 25.4376 137.342 26.0328C136.35 26.6279 135.071 26.9255 133.506 26.9255Z" fill="white"/>
<path d="M148.425 26.661V2.12695H153.583V26.661H148.425Z" fill="white"/>
<path d="M158.37 26.661V2.12695H163.528V26.661H158.37Z" fill="white"/>
<path d="M177.143 26.9255C175.115 26.9255 173.33 26.5287 171.787 25.7352C170.266 24.9416 169.087 23.8615 168.249 22.4948C167.411 21.1061 166.993 19.53 166.993 17.7666C166.993 15.9811 167.4 14.405 168.216 13.0383C169.054 11.6496 170.189 10.5695 171.622 9.79798C173.054 9.00442 174.675 8.60765 176.482 8.60765C178.224 8.60765 179.789 8.98238 181.177 9.73185C182.588 10.4593 183.701 11.5173 184.517 12.9061C185.332 14.2727 185.74 15.915 185.74 17.8327C185.74 18.0311 185.729 18.2626 185.707 18.5271C185.685 18.7695 185.663 19.001 185.641 19.2214H171.192V16.2125H182.93L180.946 17.1053C180.946 16.1795 180.758 15.3749 180.384 14.6916C180.009 14.0082 179.491 13.4792 178.83 13.1045C178.168 12.7077 177.397 12.5093 176.515 12.5093C175.633 12.5093 174.851 12.7077 174.168 13.1045C173.506 13.4792 172.988 14.0192 172.614 14.7246C172.239 15.408 172.051 16.2236 172.051 17.1714V17.965C172.051 18.9349 172.261 19.7946 172.68 20.544C173.121 21.2714 173.727 21.8335 174.498 22.2303C175.292 22.6051 176.218 22.7924 177.276 22.7924C178.224 22.7924 179.05 22.6491 179.756 22.3626C180.483 22.076 181.144 21.6462 181.739 21.0731L184.484 24.0489C183.668 24.9747 182.643 25.6911 181.409 26.1981C180.174 26.683 178.753 26.9255 177.143 26.9255Z" fill="white"/>
<path d="M196.449 26.9255C194.354 26.9255 192.723 26.3965 191.555 25.3384C190.387 24.2583 189.803 22.6602 189.803 20.544V4.93746H194.961V20.4779C194.961 21.2274 195.159 21.8115 195.556 22.2303C195.953 22.6271 196.493 22.8255 197.176 22.8255C197.992 22.8255 198.686 22.6051 199.259 22.1642L200.648 25.8013C200.119 26.176 199.479 26.4626 198.73 26.661C198.003 26.8373 197.242 26.9255 196.449 26.9255ZM187.058 13.2367V9.26894H199.391V13.2367H187.058Z" fill="white"/>
</svg>
