<svg width="110" height="72" viewBox="0 0 110 72" fill="none" xmlns="http://www.w3.org/2000/svg">
<path fill-rule="evenodd" clip-rule="evenodd" d="M0.736328 21.8403L13.3821 3.58201C13.6511 3.19355 14.2641 3.38259 14.2641 3.85402V16.912H21.446C21.8353 16.912 22.065 17.3455 21.8444 17.664L9.1986 35.9224C8.92955 36.3108 8.31657 36.1219 8.31657 35.6504L8.31658 22.5925H1.13479C0.745416 22.5925 0.515715 22.1589 0.736328 21.8403Z" fill="white"/>
<path d="M27.5903 11.2773C27.1934 11.2773 26.9357 11.6927 27.1143 12.0447L39.0174 35.4903C39.2144 35.8784 39.7724 35.8784 39.9693 35.4903L51.8723 12.0447C52.0511 11.6927 51.7934 11.2773 51.3963 11.2773H46.0396C45.8321 11.2773 45.6437 11.3967 45.5563 11.5833L40.0785 23.2756C39.8873 23.6836 39.303 23.6836 39.1119 23.2756L33.634 11.5833C33.5466 11.3967 33.3581 11.2773 33.1507 11.2773H27.5903Z" fill="white"/>
<path d="M64.3527 10.6699C57.1799 10.6699 51.4824 16.1748 51.4824 23.2452C51.4824 30.2652 57.1799 35.8205 64.3527 35.8205C71.5255 35.8205 77.2229 30.2652 77.2229 23.2452C77.2229 16.1748 71.5255 10.6699 64.3527 10.6699ZM64.3527 30.1641C60.2322 30.1641 57.6886 26.9824 57.6886 23.2452C57.6886 19.5079 60.2322 16.3263 64.3527 16.3263C68.4732 16.3263 71.0168 19.5079 71.0168 23.2452C71.0168 26.9824 68.4732 30.1641 64.3527 30.1641Z" fill="white"/>
<path d="M80.9844 34.6841C80.9844 34.9764 81.223 35.2133 81.5174 35.2133H86.5559C86.8502 35.2133 87.0888 34.9764 87.0888 34.6841V0.810407C87.0888 0.518161 86.8502 0.28125 86.5559 0.28125H81.5174C81.223 0.28125 80.9844 0.518162 80.9844 0.810407V34.6841Z" fill="white"/>
<path d="M90.5488 16.199C90.5488 16.4913 90.7875 16.7282 91.0819 16.7282H94.7468C95.0412 16.7282 95.2798 16.9651 95.2798 17.2572V27.3337C95.2798 32.4346 98.8408 35.8183 103.521 35.8183C106.19 35.8183 108.153 34.9129 108.941 34.4792C109.166 34.3552 109.244 34.0835 109.138 33.8504L107.353 29.9026C107.214 29.5946 106.818 29.4861 106.515 29.6403C106.043 29.8809 105.324 30.1619 104.538 30.1619C102.91 30.1619 101.384 29.3034 101.384 26.3743V17.2572C101.384 16.9651 101.623 16.7282 101.917 16.7282H108.126C108.42 16.7282 108.659 16.4913 108.659 16.199V11.8029C108.659 11.5107 108.42 11.2738 108.126 11.2738H101.917C101.623 11.2738 101.384 11.0369 101.384 10.7446V9.46086C101.384 9.30399 101.314 9.15522 101.193 9.05468L96.1544 4.8779C95.8073 4.59019 95.2798 4.83519 95.2798 5.28408V10.7446C95.2798 11.0369 95.0412 11.2738 94.7468 11.2738H91.0819C90.7875 11.2738 90.5488 11.5107 90.5488 11.8029V16.199Z" fill="white"/>
<path d="M8.4087 71.3465L1.99414 53.5577H6.85466L12.1781 68.8667H9.86355L15.4184 53.5577H19.783L25.1725 68.8667H22.858L28.3467 53.5577H32.9097L26.4621 71.3465H21.4693L16.741 58.2198H18.262L13.3684 71.3465H8.4087Z" fill="white"/>
<path d="M45.6378 71.3465V67.8747L45.3072 67.1143V60.8981C45.3072 59.7959 44.9655 58.9362 44.2821 58.319C43.6209 57.7018 42.5958 57.3932 41.2071 57.3932C40.2593 57.3932 39.3224 57.5475 38.3966 57.8561C37.4929 58.1427 36.7213 58.5395 36.0821 59.0465L34.2305 55.4424C35.2004 54.7591 36.3686 54.23 37.7353 53.8553C39.102 53.4806 40.4907 53.2932 41.9015 53.2932C44.6128 53.2932 46.7179 53.9324 48.2169 55.2109C49.7158 56.4895 50.4653 58.4844 50.4653 61.1957V71.3465H45.6378ZM40.2152 71.6111C38.8265 71.6111 37.6361 71.3796 36.6442 70.9167C35.6522 70.4318 34.8918 69.7815 34.3627 68.9659C33.8337 68.1503 33.5692 67.2355 33.5692 66.2215C33.5692 65.1634 33.8227 64.2376 34.3297 63.4441C34.8587 62.6505 35.6853 62.0333 36.8095 61.5924C37.9337 61.1295 39.3996 60.8981 41.2071 60.8981H45.9354V63.907H41.7692C40.5569 63.907 39.7192 64.1054 39.2563 64.5021C38.8154 64.8989 38.595 65.3949 38.595 65.9901C38.595 66.6514 38.8485 67.1804 39.3555 67.5772C39.8845 67.9519 40.6009 68.1393 41.5047 68.1393C42.3644 68.1393 43.1359 67.9409 43.8192 67.5441C44.5026 67.1253 44.9986 66.5191 45.3072 65.7255L46.1007 68.1062C45.726 69.2524 45.0426 70.1231 44.0507 70.7183C43.0588 71.3135 41.7803 71.6111 40.2152 71.6111Z" fill="white"/>
<path d="M55.1336 71.3465V46.8125H60.2917V71.3465H55.1336Z" fill="white"/>
<path d="M65.0788 71.3465V46.8125H70.2369V71.3465H65.0788Z" fill="white"/>
<path d="M83.8524 71.6111C81.8244 71.6111 80.0389 71.2143 78.4959 70.4207C76.9749 69.6272 75.7956 68.5471 74.958 67.1804C74.1203 65.7917 73.7015 64.2156 73.7015 62.4521C73.7015 60.6666 74.1093 59.0905 74.9249 57.7239C75.7625 56.3351 76.8978 55.255 78.3306 54.4835C79.7634 53.69 81.3836 53.2932 83.1911 53.2932C84.9325 53.2932 86.4976 53.6679 87.8863 54.4174C89.297 55.1448 90.4102 56.2029 91.2258 57.5916C92.0414 58.9583 92.4492 60.6005 92.4492 62.5183C92.4492 62.7166 92.4382 62.9481 92.4162 63.2126C92.3941 63.4551 92.3721 63.6865 92.35 63.907H77.9007V60.8981H89.6387L87.6548 61.7908C87.6548 60.865 87.4675 60.0604 87.0927 59.3771C86.718 58.6938 86.2 58.1647 85.5387 57.79C84.8774 57.3932 84.1059 57.1948 83.2242 57.1948C82.3424 57.1948 81.5599 57.3932 80.8766 57.79C80.2153 58.1647 79.6973 58.7048 79.3225 59.4102C78.9478 60.0935 78.7604 60.9091 78.7604 61.857V62.6505C78.7604 63.6204 78.9698 64.4801 79.3886 65.2296C79.8295 65.957 80.4357 66.5191 81.2072 66.9159C82.0008 67.2906 82.9266 67.478 83.9846 67.478C84.9325 67.478 85.7591 67.3347 86.4645 67.0481C87.1919 66.7616 87.8532 66.3317 88.4484 65.7586L91.1928 68.7344C90.3772 69.6602 89.3522 70.3766 88.1177 70.8836C86.8833 71.3686 85.4615 71.6111 83.8524 71.6111Z" fill="white"/>
<path d="M103.158 71.6111C101.063 71.6111 99.4323 71.082 98.264 70.024C97.0957 68.9438 96.5115 67.3457 96.5115 65.2296V49.623H101.67V65.1634C101.67 65.9129 101.868 66.497 102.265 66.9159C102.662 67.3126 103.202 67.511 103.885 67.511C104.701 67.511 105.395 67.2906 105.968 66.8497L107.357 70.4869C106.828 70.8616 106.188 71.1482 105.439 71.3465C104.712 71.5229 103.951 71.6111 103.158 71.6111ZM93.7672 57.9223V53.9545H106.1V57.9223H93.7672Z" fill="white"/>
</svg>
