<svg width="189" height="49" viewBox="0 0 189 49" fill="none" xmlns="http://www.w3.org/2000/svg">
<g clip-path="url(#clip0_22316_2811)">
<path fill-rule="evenodd" clip-rule="evenodd" d="M0.0875716 21.9669L12.9738 3.36138C13.2479 2.96553 13.8726 3.15816 13.8726 3.63856V16.9448H21.191C21.5878 16.9448 21.8218 17.3866 21.597 17.7112L8.71076 36.3167C8.43659 36.7125 7.81195 36.52 7.81195 36.0396L7.81196 22.7333H0.49361C0.0968323 22.7333 -0.137237 22.2915 0.0875716 21.9669Z" fill="white"/>
<path d="M27.4525 11.2031C27.048 11.2031 26.7855 11.6264 26.9675 11.985L39.0968 35.8765C39.2976 36.2719 39.8662 36.2719 40.0669 35.8765L52.1962 11.985C52.3784 11.6264 52.1158 11.2031 51.7112 11.2031H46.2526C46.0412 11.2031 45.8492 11.3248 45.7601 11.5149L40.1781 23.4295C39.9833 23.8453 39.3879 23.8453 39.1931 23.4295L33.6111 11.5149C33.5221 11.3248 33.3299 11.2031 33.1187 11.2031H27.4525Z" fill="white"/>
<path d="M64.9139 10.5859C57.6046 10.5859 51.7988 16.1955 51.7988 23.4004C51.7988 30.5538 57.6046 36.2147 64.9139 36.2147C72.223 36.2147 78.0288 30.5538 78.0288 23.4004C78.0288 16.1955 72.223 10.5859 64.9139 10.5859ZM64.9139 30.4508C60.7149 30.4508 58.123 27.2086 58.123 23.4004C58.123 19.592 60.7149 16.3499 64.9139 16.3499C69.1127 16.3499 71.7046 19.592 71.7046 23.4004C71.7046 27.2086 69.1127 30.4508 64.9139 30.4508Z" fill="white"/>
<path d="M81.8608 35.057C81.8608 35.3548 82.104 35.5962 82.404 35.5962H87.5383C87.8382 35.5962 88.0813 35.3548 88.0813 35.057V0.539219C88.0813 0.241416 87.8382 0 87.5383 0H82.404C82.104 0 81.8608 0.241417 81.8608 0.539219V35.057Z" fill="white"/>
<path d="M91.605 16.2213C91.605 16.5191 91.8482 16.7605 92.1481 16.7605H95.8828C96.1827 16.7605 96.4259 17.0019 96.4259 17.2997V27.5678C96.4259 32.7656 100.055 36.2137 104.824 36.2137C107.544 36.2137 109.544 35.291 110.347 34.8491C110.576 34.7227 110.655 34.4458 110.548 34.2084L108.728 30.1855C108.587 29.8716 108.183 29.7611 107.875 29.9182C107.394 30.1634 106.661 30.4497 105.86 30.4497C104.202 30.4497 102.646 29.5749 102.646 26.5901V17.2997C102.646 17.0019 102.89 16.7605 103.19 16.7605H109.516C109.816 16.7605 110.059 16.5191 110.059 16.2213V11.7417C110.059 11.4439 109.816 11.2024 109.516 11.2024H103.19C102.89 11.2024 102.646 10.961 102.646 10.6632V9.35505C102.646 9.1952 102.575 9.0436 102.451 8.94115L97.3171 4.68495C96.9634 4.39176 96.4259 4.64142 96.4259 5.09884V10.6632C96.4259 10.961 96.1827 11.2024 95.8828 11.2024H92.1481C91.8482 11.2024 91.605 11.4439 91.605 11.7417V16.2213Z" fill="white"/>
<path d="M123.785 31.4792C121.948 31.4792 119.515 30.9331 119.515 28.4501C119.515 25.9174 122.047 25.1228 123.885 25.1228C126.21 25.1228 127.969 25.7412 128.77 26.0871C129.071 26.2169 129.248 26.5162 129.248 26.8418V28.4687C129.248 28.6506 129.194 28.8272 129.077 28.9677C128.54 29.6166 126.738 31.4792 123.785 31.4792ZM124.481 11.7148C120.796 11.7148 117.418 12.9144 115.957 13.5153C115.521 13.6946 115.326 14.1853 115.498 14.6213L116.774 17.86C116.967 18.3489 117.539 18.5768 118.03 18.3818C119.318 17.8698 121.799 17.0284 124.183 17.0284C126.269 17.0284 129.248 18.0216 129.248 21.1004C129.248 21.6502 128.575 22.0189 128.07 21.7947C126.995 21.3183 125.194 20.7529 122.693 20.7529C117.578 20.7529 113.456 24.0304 113.456 28.5494C113.456 33.5649 117.528 36.4452 121.948 36.4452C124.791 36.4452 126.808 35.4224 128.071 34.471C128.623 34.0545 129.695 34.4621 129.695 35.1509C129.695 35.5367 130.01 35.8493 130.399 35.8493H134.301C134.801 35.8493 135.208 35.4458 135.208 34.9482V20.5045C135.208 15.1413 131.235 11.7148 124.481 11.7148Z" fill="white"/>
<path d="M154.406 35.1254C155.13 34.6669 156.34 35.146 156.34 35.9993V36.2466C156.34 39.7724 154.254 42.305 149.636 42.305C146.452 42.305 143.883 40.579 142.644 39.5594C142.207 39.1995 141.528 39.2493 141.193 39.7042L138.919 42.7798C138.655 43.136 138.692 43.6246 139.032 43.9098C140.429 45.0837 144.306 47.8669 149.636 47.8669C156.24 47.8669 162.299 44.2417 162.299 36.0479V13.2119C162.299 12.7141 161.894 12.3108 161.392 12.3108H157.453C157.085 12.3108 156.787 12.6065 156.787 12.9713C156.787 13.6437 155.678 14.0357 155.153 13.6108C153.994 12.673 152.197 11.7148 149.686 11.7148C143.577 11.7148 138.214 16.8298 138.214 24.08C138.214 31.3303 143.577 36.4452 149.686 36.4452C151.719 36.4452 153.279 35.8382 154.406 35.1254ZM156.34 27.3832C156.34 27.5293 156.305 27.6722 156.227 27.7961C155.785 28.4954 154.035 30.8833 150.728 30.8833C146.706 30.8833 144.272 27.9535 144.272 24.08C144.272 20.2066 146.706 17.2768 150.728 17.2768C154.083 17.2768 155.805 19.6733 156.232 20.3678C156.308 20.4895 156.34 20.6286 156.34 20.7713V27.3832Z" fill="white"/>
<path d="M177.13 11.7148C170.326 11.7148 165.311 17.1773 165.311 24.08C165.311 30.9826 170.823 36.4452 177.975 36.4452C182.332 36.4452 185.533 34.4795 186.805 33.5476C187.165 33.2841 187.229 32.7956 186.982 32.4255L185.052 29.5321C184.733 29.0525 184.032 28.9728 183.555 29.299C182.527 30.0023 180.618 30.9826 177.975 30.9826C174.854 30.9826 172.64 29.0999 171.741 27.2625C171.488 26.7469 171.914 26.2154 172.491 26.2154H188.091C188.572 26.2154 188.971 25.8415 188.984 25.3632C189 24.7901 189 24.2832 189 23.9807C189 16.7305 183.586 11.7148 177.13 11.7148ZM172.367 21.8951C171.832 21.8951 171.41 21.4339 171.565 20.9258C172.138 19.0642 173.881 17.1277 177.13 17.1277C180.478 17.1277 182.344 19.1165 182.881 20.9651C183.024 21.4598 182.606 21.8951 182.087 21.8951H172.367Z" fill="white"/>
</g>
<defs>
<clipPath id="clip0_22316_2811">
<rect width="189" height="49" fill="white"/>
</clipPath>
</defs>
</svg>
