<svg width="132" height="162" viewBox="0 0 132 162" fill="none" xmlns="http://www.w3.org/2000/svg">
<path d="M56.4028 12.8888L56.4029 12.8889L56.4046 12.8842C57.5035 9.84675 61.0151 7.64775 64.2275 7.98539L64.2275 7.98575L64.241 7.98644L125.388 11.0925C126.148 11.1744 126.964 11.6037 127.755 12.2804C128.544 12.9563 129.287 13.8628 129.897 14.86C130.506 15.857 130.975 16.9358 131.223 17.9521C131.471 18.9725 131.49 19.9057 131.229 20.6278L82.0494 156.559C80.9505 159.597 77.4389 161.796 74.2265 161.458L10.979 154.81C9.41841 154.646 7.65859 153.312 6.4193 151.586C5.80432 150.73 5.32984 149.793 5.07819 148.886C4.82637 147.979 4.80202 147.117 5.06247 146.395C5.06276 146.395 5.06305 146.394 5.06334 146.393L56.4028 12.8888Z" fill="#465F48" stroke="#B4F9BA" stroke-width="0.5"/>
<path d="M60.712 1.87694L122.083 8.32733C125.791 8.71701 127.768 11.8747 126.5 15.3802L77.9621 149.538C76.6938 153.043 72.6602 155.569 68.9527 155.179L7.5813 148.729C3.8738 148.339 1.89644 145.182 3.16473 141.676L51.7026 7.51872C52.9709 4.01318 57.0045 1.48727 60.712 1.87694Z" fill="url(#paint0_radial_26500_1533)" stroke="#B4F9BA" stroke-width="0.5"/>
<path fill-rule="evenodd" clip-rule="evenodd" d="M47.7562 79.8436L75.8012 53.8512C76.096 53.578 76.567 53.849 76.4788 54.2412L71.5205 76.3097L83.6191 79.0281C83.9407 79.1003 84.0493 79.5036 83.8076 79.7277L55.7625 105.72C55.4677 105.993 54.9968 105.722 55.0849 105.33L60.0433 83.2615L47.9447 80.5432C47.6231 80.471 47.5144 80.0677 47.7562 79.8436Z" fill="white"/>
<defs>
<radialGradient id="paint0_radial_26500_1533" cx="0" cy="0" r="1" gradientUnits="userSpaceOnUse" gradientTransform="translate(64.8324 78.5282) rotate(109.89) scale(78.334 36.7478)">
<stop stop-color="#5D735F"/>
<stop offset="1" stop-color="#546956"/>
</radialGradient>
</defs>
</svg>
