<svg width="201" height="28" viewBox="0 0 201 28" fill="none" xmlns="http://www.w3.org/2000/svg">
<path fill-rule="evenodd" clip-rule="evenodd" d="M0.409558 16.8134L10.0932 2.83189C10.2992 2.53442 10.7686 2.67918 10.7686 3.04019V13.0395H16.2682C16.5663 13.0395 16.7422 13.3714 16.5733 13.6153L6.88964 27.5969C6.6836 27.8943 6.21421 27.7496 6.21421 27.3886L6.21421 17.3893H0.714684C0.416517 17.3893 0.240621 17.0573 0.409558 16.8134Z" fill="#5ED73E"/>
<path d="M20.9731 8.72461C20.6692 8.72461 20.4719 9.0427 20.6086 9.31219L29.7235 27.2659C29.8744 27.5631 30.3017 27.5631 30.4525 27.2659L39.5673 9.31219C39.7042 9.0427 39.5069 8.72461 39.2028 8.72461H35.1009C34.942 8.72461 34.7977 8.81601 34.7308 8.95893L30.536 17.9124C30.3897 18.2248 29.9422 18.2248 29.7959 17.9124L25.6012 8.95893C25.5342 8.81601 25.3898 8.72461 25.2311 8.72461H20.9731Z" fill="white"/>
<path d="M49.1251 8.25977C43.6324 8.25977 39.2695 12.4752 39.2695 17.8894C39.2695 23.265 43.6324 27.5191 49.1251 27.5191C54.6177 27.5191 58.9806 23.265 58.9806 17.8894C58.9806 12.4752 54.6177 8.25977 49.1251 8.25977ZM49.1251 23.1876C45.9697 23.1876 44.022 20.7512 44.022 17.8894C44.022 15.0276 45.9697 12.5912 49.1251 12.5912C52.2804 12.5912 54.2282 15.0276 54.2282 17.8894C54.2282 20.7512 52.2804 23.1876 49.1251 23.1876Z" fill="white"/>
<path d="M61.8594 26.649C61.8594 26.8728 62.0421 27.0542 62.2675 27.0542H66.1258C66.3512 27.0542 66.5339 26.8728 66.5339 26.649V0.709895C66.5339 0.486105 66.3512 0.304688 66.1258 0.304688H62.2675C62.0421 0.304688 61.8594 0.486106 61.8594 0.709895V26.649Z" fill="white"/>
<path d="M69.1836 12.4947C69.1836 12.7185 69.3663 12.8999 69.5918 12.8999H72.3982C72.6237 12.8999 72.8064 13.0813 72.8064 13.305V21.0212C72.8064 24.9272 75.5332 27.5183 79.1171 27.5183C81.1611 27.5183 82.6644 26.825 83.2674 26.4929C83.4397 26.398 83.4993 26.1899 83.4185 26.0114L82.0514 22.9883C81.9448 22.7525 81.6415 22.6694 81.4099 22.7875C81.0487 22.9717 80.4979 23.1869 79.8961 23.1869C78.6495 23.1869 77.4809 22.5295 77.4809 20.2865V13.305C77.4809 13.0813 77.6637 12.8999 77.8891 12.8999H82.6433C82.8688 12.8999 83.0515 12.7185 83.0515 12.4947V9.12834C83.0515 8.90455 82.8688 8.72313 82.6433 8.72313H77.8891C77.6637 8.72313 77.4809 8.54171 77.4809 8.31793V7.33487C77.4809 7.21474 77.4273 7.10082 77.3344 7.02384L73.4761 3.82542C73.2103 3.6051 72.8064 3.79271 72.8064 4.13645V8.31793C72.8064 8.54171 72.6237 8.72313 72.3982 8.72313H69.5918C69.3663 8.72313 69.1836 8.90455 69.1836 9.12834V12.4947Z" fill="white"/>
<path d="M101.698 26.6766L95.2832 8.88779H100.144L105.467 24.1968H103.153L108.707 8.88779H113.072L118.462 24.1968H116.147L121.636 8.88779H126.199L119.751 26.6766H114.758L110.03 13.5499H111.551L106.657 26.6766H101.698Z" fill="white"/>
<path d="M138.927 26.6766V23.2048L138.596 22.4443V16.2282C138.596 15.126 138.255 14.2663 137.571 13.6491C136.91 13.0319 135.885 12.7233 134.496 12.7233C133.548 12.7233 132.611 12.8776 131.686 13.1862C130.782 13.4728 130.01 13.8695 129.371 14.3765L127.52 10.7725C128.489 10.0891 129.658 9.5601 131.024 9.18537C132.391 8.81064 133.78 8.62327 135.191 8.62327C137.902 8.62327 140.007 9.26252 141.506 10.541C143.005 11.8195 143.754 13.8144 143.754 16.5257V26.6766H138.927ZM133.504 26.9411C132.116 26.9411 130.925 26.7097 129.933 26.2468C128.941 25.7618 128.181 25.1116 127.652 24.296C127.123 23.4804 126.858 22.5656 126.858 21.5516C126.858 20.4935 127.112 19.5677 127.619 18.7741C128.148 17.9806 128.974 17.3634 130.099 16.9225C131.223 16.4596 132.689 16.2282 134.496 16.2282H139.224V19.2371H135.058C133.846 19.2371 133.008 19.4354 132.545 19.8322C132.105 20.229 131.884 20.725 131.884 21.3201C131.884 21.9814 132.138 22.5105 132.645 22.9072C133.174 23.282 133.89 23.4693 134.794 23.4693C135.653 23.4693 136.425 23.271 137.108 22.8742C137.792 22.4554 138.288 21.8492 138.596 21.0556L139.39 23.4363C139.015 24.5825 138.332 25.4532 137.34 26.0484C136.348 26.6436 135.069 26.9411 133.504 26.9411Z" fill="white"/>
<path d="M148.423 26.6766V2.14258H153.581V26.6766H148.423Z" fill="white"/>
<path d="M158.368 26.6766V2.14258H163.526V26.6766H158.368Z" fill="white"/>
<path d="M177.141 26.9411C175.113 26.9411 173.328 26.5444 171.785 25.7508C170.264 24.9573 169.085 23.8771 168.247 22.5105C167.409 21.1217 166.991 19.5457 166.991 17.7822C166.991 15.9967 167.398 14.4206 168.214 13.0539C169.052 11.6652 170.187 10.5851 171.62 9.8136C173.052 9.02005 174.673 8.62327 176.48 8.62327C178.222 8.62327 179.787 8.998 181.175 9.74747C182.586 10.4749 183.699 11.533 184.515 12.9217C185.33 14.2884 185.738 15.9306 185.738 17.8483C185.738 18.0467 185.727 18.2782 185.705 18.5427C185.683 18.7852 185.661 19.0166 185.639 19.2371H171.19V16.2282H182.928L180.944 17.1209C180.944 16.1951 180.757 15.3905 180.382 14.7072C180.007 14.0238 179.489 13.4948 178.828 13.1201C178.166 12.7233 177.395 12.5249 176.513 12.5249C175.631 12.5249 174.849 12.7233 174.166 13.1201C173.504 13.4948 172.986 14.0349 172.612 14.7402C172.237 15.4236 172.049 16.2392 172.049 17.187V17.9806C172.049 18.9505 172.259 19.8102 172.678 20.5596C173.119 21.2871 173.725 21.8492 174.496 22.2459C175.29 22.6207 176.216 22.808 177.274 22.808C178.222 22.808 179.048 22.6648 179.754 22.3782C180.481 22.0916 181.142 21.6618 181.737 21.0887L184.482 24.0645C183.666 24.9903 182.641 25.7067 181.407 26.2137C180.172 26.6987 178.751 26.9411 177.141 26.9411Z" fill="white"/>
<path d="M196.447 26.9411C194.353 26.9411 192.721 26.4121 191.553 25.354C190.385 24.2739 189.801 22.6758 189.801 20.5596V4.95308H194.959V20.4935C194.959 21.243 195.157 21.8271 195.554 22.2459C195.951 22.6427 196.491 22.8411 197.174 22.8411C197.99 22.8411 198.684 22.6207 199.257 22.1798L200.646 25.8169C200.117 26.1917 199.478 26.4782 198.728 26.6766C198.001 26.853 197.24 26.9411 196.447 26.9411ZM187.056 13.2523V9.28456H199.389V13.2523H187.056Z" fill="white"/>
</svg>
