<svg width="189" height="50" viewBox="0 0 189 50" fill="none" xmlns="http://www.w3.org/2000/svg">
<g clip-path="url(#clip0_27912_2437)">
<path fill-rule="evenodd" clip-rule="evenodd" d="M0.0875716 22.0802L12.9738 3.47466C13.2479 3.07881 13.8726 3.27144 13.8726 3.75184V17.0581H21.191C21.5878 17.0581 21.8218 17.4998 21.597 17.8244L8.71076 36.43C8.43659 36.8258 7.81195 36.6333 7.81195 36.1528L7.81196 22.8466H0.49361C0.0968322 22.8466 -0.137237 22.4047 0.0875716 22.0802Z" fill="#5ED73E"/>
<path d="M27.452 11.3164C27.0475 11.3164 26.785 11.7397 26.967 12.0983L39.0964 35.9898C39.2972 36.3852 39.8657 36.3852 40.0664 35.9898L52.1957 12.0983C52.3779 11.7397 52.1153 11.3164 51.7107 11.3164H46.2521C46.0407 11.3164 45.8487 11.438 45.7596 11.6282L40.1776 23.5428C39.9828 23.9586 39.3874 23.9586 39.1927 23.5428L33.6107 11.6282C33.5216 11.438 33.3294 11.3164 33.1182 11.3164H27.452Z" fill="white"/>
<path d="M64.9139 10.6992C57.6046 10.6992 51.7988 16.3087 51.7988 23.5137C51.7988 30.6671 57.6046 36.328 64.9139 36.328C72.223 36.328 78.0288 30.6671 78.0288 23.5137C78.0288 16.3087 72.223 10.6992 64.9139 10.6992ZM64.9139 30.564C60.7149 30.564 58.123 27.3219 58.123 23.5137C58.123 19.7053 60.7149 16.4631 64.9139 16.4631C69.1127 16.4631 71.7046 19.7053 71.7046 23.5137C71.7046 27.3219 69.1127 30.564 64.9139 30.564Z" fill="white"/>
<path d="M81.8613 35.1703C81.8613 35.4681 82.1045 35.7095 82.4045 35.7095H87.5388C87.8387 35.7095 88.0818 35.4681 88.0818 35.1703V0.6525C88.0818 0.354697 87.8387 0.113281 87.5388 0.113281H82.4045C82.1045 0.113281 81.8613 0.354698 81.8613 0.6525V35.1703Z" fill="white"/>
<path d="M91.6055 16.3346C91.6055 16.6324 91.8486 16.8738 92.1486 16.8738H95.8832C96.1832 16.8738 96.4264 17.1152 96.4264 17.4129V27.6811C96.4264 32.8789 100.055 36.3269 104.824 36.3269C107.544 36.3269 109.545 35.4043 110.347 34.9623C110.576 34.836 110.656 34.5591 110.548 34.3216L108.729 30.2987C108.587 29.9849 108.184 29.8744 107.875 30.0315C107.395 30.2766 106.662 30.563 105.861 30.563C104.202 30.563 102.647 29.6882 102.647 26.7033V17.4129C102.647 17.1152 102.89 16.8738 103.19 16.8738H109.517C109.817 16.8738 110.06 16.6324 110.06 16.3346V11.8549C110.06 11.5571 109.817 11.3157 109.517 11.3157H103.19C102.89 11.3157 102.647 11.0743 102.647 10.7765V9.46833C102.647 9.30848 102.576 9.15688 102.452 9.05443L97.3176 4.79823C96.9639 4.50504 96.4264 4.7547 96.4264 5.21213V10.7765C96.4264 11.0743 96.1832 11.3157 95.8832 11.3157H92.1486C91.8486 11.3157 91.6055 11.5571 91.6055 11.8549V16.3346Z" fill="white"/>
<path d="M123.786 31.5925C121.949 31.5925 119.516 31.0463 119.516 28.5633C119.516 26.0306 122.048 25.2361 123.886 25.2361C126.211 25.2361 127.97 25.8545 128.771 26.2003C129.072 26.3301 129.249 26.6295 129.249 26.9551V28.582C129.249 28.7639 129.195 28.9405 129.078 29.081C128.541 29.7299 126.739 31.5925 123.786 31.5925ZM124.482 11.8281C120.797 11.8281 117.419 13.0277 115.958 13.6286C115.522 13.8079 115.327 14.2986 115.499 14.7346L116.775 17.9733C116.968 18.4622 117.54 18.6901 118.031 18.495C119.319 17.9831 121.8 17.1417 124.184 17.1417C126.27 17.1417 129.249 18.1348 129.249 21.2137C129.249 21.7635 128.576 22.1322 128.071 21.908C126.996 21.4316 125.195 20.8662 122.694 20.8662C117.579 20.8662 113.457 24.1437 113.457 28.6627C113.457 33.6782 117.529 36.5585 121.949 36.5585C124.792 36.5585 126.809 35.5357 128.072 34.5842C128.624 34.1677 129.696 34.5754 129.696 35.2642C129.696 35.6499 130.011 35.9626 130.4 35.9626H134.302C134.802 35.9626 135.209 35.5591 135.209 35.0615V20.6178C135.209 15.2546 131.236 11.8281 124.482 11.8281Z" fill="white"/>
<path d="M154.406 35.2387C155.131 34.7801 156.341 35.2593 156.341 36.1126V36.3598C156.341 39.8857 154.255 42.4183 149.637 42.4183C146.453 42.4183 143.884 40.6923 142.645 39.6727C142.208 39.3128 141.529 39.3626 141.193 39.8175L138.919 42.8931C138.655 43.2492 138.693 43.7379 139.032 44.0231C140.43 45.1969 144.306 47.9801 149.637 47.9801C156.241 47.9801 162.3 44.355 162.3 36.1612V13.3252C162.3 12.8274 161.894 12.4241 161.392 12.4241H157.453C157.086 12.4241 156.787 12.7197 156.787 13.0846C156.787 13.757 155.679 14.149 155.154 13.7241C153.995 12.7863 152.197 11.8281 149.686 11.8281C143.578 11.8281 138.215 16.9431 138.215 24.1933C138.215 31.4436 143.578 36.5585 149.686 36.5585C151.719 36.5585 153.279 35.9515 154.406 35.2387ZM156.341 27.4965C156.341 27.6426 156.306 27.7854 156.228 27.9094C155.786 28.6086 154.035 30.9966 150.729 30.9966C146.707 30.9966 144.272 28.0668 144.272 24.1933C144.272 20.3199 146.707 17.39 150.729 17.39C154.084 17.39 155.805 19.7866 156.232 20.4811C156.308 20.6028 156.341 20.7419 156.341 20.8846V27.4965Z" fill="white"/>
<path d="M177.13 11.8281C170.326 11.8281 165.311 17.2906 165.311 24.1933C165.311 31.0959 170.823 36.5585 177.975 36.5585C182.331 36.5585 185.532 34.5927 186.805 33.6609C187.165 33.3974 187.229 32.9089 186.982 32.5388L185.052 29.6454C184.733 29.1658 184.031 29.0861 183.554 29.4122C182.526 30.1156 180.617 31.0959 177.975 31.0959C174.853 31.0959 172.639 29.2131 171.74 27.3758C171.487 26.8602 171.913 26.3287 172.49 26.3287H188.09C188.572 26.3287 188.97 25.9548 188.984 25.4765C188.999 24.9034 188.999 24.3964 188.999 24.0939C188.999 16.8437 183.586 11.8281 177.13 11.8281ZM172.366 22.0083C171.832 22.0083 171.409 21.5471 171.564 21.0391C172.137 19.1775 173.881 17.241 177.13 17.241C180.477 17.241 182.343 19.2298 182.88 21.0784C183.024 21.5731 182.606 22.0083 182.087 22.0083H172.366Z" fill="white"/>
</g>
<defs>
<clipPath id="clip0_27912_2437">
<rect width="189" height="49" fill="white" transform="translate(0 0.113281)"/>
</clipPath>
</defs>
</svg>
