<svg width="27" height="20" viewBox="0 0 27 20" fill="none" xmlns="http://www.w3.org/2000/svg">
<g clip-path="url(#clip0_21542_377)">
<path d="M20.7159 0.915405H6.26968C3.43536 0.915405 1.1377 3.27588 1.1377 6.18767V13.6067C1.1377 16.5184 3.43536 18.879 6.26968 18.879H20.7159C23.5502 18.879 25.8479 16.5184 25.8479 13.6067V6.18767C25.8479 3.27588 23.5502 0.915405 20.7159 0.915405ZM17.2451 10.2581L10.4882 13.5689C10.3081 13.6571 10.1002 13.5222 10.1002 13.3173V6.48888C10.1002 6.28106 10.3136 6.14637 10.494 6.24032L17.251 9.75801C17.4519 9.86257 17.4484 10.1586 17.2451 10.2581Z" fill="white"/>
</g>
<defs>
<clipPath id="clip0_21542_377">
<rect width="26" height="19" fill="white" transform="translate(0.618164 0.440796)"/>
</clipPath>
</defs>
</svg>
