<svg width="189" height="29" viewBox="0 0 189 29" fill="none" xmlns="http://www.w3.org/2000/svg">
<path d="M110.854 28.2195V0.925781H118.52V12.0092L127.797 0.925781H136.878L126.478 12.6928L137.22 28.2195H128.09L121.303 18.0637L118.52 21.2862V28.2195H110.854Z" fill="white"/>
<path fill-rule="evenodd" clip-rule="evenodd" d="M79.0366 28.3819L90.5288 0.894531H97.94L109.714 28.3819H101.458L99.5348 23.4099H88.9339L86.9639 28.3819H79.0366ZM97.3049 17.4609L94.1723 9.8783L91.1275 17.4609H97.3049Z" fill="white"/>
<path d="M24.4207 0.958984H0.822384V7.27203H14.0495L0.221191 22.7537V28.3902H24.4207V22.0021H10.8178L24.4207 6.59564V0.958984Z" fill="white"/>
<path d="M27.0635 28.3819V0.894531H34.0996L45.3572 15.3419V0.894531H52.9561V28.3819H46.4361L34.6156 13.4657V28.3819H27.0635Z" fill="white"/>
<path d="M56.3803 28.3819V0.894531H78.661V7.36778H63.9792V11.5425H77.1131V17.4527H63.9792V21.9089H78.661V28.3819H56.3803Z" fill="white"/>
<path fill-rule="evenodd" clip-rule="evenodd" d="M138 0.925853V28.3173H145.616V20.0656H148.985L154.503 28.3173H163.291L156.651 18.8449C156.651 18.8449 162.481 16.7356 162.364 10.0074C162.274 4.88102 158.3 0.925859 152.501 0.925853H138ZM145.616 14.06V7.4685H151.28C153.157 7.4685 154.773 8.86464 154.795 10.7398C154.819 12.7128 152.641 14.06 150.987 14.06H145.616Z" fill="white"/>
<path d="M188.204 0.835938H164.327V7.27265H177.704L163.896 22.7353V28.345H188.204V21.8363H174.36L188.204 6.44558V0.835938Z" fill="white"/>
</svg>
