<svg width="868" height="327" viewBox="0 0 868 327" fill="none" xmlns="http://www.w3.org/2000/svg">
<path d="M152.645 -13.6426L927.456 436.486" stroke="black" stroke-width="0.5" stroke-linecap="round" stroke-linejoin="round"/>
<path fill-rule="evenodd" clip-rule="evenodd" d="M336.91 181.41L412.603 137.764V49.6856L336.91 93.1348V181.41Z" fill="#D7F9DA"/>
<path fill-rule="evenodd" clip-rule="evenodd" d="M336.91 5.64648L260.432 49.6856L336.91 93.1348L412.603 49.6856L336.91 5.64648Z" fill="white"/>
<path fill-rule="evenodd" clip-rule="evenodd" d="M260.432 49.6856V137.764L336.91 181.41V93.1348L260.432 49.6856Z" fill="white"/>
<path d="M260.432 49.6856L336.91 5.64648L412.603 49.6856M260.432 49.6856V137.764L336.91 181.41M260.432 49.6856L336.91 93.1348M336.91 181.41L412.603 137.764V49.6856M336.91 181.41V93.1348M412.603 49.6856L336.91 93.1348" stroke="black" stroke-width="0.5" stroke-linecap="round" stroke-linejoin="round"/>
<path fill-rule="evenodd" clip-rule="evenodd" d="M535.948 296.929L611.641 253.283V165.205L535.948 208.654V296.929Z" fill="#D7F9DA"/>
<path fill-rule="evenodd" clip-rule="evenodd" d="M535.948 121.166L459.47 165.205L535.948 208.654L611.641 165.205L535.948 121.166Z" fill="white"/>
<path fill-rule="evenodd" clip-rule="evenodd" d="M459.47 165.205V253.283L535.948 296.929V208.654L459.47 165.205Z" fill="white"/>
<path d="M459.47 165.205L535.948 121.166L611.641 165.205M459.47 165.205V253.283L535.948 296.929M459.47 165.205L535.948 208.654M535.948 296.929L611.641 253.283V165.205M535.948 296.929V208.654M611.641 165.205L535.948 208.654" stroke="black" stroke-width="0.5" stroke-linecap="round" stroke-linejoin="round"/>
<path fill-rule="evenodd" clip-rule="evenodd" d="M741.634 416.402L817.326 372.756V284.678L741.634 328.127V416.402Z" fill="#D7F9DA"/>
<path fill-rule="evenodd" clip-rule="evenodd" d="M741.634 240.639L665.155 284.678L741.634 328.127L817.326 284.678L741.634 240.639Z" fill="white"/>
<path fill-rule="evenodd" clip-rule="evenodd" d="M665.155 284.678V372.756L741.634 416.402V328.127L665.155 284.678Z" fill="white"/>
<path d="M665.155 284.678L741.634 240.639L817.326 284.678M665.155 284.678V372.756L741.634 416.402M665.155 284.678L741.634 328.127M741.634 416.402L817.326 372.756V284.678M741.634 416.402V328.127M817.326 284.678L741.634 328.127" stroke="black" stroke-width="0.5" stroke-linecap="round" stroke-linejoin="round"/>
<path d="M303.645 -13.6426L935.512 353.442" stroke="black" stroke-width="0.5" stroke-linecap="round" stroke-linejoin="round"/>
<path d="M0.516602 -13.6426L840.139 474.138" stroke="black" stroke-width="0.5" stroke-linecap="round" stroke-linejoin="round"/>
<path d="M493.771 -216.244L1234.01 213.801" stroke="black" stroke-width="0.5" stroke-linecap="round" stroke-linejoin="round"/>
<path d="M425.881 -55.2986L1166.12 374.747" stroke="black" stroke-width="0.5" stroke-linecap="round" stroke-linejoin="round"/>
<path fill-rule="evenodd" clip-rule="evenodd" d="M610.148 139.753L685.84 96.1075V8.0294L610.148 51.4786V139.753Z" fill="#D7F9DA"/>
<path fill-rule="evenodd" clip-rule="evenodd" d="M610.148 -36.0098L533.669 8.0294L610.148 51.4786L685.84 8.0294L610.148 -36.0098Z" fill="white"/>
<path fill-rule="evenodd" clip-rule="evenodd" d="M533.669 8.0294V96.1075L610.148 139.753V51.4786L533.669 8.0294Z" fill="white"/>
<path d="M533.669 8.0294L610.148 -36.0098L685.84 8.0294M533.669 8.0294V96.1075L610.148 139.753M533.669 8.0294L610.148 51.4786M610.148 139.753L685.84 96.1075V8.0294M610.148 139.753V51.4786M685.84 8.0294L610.148 51.4786" stroke="black" stroke-width="0.5" stroke-linecap="round" stroke-linejoin="round"/>
<path fill-rule="evenodd" clip-rule="evenodd" d="M809.186 255.273L884.878 211.627V123.549L809.186 166.998V255.273Z" fill="#D7F9DA"/>
<path fill-rule="evenodd" clip-rule="evenodd" d="M809.186 79.5098L732.707 123.549L809.186 166.998L884.878 123.549L809.186 79.5098Z" fill="white"/>
<path fill-rule="evenodd" clip-rule="evenodd" d="M732.707 123.549V211.627L809.186 255.273V166.998L732.707 123.549Z" fill="white"/>
<path d="M732.707 123.549L809.186 79.5098L884.878 123.549M732.707 123.549V211.627L809.186 255.273M732.707 123.549L809.186 166.998M809.186 255.273L884.878 211.627V123.549M809.186 255.273V166.998M884.878 123.549L809.186 166.998" stroke="black" stroke-width="0.5" stroke-linecap="round" stroke-linejoin="round"/>
<path d="M576.881 -55.2986L1165.85 286.865" stroke="black" stroke-width="0.5" stroke-linecap="round" stroke-linejoin="round"/>
<path d="M273.754 -55.2986L1113.38 432.482" stroke="black" stroke-width="0.5" stroke-linecap="round" stroke-linejoin="round"/>
<path fill-rule="evenodd" clip-rule="evenodd" d="M877.076 94.3256L952.769 50.6797V-37.3983L877.076 6.05085V94.3256Z" fill="#D7F9DA"/>
<path fill-rule="evenodd" clip-rule="evenodd" d="M877.076 -81.4375L800.598 -37.3983L877.076 6.05085L952.769 -37.3983L877.076 -81.4375Z" fill="white"/>
<path fill-rule="evenodd" clip-rule="evenodd" d="M800.598 -37.3983V50.6797L877.076 94.3256V6.05085L800.598 -37.3983Z" fill="white"/>
<path d="M800.598 -37.3983L877.076 -81.4375L952.769 -37.3983M800.598 -37.3983V50.6797L877.076 94.3256M800.598 -37.3983L877.076 6.05085M877.076 94.3256L952.769 50.6797V-37.3983M877.076 94.3256V6.05085M952.769 -37.3983L877.076 6.05085" stroke="black" stroke-width="0.5" stroke-linecap="round" stroke-linejoin="round"/>
<path d="M644.771 -216.244L1233.74 125.919" stroke="black" stroke-width="0.5" stroke-linecap="round" stroke-linejoin="round"/>
<path d="M341.645 -216.244L1181.27 271.536" stroke="black" stroke-width="0.5" stroke-linecap="round" stroke-linejoin="round"/>
</svg>
