<svg width="1381" height="351" viewBox="0 0 1381 351" fill="none" xmlns="http://www.w3.org/2000/svg">
<path fill-rule="evenodd" clip-rule="evenodd" d="M595.402 169.406C584.633 165.382 574.301 161.521 560.14 162.943C560.14 162.943 558.424 161.333 531.467 169.681V169.573L502.768 160.103L475.934 150.632L426.571 136.713L383.953 128.39H341.191L313.066 123.798L269.013 110.166L233.282 103.852L192.099 109.162L156.512 96.3905L130.395 78.4534L110.032 67.3524L90.2282 63.2831L69.3388 61.3841L48.992 53.2448L33.677 45.5H6V415.838H8.11182V448.822H1380.39V53.1347L1153.35 54.8088L1070.71 45.5363C1070.71 45.5363 1043.13 40.7478 1025.33 41.0963C998.41 41.6231 980.924 48.2646 959.702 56.3247C952.141 59.1966 944.105 62.2486 935 65.2683C927.725 67.681 921.906 70.2356 916.336 72.6813C908.057 76.3162 900.326 79.7105 889.175 82.0407C882.48 83.4397 876.676 82.9997 871.102 82.5772C863.599 82.0084 856.513 81.4713 848.231 85.4938C843.901 87.5969 841.21 89.8356 838.239 92.3076C836.524 93.7344 834.716 95.2389 832.445 96.8399C823.897 102.867 816.368 108.487 809.289 113.773C787.536 130.012 770.025 143.085 740.197 155.05C697.449 172.197 670.214 180.016 624.27 176.755C612.912 175.949 604.017 172.626 595.402 169.406Z" fill="url(#paint0_radial_24290_3331)"/>
<path d="M690.953 178.755L697.257 176.015L722.746 167.792L753.169 155.185L771.532 148.607L788.799 136.273L811.821 120.651L826.895 107.769L846.903 91.873L856.221 89.6804H866.91C871.661 89.7718 881.656 89.8997 883.629 89.6804C885.603 89.4611 892.674 87.5791 895.963 86.6656L911.585 81.184L922.822 77.0729L939.267 71.0432L951 66.1098L965.578 60.3542L980.926 55.4208L992.986 52.4062L1018.2 48.293H1047.8L1063.15 52.4062L1093.16 53.5709L1138.98 55.4208H1145.11M693.694 178.755L717.813 172.178L736.45 165.6L753.169 159.022L769.065 152.718L785.51 141.755L813.466 123.118L831.555 107.769L844.984 98.4509L856.221 91.873H874.859H893.222L908.022 86.6656L943.378 73.5099L969.963 63.0949L995.453 55.4208L1020.12 52.4062H1044.79L1053.15 53.5709M717.813 174.37L745.22 167.792L762.761 159.022L792.088 141.755L816.206 125.31L831.555 113.521L835.118 110.784L848.273 101.192L858.67 97.5755M1053.15 53.5709L1066.44 55.4208L1088.73 56.7912H1096.91H1116.84L1131.83 58.7097H1142.22M1053.15 53.5709L1028.62 55.4208L1006.96 56.7912L989.149 60.3542L952.697 73.5099L930.77 81.184L905.829 91.873L891.029 94.6138H880.614H866.91L860.881 96.8064L858.67 97.5755M858.67 97.5755L876.503 96.8064H891.029C894.684 96.0755 902.266 94.6138 903.363 94.6138C904.459 94.6138 912.59 92.7866 916.518 91.873L930.77 86.6656L945.022 81.184C950.047 79.0828 960.371 74.6062 961.467 73.5099C962.563 72.4135 969.963 71.4086 973.526 71.0432L992.986 64.7394L1016.56 60.3542L1047.8 56.7912L1066.44 58.7097L1088.73 59.3977H1110.53L1124.16 60.3542L1135 61.1012M740.835 172.178L757.006 167.792L781.399 155.185L797.843 143.399L838.132 114.895L860.881 103.658L878.696 98.4509L889.385 101.192H893.222M747.139 174.37L774.821 165.6L792.088 155.185L818.673 137.918L838.132 123.118L856.221 110.784L871.57 103.658H880.614L893.222 101.192M893.222 101.192H900.348L916.518 98.4509L935 92.9693L945.022 86.6656L971.608 77.0729L992.986 69.6728L1022.59 64.7394L1044.79 60.3542L1068.36 63.0949H1091.62H1107.3H1122.46L1131.83 64.7394M774.821 174.37L785.51 172.178L803 165.6L825.251 152.718L858.67 123.118L880.614 107.769L893.222 105.851H905.829L928.03 101.192L945.022 91.873L973.526 82.8285L1006.96 71.0432L1037.93 66.1098H1053.15L1068.36 68.0283L1112.24 66.1098H1124.16M908.022 110.784L928.03 107.769L946.667 98.4509L968.319 92.9693L998.467 81.184L1020.12 73.5099L1047.8 69.6728L1068.36 71.0432L1113.94 69.6728M908.022 110.784H897.881M908.022 110.784L913.778 113.521L935 110.784L935.682 110.624M908.022 110.784L889.385 125.31L860.881 151.622L846.903 163.681L811.821 182.592M897.881 110.784L887.466 107.769L846.903 141.755L831.555 155.185L809.08 170.533L792.088 178.755M897.881 110.784L885.274 123.118L860.881 141.755L838.132 160.392L799.762 182.592M818.673 182.592L852.659 165.6L885.274 140.111L905.829 123.118L917.889 114.895L935.682 110.624M935.682 110.624L955.986 105.851L969.963 103.658L982.023 98.4509L995.453 92.9693L1009.43 84.4729L1022.59 77.0729L1047.8 73.5099L1068.36 77.0729L1094.35 75.0698M860.881 167.792C864.608 165.6 870.656 158.474 873.214 155.185L889.385 143.399L899.252 136.273L911.585 126.955L921.452 120.651L939.267 114.895L969.963 110.784L982.023 107.769L995.453 101.192L1010.53 89.6804L1020.12 82.8285L1037.93 80.0877L1053.15 77.0729L1068.36 80.0877L1088.73 81.184M895.963 146.962L924.741 128.325L939.267 120.651L965.578 114.895L985.312 110.784L1016.56 94.6138L1025.6 86.6656L1042.32 82.8285L1069.73 84.4729L1065.34 86.6656H1042.32L1031.08 91.873L1022.59 97.5755L1006.96 107.769" stroke="white"/>
<path d="M71.7633 67.2363H86.7122L109.136 73.5783L124.764 81.7322L135.862 90.5657L148.546 98.2666L165.534 105.741L182.068 112.533L199.282 116.613L205.171 118.859L216.496 123.179L205.171 121.369L187.731 118.652L173.461 112.533L161.23 107.553L148.546 102.115L134.73 94.4161L124.764 89.0595L116.61 84.6767L100.982 79.2407L82.4087 71.3133L71.7633 67.2363Z" fill="white"/>
<path d="M532.235 170.294L485.123 155.118L444.127 141.753L410.605 133.598L393.618 129.748L383.199 128.164H355.793H339.258L322.95 126.577L308.907 123.179L275.612 112.533L257.039 107.553L243.676 105.741L228.953 104.153L212.192 105.741L190.448 107.553L170.517 102.115L155.794 96.0018L142.884 87.8475L124.764 75.3882L106.191 64.9708L88.5242 62.9329H74.0282L52.0579 54.5497L24.4078 42.8633M24.4078 45.8572L42.3184 54.5497L52.0579 60.3638M71.7633 67.2363H86.7122M71.7633 67.2363L65.7554 65.5577M71.7633 67.2363L82.4087 71.3133L100.982 79.2407L116.61 84.6767L124.764 89.0595M86.7122 67.2363L109.136 73.5783L124.764 81.7322L135.862 90.5657L148.546 98.2666L165.534 105.741L182.068 112.533L199.282 116.613L205.171 118.859M86.7122 67.2363L98.0371 73.5783L109.136 79.2407L124.764 89.0595M216.496 123.179L240.731 116.613H267.005H281.275L291.757 119.803M216.496 123.179L205.171 118.859M216.496 123.179L205.171 121.369L187.731 118.652L173.461 112.533L161.23 107.553L148.546 102.115L134.73 94.4161L124.764 89.0595M328.386 129.748L350.583 131.562H364.173H380.481H383.199L400.866 133.598M328.386 129.748L316.472 126.577M328.386 129.748H319.667L315.273 131.009M22.4642 64.9708L52.0579 60.3638M52.0579 60.3638L56.3614 62.9329L59.7476 63.879L65.7554 65.5577M38.015 71.3133L59.7476 67.2363L65.7554 65.5577M142.884 103.023L129.973 94.4161L109.136 84.6767L99.1696 81.7322L82.4087 75.3882L65.7554 68.8218L46 73.5783L47.7544 75.3882L59.7476 76.7493L71.7633 81.7322L96.6781 89.0595L122.952 96.0018L139.486 104.153L149.679 109.818L164.175 114.122L180.483 121.369L194 125.899L212.192 128.164M142.884 103.023L159.418 109.818L179.35 118.652L199.282 123.179L212.192 126.577L227.594 124.767L240.731 121.369L261.796 118.652H275.612L289.134 119.616M142.884 103.023L132.012 98.2666L115.025 90.5657L100.982 84.6767L83.7677 81.7322L71.7633 75.3882L64.5153 71.3133M291.757 119.803L289.134 119.616M291.757 119.803L293.98 120.48L296.204 121.157L296.903 121.369L301.423 122.572M243.676 107.553L228.953 109.818L216.496 112.533L205.171 114.122L199.282 111.404M269.27 112.533L248.206 111.404L230.992 112.533L219.893 118.652H212.192L205.171 118.859M90.2165 92.2195L116.61 98.2666L129.973 103.023L141.158 108.722M197.839 130.533L219.893 128.954L239.883 124.767L254.807 122.354L270.878 119.803L282.351 119.686M289.134 119.616L282.351 119.686M208.17 134.981L225.103 132.829L245.336 128.164L265.138 123.179L282.351 119.686M216.496 138.856L238.161 132.829L260.259 128.164C265.377 127.005 275.612 124.535 275.612 123.932C275.612 123.329 284.031 122.629 288.241 122.354L301.423 122.572M301.423 122.572L316.472 126.577M225.103 142.3L248.206 137.995L272.026 130.533L295.272 126.577H309.766H316.472M238.161 147.322L268.439 141.439L301.423 134.981L306.246 133.598M252.08 151.483L275.612 147.322L311.775 138.856H333.729L355.793 141.439L360.274 142.893M510.804 177.6H496.741L482.678 173.438L447.522 164.398L411.935 155.118L383.199 150.335L360.274 142.893M516.543 176.882L491 169.42C480.43 166.694 459.145 161.155 458.571 160.811C457.997 160.466 442.165 156.362 434.32 154.353L419.827 151.483L403.182 147.322L386.68 145.17L371.325 143.304L360.274 142.893M306.246 133.598H323.972L356.689 136.129L377.065 137.995L397.298 141.439L418.679 145.17L436.616 148.757L448.239 152.775L460.867 155.118L479.234 159.519L503.629 166.694L519.987 172.29L523.718 173.438M306.246 133.598L315.273 131.009M526.588 172.29L496.741 162.676L460.867 151.483L434.32 143.304L405.764 138.856L386.68 133.598H359.702H348.94L327.129 131.562L315.273 131.009M263.847 157.367L282.351 153.636L301.423 148.757L316.472 146.604L341.048 147.322L360.274 151.483L385.962 158.802M385.962 158.802L413.513 164.398L459.289 176.882L488.131 185.635M385.962 158.802L358 156.362L331.003 155.118H306.246L282.351 162.676M301.423 170.281L321.245 165.833H353.962L395.433 170.281L432.598 178.748L471.629 190.227M457.136 195.25L436.616 190.227L417.388 185.635L400.866 181.331L377.065 178.748L346.501 176.882H311.775M333.729 185.635L363.433 188.218L385.962 189.653L409.495 194.102L436.616 201.85M431.737 204.003L404.904 201.85L390.123 199.842L367.595 195.25L354.68 191.662L346.501 190.945" stroke="white"/>
<path d="M820.447 186.047L768.057 203.238L707.072 220.429L675.147 224.522" stroke="white"/>
<path d="M581.827 227.387L639 208.15C626.082 213.063 582.073 235.656 569.958 244.168C569.353 243.674 563.277 242.446 544.753 240.959L581.827 227.387Z" fill="white"/>
<path d="M815.126 184.821L777.471 195.055L725.49 213.062L682.514 222.476M805.303 181.956C807.35 179.5 802.52 177.863 766.829 190.96C722.216 207.332 675.966 215.928 664.505 216.337C655.337 216.665 630.397 227.934 619.073 233.528L596.051 242.126M585.102 246.216L596.051 242.126M790.569 179.5L749.639 187.686L694.793 202.421L645.268 213.062L609.659 233.528L596.051 242.126M775.015 175.816L712.393 181.956L632.58 202.421L569.958 222.476L535.986 237.62L531.456 239.998M519.614 246.216L472.075 237.62L531.456 239.998M787 177.044L720.579 187.686L639 208.15M639 208.15L581.827 227.387L535.986 244.168M639 208.15C626.082 213.063 582.073 235.656 569.958 244.168C569.226 243.571 560.502 241.901 531.456 239.998M531.456 239.998L495.149 237.62M504.022 247.856L438.512 237.62M484.136 249.729L396.034 233.528" stroke="white"/>
<path d="M975.424 129.245C991.914 124.173 1001.38 122.023 1017.73 116.516C1017.73 116.516 992.171 126.589 975.424 131.961C964.526 135.457 957.97 136.06 947.295 140.189C939.049 143.379 934.888 146.243 926.758 149.717C917.248 153.78 911.37 154.761 902.05 159.244C891.128 164.498 886.277 169.779 875.471 175.267C855.193 185.565 841.746 186.367 820.44 194.322C802.188 201.136 792.093 203.966 774.281 211.857C750.079 222.579 734.983 225.998 706.998 228.572C690.984 230.044 678.816 224.693 663.21 228.572C647.675 232.433 625.103 237.608 610.92 240.822C606.876 242.086 602.526 243.123 597.697 243.799C597.697 243.799 603 242.616 610.92 240.822C629.234 235.097 641.289 224.713 663.21 222.086C679.177 220.173 688.344 223.177 704.389 222.086L705.587 222.005C727.327 220.529 740.285 219.649 761.291 212.727C773.854 208.588 780.058 204.1 792.363 199.25C803.205 194.978 809.368 192.777 820.44 189.143C835.609 184.164 845.093 184.247 859.748 177.912C866.049 175.188 869.362 173.183 875.471 170.051C885.947 164.678 891.487 161.023 902.05 155.825C911.56 151.145 916.933 148.571 926.758 144.594C945.23 137.117 956.377 135.105 975.424 129.245Z" fill="white"/>
<path d="M1017.73 116.516C1038.95 109.367 1071.26 95.9263 1071.26 95.9263L1126.43 75.615L1157.12 64.9934L1223.05 48.9744L1277.68 36.4972L1289.99 32.2812M1017.73 116.516C1001.38 122.023 991.914 124.173 975.424 129.245C956.377 135.105 945.23 137.117 926.758 144.594C916.933 148.571 911.56 151.145 902.05 155.825C891.487 161.023 885.947 164.678 875.471 170.051C869.362 173.183 866.049 175.188 859.748 177.912C845.093 184.247 835.609 184.164 820.44 189.143C809.368 192.777 803.205 194.978 792.363 199.25C780.058 204.1 773.854 208.588 761.291 212.727C739.902 219.775 726.857 220.559 704.389 222.086C688.344 223.177 679.177 220.173 663.21 222.086C636.448 225.293 624.389 240.063 597.697 243.799M1017.73 116.516C1017.73 116.516 992.171 126.589 975.424 131.961C964.526 135.457 957.97 136.06 947.295 140.189C939.05 143.379 934.888 146.243 926.758 149.717C917.248 153.78 911.37 154.761 902.05 159.244C891.128 164.498 886.277 169.779 875.471 175.267C855.193 185.565 841.746 186.367 820.44 194.322C802.188 201.136 792.093 203.966 774.281 211.857C750.079 222.579 734.983 225.998 706.998 228.572C690.984 230.044 678.816 224.693 663.21 228.572C639 234.589 597.697 243.799 597.697 243.799M597.697 243.799C577.137 246.677 565.266 242.651 544.538 243.799C523.532 244.963 511.76 246.379 491 249.789C474.603 252.482 462.995 251.204 449.443 256.652C447.025 257.624 444.544 258.81 441.964 260.271C437.024 263.068 434.63 265.244 429.984 268.507L363.198 338.171L308.759 378.471L268.459 454.121" stroke="white"/>
<path d="M1053.52 104.153H1066.87L1095.62 105.504L1122.32 102.983L1151 97.2776L1202.9 88.5475L1255.28 79.8154L1284.66 73.2671L1314.72 70.247L1332.01 66.2171L1346.78 58.9994M1042.22 106.893L1065.15 111L1101.16 113.738L1126.35 111L1165.13 102.983L1200.89 95.9319L1226.58 90.2237L1273.92 81.3257L1301.12 75.9533L1322.94 73.2671L1335.03 70.247L1342.75 66.2171M1023.74 113.738H1037.77L1065.15 120.582L1110.57 124.641L1135 120.582L1167.48 113.738L1212.81 104.153L1249.07 92.5749L1272.41 85.6918L1301.12 79.8154L1319.92 77.6315L1332.01 75.1129M1078.84 99.793L1105.87 97.2776L1132.06 94.7564L1168.82 85.6918L1224.06 78.8071L1265.36 73.2671L1291.38 66.2171L1319.92 62.3542L1337.55 56.646L1349.97 51.1079L1352.99 48.5866M1100.33 94.7564L1120.64 92.5749L1142.3 87.2028L1168.82 81.3257L1211.8 75.1129L1254.45 70.247L1277.95 65.2096L1300.11 58.9994L1319.92 56.646L1335.03 52.9538L1347.62 48.5866L1354.51 43.3843L1356.18 40.6989M1359.71 32.3028L1352.99 41.7044L1339.23 48.5866L1319.92 52.9538L1297.09 54.9698L1275.6 61.1816L1255.28 65.2096L1227.58 68.9044L1193.5 73.2671L1169.83 77.6315L1151 81.3257L1127.52 87.2028L1108.22 90.2237M1118.96 85.6918L1147.17 78.8071L1172.68 73.2671L1195.35 68.9044L1221.04 66.2171L1252.26 61.1816L1273.92 56.646L1294.74 51.1079L1308.84 49.9332L1329.99 45.736L1343.59 41.7044L1354.51 36.1664L1362.4 29.7867M1362.4 26.0928L1352.99 32.9762L1335.03 40.6989L1319.92 44.5579L1294.74 46.9083L1277.95 52.1128L1254.45 56.646L1238.83 58.9994L1224.06 62.3542L1207.77 65.2096L1192.16 66.2171L1173.69 70.247L1166.14 71.2519M1185.61 65.2096L1205.09 62.3542L1216.5 60.1714L1227.58 56.646M1227.58 56.646L1254.45 53.7917L1280.13 46.9083L1300.11 43.3843L1321.26 40.6989L1339.23 34.8205L1352.99 29.7867L1364.91 22.0611M1227.58 56.646L1233.96 54.9698L1249.07 52.9538L1263.01 49.9332L1273.92 46.9083L1289.7 43.3843L1310.18 40.6989L1326.3 36.1664L1335.03 32.9762L1354.51 25.2504L1367.27 18.0312" stroke="white"/>
<path d="M1012.79 118.529H1029.22L1065.84 132.562L1089.92 135.555L1118.96 137.569L1164.29 128L1217.34 115.576L1247.73 102.985L1280.8 89.7215L1301.45 82.6719" stroke="white"/>
<path d="M925.112 152.686L825.579 197.59C843.572 191.59 856.283 188.381 870.816 182.684C875.226 180.956 879.803 178.998 884.747 176.665C886.101 176.025 887.482 175.358 888.895 174.659C892.534 172.86 896.39 170.753 900.317 168.471C904.5 166.041 908.764 163.412 912.929 160.746C917.153 158.042 921.275 155.3 925.112 152.686Z" fill="white"/>
<path d="M999.784 122.638H1016.21L1066.87 144.541L1120.92 148.562L1156.67 141.119L1227.36 124.272L1248.38 114.446L1265.3 103.801L1271.58 99.707M984.725 128.455L1002.52 130.509L1066.87 156.178L1117.1 160.746L1151 156.178L1231.73 134.916M970.008 130.509L1066.87 166.445L1111.37 172.853L1139.48 170.943L1213.72 152.686M953.923 137.012L972.746 141.119L1066.87 177.397L1107 184.242H1132.93L1201.16 166.445M941.602 141.119L951 142.83L1024.77 174.659L1066.87 189.034L1102.09 195.536H1128.56L1176.6 184.242M929.281 144.541L993.966 174.659L1066.87 202.039L1096.36 208.334H1122.83L1156.67 202.039M947.078 137.012C947.078 137.012 937.615 144.167 925.112 152.686M825.579 197.59L925.112 152.686M825.579 197.59C843.572 191.59 856.283 188.38 870.816 182.684M825.579 197.59L870.816 202.039L935 248.585L1066.87 321.827L1090.62 323.784M825.579 197.59C820.056 199.432 813.938 201.383 807.631 203.34M747.888 220.863C747.888 220.863 752.188 219.667 759.018 217.722M925.112 152.686L984.725 184.242L1066.87 213.333L1090.62 218.979L1114.91 220.343L1145.48 216.249M925.112 152.686C921.275 155.3 917.153 158.042 912.929 160.746M912.929 160.746C935.867 174.067 970.351 189.49 984.725 195.536L1066.87 227.023L1083.8 232.352L1107 233.99L1135 232.352M912.929 160.746C908.764 163.412 904.501 166.041 900.317 168.471M900.317 168.471C896.39 170.753 892.534 172.86 888.895 174.659C887.482 175.358 886.101 176.025 884.747 176.665M900.317 168.471L963.506 199.986L1066.87 239.687L1080.8 244.634H1102.09H1128.56M884.747 176.665L961.11 213.333L1066.87 254.061L1080.8 260.191L1098.81 263.193H1120.92M884.747 176.665C879.803 178.998 875.226 180.956 870.816 182.684M870.816 182.684L1066.87 284.864L1090.62 289.668H1109.18M807.631 203.34L846.456 207.857L904.639 248.585L1049.96 334.573M807.631 203.34C802.743 204.858 797.742 206.379 792.815 207.857M792.815 207.857L825.579 210.938L900.317 267.409L955.976 304.714L1021.65 345.658M792.815 207.857C788.607 209.12 784.454 210.35 780.472 211.519M780.472 211.519L805.044 213.333L888.895 286.917L1000.67 355.754M780.472 211.519C772.238 213.937 764.74 216.092 759.018 217.722M759.018 217.722L787 220.863L867.334 298.211L1066.87 444.352M734.883 223.601L771.161 227.023L838.927 302.661L1000.81 455.988M724.958 223.601L744.124 232.842L940.575 455.988M886.842 455.988L750.626 277.676C742.298 267.637 722.973 245.505 712.294 237.291M833.582 455.988L771.161 351.695L695.727 237.291L685.515 227.023M655 227.023L737.594 365.48L787 455.988M737.594 455.988L670.198 304.714L644.669 248.585L626.799 237.291M687.557 455.988L639 298.211L620.672 248.585L609.439 241.41M635.989 455.988L609.439 314.933L593.905 244.056M571.016 244.056L589.527 455.988M552.355 244.056L549.285 259.363L543.529 455.988M536.238 244.056L526.261 267.037L493.259 455.988M450.28 455.988L495.945 314.933L507 259.363L520.505 244.056M507 247.85L484.433 259.363L469.851 319.226L401.161 455.988M475.223 252.072L458.722 264.351L441.838 314.933L395.021 370.647L358 455.988M450.28 255.909L447.89 258.185M450.28 255.909L401.161 258.185L360.338 261.579L280.969 321.708M450.28 255.909L348.713 237.928L288.184 234.722L238.077 224.137M309.064 455.988L350.891 373.717L403.848 325.75L434.163 271.259L447.89 258.185M447.89 258.185L437.818 259.363M306.624 379.832L346.308 337.742L401.161 264.351L418.863 261.579L437.818 259.363M437.818 259.363L376.373 264.351L301.813 345.358L265.736 388.25L215.629 455.988M280.969 321.708L221.241 388.25L162.315 455.988M280.969 321.708L342 258.185L380.432 257.047M418.863 255.909L380.432 257.047M380.432 257.047L324.662 252.072L255.715 308.078L187.168 377.026L104.592 455.988M380.432 257.047L311.434 241.937M311.434 241.937L221.241 306.074L141.471 377.026L16.8042 442.365M311.434 241.937L270.146 247.85L173.94 312.488L151.271 331.519M311.434 241.937H309.064M262.93 241.937L260.646 242.787M262.93 241.937L201.198 242.787L169.531 252.072L116.369 272.421M262.93 241.937L187.168 237.928L101.071 260.684M262.93 241.937H309.064M146.702 309.216L219.237 258.185L260.646 242.787M260.646 242.787L210 247.85L136.943 286.796M309.064 241.937L187.168 234.722L138.665 231.114L87.6186 246.572M309.064 241.937L194 229.11L138.665 224.137M78.9143 234.722L122.63 222.696L138.665 224.137M138.665 224.137L100.182 214.278L71.7926 222.696M63.7478 208.265L72.5233 206.261L125.035 208.265L169.531 214.278L238.077 224.137M238.077 224.137L177.949 208.265M177.949 208.265L115.415 202.653L61.9999 197.041H58.3406M177.949 208.265L138.665 202.653L72.5233 190.227L54.6478 191.049M464.561 252.072L373.967 237.928L311.434 229.11L262.93 224.137L219.237 211.472M219.237 211.472L173.94 206.261L96.5747 190.227L50.4276 185.378M219.237 211.472L163.857 200.562L125.179 189.511M219.237 211.472L108.959 190.227L77.9449 184.164L46.8667 179.444M37.503 164.673L86.5004 178.46L125.179 189.511M41.9871 172.19L56.5561 175.608L125.179 189.511" stroke="white"/>
<path d="M416.876 282.33C416.876 282.33 420.906 278.925 423.684 277.011C435.71 268.726 444.401 266.023 458.926 264.506C499.816 260.234 540.029 265.024 578.593 262.475C622.232 259.591 626.063 256.679 669.242 249.727C714.383 242.458 740.172 238.769 783.494 224.148C830.444 208.302 856.667 196.995 898.315 170.148C927.966 151.034 950.288 143.104 985.283 129.79L1070.55 103.641L1135 80.8422L1188.65 62.9706L1302.97 36.1602" stroke="white" stroke-width="4"/>
<path d="M1002.13 108.69C1026.44 101.633 1069.95 82.7275 1069.95 82.7275L1096.02 72.3792L1129.39 63.3043L1143.73 58.0347L1148.42 54.5222L1185.59 44.8656L1235.64 35.2057L1293.31 27.3026L1323.79 25.4238L1341.9 18.2286L1372.64 5.05574L1379.37 0.664062L1372.64 8.73404L1350.64 19.7602L1335.49 25.4238L1318.3 31.6355L1304.79 32.9144L1278.67 35.2057L1253.29 38.4386L1222.47 44.8656L1192.32 50.7173L1164.81 58.0347L1141.39 66.5239L1105.68 78.8179L1075.24 88.7702L1069.95 91.0648C1069.95 91.0648 1032.62 106.409 1008.48 114.519C992.604 119.855 979.543 120.843 962.956 128.646C941.737 138.628 932.812 136.193 910.601 145.752C890.126 154.564 884.63 162.953 868.096 171.7C852.226 180.095 843.927 184.249 826.108 186.443C804.193 189.143 791.66 179.784 772.156 178.105C720.687 173.675 684.37 183.025 630.677 198.241C600.127 206.898 582.332 208.507 553.709 225.58C531.838 238.625 515.091 240.829 491 238.539C460.841 235.672 441.867 238.998 411.678 236.465C383.515 234.102 369.896 234.567 342 230.034C293.236 222.11 265.48 219.942 217.108 209.898C139.708 193.826 33.019 157.947 33.019 157.947C33.019 157.947 139.84 191.633 217.108 206.657C257.152 214.443 279.99 216.616 320.295 222.913C356.626 228.589 376.741 230.129 413.424 232.683C443.677 234.789 456.345 228.444 491 232.683C520.253 236.261 531.193 229.966 557.552 216.786C586.166 202.479 600.696 199.802 630.677 191.352C679.263 177.657 716.306 171.7 766.785 171.7C787 171.7 796.278 182.918 816.136 181.814C829.581 181.066 837.989 176.476 850.579 171.7C873.348 163.063 876.601 152.94 899.328 144.192C911.442 139.53 916.742 138.387 929.002 134.124C944.812 128.626 951.729 124.353 967.683 119.287C978.753 115.773 990.971 111.926 1002.13 108.69Z" fill="white"/>
<path d="M1069.95 82.7275C1069.95 82.7275 1026.44 101.633 1002.13 108.69C990.971 111.926 978.753 115.773 967.683 119.287C951.729 124.353 944.812 128.626 929.002 134.124C916.742 138.388 911.442 139.53 899.328 144.192C876.601 152.94 873.348 163.063 850.579 171.7C837.989 176.476 829.581 181.066 816.136 181.814C796.278 182.918 787 171.7 766.785 171.7C716.306 171.7 679.263 177.657 630.677 191.352C600.696 199.802 586.166 202.479 557.552 216.786C531.193 229.966 520.253 236.261 491 232.683C456.345 228.444 443.677 234.789 413.424 232.683C376.741 230.129 356.626 228.589 320.295 222.913C279.99 216.616 257.152 214.443 217.108 206.657C139.84 191.633 33.019 157.947 33.019 157.947C33.019 157.947 139.708 193.826 217.108 209.898C265.48 219.942 293.236 222.11 342 230.034C369.896 234.567 383.515 234.102 411.678 236.465C441.867 238.998 460.841 235.672 491 238.539C515.091 240.829 531.838 238.625 553.709 225.58C582.332 208.506 600.127 206.898 630.677 198.241C684.37 183.025 720.687 173.675 772.156 178.105C791.66 179.784 804.193 189.143 826.108 186.443C843.927 184.249 852.226 180.095 868.096 171.7C884.63 162.953 890.126 154.564 910.601 145.752C932.812 136.193 941.737 138.628 962.956 128.646C979.543 120.843 992.604 119.855 1008.48 114.519C1032.62 106.409 1069.95 91.0648 1069.95 91.0648M1069.95 82.7275V91.0648M1069.95 82.7275L1096.02 72.3792L1129.39 63.3043L1143.73 58.0347L1148.42 54.5222L1185.59 44.8656L1235.64 35.2057L1293.31 27.3026L1323.79 25.4238L1341.9 18.2286L1372.64 5.05574L1379.37 0.664062L1372.64 8.73404L1350.64 19.7602L1335.49 25.4238L1318.3 31.6355L1304.79 32.9144L1278.67 35.2057L1253.29 38.4386L1222.47 44.8656L1192.32 50.7173L1164.81 58.0347L1141.39 66.5239L1105.68 78.8179L1075.24 88.7702L1069.95 91.0648" stroke="white"/>
<path d="M416.846 283.614C416.846 283.614 425.598 273.613 428.376 271.699C440.403 263.414 447.428 261.337 461.814 258.824C501.983 251.806 537.976 251.956 576.539 249.407C620.179 246.523 621.154 249.407 669.242 239.725C714.065 230.7 729.749 234.941 773.071 220.319C820.021 204.474 823.825 211.688 872.163 181.995C904.544 162.103 987.482 126.752 1022.35 114.667L1071.04 99.8197L1154.26 68.3634L1193.37 58.2472L1260.15 44.253L1314.1 33.7967L1336.19 27.3901L1371.1 11.3711" stroke="white" stroke-width="4"/>
<path d="M373.486 327.796L418.21 284.348L415.759 281.387L373.486 327.796Z" fill="white" stroke="white"/>
<path d="M251.824 154.09C242.23 150.22 233.825 146.718 225.951 143.405C280.001 162.504 323.558 179.818 387.071 206.899C393.102 208.026 420.564 210.595 479.416 189.401C556.587 161.609 560.14 164.943 560.14 164.943C533.378 167.63 522.435 183.493 497.49 193.555C473.983 203.036 461.577 213.112 436.32 215.26C416.573 216.939 402.562 212.688 387.369 207.026C387.194 206.965 387.032 206.911 386.885 206.864C385.363 206.565 385.431 206.394 386.885 206.864C386.917 206.87 386.949 206.876 386.982 206.883C377.876 203.501 358 196.514 358 196.514C358 196.514 293.234 170.793 251.824 154.09Z" fill="white"/>
<path d="M8.11182 58.5651C8.11182 58.5651 64.1711 83.1234 95.9392 94.8928C121.533 104.375 136.44 108.126 162.042 117.585C197.546 130.704 216.723 139.931 251.824 154.09C293.234 170.793 358 196.514 358 196.514C358 196.514 378.452 203.704 387.369 207.026M560.14 164.943C533.378 167.63 522.435 183.493 497.49 193.555C473.983 203.036 461.577 213.112 436.32 215.26C416.573 216.939 402.562 212.688 387.369 207.026M560.14 164.943C585.631 162.384 598.716 176.942 624.27 178.755C670.213 182.016 697.449 174.197 740.197 157.05C779.733 141.192 797.63 123.385 832.445 98.8399C838.65 94.4653 841.402 90.8108 848.231 87.4938C862.665 80.483 873.468 87.3229 889.175 84.0407C907.829 80.1427 916.912 73.2669 935 67.2683C969.66 55.7736 988.818 43.8109 1025.33 43.0963C1043.13 42.7478 1070.71 47.5363 1070.71 47.5363L1158 55.1347M560.14 164.943C560.14 164.943 556.587 161.609 479.416 189.401C402.245 217.192 379.046 204.125 387.369 207.026M8.11182 65.2928C8.11182 65.2928 64.2011 88.4598 95.9392 99.4787C121.551 108.371 136.326 112.949 162.042 121.534C251.316 151.333 300.796 170.107 387.369 207.026" stroke="white" stroke-width="4"/>
<path d="M335.066 217.556L296.953 203.1L270.335 192.27L237.214 178.794L229.927 175.83L224.471 173.201L213.254 167.798L196.58 159.766L184.911 154.145L176.044 149.873L167.501 144.124L160.72 139.559L158.959 138.374L153.101 134.431L147.244 130.489L141.874 126.874L174.401 138.374L195.239 145.556L224.471 155.391L273.917 174.651L325.755 195.345L373.086 212.537L396.506 221.569L416.728 225.113L447.775 232.999H444.798L411.291 227.742L383.74 221.569L358 212.537L316.74 198.264L279.45 182.232L245.028 167.798L194 148.424L153.101 134.431L158.959 138.374L160.72 139.559L167.501 144.124L176.044 149.873L215.933 165.84L266.132 184.701L323.092 210.114L370.221 225.113L335.066 217.556Z" fill="white"/>
<path d="M19.0861 86.7617L39.1381 82.8516L101.74 104.859M101.74 104.859L42.6496 86.7617L23.3613 90.1105M101.74 104.859L70.8064 97.636L59.8903 95.0872M101.74 104.859L87.628 103.174M101.74 104.859L74.5196 106.832L24.7068 131.972M101.74 104.859C106.791 106.656 111.729 108.416 116.566 110.144M486.642 207.075L474.884 210.114M486.642 207.075H497.019L533.301 200.383L560.313 196.675L596.33 195.086H621.753M486.642 207.075L495.43 211.078M536.038 229.573L514.394 219.715M24.7068 95.0872L42.6496 91.0616L59.8903 95.0872M59.8903 95.0872L25.8931 100.59M24.7068 108.5L65.9771 100.59L87.628 103.174M87.628 103.174L65.9771 104.859L24.7068 118.66M116.566 110.144C201.047 140.327 254.787 160.743 349.211 198.272L406.433 218.324H409.626M116.566 110.144L87.628 112.089L62 126.874L24.7068 141.002M30.2385 149.873L70.8064 133.774L94.5617 118.66L113.618 112.089M113.618 112.089L131.988 121.702M113.618 112.089L150.416 126.874L217.442 149.873L314.022 186.876L390.028 215.743L451.998 232.999M141.874 126.874L131.988 121.702M141.874 126.874L147.244 130.489M141.874 126.874L174.401 138.374L195.239 145.556L224.471 155.391L273.917 174.651L325.755 195.345L373.086 212.537L396.506 221.569L416.728 225.113L447.775 232.999H444.798L411.291 227.742L383.74 221.569L358 212.537L316.74 198.264L279.45 182.232L245.028 167.798L194 148.424L153.101 134.431M176.044 149.873L167.501 144.124M176.044 149.873L156.659 146.588L134.317 157.43L92.2618 175.83M176.044 149.873L184.911 154.145M176.044 149.873L215.933 165.84L266.132 184.701L323.092 210.114L370.221 225.113M370.221 225.113L335.066 217.556L296.953 203.1L270.335 192.27M370.221 225.113L411.291 232.999M131.988 121.702H113.618L76.1624 141.002L35.7498 157.43M46.921 162.445L70.8064 154.145L113.618 133.774L131.988 126.874L147.244 130.489M147.244 130.489L153.101 134.431M62 167.287L94.5617 154.145L130.046 138.374L144.174 133.774L158.959 138.374M158.959 138.374L153.101 134.431M158.959 138.374L160.72 139.559M74.5196 170.901L94.5617 164.659L131.988 146.588L150.416 141.002L167.501 144.124M167.501 144.124L160.72 139.559M109.347 180.101L152.059 161.044L169.473 154.145H184.911M184.911 154.145L196.58 159.766M123.803 184.701L165.202 167.287L184.911 157.43L196.58 159.766M196.58 159.766L213.254 167.798M141.874 189.629L190.5 169.258L200.029 167.287L213.254 167.798M213.254 167.798L224.471 173.201M156.659 193.243L190.5 180.101L206.271 173.201H224.471M224.471 173.201L229.927 175.83L237.214 178.794M174.401 198.272L206.271 184.701L219.742 177.801L237.214 178.794M237.214 178.794L270.335 192.27M187.215 203.1L217.442 189.629C217.333 187.986 219.676 184.701 229.927 184.701C240.178 184.701 261.137 189.747 270.335 192.27M206.271 205.4L229.927 193.243L237.214 192.27L272.311 203.1L293.01 205.4L329.152 218.324L396.506 232.999M181.958 200.143C188.201 201.128 205.088 203.1 222.699 203.1C240.31 203.1 268.588 208.357 280.525 210.985H299.582L346.237 227.742M531.182 229.573L497.019 215.743L474.884 210.114M474.884 210.114L465.506 212.537M528.534 231.368L491 217.556L465.506 212.537M465.506 212.537L455.864 215.029M524.032 232.999L481.924 219.715L455.864 215.029M455.864 215.029L447.775 217.119M519 232.999L474.884 221.569L447.775 217.119M447.775 217.119L443.114 218.324H438.227M512.379 234.81L469.477 223.687L438.227 218.324M438.227 218.324H428.428M500.991 234.81L463.121 225.113L428.428 218.324M428.428 218.324H419.424M481.924 232.999L451.998 225.113L419.424 218.324M419.424 218.324H409.626M466.829 232.999L440.081 225.113L409.626 218.324M516.616 184.228L538.597 173.9L557.665 170.192H576.203L602.686 173.9M617.516 179.196L582.029 173.9H560.313L536.038 178.137L508.407 189.26M500.991 193.497L533.301 184.228L560.313 179.196H585.737L621.753 182.639L653.003 179.196M665.98 178.137L623.342 186.611L589.974 184.228H560.313L533.301 189.26L495.43 198.264L481.924 200.383M474.884 204.355L495.43 202.766L533.301 195.086L560.313 190.849L593.417 189.26L624.931 190.849L670.482 179.196M495.43 211.078L532.241 207.075L561.902 202.766C569.67 201.972 593.787 200.383 602.686 200.383M495.43 211.078L498.634 212.537M589.974 205.944L560.313 208.592L533.301 212.537H498.634M498.634 212.537L505.672 215.743M505.672 215.743C527.775 217.808 552.368 214.466 561.902 212.537L576.203 211.078M505.672 215.743L514.394 219.715M514.394 219.715L536.038 221.569L557.665 218.324M160.72 139.559L192.165 151.498L229.927 165.84L273.917 184.228L304.447 198.264L336.615 210.114L368.783 221.569L399.517 227.742L425.948 232.999" stroke="white"/>
<path d="M398.747 208.701L431.607 210.779L472.787 203.501M406.33 211.41L425.694 212.95L444.166 210.779L465.312 207.278M414.999 207.846L433.634 208.701L479.085 199.42L486.458 197.719M425.127 205.252H437.279L458.263 201.364L494.965 192.938M440.115 202.336L468.391 196.907L510.116 185.889M465.312 195.611L499.34 186.889L519.271 181.3M482.812 189.129L497.639 185.889L522.998 178.191" stroke="white"/>
<path d="M0.776733 38.5898C0.776733 38.5898 42.1264 47.0973 57.7159 53.5684C64.6367 56.4412 68.3687 58.7286 75.7097 60.2323C85.3984 62.2169 91.3631 58.1642 101.034 60.2323C111.905 62.557 116.989 67.137 126.692 72.5614C138.979 79.4296 144.041 86.3641 156.682 92.5546C169.137 98.6537 176.652 101.64 190.337 103.884C210.429 107.179 222.066 97.8026 242.319 99.8854C264.104 102.126 274.898 110.241 295.968 116.213C307.904 119.597 314.373 122.586 326.624 124.544C344.743 127.439 355.32 123.052 373.608 124.544C395.487 126.328 407.629 129.206 428.922 134.54C445.693 138.741 454.763 142.308 471.241 147.536C497.129 155.749 537.219 169.528 537.219 169.528" stroke="white" stroke-width="4"/>
<path d="M33.677 47.5L48.992 55.2448L69.3388 63.3841L90.2282 65.2831L110.032 69.3524L130.395 80.4534L156.512 98.3905L192.099 111.162L233.282 105.852L269.013 112.166L313.066 125.798L341.191 130.39H383.953L426.571 138.713L475.934 152.632L502.768 162.103L531.467 171.573" stroke="white"/>
<path fill-rule="evenodd" clip-rule="evenodd" d="M682.058 141.307C682.058 141.307 679.74 138.73 678.584 136.473C677.068 133.509 677.023 131.706 677.278 128.387C677.477 125.798 676.796 124.179 678.584 122.296C680.056 120.747 681.108 120.412 682.845 119.972C684.215 119.625 685.675 119.344 685.675 119.344L686.709 118.569L687.613 111.334C687.613 111.334 688.249 104.726 690.068 100.997C692.094 96.8452 694.092 94.8484 697.691 91.9518C701.33 89.0227 703.113 88.0105 708.022 86.816C712.939 85.6199 715.846 85.6565 720.171 85.6564C724.842 85.6562 727.771 86.4655 731.928 88.5959C735.836 90.5991 738.052 92.3864 740.714 95.8798C742.754 98.5578 743.75 100.633 745.129 103.704C746.986 107.839 747.496 110.301 747.819 114.823C747.923 116.282 747.819 118.569 747.819 118.569C747.819 118.569 753.643 117.586 756.604 119.344C759.374 120.987 760.478 122.973 761.385 126.063C762.166 128.726 761.893 130.441 761.385 133.169C760.89 135.822 758.93 139.629 758.93 139.629L761.385 144.28C761.385 144.28 766.786 152.622 769.136 158.491C772.9 167.888 772.787 173.899 774.046 183.943C774.77 189.722 775.449 192.977 775.338 198.801C775.212 205.371 775.617 209.433 773.012 215.467C770.92 220.313 769.713 223.828 765.131 226.449C763.399 227.44 762.233 227.592 760.351 228.257C758.2 229.018 757.068 229.863 754.796 230.066C753.891 230.147 752.47 230.066 752.47 230.066V251.254L754.796 281.874V300.22L759.576 307.196L768.49 320.504L782.702 346.343L795.234 371.407L777.877 358.703L761.385 320.504L752.47 301.124L751.049 285.75L750.274 271.151L749.111 226.449V200.351V196.992L750.274 194.795L749.111 139.112L746.915 130.972V120.378L732.703 119.344H720.817H703.375V178.517V203.064H700.016V201.255L698.337 193.762V114.973V111.334H741.876C741.876 111.334 741.21 107.276 740.196 104.875C739.237 102.603 738.509 101.372 736.966 99.4484C734.998 96.9933 747.552 110.253 743.588 111.334C739.409 112.473 744.501 113.289 740.196 112.803C736.887 112.429 738.113 110.635 734.857 111.334C731.371 112.082 725.487 110.919 722.459 112.803C719.382 114.718 712.217 108.558 709.887 111.334C707.62 114.033 700.016 110.958 700.016 112.803C700.016 113.895 699.316 114.533 698.337 114.973C695.9 116.07 691.74 115.945 692.374 118.569C693.006 121.184 693.441 123.595 694.001 125.318C694.56 127.04 694.675 128.521 694.461 130.972C694.181 134.18 693.212 135.925 691.748 137.949C690.284 139.973 687.375 141.608 684.9 144.28C681.519 147.929 679.766 150.179 677.278 154.486C674.311 159.621 673.16 162.849 671.593 168.569C669.764 175.244 669.627 179.227 669.268 186.139C668.755 195.983 667.434 202.074 670.818 211.333C674.478 215.467 672.09 222.362 677.278 223.089C678.177 223.216 678.95 223.72 679.603 223.089C681.43 221.327 682.845 217.272 682.845 214.715C685.401 214.715 685.927 206.694 687.613 200.351C689.843 191.964 691.748 178.517 691.748 178.517C691.748 178.517 692.185 192.386 692.781 201.255C693.295 208.885 693.967 213.133 694.461 220.764C696.261 248.559 693.557 292.08 693.557 292.08C693.557 292.08 693.712 296.414 694.461 299.057C695.624 303.164 698.212 304.639 699.758 308.618C701.625 313.423 701.455 316.483 702.471 321.537C703.362 325.971 704.236 328.405 704.667 332.906C705.101 337.427 705.746 354.292 704.667 358.703C703.868 361.973 701.897 349.127 701.179 352.415C700.415 355.915 700.227 358.135 701.179 361.588C701.953 364.395 704.667 368.177 704.667 368.177C704.667 368.177 700.823 364.615 699.758 361.588C698.569 358.209 699.758 352.415 699.758 352.415L702.471 342.596C702.471 342.596 703.468 336.683 703.117 332.906C702.689 328.297 700.594 326.091 699.758 321.537C699.144 318.194 700.023 316.072 698.854 312.881C697.775 309.938 696.006 308.89 694.461 306.163C692.145 302.076 690.497 299.783 689.551 295.181C688.505 290.087 689.924 287.073 690.068 281.874C690.567 263.817 691.744 253.552 689.551 235.622C689.199 232.739 688.518 228.257 688.518 228.257C688.518 228.257 681.171 230.947 677.278 228.903C675.255 227.842 673.014 224.898 673.014 224.898C673.014 224.898 670.218 220.703 669.268 217.272C667.438 210.667 665.879 208.108 665.879 201.255C665.88 189.151 666.495 182.747 667.971 171.333C669.225 161.641 672.387 156.382 676.503 148.156C678.043 145.076 682.058 141.307 682.058 141.307ZM744.46 116.244L701.696 115.598V116.746L743.588 117.854L744.46 116.244ZM756.604 143.375L750.92 139.629L751.824 189.628C751.824 189.628 751.279 195.26 751.824 198.801C752.397 202.522 753.182 204.571 754.796 207.973C755.434 209.32 755.558 210.272 756.604 211.333C757.761 212.506 759.594 211.808 760.351 213.271C760.954 214.435 760.895 215.436 760.351 216.63C759.995 217.412 759.201 217.494 758.93 218.309C758.363 220.009 759.71 221.549 761.385 222.185C762.375 222.561 763.06 222.397 764.098 222.185C768.016 221.386 767.831 217.05 769.136 213.271C770.339 209.789 770.279 207.629 770.687 203.968C771.519 196.497 771.425 192.199 770.687 184.718C769.985 177.608 767.198 166.76 767.198 166.76C767.198 166.76 764.793 158.089 762.289 152.936C760.391 149.029 756.604 143.375 756.604 143.375Z" fill="#333333"/>
<path d="M720.984 228.257L723.272 236.213L725.016 254.63L724.362 273.7L725.016 293.424L726.214 303.886L729.919 316.853L737.469 357.958L725.016 311.732L720.984 301.124L720.221 293.424V281.874L719.567 265.2L718.695 251.254L719.567 233.707L720.984 228.257Z" fill="#333333"/>
<path d="M777.877 358.703L761.385 320.504L752.47 301.124L751.049 285.75L750.274 271.151L749.111 226.449V200.351V196.992L750.274 194.795L749.111 139.112L746.915 130.972V120.378L732.703 119.344H720.817H703.375V178.517V203.064H700.016V201.255L698.337 193.762V114.973C695.9 116.07 691.74 115.945 692.374 118.569C693.006 121.184 693.441 123.595 694.001 125.318C694.56 127.04 694.675 128.521 694.461 130.972C694.181 134.18 693.212 135.925 691.748 137.949C690.284 139.973 687.375 141.608 684.9 144.28C681.519 147.929 679.766 150.179 677.278 154.486C674.311 159.621 673.16 162.849 671.593 168.569C669.764 175.244 669.627 179.227 669.268 186.139C668.755 195.983 667.434 202.074 670.818 211.333C674.478 215.467 672.09 222.362 677.278 223.089C678.177 223.216 678.95 223.72 679.603 223.089C681.43 221.327 682.845 217.272 682.845 214.715C685.401 214.715 685.927 206.694 687.613 200.351C689.843 191.964 691.748 178.517 691.748 178.517C691.748 178.517 692.185 192.386 692.781 201.255C693.295 208.885 693.967 213.133 694.461 220.764C696.261 248.559 693.557 292.08 693.557 292.08C693.557 292.08 693.712 296.414 694.461 299.057C695.624 303.164 698.212 304.639 699.758 308.618C701.625 313.423 701.455 316.483 702.471 321.537C703.362 325.971 704.236 328.405 704.667 332.906C705.101 337.427 705.746 354.292 704.667 358.703H724.362L737.469 357.958L725.016 311.732L720.984 301.124L720.221 293.424V281.874L719.567 265.2L718.695 251.254L719.567 233.707L720.984 228.257L723.272 236.213L725.016 254.63L724.362 273.7L725.016 293.424L726.214 303.886L729.919 316.853L737.469 357.958H749.111L761.385 358.703H777.877Z" fill="#333333"/>
<path d="M750.92 139.629L756.604 143.375C756.604 143.375 760.391 149.029 762.289 152.936C764.793 158.089 767.198 166.76 767.198 166.76C767.198 166.76 769.985 177.608 770.687 184.718C771.425 192.199 771.519 196.497 770.687 203.968C770.279 207.629 770.339 209.789 769.136 213.271C767.831 217.05 768.016 221.386 764.098 222.185C763.06 222.397 762.375 222.561 761.385 222.185C759.71 221.549 758.363 220.009 758.93 218.309C759.201 217.494 759.995 217.412 760.351 216.63C760.895 215.436 760.954 214.435 760.351 213.271C759.594 211.808 757.761 212.506 756.604 211.333C755.558 210.272 755.434 209.32 754.796 207.973C753.182 204.571 752.397 202.522 751.824 198.801C751.279 195.26 751.824 189.628 751.824 189.628L750.92 139.629Z" fill="#333333"/>
<path fill-rule="evenodd" clip-rule="evenodd" d="M682.058 141.307C682.058 141.307 679.74 138.73 678.584 136.473C677.068 133.509 677.023 131.706 677.278 128.387C677.477 125.798 676.796 124.179 678.584 122.296C680.056 120.747 681.108 120.412 682.845 119.972C684.215 119.625 685.675 119.344 685.675 119.344L686.709 118.569L687.613 111.334C687.613 111.334 688.249 104.726 690.068 100.997C692.094 96.8452 694.092 94.8484 697.691 91.9518C701.33 89.0227 703.113 88.0105 708.022 86.816C712.939 85.6199 715.846 85.6565 720.171 85.6564C724.842 85.6562 727.771 86.4655 731.928 88.5959C735.836 90.5991 738.052 92.3864 740.714 95.8798C742.754 98.5578 743.75 100.633 745.129 103.704C746.986 107.839 747.496 110.301 747.819 114.823C747.923 116.282 747.819 118.569 747.819 118.569C747.819 118.569 753.643 117.586 756.604 119.344C759.374 120.987 760.478 122.973 761.385 126.063C762.166 128.726 761.893 130.441 761.385 133.169C760.89 135.822 758.93 139.629 758.93 139.629L761.385 144.28C761.385 144.28 766.786 152.622 769.136 158.491C772.9 167.888 772.787 173.899 774.046 183.943C774.77 189.722 775.449 192.977 775.338 198.801C775.212 205.371 775.617 209.433 773.012 215.467C770.92 220.313 769.713 223.828 765.131 226.449C763.399 227.44 762.233 227.592 760.351 228.257C758.2 229.018 757.068 229.863 754.796 230.066C753.891 230.147 752.47 230.066 752.47 230.066V251.254L754.796 281.874V300.22L759.576 307.196L768.49 320.504L782.702 346.343L795.234 371.407L779.214 342.596L764.744 317.661L752.47 301.124L751.049 285.75L750.274 271.151L749.111 226.449V200.351V196.992L750.274 194.795L749.111 139.112L746.915 130.972V120.378L732.703 119.344H720.817H703.375V178.517V203.064H700.016V201.255L698.337 193.762V111.334H741.876C741.876 111.334 741.21 107.276 740.196 104.875C739.237 102.603 738.509 101.372 736.966 99.4484C734.998 96.9933 733.617 95.729 730.894 94.1514C727.146 91.9794 725.122 91.0984 720.817 90.612C717.508 90.2381 714.9 90.6099 711.644 91.3091C708.157 92.0578 706.403 93.301 703.375 95.185C700.298 97.0995 698.471 98.2212 696.14 100.997C693.874 103.696 691.748 107.035 691.748 108.88C691.748 112.69 691.485 114.891 692.374 118.569C693.006 121.184 693.441 123.595 694.001 125.318C694.56 127.04 694.675 128.521 694.461 130.972C694.181 134.18 693.212 135.925 691.748 137.949C690.284 139.973 687.375 141.608 684.9 144.28C681.519 147.929 679.766 150.179 677.278 154.486C674.311 159.621 673.16 162.849 671.593 168.569C669.764 175.244 669.627 179.227 669.268 186.139C668.755 195.983 667.434 202.074 670.818 211.333C674.478 215.467 672.09 222.362 677.278 223.089C678.177 223.216 678.95 223.72 679.603 223.089C681.43 221.327 682.845 217.272 682.845 214.715C685.401 214.715 685.927 206.694 687.613 200.351C689.843 191.964 691.748 178.517 691.748 178.517C691.748 178.517 692.185 192.386 692.781 201.255C693.295 208.885 693.967 213.133 694.461 220.764C696.261 248.559 693.557 292.08 693.557 292.08C693.557 292.08 693.712 296.414 694.461 299.057C695.624 303.164 698.212 304.639 699.758 308.618C701.625 313.423 701.455 316.483 702.471 321.537C703.362 325.971 704.236 328.405 704.667 332.906C705.101 337.427 705.746 340.123 704.667 344.534C703.868 347.804 701.897 349.127 701.179 352.415C700.415 355.915 700.227 358.135 701.179 361.588C701.953 364.395 704.667 368.177 704.667 368.177C704.667 368.177 700.823 364.615 699.758 361.588C698.569 358.209 699.758 352.415 699.758 352.415L702.471 342.596C702.471 342.596 703.468 336.683 703.117 332.906C702.689 328.297 700.594 326.091 699.758 321.537C699.144 318.194 700.023 316.072 698.854 312.881C697.775 309.938 696.006 308.89 694.461 306.163C692.145 302.076 690.497 299.783 689.551 295.181C688.505 290.087 689.924 287.073 690.068 281.874C690.567 263.817 691.744 253.552 689.551 235.622C689.199 232.739 688.518 228.257 688.518 228.257C688.518 228.257 681.171 230.947 677.278 228.903C675.255 227.842 673.014 224.898 673.014 224.898C673.014 224.898 670.218 220.703 669.268 217.272C667.438 210.667 665.879 208.108 665.879 201.255C665.88 189.151 666.495 182.747 667.971 171.333C669.225 161.641 672.387 156.382 676.503 148.156C678.043 145.076 682.058 141.307 682.058 141.307ZM688.518 123.737C687.269 122.963 686.369 122.726 684.9 122.704C682.661 122.67 680.554 123.134 680.056 125.318C679.115 129.452 679.592 131.825 680.508 135.236C681.092 137.413 684.254 139.629 684.254 139.629C684.254 139.629 687.82 135.934 689.551 133.169C690.522 131.619 691.599 130.133 691.057 128.387C690.133 125.415 690.577 125.015 688.518 123.737ZM757.638 126.063C757.015 124.462 756.401 123.316 754.796 122.704C752.572 121.856 750.29 122.833 749.111 124.9C748.186 126.522 748.9 127.826 749.111 129.68C749.333 131.638 749.202 132.936 750.274 134.59C751.606 136.646 755.571 137.949 755.571 137.949C755.571 137.949 757.309 133.795 757.638 130.972C757.86 129.068 758.333 127.85 757.638 126.063ZM744.46 116.244L701.696 115.598V114.177L744.46 114.823V116.244ZM756.604 143.375L750.92 139.629L751.824 189.628C751.824 189.628 751.279 195.26 751.824 198.801C752.397 202.522 753.182 204.571 754.796 207.973C755.434 209.32 755.558 210.272 756.604 211.333C757.761 212.506 759.594 211.808 760.351 213.271C760.954 214.435 760.895 215.436 760.351 216.63C759.995 217.412 759.201 217.494 758.93 218.309C758.363 220.009 759.71 221.549 761.385 222.185C762.375 222.561 763.06 222.397 764.098 222.185C768.016 221.386 767.831 217.05 769.136 213.271C770.339 209.789 770.279 207.629 770.687 203.968C771.519 196.497 771.425 192.199 770.687 184.718C769.985 177.608 767.198 166.76 767.198 166.76C767.198 166.76 764.793 158.089 762.289 152.936C760.391 149.029 756.604 143.375 756.604 143.375Z" fill="white"/>
<path d="M720.984 228.257L723.272 236.213L725.016 254.63L724.362 273.7L725.016 293.424L726.214 303.886L729.919 316.853L734.06 327.751L725.016 311.732L720.984 301.124L720.221 293.424V281.874L719.567 265.2L718.695 251.254L719.567 233.707L720.984 228.257Z" fill="white"/>
<path fill-rule="evenodd" clip-rule="evenodd" d="M682.058 141.307C682.058 141.307 679.74 138.73 678.584 136.473C677.068 133.509 677.023 131.706 677.278 128.387C677.477 125.798 676.796 124.179 678.584 122.296C680.056 120.747 681.108 120.412 682.845 119.972C684.215 119.625 685.675 119.344 685.675 119.344L686.709 118.569L687.613 111.334C687.613 111.334 688.249 104.726 690.068 100.997C692.094 96.8452 694.092 94.8484 697.691 91.9518C701.33 89.0227 703.113 88.0105 708.022 86.816C712.939 85.6199 715.846 85.6565 720.171 85.6564C724.842 85.6562 727.771 86.4655 731.928 88.5959C735.836 90.5991 738.052 92.3864 740.714 95.8798C742.754 98.5578 743.75 100.633 745.129 103.704C746.986 107.839 747.496 110.301 747.819 114.823C747.923 116.282 747.819 118.569 747.819 118.569C747.819 118.569 753.643 117.586 756.604 119.344C759.374 120.987 760.478 122.973 761.385 126.063C762.166 128.726 761.893 130.441 761.385 133.169C760.89 135.822 758.93 139.629 758.93 139.629L761.385 144.28C761.385 144.28 766.786 152.622 769.136 158.491C772.9 167.888 772.787 173.899 774.046 183.943C774.77 189.722 775.449 192.977 775.338 198.801C775.212 205.371 775.617 209.433 773.012 215.467C770.92 220.313 769.713 223.828 765.131 226.449C763.399 227.44 762.233 227.592 760.351 228.257C758.2 229.018 757.068 229.863 754.796 230.066C753.891 230.147 752.47 230.066 752.47 230.066V251.254L754.796 281.874V300.22L759.576 307.196L768.49 320.504L782.702 346.343L795.234 371.407L779.214 342.596L764.744 317.661L752.47 301.124L751.049 285.75L750.274 271.151L749.111 226.449V200.351V196.992L750.274 194.795L749.111 139.112L746.915 130.972V120.378L732.703 119.344H720.817H703.375V178.517V203.064H700.016V201.255L698.337 193.762V111.334H741.876C741.876 111.334 741.21 107.276 740.196 104.875C739.237 102.603 738.509 101.372 736.966 99.4484C734.998 96.9933 733.617 95.729 730.894 94.1514C727.146 91.9794 725.122 91.0984 720.817 90.612C717.508 90.2381 714.9 90.6099 711.644 91.3091C708.157 92.0578 706.403 93.301 703.375 95.185C700.298 97.0995 698.471 98.2212 696.14 100.997C693.874 103.696 691.748 107.035 691.748 108.88C691.748 112.69 691.485 114.891 692.374 118.569C693.006 121.184 693.441 123.595 694.001 125.318C694.56 127.04 694.675 128.521 694.461 130.972C694.181 134.18 693.212 135.925 691.748 137.949C690.284 139.973 687.375 141.608 684.9 144.28C681.519 147.929 679.766 150.179 677.278 154.486C674.311 159.621 673.16 162.849 671.593 168.569C669.764 175.244 669.627 179.227 669.268 186.139C668.755 195.983 667.434 202.074 670.818 211.333C674.478 215.467 672.09 222.362 677.278 223.089C678.177 223.216 678.95 223.72 679.603 223.089C681.43 221.327 682.845 217.272 682.845 214.715C685.401 214.715 685.927 206.694 687.613 200.351C689.843 191.964 691.748 178.517 691.748 178.517C691.748 178.517 692.185 192.386 692.781 201.255C693.295 208.885 693.967 213.133 694.461 220.764C696.261 248.559 693.557 292.08 693.557 292.08C693.557 292.08 693.712 296.414 694.461 299.057C695.624 303.164 698.212 304.639 699.758 308.618C701.625 313.423 701.455 316.483 702.471 321.537C703.362 325.971 704.236 328.405 704.667 332.906C705.101 337.427 705.746 340.123 704.667 344.534C703.868 347.804 701.897 349.127 701.179 352.415C700.415 355.915 700.227 358.135 701.179 361.588C701.953 364.395 704.667 368.177 704.667 368.177C704.667 368.177 700.823 364.615 699.758 361.588C698.569 358.209 699.758 352.415 699.758 352.415L702.471 342.596C702.471 342.596 703.468 336.683 703.117 332.906C702.689 328.297 700.594 326.091 699.758 321.537C699.144 318.194 700.023 316.072 698.854 312.881C697.775 309.938 696.006 308.89 694.461 306.163C692.145 302.076 690.497 299.783 689.551 295.181C688.505 290.087 689.924 287.073 690.068 281.874C690.567 263.817 691.744 253.552 689.551 235.622C689.199 232.739 688.518 228.257 688.518 228.257C688.518 228.257 681.171 230.947 677.278 228.903C675.255 227.842 673.014 224.898 673.014 224.898C673.014 224.898 670.218 220.703 669.268 217.272C667.438 210.667 665.879 208.108 665.879 201.255C665.88 189.151 666.495 182.747 667.971 171.333C669.225 161.641 672.387 156.382 676.503 148.156C678.043 145.076 682.058 141.307 682.058 141.307ZM688.518 123.737C687.269 122.963 686.369 122.726 684.9 122.704C682.661 122.67 680.554 123.134 680.056 125.318C679.115 129.452 679.592 131.825 680.508 135.236C681.092 137.413 684.254 139.629 684.254 139.629C684.254 139.629 687.82 135.934 689.551 133.169C690.522 131.619 691.599 130.133 691.057 128.387C690.133 125.415 690.577 125.015 688.518 123.737ZM757.638 126.063C757.015 124.462 756.401 123.316 754.796 122.704C752.572 121.856 750.29 122.833 749.111 124.9C748.186 126.522 748.9 127.826 749.111 129.68C749.333 131.638 749.202 132.936 750.274 134.59C751.606 136.646 755.571 137.949 755.571 137.949C755.571 137.949 757.309 133.795 757.638 130.972C757.86 129.068 758.333 127.85 757.638 126.063ZM744.46 116.244L701.696 115.598V114.177L744.46 114.823V116.244ZM756.604 143.375L750.92 139.629L751.824 189.628C751.824 189.628 751.279 195.26 751.824 198.801C752.397 202.522 753.182 204.571 754.796 207.973C755.434 209.32 755.558 210.272 756.604 211.333C757.761 212.506 759.594 211.808 760.351 213.271C760.954 214.435 760.895 215.436 760.351 216.63C759.995 217.412 759.201 217.494 758.93 218.309C758.363 220.009 759.71 221.549 761.385 222.185C762.375 222.561 763.06 222.397 764.098 222.185C768.016 221.386 767.831 217.05 769.136 213.271C770.339 209.789 770.279 207.629 770.687 203.968C771.519 196.497 771.425 192.199 770.687 184.718C769.985 177.608 767.198 166.76 767.198 166.76C767.198 166.76 764.793 158.089 762.289 152.936C760.391 149.029 756.604 143.375 756.604 143.375Z" stroke="white"/>
<path d="M720.984 228.257L723.272 236.213L725.016 254.63L724.362 273.7L725.016 293.424L726.214 303.886L729.919 316.853L734.06 327.751L725.016 311.732L720.984 301.124L720.221 293.424V281.874L719.567 265.2L718.695 251.254L719.567 233.707L720.984 228.257Z" stroke="white"/>
<path d="M755.016 130.186C754.982 128.563 753.796 127.782 752.398 126.958C751.003 126.136 748.317 126.227 748.317 126.227L749.353 130.977C749.353 130.977 750.563 131.928 751.484 132.195C752.58 132.514 753.579 132.981 754.407 132.195C755.002 131.631 755.016 130.186 755.016 130.186Z" fill="white"/>
<path d="M681.569 127.506C679.769 128.166 678.098 130.977 678.098 130.977L679.072 133.427C679.072 133.427 680.503 134.465 681.569 134.753C683.253 135.208 684.339 134.812 686.015 134.327C687.937 133.771 690.521 131.891 690.521 131.891V130.186L689.791 128.48C689.791 128.48 687.263 127.691 685.588 127.506C684.028 127.334 683.043 126.966 681.569 127.506Z" fill="white"/>
<path fill-rule="evenodd" clip-rule="evenodd" d="M741.806 178.613V179.512H723.922H717.25H710.105V178.613H717.24H723.922H732.904H737.703H741.806Z" fill="white"/>
<path d="M699.313 110.999C699.313 110.999 701.221 108.333 702.573 106.729C704.954 103.904 706.036 101.841 709.262 100.04C711.729 98.6617 713.376 98.2902 716.175 97.9057C718.524 97.5831 719.91 97.4985 722.246 97.9057C724.888 98.3664 726.307 99.0788 728.653 100.378C730.69 101.505 731.748 102.317 733.487 103.863C736.18 106.255 739.333 110.999 739.333 110.999H741.075C741.075 110.999 739.617 106.278 737.703 103.863C736.323 102.121 735.242 101.403 733.487 100.04C730.812 97.9607 729.217 96.7942 726.068 95.5438C723.321 94.4532 722.095 94.2464 719.145 94.0709C716.638 93.9218 714.585 94.0655 712.203 94.8627C710.32 95.4926 708.77 96.3988 707.148 97.5423C705.23 98.894 704.253 99.8023 702.573 101.44C701.15 102.827 701.144 103.007 699.875 104.536C698.801 105.83 698.103 106.519 697.346 108.021C696.708 109.285 696.419 110.056 696.165 111.449C695.862 113.112 696.19 114.087 696.165 115.777C696.115 119.249 695.772 124.658 695.772 124.658L695.322 133.427L693.242 136.687M691.388 118.419C691.388 118.419 692.272 111.782 694.142 108.021C695.674 104.938 697.012 103.442 699.313 100.882C701.109 98.8844 702.13 97.7224 704.315 96.1608C706.401 94.6708 707.683 93.9095 710.105 93.0693C713.161 92.0089 715.078 91.8609 718.311 91.9461C721.024 92.0175 722.576 92.2677 725.169 93.0693C727.861 93.9018 729.35 94.589 731.689 96.1608C733.754 97.5488 734.842 98.4927 736.466 100.378C737.754 101.872 739.333 104.536 739.333 104.536L741.806 108.021M734.274 111.449C734.274 111.449 731.566 107.176 728.935 105.49C726.304 103.804 724.674 103.351 721.581 102.904C719.602 102.618 718.166 102.718 716.175 102.904C713.731 103.134 712.316 103.471 710.105 104.536C708.673 105.226 707.899 105.713 706.676 106.729C704.707 108.365 702.573 111.842 702.573 111.842M707.978 121.014V126.453M744.356 138.979H739.333M742.56 120.341V132.195L707.978 131.891M707.978 131.891V138.979H739.333M707.978 131.891V126.453M735.711 119.442V126.227L707.978 126.453M707.148 141.674V152.34H741.806M743.57 146.277V152.34H741.806M739.333 138.979V146.838M741.806 152.34V178.613M741.806 193.546V179.512M741.806 193.546H742.56M741.806 193.546H723.922M705.059 193.546H706.676M750.307 193.546H742.56M748.317 178.613H741.806M705.732 145.267V178.613H710.105M737.703 158.628H737.058M710.105 193.546H717.409M710.105 193.546H709.262M710.105 193.546V179.512M737.058 158.628L737.703 178.613M737.058 158.628H732.904M737.703 178.613H732.904M737.703 178.613H741.806M732.904 158.628V178.613M732.904 158.628H723.922M732.904 178.613H723.922M723.922 158.628H717.013M723.922 158.628V178.613M723.922 193.546H717.409M723.922 193.546H742.56M723.922 193.546V179.512M717.013 158.628H710.105V178.613M717.013 158.628L717.24 178.613M717.409 193.546L717.25 179.512M749.353 179.512H741.806M705.732 179.512H706.676M706.676 179.512V193.546M706.676 179.512H710.105M742.56 193.546V199.722M742.56 199.722V201.967H706.676V193.546M742.56 199.722H709.262V193.546M709.262 193.546H706.676M690.521 138.53C690.521 138.53 693.655 143.976 695.772 147.4C696.753 148.987 698.322 151.442 698.322 151.442V153.687C698.322 153.687 693.7 149.862 691.388 146.838C689.698 144.63 687.656 140.775 687.656 140.775M684.961 143.021V146.277C684.961 146.277 686.446 148.728 687.656 150.095C689.511 152.191 691.364 152.51 693.242 154.586C694.55 156.03 694.627 157.433 696.165 158.628C696.932 159.223 698.322 159.863 698.322 159.863M681.569 146.838C681.569 146.838 683.951 150.504 686.015 152.34C687.368 153.544 689.068 153.373 689.791 155.035C690.35 156.322 689.57 157.242 689.791 158.628C689.956 159.663 689.459 160.245 690.521 161.21C691.584 162.175 692.18 162.716 693.242 163.68M698.322 161.21C698.322 161.21 696.67 163.95 695.322 165.477C693.682 167.336 690.521 169.631 690.521 169.631M699.313 166.038C699.313 166.038 694.484 169.146 693.242 172.326C692.736 173.622 692.484 175.806 692.484 175.806M692.484 177.603L695.772 184.227L697.346 189.953L695.772 193.546L695.322 197.252L694.142 199.722M680.133 150.095C680.133 150.095 681.935 153.633 683.389 155.708C684.587 157.419 685.536 158.168 686.757 159.863C688.408 162.154 690.521 166.038 690.521 166.038M675.529 154.586C675.529 154.586 681.015 160.423 684.961 163.68C686.794 165.194 689.791 167.385 689.791 167.385M675.529 157.168L684.961 167.385C684.961 167.385 687.117 169.662 688.778 170.754C689.436 171.186 690.521 171.764 690.521 171.764M674.294 159.863L678.098 164.578C678.098 164.578 681.556 168.611 684.175 170.754C685.879 172.148 688.778 174.01 688.778 174.01M673.059 162.67C673.059 162.67 676.071 167.221 678.561 169.631C680.559 171.565 681.794 172.575 684.175 174.01C685.485 174.799 687.656 175.806 687.656 175.806M671.263 170.754C671.263 170.754 677.087 174.107 681.031 175.806C682.788 176.563 683.687 177.392 685.588 177.603C686.391 177.692 687.656 177.603 687.656 177.603M669.691 175.806C669.691 175.806 673.085 178.363 675.529 179.512C677.781 180.569 679.108 181.174 681.569 181.533C683.574 181.825 686.757 181.533 686.757 181.533H688.778M669.691 182.094C669.691 182.094 673.827 184.695 676.652 186.024C678.531 186.907 681.569 188.045 681.569 188.045M669.691 186.024C669.691 186.024 672.299 188.687 674.294 189.953C676.4 191.289 677.783 191.702 680.133 192.536C681.388 192.981 683.389 193.546 683.389 193.546M668.231 192.536C668.231 192.536 670.438 195.085 672.273 196.129C674.332 197.299 675.8 197.24 678.098 197.813C679.446 198.149 681.569 198.599 681.569 198.599M668.231 197.252C668.231 197.252 672.092 199.994 674.856 201.181C677.7 202.404 682.491 203.315 682.491 203.315L684.175 203.876M668.231 203.315C668.231 203.315 673.567 206.291 677.326 207.132C679.651 207.652 683.389 207.806 683.389 207.806M669.691 208.367C669.691 208.367 672.21 210.949 674.294 211.735C675.873 212.331 676.879 212.283 678.561 212.409C680.091 212.524 682.491 212.409 682.491 212.409L684.961 211.735M757.286 143.021C757.286 143.021 757.449 145.971 756.455 147.4C755.603 148.624 754.697 149.013 753.315 149.574C752.626 149.854 751.484 150.095 751.484 150.095M760.426 148.928C760.426 148.928 759.43 151.249 758.302 152.34C757.66 152.961 756.455 153.687 756.455 153.687C756.455 153.687 755.095 155.173 753.962 155.708C752.654 156.327 750.307 156.316 750.307 156.316M761.719 153.687C761.719 153.687 761.48 155.872 760.98 157.168C760.299 158.935 759.402 159.669 758.302 161.21C757.602 162.19 756.455 163.68 756.455 163.68M764.397 155.708C764.397 155.708 763.692 158.66 762.827 160.379C761.927 162.171 761.146 163.03 759.872 164.578C758.925 165.729 758.414 166.41 757.286 167.385C756.101 168.41 753.962 169.631 753.962 169.631M767.168 165.477C767.168 165.477 765.594 168.757 764.397 170.754C763.811 171.732 763.585 172.363 762.827 173.216C761.869 174.295 761.12 174.708 759.872 175.432C758.615 176.163 757.802 176.363 756.455 176.91C755.239 177.404 753.315 178.111 753.315 178.111M768.091 169.631C768.091 169.631 766.569 173.116 765.044 174.971C763.91 176.35 763.093 176.97 761.719 178.111C759.578 179.889 755.809 182.094 755.809 182.094L753.315 183.375M769.938 180.327C769.938 180.327 767.941 183.312 766.429 185.037C765.344 186.275 764.737 186.988 763.474 188.045C762.17 189.135 761.322 189.599 759.872 190.486C757.655 191.842 753.962 193.546 753.962 193.546M770.954 185.037C770.954 185.037 768.859 187.945 767.168 189.47C765.626 190.859 764.624 191.497 762.827 192.536C760.775 193.722 759.505 194.177 757.286 195.011C756.004 195.493 753.962 196.129 753.962 196.129M771.693 191.686C771.693 191.686 769.908 195.101 768.091 196.673C766.005 198.478 764.243 198.608 761.719 199.722C760.004 200.479 757.286 201.568 757.286 201.568L755.809 201.967M772.155 197.252C772.155 197.252 769.341 199.988 767.168 201.181C764.928 202.412 763.405 202.506 760.98 203.315C759.541 203.795 757.286 204.523 757.286 204.523M771.693 201.568C771.693 201.568 769.202 204.545 767.168 205.908C765.228 207.207 763.878 207.478 761.719 208.367C760.396 208.912 758.302 209.695 758.302 209.695H757.286M691.997 205.908L702.131 211.735C702.131 211.735 711.199 215.816 717.409 216.707C725.992 217.938 739.509 214.566 739.509 214.566M691.997 211.735C691.997 211.735 696.617 215.772 700.061 217.579C702.769 219 704.386 219.707 707.362 220.412C710.151 221.074 714.663 221.175 714.663 221.175M693.242 216.707C693.242 216.707 696.903 221.338 700.061 223.245C702.119 224.489 703.507 224.732 705.732 225.643C707.434 226.339 710.105 227.386 710.105 227.386M692.484 222.592C694.319 223.609 698.644 225.643 698.644 225.643C698.644 225.643 700.678 226.805 701.368 227.386C702.059 227.968 702.887 229.174 704.202 229.784C706.293 230.754 710.105 229.784 710.105 229.784M694.142 228.694L698.644 231.636C698.644 231.636 700.712 232.624 702.131 232.944C704.415 233.459 708.125 232.944 708.125 232.944H710.958M692.484 232.944C694.382 234.348 695.447 235.136 697.346 236.54C699.244 237.945 699.779 237.521 701.368 238.066C703.674 238.856 707.362 239.809 707.362 239.809H710.958M694.142 238.066L695.772 240.681C695.772 240.681 697.435 242.138 698.644 242.861C700.632 244.049 701.959 244.354 704.202 244.931C706.458 245.512 707.779 245.655 710.105 245.803C711.881 245.916 714.663 245.803 714.663 245.803M693.242 242.861L697.346 245.803C697.346 245.803 699.632 247.762 701.368 248.527C703.814 249.605 705.458 249.443 708.125 249.617C709.951 249.736 712.811 249.617 712.811 249.617M693.242 247.764C693.242 247.764 694.51 249.919 695.772 250.816C697.21 251.837 698.361 251.762 700.061 252.232C701.986 252.765 703.072 253.11 705.059 253.322C707.018 253.532 708.134 253.322 710.105 253.322C711.587 253.322 713.9 253.322 713.9 253.322M727.195 225.643C727.195 225.643 735.015 225.196 739.509 223.245C741.098 222.556 743.432 221.175 743.432 221.175M744.413 224.88C744.413 224.88 740.455 227.534 737.656 228.694C733.785 230.299 727.195 231.092 727.195 231.092H724.689M744.413 232.944C744.413 232.944 739.916 234.34 737.003 235.124C734.8 235.716 733.601 236.266 731.336 236.54C729.139 236.806 725.669 236.54 725.669 236.54M744.413 237.085C744.413 237.085 739.916 238.481 737.003 239.265C734.8 239.857 733.605 240.45 731.336 240.681C729.727 240.845 727.195 240.681 727.195 240.681M744.413 241.226C744.413 241.226 739.95 242.873 737.003 243.623C734.439 244.277 732.994 244.74 730.355 244.931C728.785 245.045 726.323 244.931 726.323 244.931M745.503 246.784C745.503 246.784 742.282 247.96 740.163 248.527C736.412 249.53 730.355 250.162 730.355 250.162L726.323 250.816M725.669 258.226H739.509L747.791 257.463H750.307M720.003 258.226H711.612H697.346L693.242 256.591M724.689 274.245C724.689 274.245 726.775 276.868 728.612 277.841C731.516 279.38 733.717 278.572 737.003 278.495C739.526 278.435 743.432 277.841 743.432 277.841C743.432 277.841 746.202 277.848 747.791 277.187C749.879 276.319 752.15 273.373 752.15 273.373M750.307 277.187L747.791 280.02C747.791 280.02 746.526 281.685 745.503 282.527C744.225 283.578 743.368 284.052 741.806 284.597C740.019 285.221 737.003 285.251 737.003 285.251C737.003 285.251 733.99 285.553 732.099 285.251C731.059 285.085 730.467 284.973 729.483 284.597C726.855 283.595 723.922 280.02 723.922 280.02L723.163 283.29C723.163 283.29 725.779 286.024 727.849 287.213C729.138 287.953 729.891 288.389 731.336 288.738C733.28 289.208 736.458 288.738 736.458 288.738C736.458 288.738 739.324 288.485 741.035 287.867C742.431 287.362 743.11 286.834 744.413 286.123C747.533 284.42 752.15 281.328 752.15 281.328M751.387 283.29C751.387 283.29 749.491 286.358 747.791 287.867C745.555 289.85 743.884 290.56 741.035 291.463C738.774 292.179 737.411 292.548 735.041 292.443C733.173 292.361 730.355 291.463 730.355 291.463L723.922 288.738M723.922 291.463C723.922 291.463 726.108 295.722 728.612 297.129C729.867 297.835 732.099 298.328 732.099 298.328L739.509 299.309C739.509 299.309 743.913 299.458 746.374 298.328C748.707 297.257 751.387 294.078 751.387 294.078M723.922 299.309C723.922 299.309 727.797 300.786 730.355 301.488C732.416 302.054 733.567 302.493 735.695 302.687C737.178 302.822 739.509 302.687 739.509 302.687L745.503 302.142L752.15 299.309M726.323 304.648C727.34 305.593 729.571 307.569 730.355 307.918C730.355 307.918 734.031 309.009 736.458 309.116C739.596 309.256 744.413 307.918 744.413 307.918M727.849 311.187C727.849 311.187 733.298 313.494 737.003 314.02C742.164 314.753 750.307 312.93 750.307 312.93M730.355 317.507C730.355 317.507 733.107 319.065 735.041 319.578C738.209 320.417 740.713 321.109 744.413 320.994C747.483 320.899 752.15 319.578 752.15 319.578M720.003 275.553C720.003 275.553 716.354 277.164 713.9 277.841C710.013 278.914 707.685 279.332 703.657 279.149C701.685 279.059 700.549 279.012 698.644 278.495C695.317 277.593 690.907 274.245 690.907 274.245M691.758 277.187L695.048 281.328C695.048 281.328 696.732 282.559 697.346 283.29C698.568 284.745 698.472 284.209 700.061 285.251C700.061 285.251 704.314 287.213 705.732 287.213C710.105 287.213 710.799 286.98 713.9 286.123C715.6 285.653 718.15 284.597 718.15 284.597M718.15 286.123C718.15 286.123 715.761 288.381 713.9 289.283C711.55 290.423 709.974 290.643 707.362 290.7C704.458 290.763 702.742 290.399 700.061 289.283C698.53 288.646 697.693 288.192 696.356 287.213C694.619 285.941 692.484 283.29 692.484 283.29M692.484 286.123C692.484 286.123 694.911 288.951 697.346 290.7C698.909 291.823 700.874 292.858 702.676 293.533C704.401 294.18 705.522 294.339 707.362 294.432C708.765 294.502 709.557 294.532 710.958 294.432C712.417 294.327 713.311 294.091 714.663 293.533C715.439 293.213 716.516 292.443 716.516 292.443M692.484 290.7C692.484 290.7 693.98 293.106 695.625 294.256C696.486 294.858 697.998 295.779 697.998 295.779C700.483 297.301 702.078 298.392 704.94 298.943C706.534 299.25 707.592 299.309 709.214 299.309C712.066 299.309 716.863 298.738 716.863 298.738M693.242 295.495C693.242 295.495 695.695 297.295 697.346 298.328C698.878 299.287 699.723 299.868 701.368 300.616C703.012 301.364 703.974 301.735 705.732 302.142C707.731 302.605 708.909 302.584 710.958 302.687C712.871 302.783 713.947 302.687 715.862 302.687C716.756 302.687 718.15 302.687 718.15 302.687M695.048 302.142C695.048 302.142 698.685 304.81 701.368 305.738C703.894 306.612 705.46 306.619 708.125 306.828C710.67 307.027 712.11 306.828 714.663 306.828C716.408 306.828 719.131 306.828 719.131 306.828M699.407 309.116C699.407 309.116 705.345 310.537 709.214 310.533C711.823 310.531 715.862 309.879 715.862 309.879M701.368 315.437C701.368 315.437 704.014 315.96 705.732 316.091C709.219 316.355 711.167 315.532 714.663 315.437C716.748 315.38 720.003 315.437 720.003 315.437M701.368 318.597C701.368 318.597 705.369 320.501 708.125 320.994C711.099 321.527 712.871 321.426 715.862 320.994C718.079 320.674 721.419 319.578 721.419 319.578M733.733 326.661C733.733 326.661 740.929 327.834 745.503 327.315C748.14 327.015 752.15 325.898 752.15 325.898M705.059 207.132C705.059 207.132 714.082 209.644 720.003 209.695C723.376 209.724 725.248 209.241 728.612 208.979C731.887 208.723 737.003 208.367 737.003 208.367M741.806 178.613V179.512M741.806 179.512H723.922M710.105 179.512V178.613M710.105 179.512H717.25M710.105 178.613H717.24M723.922 178.613H717.24M723.922 178.613V179.512M717.24 178.613L717.25 179.512M717.25 179.512H723.922M752.398 126.958C753.796 127.782 754.982 128.563 755.016 130.186C755.016 130.186 755.002 131.631 754.407 132.195C753.579 132.981 752.58 132.514 751.484 132.195C750.563 131.928 749.353 130.977 749.353 130.977L748.317 126.227C748.317 126.227 751.003 126.136 752.398 126.958ZM678.098 130.977C678.098 130.977 679.769 128.166 681.569 127.506C683.043 126.966 684.028 127.334 685.588 127.506C687.263 127.691 689.791 128.48 689.791 128.48L690.521 130.186V131.891C690.521 131.891 687.937 133.771 686.015 134.327C684.339 134.812 683.253 135.208 681.569 134.753C680.503 134.465 679.072 133.427 679.072 133.427L678.098 130.977Z" stroke="white"/>
<defs>
<radialGradient id="paint0_radial_24290_3331" cx="0" cy="0" r="1" gradientUnits="userSpaceOnUse" gradientTransform="translate(693.194 244.95) rotate(90) scale(153.366 516.953)">
<stop stop-color="#404840"/>
<stop offset="0.993279" stop-color="#333333"/>
</radialGradient>
</defs>
</svg>
