<svg width="1429" height="212" viewBox="0 0 1429 212" fill="none" xmlns="http://www.w3.org/2000/svg">
<path d="M0.03125 70.1914L1427.73 70.1914V211.043H0.03125V70.1914Z" fill="url(#paint0_radial_24652_1468)"/>
<mask id="mask0_24652_1468" style="mask-type:alpha" maskUnits="userSpaceOnUse" x="-1" y="0" width="1430" height="212">
<path d="M0.03125 25.6914L15.2533 0.617188L1414.72 2.09085L1427.73 27.2175L1419.75 39.3373L1392.55 52.0485L1354.42 62.0991L1292.64 67.42L1220.51 84.8608L1195.08 86.3389L1146.9 82.2004L1098.13 78.6531L1071.23 75.1058L1039.89 78.6531L1002.35 92.251L950.913 111.465L924.604 117.082H901.843L887.653 124.177L856.91 146.643L808.135 179.751L711.471 209.311L679.65 211.041L641.148 200.296L611.599 194.924L594.586 200.296L556.979 194.924L502.358 177.015L455.1 162.689L412.817 155.525H356.406L311.635 137.617L283.877 132.245L260.597 137.617H241.793L205.081 125.977L173.742 105.382L148.67 93.7419H122.703L97.6314 86.5786L61.8148 73.1474H51.9653L34.9524 63.2978L10.0995 44.4942L0.03125 25.6914Z" fill="#D9D9D9" stroke="white" stroke-width="0.5"/>
</mask>
<g mask="url(#mask0_24652_1468)">
<path d="M3.19211 71.2148H1439.81" stroke="white" stroke-width="0.5"/>
<path d="M2.85175 70.6914H1439.47" stroke="white" stroke-width="0.5"/>
<path d="M3.09027 71.7305H1439.71" stroke="white" stroke-width="0.5"/>
<path d="M3.14117 72.3672H1439.76" stroke="white" stroke-width="0.5"/>
<path d="M3.06482 73.418H1439.68" stroke="white" stroke-width="0.5"/>
<path d="M3.06482 74.4609H1439.68" stroke="white" stroke-width="0.5"/>
<path d="M3.06482 75.5312H1439.68" stroke="white" stroke-width="0.5"/>
<path d="M3.06482 76.6523H1439.68" stroke="white" stroke-width="0.5"/>
<path d="M3.06482 78.2031H1439.68" stroke="white" stroke-width="0.5"/>
<path d="M3.06482 79.875H1439.68" stroke="white" stroke-width="0.5"/>
<path d="M3.06482 81.75H1439.68" stroke="white" stroke-width="0.5"/>
<path d="M3.06482 83.75H1439.68" stroke="white" stroke-width="0.5"/>
<path d="M3.06482 85.832H1439.68" stroke="white" stroke-width="0.5"/>
<path d="M2.98325 87.8711H1439.6" stroke="white" stroke-width="0.5"/>
<path d="M2.98325 90.2383H1439.6" stroke="white" stroke-width="0.5"/>
<path d="M2.98325 92.7656H1439.6" stroke="white" stroke-width="0.5"/>
<path d="M2.98325 95.457H1439.6" stroke="white" stroke-width="0.5"/>
<path d="M2.98325 98.1094H1439.6" stroke="white" stroke-width="0.5"/>
<path d="M2.98325 100.898H1439.6" stroke="white" stroke-width="0.5"/>
<path d="M2.98325 103.652H1439.6" stroke="white" stroke-width="0.5"/>
<path d="M2.98325 106.672H1439.6" stroke="white" stroke-width="0.5"/>
<path d="M2.98325 109.711H1439.6" stroke="white" stroke-width="0.5"/>
<path d="M2.98325 113.328H1439.6" stroke="white" stroke-width="0.5"/>
<path d="M2.98325 117.262H1439.6" stroke="white" stroke-width="0.5"/>
<path d="M2.98325 121.293H1439.6" stroke="white" stroke-width="0.5"/>
<path d="M2.98325 125.617H1439.6" stroke="white" stroke-width="0.5"/>
<path d="M2.98325 130.355H1439.6" stroke="white" stroke-width="0.5"/>
<path d="M2.98325 135.117H1439.6" stroke="white" stroke-width="0.5"/>
<path d="M2.98325 140.238H1439.6" stroke="white" stroke-width="0.5"/>
<path d="M2.98325 146.199H1439.6" stroke="white" stroke-width="0.5"/>
<path d="M2.98325 153.164H1439.6" stroke="white" stroke-width="0.5"/>
<path d="M2.98325 160.621H1439.6" stroke="white" stroke-width="0.5"/>
<path d="M2.98325 168.379H1439.6" stroke="white" stroke-width="0.5"/>
<path d="M2.98325 176.449H1439.6" stroke="white" stroke-width="0.5"/>
<path d="M2.98325 184.742H1439.6" stroke="white" stroke-width="0.5"/>
<path d="M2.98325 192.996H1439.6" stroke="white" stroke-width="0.5"/>
<path d="M2.98325 201.738H1439.6" stroke="white" stroke-width="0.5"/>
<path d="M2.98325 211.152H1439.6" stroke="white" stroke-width="0.5"/>
<path d="M2.98325 87.8711H1439.6" stroke="white" stroke-width="0.5"/>
<path d="M427.992 196.25L528.29 70.5039M545.879 228.437L579.561 70.5039M595.279 238.541L592.285 70.5039M603.887 70.5039L646.551 246.026M718.032 243.406L614.74 70.5039" stroke="white" stroke-width="0.5"/>
</g>
<path d="M842.854 71.1328H350.586L592.548 76.6936L842.854 71.1328Z" fill="white" stroke="white"/>
<path d="M744.591 75.9375H448.41L593.99 85.062L744.591 75.9375Z" fill="white"/>
<path d="M657.565 83.1875H535.875L595.689 86.9364L657.565 83.1875Z" fill="white"/>
<path d="M459.173 70.1914H733.827" stroke="white" stroke-width="0.5"/>
<path d="M467.996 69.6875H725.005" stroke="white" stroke-width="0.5"/>
<path d="M506.738 69.1602H686.261" stroke="white" stroke-width="0.5"/>
<path d="M530.614 68.6875H662.385" stroke="white" stroke-width="0.5"/>
<path d="M540.959 68.1484H652.041" stroke="white" stroke-width="0.5"/>
<path d="M569.869 67.6797H623.131" stroke="white" stroke-width="0.5"/>
<path d="M588.571 67.2734H604.43" stroke="white" stroke-width="0.5"/>
<path d="M588.571 67.2734H604.43" stroke="white" stroke-width="0.5"/>
<path d="M593.945 66.457H599.056" stroke="white" stroke-width="0.5"/>
<ellipse cx="596.5" cy="77.1323" rx="222.833" ry="37.2299" fill="url(#paint1_radial_24652_1468)"/>
<defs>
<radialGradient id="paint0_radial_24652_1468" cx="0" cy="0" r="1" gradientUnits="userSpaceOnUse" gradientTransform="translate(586.067 70.1914) scale(595.698 58.7695)">
<stop stop-color="#667D68"/>
<stop offset="1" stop-color="#3A473B"/>
</radialGradient>
<radialGradient id="paint1_radial_24652_1468" cx="0" cy="0" r="1" gradientUnits="userSpaceOnUse" gradientTransform="translate(596.5 77.1323) rotate(90) scale(37.2299 222.833)">
<stop stop-color="white" stop-opacity="0.65"/>
<stop offset="1" stop-color="#898989" stop-opacity="0"/>
</radialGradient>
</defs>
</svg>
