<svg width="1923" height="469" viewBox="0 0 1923 469" fill="none" xmlns="http://www.w3.org/2000/svg">
<path d="M-16 5.79598C-16 5.79598 13.9871 -1.09263 31 5.79598C39.6345 9.29212 42.8554 14.2745 51 18.796C60.0142 23.8002 64.9832 27.354 75 29.796C87.5206 32.8483 95.1972 28.3229 108 29.796C124.469 31.6908 132.955 36.6271 149 40.796C167.701 45.655 178.268 48.0557 197 52.796C213.804 57.0483 224.581 55.8771 240 63.796C254.323 71.1522 258.092 81.683 272 89.796C284.403 97.0311 291.744 105.513 306 103.796C317.109 102.458 331 89.796 331 89.796H355.921H359.273H363L374 127.796L388 135.796L420 162.796V192.796L437 208.796V215.035V261.796L470 313.796C470 313.796 487.76 352.354 506 371.796C522.032 388.884 554 407.796 554 407.796L574 492.796H-16V5.79598Z" fill="#333333"/>
<path d="M1571.74 318.744C1587.8 301.931 1618.24 281.543 1618.24 281.543C1618.24 281.543 1627 271.036 1640.18 257.657C1656.98 240.599 1680.96 218.872 1703.1 208.305C1719.17 200.636 1732.18 204.285 1746.11 193.192C1762.01 180.526 1771.69 147.855 1771.69 147.855L1789.12 118.792L1805.4 87.4075C1805.4 87.4075 1810.67 75.3276 1815.86 68.8061C1820.58 62.8772 1824.55 58.876 1829.66 55.44C1831.59 54.1413 1833.68 52.9233 1836.04 51.7124C1837.02 51.2109 1838.04 50.7106 1839.11 50.2063C1850.8 44.7171 1859.81 49.5316 1871.66 44.3916L1875.36 45.9713L1918.34 18.4651L1934.13 8.35547V74.2944L1936.38 75.4092L1934.13 74.7371V489.63H1385.74C1385.74 489.63 1416.3 473.057 1450.9 459.16C1468.55 452.073 1492.63 454.955 1503.15 441.966C1503.15 431.477 1511.94 423.309 1517.86 414.262L1522.07 406.002C1527.81 390.893 1531.05 378.03 1531.05 378.03C1531.05 378.03 1548.83 345.471 1566.7 324.368C1568.38 322.379 1570.07 320.492 1571.74 318.744Z" fill="#333333"/>
<path d="M1539.13 365.595L1585.05 338.877L1645.16 318.84L1716.13 325.518H1762.88L1828.01 307.985L1940.72 263.736M1539.13 371.135L1595.18 344.289L1645.16 329.778L1711 341.387L1768.59 344.289L1833.16 329.778L1934.02 292.774M1934.02 237.631L1817.93 283.342L1746.09 292.774L1695 297.854H1663.38L1629.28 302.933L1551.92 344.289M1571.23 318.84L1640.89 275.361L1722.88 271.008L1797.61 257.222L1854.2 232.553L1948.53 192.646M1934.02 161.447L1862.91 192.646L1802.69 217.315L1762.88 232.553L1711 245.612L1659.03 252.142L1632.89 263.736M1667.01 232.553L1722.88 217.315L1768.59 209.334L1802.69 188.292L1862.91 157.818L1930.39 127.345M1756.98 182.488L1782.37 165.8L1817.93 151.289L1854.2 135.326L1881.05 122.266L1921.68 112.832H1940.72M1934.02 104.126H1912.25H1881.05L1848.4 112.832L1823 127.345L1797.61 144.757L1762.88 168.701L1772.94 151.289L1797.61 122.266L1823 104.126L1848.4 91.7911H1868.71H1906.44L1921.68 96.146M1930.39 91.7911L1894.84 76.5558H1868.71L1843 85.9871L1797.61 112.832L1787.45 122.266M1802.69 100.498L1823 76.5558L1843.84 65.9319L1861.48 62.3438L1893.33 66.9784L1912.25 76.5558L1930.39 82.3597M1934.02 76.5558L1906.44 64.9461L1881.05 56.9648H1854.2L1841.1 60.9555L1828.01 64.9461L1808.49 82.3597" stroke="white"/>
<path d="M1438.94 462.342L1442.69 473.576M1468.9 452.356L1478.89 473.576M1495.74 446.113L1513.21 480.441M1513.21 424.271L1534.43 446.113L1556.9 489.18M1525.7 407.417L1550.66 429.886L1580.62 489.18M1530.69 386.821L1556.9 399.304L1580.62 418.027L1618.07 473.576L1629.3 494.797M1531.99 380.578L1580.62 389.941L1613.08 407.417L1648.03 446.113L1670.5 480.441M1540.68 372.464H1603.09L1640.54 386.821L1674.87 433.632L1689.22 455.477L1701.71 489.18M1601.84 351.152L1648.03 365.601L1683.61 380.578L1701.71 407.417L1731.04 452.356L1746.02 489.18M1668.72 348.882L1720.43 380.578L1746.02 410.537L1775.98 462.342L1782.84 480.441M1746.02 372.464L1769.74 386.821L1793.45 399.304L1809.68 424.271L1840.27 484.186M1808.42 361.454L1840.27 399.304L1888.32 484.186M1850.68 351.326L1882.08 389.941L1921.4 484.186M1888.32 340.633L1913.91 365.601L1936.38 410.537" stroke="white"/>
<path d="M553.753 410.941L478.74 399.409L374.47 481.4M553.753 415.655L484.459 413.298L401.966 481.4M556.581 421.783L492.944 427.911L440.148 485.42M560.352 427.911L509 448.18L478.74 492.491M563.652 442.524L538.668 459.965L520.284 492.491M547.181 404.665L464.103 375.966L342.507 481.4M525 391.072C521.227 387.447 477.291 363.883 455.795 352.554L289.639 481.4M435.403 318.567L237.527 481.4M421.053 302.707L179.372 481.4" stroke="white"/>
<path d="M404 292.695L286 365.695L143 480.695M394 276.695L263 342.695L91 480.695M382 263.695L228 316.695L53 480.695M367 246.695L193 281.695L15 480.695M332 225.695L179 238.695L-6 460.695M312 211.695L143 199.695L-22 426.695M286 193.695L113 153.695L-17 375.695M243.151 165.77L74 115.695L-17 307.695M147.354 122.491L62 78.6953L-17 233.695M113 87.6953L47 44.6953L-17 184.695M74 44.6953L27 16.6953L-17 124.695" stroke="white"/>
<path d="M84.9491 55.696H114L110.66 30.4258M131 34.696L140 68.696H97.415M114 82.696H140L155.459 71.3297L148.837 41.3338M166.367 47.696L172.989 77.9522L164.029 88.4709L142.214 91.1978H118.841M127.411 100.937L152 104.053L166.367 100.937L180.391 97.8202L191.298 88.4709L188.961 68.696L182.338 51.0734M196.752 55.696L205.712 63.9288L213.113 82.696L209.997 100.937L184.286 113.013L162.082 116.519L135.981 113.013M148.837 124.7H176.885L220.126 113.013L228 100.937L231.812 79.5104L220.126 55.696M241.162 61.696L247.005 82.696L241.162 106.39L231.812 120.415M262.198 82.696V97.8202L252.848 116.519M276.222 91.1978L283.623 100.937L260.25 113.013M121.25 30.4258L123.717 61.696H92.3538M80 51.0734H102.926H107.859L102.926 30.4258M97.415 30.4258V43.1721H75.7912M69.0956 37.1813H89.1823V30.4258" stroke="white"/>
<path d="M479.96 348.696L419 262.696L425 210.696L410 195.696V157.696M414.125 155.475V192.483L428.539 207.677V262.696L488.141 355.708M469.832 340.126L410 257.151L419 210.696L402.049 198.717V150.022M396.985 142.228V202.61L410 213.13L402.049 257.151L462.82 335.841M453.47 328.829C454.201 325.7 411.963 277.662 390.752 254.034L402.049 215.857L390.752 202.61V137.556L380.623 132.102L384.908 202.61L395.037 215.857L384.908 252.474L442.952 319.478M372.053 126.258L378.286 202.61L386.856 215.857L380.623 252.474L428.539 307.012M360 90.418C360.916 92.2878 366.599 165.991 369.326 202.61L376 221.309L372.053 252.474M352.186 90.418L360 198.717L367.378 221.309L364.262 243.124M354.912 237.281L358.029 221.309L347.511 195.696L343.615 90.418M333.876 90.418L336.214 195.696L345.173 221.309L343.615 231.827L330.76 225.594V213.13L320.631 188.976L322.969 97.0405M311.672 102.105L307.776 186.249L317.515 215.857L303.88 205.727L291.025 177.289L296.868 107.169M282.065 109.506L277.39 174.562L284.792 195.696M269.21 183.133L257.523 163.265L265.704 113.012M250.511 115.739L242.33 150.022L250.511 169.109M233.76 160.538L225.19 144.177L233.76 119.635M217.788 122.751L207.27 137.556L217.788 155.475M201.816 150.022L192.857 137.556L201.816 126.258" stroke="white"/>
<path d="M1897.37 49.4961L1928.74 21.4336M1903.98 51.8079C1905.03 49.9584 1925.1 32.1095 1935.01 23.4163M1909.59 55.1092L1932.7 31.9998M1915.53 58.0804L1941.28 31.9998" stroke="white"/>
<path d="M1389.24 485.931C1389.24 485.931 1419.79 469.357 1454.4 455.461C1472.04 448.373 1496.13 451.256 1506.65 438.267M1506.65 438.267L1521.36 410.563M1506.65 438.267C1506.65 427.778 1515.44 419.61 1521.36 410.563M1534.55 374.331C1534.55 374.331 1531.14 387.895 1525.09 403.527M1534.55 374.331L1537.68 373.347M1534.55 374.331C1534.55 374.331 1552.33 341.772 1570.2 320.669M1875.16 40.6924C1863.31 45.8323 1854.3 41.0179 1842.61 46.507C1841.53 47.0114 1840.51 47.5117 1839.54 48.0132M1875.16 40.6924C1883.59 37.0335 1887.15 32.8216 1894.92 27.9067C1909.72 18.54 1933.28 4.65625 1933.28 4.65625M1875.16 40.6924L1878.86 42.2721M1933.28 330.155L1749.61 374.331L1706.6 361.542C1706.6 361.542 1665.64 343.497 1638.01 344.105C1612.57 344.664 1575.23 361.542 1575.23 361.542L1540.81 372.363M1525.09 403.527L1521.36 410.563M1525.09 403.527C1524.15 405.962 1522.85 408.29 1521.36 410.563M1839.54 48.0132L1849.37 46.507H1865.36H1871.14H1878.86L1888.23 50.0136L1898.16 55.8017L1917.73 65.1068L1926.52 67.7289M1839.54 48.0132C1837.18 49.224 1835.09 50.442 1833.16 51.7408M1833.16 51.7408C1828.05 55.1768 1824.08 59.1779 1819.36 65.1068C1814.17 71.6284 1808.9 83.7083 1808.9 83.7083L1792.62 115.093L1775.18 144.156C1775.18 144.156 1765.51 176.827 1749.61 189.493C1735.68 200.586 1722.66 196.937 1706.6 204.606C1684.45 215.173 1660.48 236.899 1643.67 253.958M1833.16 51.7408L1875.16 43.9498H1877.48L1926.52 67.7289M1926.52 67.7289L1939.88 71.71L1926.52 65.1068L1904.82 53.3424L1888.79 46.507M1643.67 253.958C1630.5 267.337 1621.73 277.844 1621.73 277.844C1621.73 277.844 1591.3 298.232 1575.23 315.045C1573.56 316.793 1571.88 318.68 1570.2 320.669M1643.67 253.958L1621.73 283.139M1621.73 283.139L1570.2 327.932M1621.73 283.139L1584.19 310.668L1570.2 327.932M1570.2 327.932L1540.81 372.363M1540.81 372.363L1537.68 373.347M1540.81 372.363L1521.36 410.563M1537.68 373.347L1570.2 320.669M1878.86 42.2721L1882.8 43.9498M1878.86 42.2721L1921.83 14.7659M1882.8 43.9498L1936.29 5.61291M1882.8 43.9498L1885.79 45.2284M1888.79 46.507L1936.29 5.61291M1888.79 46.507L1885.79 45.2284M1936.29 5.61291L1937.63 4.65625L1921.83 14.7659M1885.79 45.2284L1921.83 14.7659" stroke="white" stroke-width="4"/>
<path d="M-16 5.69441C-16 5.69441 13.9871 -1.19419 31 5.69441C39.6345 9.19056 42.8554 14.1729 51 18.6944M51 18.6944C60.0142 23.6987 64.9832 27.2524 75 29.6944C87.5206 32.7468 95.1972 28.2214 108 29.6944C124.469 31.5893 132.955 36.5255 149 40.6944C167.701 45.5534 178.268 47.9541 197 52.6944C213.804 56.9468 224.581 55.7756 240 63.6944C254.323 71.0506 258.092 81.5814 272 89.6944C284.403 96.9295 291.744 105.412 306 103.694M51 18.6944L159.692 135.694M306 103.694C317.109 102.356 331 89.6944 331 89.6944H359.273M306 103.694L159.692 135.694M374 127.694L363 89.6944H359.273M374 127.694L388 135.694L420 162.694V192.694L437 208.694V214.934M374 127.694L359.273 89.6944M506 371.694C487.76 352.252 470 313.694 470 313.694L437 261.694V214.934M506 371.694C522.032 388.783 554 407.694 554 407.694L574 492.694M506 371.694L412.792 295.141L363 244.343L314.76 214.934L240 162.694L159.692 135.694M355.921 89.6944L369.891 127.694L392.242 143.003L416.928 165.355V192.694L437 214.934" stroke="white" stroke-width="4"/>
</svg>
