<svg width="1923" height="1182" viewBox="0 0 1923 1182" fill="none" xmlns="http://www.w3.org/2000/svg">
<g opacity="0.35">
<mask id="mask0_22956_840" style="mask-type:alpha" maskUnits="userSpaceOnUse" x="-1837" y="-30" width="5827" height="1212">
<path d="M-106.636 652.647L789.591 1165.39" stroke="white" stroke-width="0.5"/>
<path d="M-1158.36 -13.6982L902.591 1165.39" stroke="white" stroke-width="0.5"/>
<path d="M-332.584 652.647L563.642 1165.39" stroke="white" stroke-width="0.5"/>
<path d="M-1384.31 -13.6982L676.641 1165.39" stroke="white" stroke-width="0.5"/>
<path d="M-558.584 652.647L337.642 1165.39" stroke="white" stroke-width="0.5"/>
<path d="M-1610.31 -13.6982L450.642 1165.39" stroke="white" stroke-width="0.5"/>
<path d="M-784.533 652.647L111.693 1165.39" stroke="white" stroke-width="0.5"/>
<path d="M-1836.25 -13.6982L224.693 1165.39" stroke="white" stroke-width="0.5"/>
<path d="M-376.1 -18.79L1692 1164.39" stroke="white" stroke-width="0.5"/>
<path d="M-255.947 -14.6982L1805 1164.39" stroke="white" stroke-width="0.5"/>
<path d="M-594.896 -14.6982L1466.05 1164.39" stroke="white" stroke-width="0.5"/>
<path d="M-481.896 -14.6982L1579.05 1164.39" stroke="white" stroke-width="0.5"/>
<path d="M-820.896 -14.6982L1240.05 1164.39" stroke="white" stroke-width="0.5"/>
<path d="M-707.896 -14.6982L1353.05 1164.39" stroke="white" stroke-width="0.5"/>
<path d="M-1046.84 -14.6982L1014.1 1164.39" stroke="white" stroke-width="0.5"/>
<path d="M-933.845 -14.6982L1127.1 1164.39" stroke="white" stroke-width="0.5"/>
<path d="M509 -29.4082L2597.41 1165.39" stroke="white" stroke-width="0.5"/>
<path d="M649.46 -13.6982L2710.41 1165.39" stroke="white" stroke-width="0.5"/>
<path d="M300.281 -19.5508L2371.46 1165.39" stroke="white" stroke-width="0.5"/>
<path d="M423.511 -13.6982L2484.46 1165.39" stroke="white" stroke-width="0.5"/>
<path d="M82.7632 -14.6982L2145.46 1165.38" stroke="white" stroke-width="0.5"/>
<path d="M197.511 -13.6982L2258.46 1165.39" stroke="white" stroke-width="0.5"/>
<path d="M-150.337 -18.79L1919.51 1165.39" stroke="white" stroke-width="0.5"/>
<path d="M-28.438 -13.6982L2032.51 1165.39" stroke="white" stroke-width="0.5"/>
<path d="M1431.72 -18.79L3499.82 1164.39" stroke="white" stroke-width="0.5"/>
<path d="M1551.87 -14.6982L3612.82 1164.39" stroke="white" stroke-width="0.5"/>
<path d="M1212.92 -14.6982L3273.87 1164.39" stroke="white" stroke-width="0.5"/>
<path d="M1325.92 -14.6982L3386.87 1164.39" stroke="white" stroke-width="0.5"/>
<path d="M1770.67 -18.79L3838.77 1164.39" stroke="white" stroke-width="0.5"/>
<path d="M1890.82 -14.6982L3951.77 1164.39" stroke="white" stroke-width="0.5"/>
<path d="M1664.87 -14.6982L3725.82 1164.39" stroke="white" stroke-width="0.5"/>
<path d="M986.921 -14.6982L3047.87 1164.39" stroke="white" stroke-width="0.5"/>
<path d="M1099.92 -14.6982L3160.87 1164.39" stroke="white" stroke-width="0.5"/>
<path d="M760.972 -14.6982L2821.92 1164.39" stroke="white" stroke-width="0.5"/>
<path d="M873.972 -14.6982L2934.92 1164.39" stroke="white" stroke-width="0.5"/>
<path d="M-69.3911 499.038L826.835 -13.6983" stroke="white" stroke-width="0.5"/>
<path d="M-1121.11 1165.38L939.835 -13.6973" stroke="white" stroke-width="0.5"/>
<path d="M-295.34 499.038L600.887 -13.6983" stroke="white" stroke-width="0.5"/>
<path d="M-1347.06 1165.38L713.886 -13.6973" stroke="white" stroke-width="0.5"/>
<path d="M-521.34 499.038L374.887 -13.6983" stroke="white" stroke-width="0.5"/>
<path d="M-1573.06 1165.38L487.886 -13.6973" stroke="white" stroke-width="0.5"/>
<path d="M-747.289 499.038L148.938 -13.6983" stroke="white" stroke-width="0.5"/>
<path d="M-1799.01 1165.38L261.937 -13.6973" stroke="white" stroke-width="0.5"/>
<path d="M-338.855 1170.47L1729.24 -12.6992" stroke="white" stroke-width="0.5"/>
<path d="M-218.703 1166.38L1842.24 -12.6973" stroke="white" stroke-width="0.5"/>
<path d="M-557.651 1166.38L1503.3 -12.6973" stroke="white" stroke-width="0.5"/>
<path d="M-444.651 1166.38L1616.3 -12.6973" stroke="white" stroke-width="0.5"/>
<path d="M-783.651 1166.38L1277.3 -12.6973" stroke="white" stroke-width="0.5"/>
<path d="M-670.651 1166.38L1390.3 -12.6973" stroke="white" stroke-width="0.5"/>
<path d="M-1009.6 1166.38L1051.35 -12.6973" stroke="white" stroke-width="0.5"/>
<path d="M-896.6 1166.38L1164.35 -12.6973" stroke="white" stroke-width="0.5"/>
<path d="M546.245 1181.09L2634.65 -13.6982" stroke="white" stroke-width="0.5"/>
<path d="M686.705 1165.38L2747.65 -13.6973" stroke="white" stroke-width="0.5"/>
<path d="M337.525 1171.23L2408.7 -13.6985" stroke="white" stroke-width="0.5"/>
<path d="M460.756 1165.38L2521.7 -13.6973" stroke="white" stroke-width="0.5"/>
<path d="M120.008 1166.38L2182.7 -13.6972" stroke="white" stroke-width="0.5"/>
<path d="M234.756 1165.38L2295.7 -13.6973" stroke="white" stroke-width="0.5"/>
<path d="M-113.092 1170.47L1956.76 -13.6991" stroke="white" stroke-width="0.5"/>
<path d="M8.80664 1165.38L2069.75 -13.6973" stroke="white" stroke-width="0.5"/>
<path d="M1468.96 1170.47L3537.06 -12.6992" stroke="white" stroke-width="0.5"/>
<path d="M1589.11 1166.38L3650.06 -12.6973" stroke="white" stroke-width="0.5"/>
<path d="M1250.17 1166.38L3311.11 -12.6973" stroke="white" stroke-width="0.5"/>
<path d="M1363.16 1166.38L3424.11 -12.6973" stroke="white" stroke-width="0.5"/>
<path d="M1807.91 1170.47L3876.01 -12.6992" stroke="white" stroke-width="0.5"/>
<path d="M1702.11 1166.38L3763.06 -12.6973" stroke="white" stroke-width="0.5"/>
<path d="M1024.17 1166.38L3085.11 -12.6973" stroke="white" stroke-width="0.5"/>
<path d="M1137.17 1166.38L3198.11 -12.6973" stroke="white" stroke-width="0.5"/>
<path d="M798.216 1166.38L2859.16 -12.6973" stroke="white" stroke-width="0.5"/>
<path d="M911.216 1166.38L2972.16 -12.6973" stroke="white" stroke-width="0.5"/>
</mask>
<g mask="url(#mask0_22956_840)">
<rect width="1919.51" height="1159" fill="url(#paint0_radial_22956_840)"/>
</g>
</g>
<defs>
<radialGradient id="paint0_radial_22956_840" cx="0" cy="0" r="1" gradientUnits="userSpaceOnUse" gradientTransform="translate(985.603 720.794) rotate(91.1328) scale(811.313 1343.68)">
<stop stop-color="#747474"/>
<stop offset="1" stop-color="#363636"/>
</radialGradient>
</defs>
</svg>
