<svg width="1563" height="560" viewBox="0 0 1563 560" fill="none" xmlns="http://www.w3.org/2000/svg">
<circle cx="289.555" cy="371.555" r="1.5" fill="white"/>
<circle cx="337.68" cy="520.043" r="1.5" fill="white"/>
<circle cx="1386.38" cy="464.613" r="1.5" fill="white"/>
<circle cx="1560.66" cy="501.156" r="1.5" fill="white"/>
<circle cx="1514.56" cy="384.039" r="1.5" fill="white"/>
<circle cx="1354.08" cy="250.215" r="1.5" fill="white"/>
<circle cx="1503.98" cy="181.203" r="1.5" fill="white" fill-opacity="0.5"/>
<circle cx="1161.29" cy="526.07" r="1.5" fill="white" fill-opacity="0.5"/>
<circle cx="806.169" cy="140.066" r="1.5" fill="white" fill-opacity="0.5"/>
<circle cx="233" cy="480.07" r="1.5" fill="white" fill-opacity="0.5"/>
<circle cx="2.06934" cy="88.0703" r="1.5" fill="white" fill-opacity="0.5"/>
<circle cx="512.285" cy="536.258" r="1.5" fill="white" fill-opacity="0.5"/>
<path d="M1243.16 314.941L1244.16 317.652L1246.87 318.654L1244.16 319.657L1243.16 322.367L1242.16 319.657L1239.45 318.654L1242.16 317.652L1243.16 314.941Z" fill="white" fill-opacity="0.5"/>
<path d="M1170.5 0.785156L1171.5 3.49527L1174.21 4.49811L1171.5 5.50094L1170.5 8.21106L1169.5 5.50094L1166.79 4.49811L1169.5 3.49527L1170.5 0.785156Z" fill="white"/>
<path d="M1308.74 551.965L1309.75 554.675L1312.46 555.678L1309.75 556.681L1308.74 559.391L1307.74 556.681L1305.03 555.678L1307.74 554.675L1308.74 551.965Z" fill="white"/>
<path d="M598.678 365.855L599.681 368.566L602.391 369.568L599.681 370.571L598.678 373.281L597.675 370.571L594.965 369.568L597.675 368.566L598.678 365.855Z" fill="white"/>
</svg>
