<svg width="1458" height="493" viewBox="0 0 1458 493" fill="none" xmlns="http://www.w3.org/2000/svg">
<circle cx="370.769" cy="272.539" r="1.5" fill="white" fill-opacity="0.5"/>
<circle cx="1145.58" cy="12.7422" r="1.5" fill="white" fill-opacity="0.5"/>
<circle cx="1455.87" cy="242.441" r="1.5" fill="white" fill-opacity="0.5"/>
<circle cx="1116.67" cy="1.74219" r="1.5" fill="white"/>
<circle cx="107.177" cy="76.0664" r="1.5" fill="white"/>
<circle cx="1.99902" cy="229.066" r="1.5" fill="white"/>
<circle cx="1350.66" cy="434.156" r="1.5" fill="white"/>
<circle cx="1350.66" cy="434.156" r="1.5" fill="white"/>
<circle cx="127.68" cy="453.043" r="1.5" fill="white"/>
<circle cx="321.5" cy="365.844" r="1.5" fill="white"/>
<circle cx="79.5547" cy="304.555" r="1.5" fill="white"/>
<path d="M388.678 298.855L389.681 301.566L392.391 302.568L389.681 303.571L388.678 306.281L387.675 303.571L384.965 302.568L387.675 301.566L388.678 298.855Z" fill="white"/>
<path d="M1098.74 484.965L1099.75 487.675L1102.46 488.678L1099.75 489.681L1098.74 492.391L1097.74 489.681L1095.03 488.678L1097.74 487.675L1098.74 484.965Z" fill="white"/>
<path d="M992.182 346.074L993.185 348.784L995.895 349.787L993.185 350.79L992.182 353.5L991.179 350.79L988.469 349.787L991.179 348.784L992.182 346.074Z" fill="white"/>
<path d="M971.031 167L972.381 170.65L976.031 172L972.381 173.35L971.031 177L969.68 173.35L966.031 172L969.68 170.65L971.031 167Z" fill="white"/>
</svg>
